# Alias OBJ Model File
# Exported from SketchUp, (c) 2000-2012 Trimble Navigation Limited
# File units = meters

mtllib Button_TaskIndicators.mtl

g Mesh1 MV1 Model

usemtl FrontColor
v -0.002468 -0.0441333 0.198726
vt -10.5276 0
vn 0 -1 -0
v -0.105801 -0.0441333 0.198726
vt -8.18953 0
v -0.105801 -0.0441333 -0.0754409
vt -8.18953 6.20343
v -0.181079 -0.0441333 0.101504
vt -6.48626 2.1998
v -0.251912 -0.0441333 0.101504
vt -4.88355 2.1998
v -0.32719 -0.0441333 -0.0754409
vt -3.18028 6.20343
v -0.32719 -0.0441333 0.198726
vt -3.18028 0
v -0.424968 -0.0441333 0.198726
vt -0.967911 0
v -0.424968 -0.0441333 -0.214885
vt -0.967911 9.35856
v -0.305246 -0.0441333 -0.214885
vt -3.6768 9.35856
v -0.213579 -0.0441333 -0.0107187
vt -5.7509 4.73899
v -0.12219 -0.0441333 -0.214885
vt -7.81871 9.35856
v -0.002468 -0.0441333 -0.214885
vt -10.5276 9.35856
f 1/1/1 2/2/1 3/3/1 4/4/1 5/5/1 6/6/1 7/7/1 8/8/1 9/9/1 10/10/1 11/11/1 12/12/1 13/13/1 

vt 8.18953 0
vn 0 0 1
vt 10.5276 0
v -0.002468 0.00806665 0.198726
vt 10.5276 1.1811
v -0.105801 0.00806665 0.198726
vt 8.18953 1.1811
f 2/14/2 1/15/2 14/16/2 15/17/2 

vt 0 0
vn 1 0 -0
vt 9.35856 0
v -0.002468 0.00806665 -0.214885
vt 9.35856 1.1811
vt 0 1.1811
f 1/18/3 13/19/3 16/20/3 14/21/3 

vn 0 0 -1
vt -7.81871 0
v -0.12219 0.00806665 -0.214885
vt -7.81871 1.1811
vt -10.5276 1.1811
f 13/1/4 12/22/4 17/23/4 16/24/4 

vt -11.7363 0
vn -0.912733 0 -0.408557
vt -6.675 0
v -0.213579 0.00806665 -0.0107187
vt -6.675 1.1811
vt -11.7363 1.1811
f 12/25/5 11/26/5 18/27/5 17/28/5 

vt 1.96772 0
vn 0.91227 0 -0.40959
vt 7.03155 0
v -0.305246 0.00806665 -0.214885
vt 7.03155 1.1811
vt 1.96772 1.1811
f 11/29/6 10/30/6 19/31/6 18/32/6 

vt -3.6768 0
v -0.424968 0.00806665 -0.214885
vt -0.967911 1.1811
vt -3.6768 1.1811
f 10/33/4 9/8/4 20/34/4 19/35/4 

vt -9.35856 0
vn -1 0 -0
v -0.424968 0.00806665 0.198726
vt -9.35856 1.1811
f 9/36/7 8/18/7 21/21/7 20/37/7 

vt 0.967911 0
vt 3.18028 0
v -0.32719 0.00806665 0.198726
vt 3.18028 1.1811
vt 0.967911 1.1811
f 8/38/2 7/39/2 22/40/2 21/41/2 

vt 6.20343 0
v -0.32719 0.00806665 -0.0754409
vt 6.20343 1.1811
f 7/18/3 6/42/3 23/43/3 22/21/3 

vt -4.46331 0
vn -0.920188 0 0.391477
vt -0.112429 0
v -0.251912 0.00806665 0.101504
vt -0.112429 1.1811
vt -4.46331 1.1811
f 6/44/8 5/45/8 24/46/8 23/47/8 

vt 4.88355 0
vt 6.48626 0
v -0.181079 0.00806665 0.101504
vt 6.48626 1.1811
vt 4.88355 1.1811
f 5/48/2 4/49/2 25/50/2 24/51/2 

vt 4.56345 0
vn 0.920188 0 0.391477
vt 8.91433 0
v -0.105801 0.00806665 -0.0754409
vt 8.91433 1.1811
vt 4.56345 1.1811
f 4/52/9 3/53/9 26/54/9 25/55/9 

vt -6.20343 0
vt -6.20343 1.1811
f 3/56/7 2/18/7 15/21/7 26/57/7 

vn 0 1 -0
vt 10.5276 9.35856
vt 7.81871 9.35856
vt 5.7509 4.73899
vt 3.6768 9.35856
vt 0.967911 9.35856
vt 3.18028 6.20343
vt 4.88355 2.1998
vt 6.48626 2.1998
vt 8.18953 6.20343
f 15/14/10 14/15/10 16/58/10 17/59/10 18/60/10 19/61/10 20/62/10 21/38/10 22/39/10 23/63/10 24/64/10 25/65/10 26/66/10 

g Mesh2 MV1 Model

v 0.428643 -0.0441333 -0.214885
vt -20.2821 9.35856
v 0.286421 -0.0441333 0.198726
vt -17.0641 0
v 0.178088 -0.0441333 0.198726
vt -14.6129 0
v 0.0358653 -0.0441333 -0.214885
vt -11.3949 9.35856
v 0.143643 -0.0441333 -0.214885
vt -13.8336 9.35856
v 0.233643 -0.0441333 0.0653924
vt -15.87 3.01686
v 0.323643 -0.0441333 -0.214885
vt -17.9063 9.35856
f 27/67/1 28/68/1 29/69/1 30/70/1 31/71/1 32/72/1 33/73/1 

vt 5.54872 0
vn 0.945656 0 0.325169
vt 15.4451 0
v 0.428643 0.00806665 -0.214885
vt 15.4451 1.1811
v 0.286421 0.00806665 0.198726
vt 5.54872 1.1811
f 28/74/11 27/75/11 34/76/11 35/77/11 

vt -20.2821 0
vt -17.9063 0
v 0.323643 0.00806665 -0.214885
vt -17.9063 1.1811
vt -20.2821 1.1811
f 27/78/4 33/79/4 36/80/4 34/81/4 

vt -14.385 0
vn -0.952117 0 -0.305734
vt -7.7244 0
v 0.233643 0.00806665 0.0653924
vt -7.7244 1.1811
vt -14.385 1.1811
f 33/82/12 32/83/12 37/84/12 36/85/12 

vt -1.97958 0
vn 0.952117 0 -0.305734
vt 4.68105 0
v 0.143643 0.00806665 -0.214885
vt 4.68105 1.1811
vt -1.97958 1.1811
f 32/86/13 31/87/13 38/88/13 37/89/13 

vt -13.8336 0
vt -11.3949 0
v 0.0358653 0.00806665 -0.214885
vt -11.3949 1.1811
vt -13.8336 1.1811
f 31/90/4 30/91/4 39/92/4 38/93/4 

vt -5.14471 0
vn -0.945656 0 0.325169
vt 4.75167 0
v 0.178088 0.00806665 0.198726
vt 4.75167 1.1811
vt -5.14471 1.1811
f 30/94/14 29/95/14 40/96/14 39/97/14 

vt 14.6129 0
vt 17.0641 0
vt 17.0641 1.1811
vt 14.6129 1.1811
f 29/98/2 28/99/2 35/100/2 40/101/2 

vt 20.2821 9.35856
vt 17.9063 9.35856
vt 15.87 3.01686
vt 13.8336 9.35856
vt 11.3949 9.35856
f 35/99/10 34/102/10 36/103/10 37/104/10 38/105/10 39/106/10 40/98/10 

g Mesh3 TI1 Model

v -0.311862 -0.0441333 0.433934
vt -2.80971 0
v -0.311862 -0.0441333 0.238487
vt -2.80971 7.69476
v -0.383229 -0.0441333 0.238487
vt 0 7.69476
v -0.383229 -0.0441333 0.192423
vt 0 9.5083
v -0.179834 -0.0441333 0.192423
vt -8.00766 9.5083
v -0.179834 -0.0441333 0.238487
vt -8.00766 7.69476
v -0.251201 -0.0441333 0.238487
vt -5.19796 7.69476
v -0.251201 -0.0441333 0.433934
vt -5.19796 0
f 41/107/1 42/108/1 43/109/1 44/110/1 45/111/1 46/112/1 47/113/1 48/114/1 

vt -7.69476 0
v -0.311862 -0.0191333 0.433934
vt 0 0.984252
v -0.311862 -0.0191333 0.238487
vt -7.69476 0.984252
f 42/115/7 41/18/7 49/116/7 50/117/7 

vt 2.80971 0
vt 5.19796 0
v -0.251201 -0.0191333 0.433934
vt 5.19796 0.984252
vt 2.80971 0.984252
f 41/118/2 48/119/2 51/120/2 49/121/2 

vt 7.69476 0
v -0.251201 -0.0191333 0.238487
vt 7.69476 0.984252
f 48/18/3 47/122/3 52/123/3 51/116/3 

vt 8.00766 0
v -0.179834 -0.0191333 0.238487
vt 8.00766 0.984252
f 47/119/2 46/124/2 53/125/2 52/120/2 

vt 9.5083 0
v -0.179834 -0.0191333 0.192423
vt 9.5083 0.984252
f 46/122/3 45/126/3 54/127/3 53/123/3 

vt -8.00766 0
v -0.383229 -0.0191333 0.192423
vt -8.00766 0.984252
f 45/128/4 44/18/4 55/116/4 54/129/4 

vt -9.5083 0
v -0.383229 -0.0191333 0.238487
vt -9.5083 0.984252
f 44/130/7 43/115/7 56/117/7 55/131/7 

f 43/18/2 42/118/2 50/121/2 56/116/2 

vt 2.80971 7.69476
vt 5.19796 7.69476
vt 8.00766 7.69476
vt 8.00766 9.5083
f 50/132/10 49/118/10 51/119/10 52/133/10 53/134/10 54/135/10 55/110/10 56/109/10 

g Mesh4 TI1 Model

v -0.0345059 -0.0441333 0.433934
vt -13.7292 0
v -0.164588 -0.0441333 0.433934
vt -8.60792 0
v -0.164588 -0.0441333 0.391763
vt -8.60792 1.66028
v -0.129878 -0.0441333 0.391763
vt -9.97446 1.66028
v -0.129878 -0.0441333 0.234594
vt -9.97446 7.84802
v -0.164588 -0.0441333 0.234594
vt -8.60792 7.84802
v -0.164588 -0.0441333 0.192423
vt -8.60792 9.5083
v -0.0345059 -0.0441333 0.192423
vt -13.7292 9.5083
v -0.0345059 -0.0441333 0.234594
vt -13.7292 7.84802
v -0.069216 -0.0441333 0.234594
vt -12.3627 7.84802
v -0.069216 -0.0441333 0.391763
vt -12.3627 1.66028
v -0.0345059 -0.0441333 0.391763
vt -13.7292 1.66028
f 57/136/1 58/137/1 59/138/1 60/139/1 61/140/1 62/141/1 63/142/1 64/143/1 65/144/1 66/145/1 67/146/1 68/147/1 

vt 8.60792 0
vt 13.7292 0
v -0.0345059 -0.0191333 0.433934
vt 13.7292 0.984252
v -0.164588 -0.0191333 0.433934
vt 8.60792 0.984252
f 58/148/2 57/149/2 69/150/2 70/151/2 

vt 1.66028 0
v -0.0345059 -0.0191333 0.391763
vt 1.66028 0.984252
f 57/18/3 68/152/3 71/153/3 69/116/3 

vt -12.3627 0
v -0.069216 -0.0191333 0.391763
vt -12.3627 0.984252
vt -13.7292 0.984252
f 68/136/4 67/154/4 72/155/4 71/156/4 

vt 7.84802 0
v -0.069216 -0.0191333 0.234594
vt 7.84802 0.984252
f 67/152/3 66/157/3 73/158/3 72/153/3 

vt 12.3627 0
v -0.0345059 -0.0191333 0.234594
vt 12.3627 0.984252
f 66/159/2 65/149/2 74/150/2 73/160/2 

v -0.0345059 -0.0191333 0.192423
f 65/157/3 64/126/3 75/127/3 74/158/3 

v -0.164588 -0.0191333 0.192423
vt -8.60792 0.984252
f 64/136/4 63/137/4 76/161/4 75/156/4 

vt -7.84802 0
v -0.164588 -0.0191333 0.234594
vt -7.84802 0.984252
f 63/130/7 62/162/7 77/163/7 76/131/7 

vt 9.97446 0
v -0.129878 -0.0191333 0.234594
vt 9.97446 0.984252
f 62/148/2 61/164/2 78/165/2 77/151/2 

vt -1.66028 0
v -0.129878 -0.0191333 0.391763
vt -1.66028 0.984252
f 61/162/7 60/166/7 79/167/7 78/163/7 

vt -9.97446 0
v -0.164588 -0.0191333 0.391763
vt -9.97446 0.984252
f 60/168/4 59/137/4 80/161/4 79/169/4 

f 59/166/7 58/18/7 70/116/7 80/167/7 

vt 13.7292 1.66028
vt 12.3627 1.66028
vt 12.3627 7.84802
vt 13.7292 7.84802
vt 13.7292 9.5083
vt 8.60792 9.5083
vt 8.60792 7.84802
vt 9.97446 7.84802
vt 9.97446 1.66028
vt 8.60792 1.66028
f 70/148/10 69/149/10 71/170/10 72/171/10 73/172/10 74/173/10 75/174/10 76/175/10 77/176/10 78/177/10 79/178/10 80/179/10 

g Mesh5 Model

usemtl Axiom_Blank_Button
v -0.423657 -0.0862393 -0.498415
vt 16.6794 -3.39525
vn 0 2.08971e-15 -1
v -0.423657 0.000125652 -0.498415
vt 16.6794 0.00494693
v 0.422141 0.000125652 -0.498415
vt -16.6197 0.00494693
v 0.422141 -0.0862393 -0.498415
vt -16.6197 -3.39525
f 81/180/15 82/181/15 83/182/15 84/183/15 

vt -2.08118 -3.39525
vn -0.707107 7.33349e-16 -0.707107
v -0.500758 -0.0862393 -0.421314
vt 2.21163 -3.39525
v -0.500758 0.000125652 -0.421314
vt 2.21163 0.00494693
vt -2.08118 0.00494693
f 81/184/16 85/185/16 86/186/16 82/187/16 

v 0.422141 -0.0862393 0.501585
vt -16.6197 -19.7474
vn -5.38016e-07 -1 5.38016e-07
v -0.423657 -0.0862383 0.501585
vt 16.6794 -19.7474
v -0.500758 -0.0862383 0.424484
vt 19.7149 -16.712
vt 19.7149 16.5872
vt 16.6794 19.6226
vt -16.6197 19.6226
v 0.499242 -0.0862393 -0.421314
vt -19.6552 16.5872
v 0.499242 -0.0862393 0.424484
vt -19.6552 -16.712
f 87/188/17 88/189/17 89/190/17 85/191/17 81/192/17 84/193/17 90/194/17 91/195/17 

v -0.423657 0.000125652 0.501585
vt -16.6794 0.00494693
vn -2.13378e-16 6.26918e-15 1
vt -16.6794 -3.39521
vt 16.6197 -3.39525
v 0.422141 0.000125652 0.501585
vt 16.6197 0.00494693
f 92/196/18 88/197/18 87/198/18 93/199/18 

vt 2.16943 0.00494693
vn -0.707107 1.49389e-15 0.707107
v -0.500758 0.000125652 0.424484
vt -2.12338 0.00494693
vt -2.12338 -3.39521
vt 2.16943 -3.39521
f 92/200/19 94/201/19 89/202/19 88/203/19 

v -0.471656 0.000125652 0.412429
vt -18.5691 -16.2374
vn -7.67855e-49 1 1.61752e-16
vt -19.7149 -16.712
vt -16.6794 -19.7474
f 95/204/20 94/205/20 92/206/20

vt -19.7149 16.5872
f 94/205/20 95/204/20 86/207/20

v -0.471656 0.000125652 -0.409259
vt -18.5691 16.1126
f 96/208/20 86/207/20 95/204/20

vt -16.6794 19.6226
f 86/207/20 96/208/20 82/209/20

v -0.411602 0.000125652 -0.469313
vt -16.2048 18.4769
f 82/209/20 96/208/20 97/210/20

v -0.442553 -0.0441333 -0.397205
vt -1.26243 11.3923
vn 0.590823 0.549414 0.590823
v -0.399548 -0.0441333 -0.44021
vt 1.13198 11.3923
vt 1.60661 13.4778
vt -1.73706 13.4778
f 98/211/21 99/212/21 97/213/21 96/214/21 

v 0.441037 -0.0441333 0.400375
vt 17.3637 -15.7628
vn 6.02983e-32 1 3.34912e-16
v 0.441037 -0.0441333 -0.397205
vt 17.3637 15.638
v 0.398032 -0.0441333 -0.44021
vt 15.6706 17.3311
vt -15.7302 17.3311
vt -17.4233 15.638
v -0.442553 -0.0441333 0.400375
vt -17.4233 -15.7628
v -0.399548 -0.0441333 0.44338
vt -15.7302 -17.4559
v 0.398032 -0.0441333 0.44338
vt 15.6706 -17.4559
f 100/215/22 101/216/22 102/217/22 99/218/22 98/219/22 103/220/22 104/221/22 105/222/22 

vt 15.7628 8.08819
vn -0.835545 0.549422 2.93628e-16
v 0.47014 0.000125652 0.412429
vt 16.2374 10.1736
v 0.47014 0.000125652 -0.409259
vt -16.1126 10.1736
vt -15.638 8.08819
f 100/223/23 106/224/23 107/225/23 101/226/23 

vt 1.26243 11.4176
vn -0.590823 0.549414 -0.590823
v 0.410086 0.000125652 0.472483
vt 1.73706 13.5031
vt -1.60661 13.5031
vt -1.13198 11.4176
f 105/227/24 108/228/24 106/229/24 100/230/24 

vt -16.1451 10.2243
vn 4.60228e-19 0.549422 -0.835545
vt -15.6706 8.13887
vt 15.7302 8.13887
v -0.411602 0.000125652 0.472483
vt 16.2048 10.2243
f 108/231/25 105/232/25 104/233/25 109/234/25 

vt -1.22024 11.4408
vn 0.590823 0.549414 -0.590823
vt 1.17418 11.4408
vt 1.64881 13.5263
vt -1.69486 13.5263
f 104/235/26 103/236/26 95/237/26 109/238/26 

vt -15.7628 8.12098
vn 0.835545 0.549422 2.95049e-16
vt 15.638 8.12098
vt 16.1126 10.2064
vt -16.2374 10.2064
f 103/239/27 98/240/27 96/241/27 95/242/27 

vt -16.2048 -18.6017
f 95/204/20 92/206/20 109/243/20

vt 16.6197 -19.7474
f 109/243/20 92/206/20 93/244/20

vt 16.1451 -18.6017
f 109/243/20 93/244/20 108/245/20

vt 18.5095 -16.2374
f 108/245/20 93/244/20 106/246/20

v 0.499242 0.000125652 0.424484
vt 19.6552 -16.712
f 106/246/20 93/244/20 110/247/20

vt 2.08118 -3.39525
vn 0.707107 2.96056e-15 0.707107
vt 2.08118 0.00494693
vt -2.21163 0.00494693
vt -2.21163 -3.39525
f 91/248/28 110/249/28 93/250/28 87/251/28 

vt 16.5872 -3.39525
v 0.499242 0.000125652 -0.421314
vt 16.5872 0.00494693
vt -16.712 0.00494693
vt -16.712 -3.39525
f 90/252/3 111/253/3 110/254/3 91/255/3 

vt -2.16943 0.00494693
vn 0.707107 7.33349e-16 -0.707107
vt -2.16943 -3.39525
vt 2.12338 -3.39525
vt 2.12338 0.00494693
f 111/256/29 90/257/29 84/258/29 83/259/29 

vt 16.6197 19.6226
vt 18.5095 16.1126
vt 19.6552 16.5872
f 83/260/20 107/261/20 111/262/20

v 0.410086 0.000125652 -0.469313
vt 16.1451 18.4769
f 83/260/20 112/263/20 107/261/20

f 83/260/20 97/210/20 112/263/20

f 82/209/20 97/210/20 83/260/20

vt 15.6706 8.0703
vn 4.60228e-19 0.549422 0.835545
vt 16.1451 10.1557
vt -16.2048 10.1557
vt -15.7302 8.0703
f 102/264/30 112/265/30 97/266/30 99/267/30 

vt -1.64881 13.4546
vn -0.590823 0.549414 0.590823
vt -1.17418 11.3692
vt 1.22024 11.3692
vt 1.69486 13.4546
f 112/268/31 102/269/31 101/270/31 107/271/31 

f 111/262/20 107/261/20 110/247/20

f 106/246/20 110/247/20 107/261/20

vt 16.712 0.00494693
vt -16.5872 0.00494693
vt -16.5872 -3.39525
vt 16.712 -3.39521
f 94/272/7 86/273/7 85/274/7 89/275/7 

