# Blender v3.1.2 OBJ File: 'C-ARMSAS.blend'
# www.blender.org
mtllib CM_-_T.mtl
o SM_CM_-_T_mesh.031
v -0.256006 0.261577 0.014590
v 0.291626 0.330031 0.014606
v -0.256006 0.330031 0.014606
v -0.016417 0.261577 0.014590
v 0.034923 0.261577 0.014590
v -0.016417 -0.183373 0.014482
v 0.291626 0.261577 0.014590
v 0.034924 -0.183373 0.014482
v -0.256006 0.330023 0.047400
v -0.256006 0.261569 0.047383
v 0.291626 0.330023 0.047400
v 0.291626 0.261569 0.047383
v 0.034924 0.261569 0.047383
v 0.034924 -0.183381 0.047275
v -0.016417 -0.183381 0.047275
v -0.016417 0.261569 0.047383
vt 0.577371 0.777762
vt 0.582209 0.853785
vt 0.582209 0.777762
vt 0.606404 0.865481
vt 0.606404 0.853785
vt 0.582209 0.853785
vt 0.606404 0.865481
vt 0.577371 0.853785
vt 0.554789 0.853785
vt 0.554789 0.865481
vt 0.554789 0.853785
vt 0.554789 0.853785
vt 0.554789 0.865481
vt 0.554789 0.865481
vt 0.606404 0.865481
vt 0.606404 0.865481
vt 0.554789 0.865481
vt 0.606404 0.865481
vt 0.606404 0.853785
vt 0.582209 0.853785
vt 0.606404 0.853785
vt 0.606404 0.853785
vt 0.582209 0.853785
vt 0.582209 0.853785
vt 0.582209 0.777762
vt 0.577371 0.777762
vt 0.582209 0.777762
vt 0.582209 0.777762
vt 0.577371 0.853785
vt 0.582209 0.853785
vt 0.606404 0.865481
vt 0.582209 0.853785
vt 0.582209 0.853785
vt 0.582209 0.853785
vt 0.582209 0.853785
vt 0.582209 0.853785
vt 0.582209 0.853785
vt 0.582209 0.853785
vt 0.582209 0.853785
vt 0.582209 0.853785
vn -0.0000 -0.0002 1.0000
vn 1.0000 0.0000 0.0000
vn 0.0000 -1.0000 -0.0002
vn -1.0000 0.0000 0.0000
vn -0.0000 1.0000 0.0002
vn 0.0000 0.0002 -1.0000
usemtl White.203
s 1
f 1/1/1 2/2/1 3/3/1
f 2/4/1 1/5/1 4/6/1
f 5/7/1 4/6/1 6/8/1
f 6/9/1 8/10/1 5/7/1
f 9/11/2 1/12/2 3/13/2
f 2/14/3 9/15/3 3/16/3
f 9/15/3 2/14/3 11/17/3
f 12/18/4 2/4/4 7/19/4
f 12/20/5 5/21/5 13/22/5
f 14/23/4 5/24/4 8/25/4
f 14/26/5 6/27/5 15/28/5
f 10/29/6 11/30/6 16/31/6
f 2/2/6 7/32/6 5/24/6
f 2/2/6 5/24/6 4/6/6
f 1/33/4 10/34/4 9/35/4
f 2/2/2 11/30/2 12/20/2
f 5/24/3 7/32/3 12/20/3
f 5/24/2 13/36/2 14/23/2
f 6/37/3 8/38/3 14/23/3
f 16/39/4 4/6/4 6/37/4
f 6/37/4 15/40/4 16/39/4
f 16/39/3 10/34/3 1/33/3
f 1/33/3 4/6/3 16/39/3
f 13/36/1 12/20/1 11/30/1
f 16/39/1 14/23/1 13/36/1
f 16/39/1 13/36/1 11/30/1
f 11/30/1 9/35/1 10/34/1
f 16/39/1 15/40/1 14/23/1
o Button_ID3
v -0.423657 0.620224 -0.027144
v 0.422141 0.620245 -0.113509
v -0.423657 0.620245 -0.113509
v 0.422141 0.620224 -0.027144
v 0.422141 0.620224 -0.027144
v -0.423657 0.620224 -0.027144
v 0.422141 0.620245 -0.113509
v -0.423657 0.620245 -0.113509
v -0.500758 0.543144 -0.113527
v -0.423657 0.620224 -0.027144
v -0.423657 0.620245 -0.113509
v -0.500758 0.543123 -0.027162
v -0.500758 0.543123 -0.027162
v -0.500758 0.543144 -0.113527
v -0.423657 0.620224 -0.027144
v -0.423657 0.620245 -0.113509
v -0.500758 -0.302675 -0.027368
v -0.471656 -0.290620 -0.027365
v -0.500758 0.543123 -0.027162
v -0.423657 -0.379776 -0.027387
v -0.411602 -0.350674 -0.027380
v 0.422141 -0.379776 -0.027387
v 0.410086 -0.350674 -0.027380
v 0.470140 -0.290620 -0.027365
v 0.499242 -0.302675 -0.027368
v 0.470140 0.531068 -0.027165
v -0.471656 0.531068 -0.027165
v -0.423657 0.620224 -0.027144
v -0.411602 0.591122 -0.027151
v 0.422141 0.620224 -0.027144
v 0.410086 0.591122 -0.027151
v 0.499242 0.543123 -0.027162
v 0.499242 -0.302675 -0.027368
v 0.470140 0.531068 -0.027165
v 0.499242 0.543123 -0.027162
v 0.422141 0.620224 -0.027144
v 0.410086 0.591122 -0.027151
v -0.411602 0.591122 -0.027151
v -0.423657 0.620224 -0.027144
v -0.471656 0.531068 -0.027165
v -0.471656 -0.290620 -0.027365
v -0.500758 0.543123 -0.027162
v 0.470140 -0.290620 -0.027365
v 0.422141 -0.379776 -0.027387
v 0.410086 -0.350674 -0.027380
v -0.411602 -0.350674 -0.027380
v -0.423657 -0.379776 -0.027387
v -0.500758 -0.302675 -0.027368
v 0.422141 0.620224 -0.027144
v 0.499242 0.543144 -0.113527
v 0.422141 0.620245 -0.113509
v 0.499242 0.543123 -0.027162
v 0.499242 0.543123 -0.027162
v 0.422141 0.620224 -0.027144
v 0.499242 0.543144 -0.113527
v 0.422141 0.620245 -0.113509
v -0.423657 0.620245 -0.113509
v -0.500758 -0.302654 -0.113732
v -0.500758 0.543144 -0.113527
v -0.423657 -0.379755 -0.113751
v 0.422141 0.620245 -0.113509
v 0.422141 -0.379755 -0.113752
v 0.499242 0.543144 -0.113527
v 0.499242 -0.302654 -0.113733
v 0.499242 -0.302654 -0.113733
v 0.499242 0.543144 -0.113527
v 0.422141 -0.379755 -0.113752
v 0.422141 0.620245 -0.113509
v -0.423657 -0.379755 -0.113751
v -0.423657 0.620245 -0.113509
v -0.500758 -0.302654 -0.113732
v -0.500758 0.543144 -0.113527
v -0.500758 0.543123 -0.027162
v -0.500758 -0.302654 -0.113732
v -0.500758 -0.302675 -0.027368
v -0.500758 0.543144 -0.113527
v -0.500758 0.543144 -0.113527
v -0.500758 0.543123 -0.027162
v -0.500758 -0.302654 -0.113732
v -0.500758 -0.302675 -0.027368
v 0.499242 -0.302675 -0.027368
v 0.422141 -0.379755 -0.113752
v 0.499242 -0.302654 -0.113733
v 0.422141 -0.379776 -0.027387
v 0.422141 -0.379776 -0.027387
v 0.499242 -0.302675 -0.027368
v 0.422141 -0.379755 -0.113752
v 0.499242 -0.302654 -0.113733
v 0.499242 0.543144 -0.113527
v 0.499242 -0.302675 -0.027368
v 0.499242 -0.302654 -0.113733
v 0.499242 0.543123 -0.027162
v 0.499242 0.543123 -0.027162
v 0.499242 0.543144 -0.113527
v 0.499242 -0.302675 -0.027368
v 0.499242 -0.302654 -0.113733
v -0.423657 -0.379776 -0.027387
v -0.500758 -0.302654 -0.113732
v -0.423657 -0.379755 -0.113751
v -0.500758 -0.302675 -0.027368
v -0.500758 -0.302675 -0.027368
v -0.423657 -0.379776 -0.027387
v -0.500758 -0.302654 -0.113732
v -0.423657 -0.379755 -0.113751
v 0.422141 -0.379776 -0.027387
v -0.423657 -0.379755 -0.113751
v 0.422141 -0.379755 -0.113752
v -0.423657 -0.379776 -0.027387
v -0.423657 -0.379776 -0.027387
v 0.422141 -0.379776 -0.027387
v -0.423657 -0.379755 -0.113751
v 0.422141 -0.379755 -0.113752
vn 0.0000 1.0000 0.0002
vn -0.7071 0.7071 0.0002
vn 0.0000 -0.0002 1.0000
vn 0.7071 0.7071 0.0002
vn 0.0000 0.0002 -1.0000
vn -1.0000 0.0000 0.0000
vn 0.7071 -0.7071 -0.0002
vn 1.0000 0.0000 0.0000
vn -0.7071 -0.7071 -0.0002
vn -0.0000 -1.0000 -0.0002
usemtl Axiom_Blank_Button
s off
f 17//7 18//7 19//7
f 18//7 17//7 20//7
f 25//8 26//8 27//8
f 26//8 25//8 28//8
f 33//9 34//9 35//9
f 34//9 33//9 36//9
f 34//9 36//9 37//9
f 37//9 36//9 38//9
f 37//9 38//9 39//9
f 39//9 38//9 40//9
f 40//9 38//9 41//9
f 40//9 41//9 42//9
f 35//9 43//9 44//9
f 43//9 35//9 34//9
f 44//9 43//9 45//9
f 44//9 45//9 46//9
f 46//9 45//9 47//9
f 46//9 47//9 42//9
f 46//9 42//9 48//9
f 48//9 42//9 41//9
f 65//10 66//10 67//10
f 66//10 65//10 68//10
f 73//11 74//11 75//11
f 74//11 73//11 76//11
f 76//11 73//11 77//11
f 76//11 77//11 78//11
f 78//11 77//11 79//11
f 78//11 79//11 80//11
f 89//12 90//12 91//12
f 90//12 89//12 92//12
f 97//13 98//13 99//13
f 98//13 97//13 100//13
f 105//14 106//14 107//14
f 106//14 105//14 108//14
f 113//15 114//15 115//15
f 114//15 113//15 116//15
f 121//16 122//16 123//16
f 122//16 121//16 124//16
usemtl __auto_
f 21//16 22//16 23//16
f 24//16 23//16 22//16
f 29//13 30//13 31//13
f 32//13 31//13 30//13
f 49//11 50//11 51//11
f 51//11 50//11 52//11
f 50//11 53//11 52//11
f 53//11 54//11 52//11
f 52//11 54//11 55//11
f 54//11 56//11 55//11
f 57//11 58//11 56//11
f 55//11 56//11 58//11
f 50//11 49//11 59//11
f 49//11 60//11 59//11
f 59//11 60//11 61//11
f 61//11 60//11 62//11
f 60//11 63//11 62//11
f 62//11 63//11 57//11
f 63//11 64//11 57//11
f 58//11 57//11 64//11
f 69//15 70//15 71//15
f 72//15 71//15 70//15
f 81//9 82//9 83//9
f 82//9 84//9 83//9
f 83//9 84//9 85//9
f 84//9 86//9 85//9
f 85//9 86//9 87//9
f 88//9 87//9 86//9
f 93//14 94//14 95//14
f 96//14 95//14 94//14
f 101//8 102//8 103//8
f 104//8 103//8 102//8
f 109//12 110//12 111//12
f 112//12 111//12 110//12
f 117//10 118//10 119//10
f 120//10 119//10 118//10
f 125//7 126//7 127//7
f 128//7 127//7 126//7
o Button.001_ID13
v 0.470140 0.531068 -0.027165
v 0.441037 -0.278555 -0.071621
v 0.470140 -0.290620 -0.027365
v 0.441037 0.519025 -0.071427
v 0.441037 0.519025 -0.071427
v 0.470140 0.531068 -0.027165
v 0.441037 -0.278555 -0.071621
v 0.470140 -0.290620 -0.027365
v 0.470140 -0.290620 -0.027365
v 0.398032 -0.321560 -0.071632
v 0.410086 -0.350674 -0.027380
v 0.441037 -0.278555 -0.071621
v 0.441037 -0.278555 -0.071621
v 0.470140 -0.290620 -0.027365
v 0.398032 -0.321560 -0.071632
v 0.410086 -0.350674 -0.027380
v 0.470140 0.531068 -0.027165
v 0.398032 0.562030 -0.071417
v 0.441037 0.519025 -0.071427
v 0.410086 0.591122 -0.027151
v 0.410086 0.591122 -0.027151
v 0.470140 0.531068 -0.027165
v 0.398032 0.562030 -0.071417
v 0.441037 0.519025 -0.071427
v -0.399548 -0.321560 -0.071632
v -0.442553 0.519025 -0.071427
v -0.442553 -0.278555 -0.071621
v -0.399548 0.562030 -0.071417
v 0.398032 -0.321560 -0.071632
v 0.398032 0.562030 -0.071417
v 0.441037 -0.278555 -0.071621
v 0.441037 0.519025 -0.071427
v 0.441037 0.519025 -0.071427
v 0.441037 -0.278555 -0.071621
v 0.398032 0.562030 -0.071417
v 0.398032 -0.321560 -0.071632
v -0.399548 0.562030 -0.071417
v -0.399548 -0.321560 -0.071632
v -0.442553 0.519025 -0.071427
v -0.442553 -0.278555 -0.071621
v -0.411602 -0.350674 -0.027380
v 0.398032 -0.321560 -0.071632
v -0.399548 -0.321560 -0.071632
v 0.410086 -0.350674 -0.027380
v 0.410086 -0.350674 -0.027380
v -0.411602 -0.350674 -0.027380
v 0.398032 -0.321560 -0.071632
v -0.399548 -0.321560 -0.071632
v 0.410086 0.591122 -0.027151
v -0.399548 0.562030 -0.071417
v 0.398032 0.562030 -0.071417
v -0.411602 0.591122 -0.027151
v -0.411602 0.591122 -0.027151
v 0.410086 0.591122 -0.027151
v -0.399548 0.562030 -0.071417
v 0.398032 0.562030 -0.071417
v -0.399548 0.562030 -0.071417
v -0.471656 0.531068 -0.027165
v -0.442553 0.519025 -0.071427
v -0.411602 0.591122 -0.027151
v -0.411602 0.591122 -0.027151
v -0.399548 0.562030 -0.071417
v -0.471656 0.531068 -0.027165
v -0.442553 0.519025 -0.071427
v -0.442553 -0.278555 -0.071621
v -0.471656 0.531068 -0.027165
v -0.471656 -0.290620 -0.027365
v -0.442553 0.519025 -0.071427
v -0.442553 0.519025 -0.071427
v -0.442553 -0.278555 -0.071621
v -0.471656 0.531068 -0.027165
v -0.471656 -0.290620 -0.027365
v -0.442553 -0.278555 -0.071621
v -0.411602 -0.350674 -0.027380
v -0.399548 -0.321560 -0.071632
v -0.471656 -0.290620 -0.027365
v -0.471656 -0.290620 -0.027365
v -0.442553 -0.278555 -0.071621
v -0.411602 -0.350674 -0.027380
v -0.399548 -0.321560 -0.071632
vn -0.8355 -0.0001 0.5494
vn -0.5908 0.5907 0.5496
vn -0.5908 -0.5910 0.5493
vn 0.0000 -0.0002 1.0000
vn 0.0000 0.8354 0.5496
vn 0.0000 -0.8357 0.5492
vn 0.5908 -0.5910 0.5493
vn 0.8355 -0.0001 0.5494
vn 0.5908 0.5907 0.5496
vn 0.8355 0.0001 -0.5494
vn 0.5908 -0.5907 -0.5496
vn 0.5908 0.5910 -0.5493
vn 0.0000 0.0002 -1.0000
vn 0.0000 -0.8354 -0.5496
vn 0.0000 0.8357 -0.5492
vn -0.5908 0.5910 -0.5493
vn -0.8355 0.0001 -0.5494
vn -0.5908 -0.5907 -0.5496
usemtl Axiom_Blank_Button
s off
f 129//17 130//17 131//17
f 130//17 129//17 132//17
f 137//18 138//18 139//18
f 138//18 137//18 140//18
f 145//19 146//19 147//19
f 146//19 145//19 148//19
f 153//20 154//20 155//20
f 154//20 153//20 156//20
f 156//20 153//20 157//20
f 156//20 157//20 158//20
f 158//20 157//20 159//20
f 158//20 159//20 160//20
f 169//21 170//21 171//21
f 170//21 169//21 172//21
f 177//22 178//22 179//22
f 178//22 177//22 180//22
f 185//23 186//23 187//23
f 186//23 185//23 188//23
f 193//24 194//24 195//24
f 194//24 193//24 196//24
f 201//25 202//25 203//25
f 202//25 201//25 204//25
usemtl __auto_
f 133//26 134//26 135//26
f 136//26 135//26 134//26
f 141//27 142//27 143//27
f 144//27 143//27 142//27
f 149//28 150//28 151//28
f 152//28 151//28 150//28
f 161//29 162//29 163//29
f 162//29 164//29 163//29
f 163//29 164//29 165//29
f 164//29 166//29 165//29
f 165//29 166//29 167//29
f 168//29 167//29 166//29
f 173//30 174//30 175//30
f 176//30 175//30 174//30
f 181//31 182//31 183//31
f 184//31 183//31 182//31
f 189//32 190//32 191//32
f 192//32 191//32 190//32
f 197//33 198//33 199//33
f 200//33 199//33 198//33
f 205//34 206//34 207//34
f 208//34 207//34 206//34
