# Blender v3.1.2 OBJ File: 'C-ARMSAS.blend'
# www.blender.org
mtllib CM_-_Boxes.mtl
o SM_CM_-_Boxes_path1763-2.070
v 0.370855 0.072165 0.069409
v 0.043901 0.072165 0.069409
v -0.024314 0.072165 0.069409
v -0.363418 0.072165 0.069409
v -0.001626 0.070060 0.069409
v -0.008005 0.076572 0.069410
v -0.001626 0.076572 0.069410
v 0.009942 0.070060 0.069409
v 0.015134 0.076572 0.069410
v 0.043901 0.072175 0.025751
v 0.370855 0.074475 0.025752
v -0.363418 0.072175 0.025751
v -0.008005 0.076573 0.064528
v -0.001626 0.076573 0.064528
v 0.003566 0.070062 0.064526
v 0.009942 0.076573 0.064528
v 0.015134 0.070062 0.064526
v -0.001626 0.070062 0.064526
v -0.008005 0.070062 0.064526
v -0.008005 0.070060 0.069409
v 0.009942 0.070062 0.064526
v 0.003566 0.070060 0.069409
v 0.003566 0.076573 0.064528
v 0.003566 0.076572 0.069410
v 0.009942 0.076572 0.069410
v 0.021510 0.070062 0.064526
v 0.021510 0.070060 0.069409
v 0.015134 0.070060 0.069409
v 0.015134 0.076573 0.064528
v 0.021510 0.076573 0.064528
v 0.021510 0.076572 0.069410
v -0.024314 0.072175 0.025751
v -0.363418 0.074475 0.025752
v -0.363418 0.074465 0.069410
v -0.024314 0.074475 0.025752
v -0.024314 0.074465 0.069410
v 0.370855 0.072175 0.025751
v 0.043901 0.074475 0.025752
v 0.043901 0.074465 0.069410
v 0.370855 0.074465 0.069410
v 0.027989 0.062618 0.062728
v 0.027988 0.083796 0.062733
v -0.014212 0.062618 0.062728
v -0.014214 0.083796 0.062733
v -0.013535 0.083297 0.065972
v -0.013533 0.063115 0.065967
v 0.027309 0.083297 0.065972
v 0.027310 0.063115 0.065967
vt 0.473684 0.000000
vt 0.578947 0.000000
vt 0.526316 0.000000
vt 0.421053 0.000000
vt 0.684211 0.000000
vt 0.789474 0.000000
vt 0.736842 0.000000
vt 0.631579 0.000000
vt 0.894737 0.000000
vt 1.000000 0.000000
vt 0.947368 0.000000
vt 0.842105 0.000000
vt 0.578947 0.000000
vt 0.473684 0.000000
vt 0.526316 0.000000
vt 0.421053 0.000000
vt 0.789474 0.000000
vt 0.684211 0.000000
vt 0.736842 0.000000
vt 0.631579 0.000000
vt 1.000000 0.000000
vt 0.894737 0.000000
vt 0.947368 0.000000
vt 0.842105 0.000000
vt 0.000000 1.000000
vt 0.250000 1.000000
vt 0.250000 0.000000
vt 0.000000 0.000000
vt 0.500000 1.000000
vt 0.500000 0.000000
vt 0.750000 1.000000
vt 0.750000 0.000000
vt 1.000000 1.000000
vt 1.000000 0.000000
vt 0.000000 1.000000
vt 0.250000 1.000000
vt 0.250000 0.000000
vt 0.000000 0.000000
vt 0.500000 1.000000
vt 0.500000 0.000000
vt 0.750000 1.000000
vt 0.750000 0.000000
vt 1.000000 1.000000
vt 1.000000 0.000000
vt 0.000000 1.000000
vt 0.250000 1.000000
vt 0.250000 0.000000
vt 0.000000 0.000000
vt 0.500000 1.000000
vt 0.500000 0.000000
vt 0.750000 1.000000
vt 0.750000 0.000000
vt 1.000000 1.000000
vt 1.000000 0.000000
vt 0.000000 0.000000
vt 0.000000 0.000000
vt 0.000000 0.000000
vt 0.000000 0.000000
vt 0.000000 0.000000
vt 0.000000 0.000000
vt 0.000000 0.000000
vt 0.000000 0.000000
vt 0.263158 0.000000
vt 0.368421 0.000000
vt 0.315789 0.000000
vt 0.210526 0.000000
vt 0.052632 0.000000
vt 0.157895 0.000000
vt 0.105263 0.000000
vt 0.000000 0.000000
vt 0.368421 0.000000
vt 0.263158 0.000000
vt 0.315789 0.000000
vt 0.210526 0.000000
vt 0.157895 0.000000
vt 0.052632 0.000000
vt 0.105263 0.000000
vt 0.000000 0.000000
vt 0.000000 1.000000
vt 0.250000 1.000000
vt 0.250000 0.000000
vt 0.000000 0.000000
vt 0.500000 1.000000
vt 0.500000 0.000000
vt 0.750000 1.000000
vt 0.750000 0.000000
vt 1.000000 1.000000
vt 1.000000 0.000000
vt 0.000000 1.000000
vt 0.250000 1.000000
vt 0.250000 0.000000
vt 0.500000 1.000000
vt 0.500000 0.000000
vt 0.750000 1.000000
vt 0.750000 0.000000
vt 1.000000 1.000000
vt 1.000000 0.000000
vn 0.0000 -0.0002 1.0000
vn 0.0000 0.0002 -1.0000
vn 0.0000 -1.0000 -0.0002
vn -1.0000 0.0000 0.0000
vn 0.0000 1.0000 0.0002
vn 1.0000 0.0000 0.0000
vn 0.0000 -0.9884 0.1518
vn 0.0000 0.9883 0.1522
vn 0.9787 0.0000 0.2052
vn -0.9787 -0.0001 0.2052
usemtl Text.163
s 1
f 20/1/1 7/2/1 6/3/1
f 20/1/1 5/4/1 7/2/1
f 22/5/1 25/6/1 24/7/1
f 22/5/1 8/8/1 25/6/1
f 28/9/1 31/10/1 9/11/1
f 28/9/1 27/12/1 31/10/1
f 14/13/2 19/14/2 13/15/2
f 18/16/2 19/14/2 14/13/2
f 16/17/2 15/18/2 23/19/2
f 21/20/2 15/18/2 16/17/2
f 30/21/2 17/22/2 29/23/2
f 26/24/2 17/22/2 30/21/2
f 5/25/3 20/26/3 19/27/3 18/28/3
f 20/26/4 6/29/4 13/30/4 19/27/4
f 6/29/5 7/31/5 14/32/5 13/30/5
f 7/31/6 5/33/6 18/34/6 14/32/6
f 8/35/3 22/36/3 15/37/3 21/38/3
f 22/36/4 24/39/4 23/40/4 15/37/4
f 24/39/5 25/41/5 16/42/5 23/40/5
f 25/41/6 8/43/6 21/44/6 16/42/6
f 27/45/3 28/46/3 17/47/3 26/48/3
f 28/46/4 9/49/4 29/50/4 17/47/4
f 9/49/5 31/51/5 30/52/5 29/50/5
f 31/51/6 27/53/6 26/54/6 30/52/6
usemtl Outline.163
f 48/55/7 46/56/7 43/57/7 41/58/7
f 45/59/8 47/60/8 42/61/8 44/62/8
f 47/60/9 48/55/9 41/58/9 42/61/9
f 43/57/2 44/62/2 42/61/2 41/58/2
f 46/56/10 45/59/10 44/62/10 43/57/10
f 46/56/1 48/55/1 47/60/1 45/59/1
usemtl White.163
f 4/63/1 36/64/1 34/65/1
f 4/63/1 3/66/1 36/64/1
f 2/67/1 40/68/1 39/69/1
f 2/67/1 1/70/1 40/68/1
f 35/71/2 12/72/2 33/73/2
f 32/74/2 12/72/2 35/71/2
f 11/75/2 10/76/2 38/77/2
f 37/78/2 10/76/2 11/75/2
f 3/79/3 4/80/3 12/81/3 32/82/3
f 4/80/4 34/83/4 33/84/4 12/81/4
f 34/83/5 36/85/5 35/86/5 33/84/5
f 36/85/6 3/87/6 32/88/6 35/86/6
f 1/89/3 2/90/3 10/91/3 37/78/3
f 2/90/4 39/92/4 38/93/4 10/91/4
f 39/92/5 40/94/5 11/95/5 38/93/5
f 40/94/6 1/96/6 37/97/6 11/95/6
o Button_ID3
v -0.423657 0.620224 -0.027144
v 0.422141 0.620245 -0.113509
v -0.423657 0.620245 -0.113509
v 0.422141 0.620224 -0.027144
v 0.422141 0.620224 -0.027144
v -0.423657 0.620224 -0.027144
v 0.422141 0.620245 -0.113509
v -0.423657 0.620245 -0.113509
v -0.500758 0.543144 -0.113527
v -0.423657 0.620224 -0.027144
v -0.423657 0.620245 -0.113509
v -0.500758 0.543123 -0.027162
v -0.500758 0.543123 -0.027162
v -0.500758 0.543144 -0.113527
v -0.423657 0.620224 -0.027144
v -0.423657 0.620245 -0.113509
v -0.500758 -0.302675 -0.027368
v -0.471656 -0.290620 -0.027365
v -0.500758 0.543123 -0.027162
v -0.423657 -0.379776 -0.027387
v -0.411602 -0.350674 -0.027380
v 0.422141 -0.379776 -0.027387
v 0.410086 -0.350674 -0.027380
v 0.470140 -0.290620 -0.027365
v 0.499242 -0.302675 -0.027368
v 0.470140 0.531068 -0.027165
v -0.471656 0.531068 -0.027165
v -0.423657 0.620224 -0.027144
v -0.411602 0.591122 -0.027151
v 0.422141 0.620224 -0.027144
v 0.410086 0.591122 -0.027151
v 0.499242 0.543123 -0.027162
v 0.499242 -0.302675 -0.027368
v 0.470140 0.531068 -0.027165
v 0.499242 0.543123 -0.027162
v 0.422141 0.620224 -0.027144
v 0.410086 0.591122 -0.027151
v -0.411602 0.591122 -0.027151
v -0.423657 0.620224 -0.027144
v -0.471656 0.531068 -0.027165
v -0.471656 -0.290620 -0.027365
v -0.500758 0.543123 -0.027162
v 0.470140 -0.290620 -0.027365
v 0.422141 -0.379776 -0.027387
v 0.410086 -0.350674 -0.027380
v -0.411602 -0.350674 -0.027380
v -0.423657 -0.379776 -0.027387
v -0.500758 -0.302675 -0.027368
v 0.422141 0.620224 -0.027144
v 0.499242 0.543144 -0.113527
v 0.422141 0.620245 -0.113509
v 0.499242 0.543123 -0.027162
v 0.499242 0.543123 -0.027162
v 0.422141 0.620224 -0.027144
v 0.499242 0.543144 -0.113527
v 0.422141 0.620245 -0.113509
v -0.423657 0.620245 -0.113509
v -0.500758 -0.302654 -0.113732
v -0.500758 0.543144 -0.113527
v -0.423657 -0.379755 -0.113751
v 0.422141 0.620245 -0.113509
v 0.422141 -0.379755 -0.113752
v 0.499242 0.543144 -0.113527
v 0.499242 -0.302654 -0.113733
v 0.499242 -0.302654 -0.113733
v 0.499242 0.543144 -0.113527
v 0.422141 -0.379755 -0.113752
v 0.422141 0.620245 -0.113509
v -0.423657 -0.379755 -0.113751
v -0.423657 0.620245 -0.113509
v -0.500758 -0.302654 -0.113732
v -0.500758 0.543144 -0.113527
v -0.500758 0.543123 -0.027162
v -0.500758 -0.302654 -0.113732
v -0.500758 -0.302675 -0.027368
v -0.500758 0.543144 -0.113527
v -0.500758 0.543144 -0.113527
v -0.500758 0.543123 -0.027162
v -0.500758 -0.302654 -0.113732
v -0.500758 -0.302675 -0.027368
v 0.499242 -0.302675 -0.027368
v 0.422141 -0.379755 -0.113752
v 0.499242 -0.302654 -0.113733
v 0.422141 -0.379776 -0.027387
v 0.422141 -0.379776 -0.027387
v 0.499242 -0.302675 -0.027368
v 0.422141 -0.379755 -0.113752
v 0.499242 -0.302654 -0.113733
v 0.499242 0.543144 -0.113527
v 0.499242 -0.302675 -0.027368
v 0.499242 -0.302654 -0.113733
v 0.499242 0.543123 -0.027162
v 0.499242 0.543123 -0.027162
v 0.499242 0.543144 -0.113527
v 0.499242 -0.302675 -0.027368
v 0.499242 -0.302654 -0.113733
v -0.423657 -0.379776 -0.027387
v -0.500758 -0.302654 -0.113732
v -0.423657 -0.379755 -0.113751
v -0.500758 -0.302675 -0.027368
v -0.500758 -0.302675 -0.027368
v -0.423657 -0.379776 -0.027387
v -0.500758 -0.302654 -0.113732
v -0.423657 -0.379755 -0.113751
v 0.422141 -0.379776 -0.027387
v -0.423657 -0.379755 -0.113751
v 0.422141 -0.379755 -0.113752
v -0.423657 -0.379776 -0.027387
v -0.423657 -0.379776 -0.027387
v 0.422141 -0.379776 -0.027387
v -0.423657 -0.379755 -0.113751
v 0.422141 -0.379755 -0.113752
vn 0.0000 1.0000 0.0002
vn -0.7071 0.7071 0.0002
vn 0.0000 -0.0002 1.0000
vn 0.7071 0.7071 0.0002
vn 0.0000 0.0002 -1.0000
vn -1.0000 0.0000 0.0000
vn 0.7071 -0.7071 -0.0002
vn 1.0000 0.0000 0.0000
vn -0.7071 -0.7071 -0.0002
vn -0.0000 -1.0000 -0.0002
usemtl Axiom_Blank_Button
s off
f 49//11 50//11 51//11
f 50//11 49//11 52//11
f 57//12 58//12 59//12
f 58//12 57//12 60//12
f 65//13 66//13 67//13
f 66//13 65//13 68//13
f 66//13 68//13 69//13
f 69//13 68//13 70//13
f 69//13 70//13 71//13
f 71//13 70//13 72//13
f 72//13 70//13 73//13
f 72//13 73//13 74//13
f 67//13 75//13 76//13
f 75//13 67//13 66//13
f 76//13 75//13 77//13
f 76//13 77//13 78//13
f 78//13 77//13 79//13
f 78//13 79//13 74//13
f 78//13 74//13 80//13
f 80//13 74//13 73//13
f 97//14 98//14 99//14
f 98//14 97//14 100//14
f 105//15 106//15 107//15
f 106//15 105//15 108//15
f 108//15 105//15 109//15
f 108//15 109//15 110//15
f 110//15 109//15 111//15
f 110//15 111//15 112//15
f 121//16 122//16 123//16
f 122//16 121//16 124//16
f 129//17 130//17 131//17
f 130//17 129//17 132//17
f 137//18 138//18 139//18
f 138//18 137//18 140//18
f 145//19 146//19 147//19
f 146//19 145//19 148//19
f 153//20 154//20 155//20
f 154//20 153//20 156//20
usemtl __auto_
f 53//20 54//20 55//20
f 56//20 55//20 54//20
f 61//17 62//17 63//17
f 64//17 63//17 62//17
f 81//15 82//15 83//15
f 83//15 82//15 84//15
f 82//15 85//15 84//15
f 85//15 86//15 84//15
f 84//15 86//15 87//15
f 86//15 88//15 87//15
f 89//15 90//15 88//15
f 87//15 88//15 90//15
f 82//15 81//15 91//15
f 81//15 92//15 91//15
f 91//15 92//15 93//15
f 93//15 92//15 94//15
f 92//15 95//15 94//15
f 94//15 95//15 89//15
f 95//15 96//15 89//15
f 90//15 89//15 96//15
f 101//19 102//19 103//19
f 104//19 103//19 102//19
f 113//13 114//13 115//13
f 114//13 116//13 115//13
f 115//13 116//13 117//13
f 116//13 118//13 117//13
f 117//13 118//13 119//13
f 120//13 119//13 118//13
f 125//18 126//18 127//18
f 128//18 127//18 126//18
f 133//12 134//12 135//12
f 136//12 135//12 134//12
f 141//16 142//16 143//16
f 144//16 143//16 142//16
f 149//14 150//14 151//14
f 152//14 151//14 150//14
f 157//11 158//11 159//11
f 160//11 159//11 158//11
o Button.001_ID13
v 0.470140 0.531068 -0.027165
v 0.441037 -0.278555 -0.071621
v 0.470140 -0.290620 -0.027365
v 0.441037 0.519025 -0.071427
v 0.441037 0.519025 -0.071427
v 0.470140 0.531068 -0.027165
v 0.441037 -0.278555 -0.071621
v 0.470140 -0.290620 -0.027365
v 0.470140 -0.290620 -0.027365
v 0.398032 -0.321560 -0.071632
v 0.410086 -0.350674 -0.027380
v 0.441037 -0.278555 -0.071621
v 0.441037 -0.278555 -0.071621
v 0.470140 -0.290620 -0.027365
v 0.398032 -0.321560 -0.071632
v 0.410086 -0.350674 -0.027380
v 0.470140 0.531068 -0.027165
v 0.398032 0.562030 -0.071417
v 0.441037 0.519025 -0.071427
v 0.410086 0.591122 -0.027151
v 0.410086 0.591122 -0.027151
v 0.470140 0.531068 -0.027165
v 0.398032 0.562030 -0.071417
v 0.441037 0.519025 -0.071427
v -0.399548 -0.321560 -0.071632
v -0.442553 0.519025 -0.071427
v -0.442553 -0.278555 -0.071621
v -0.399548 0.562030 -0.071417
v 0.398032 -0.321560 -0.071632
v 0.398032 0.562030 -0.071417
v 0.441037 -0.278555 -0.071621
v 0.441037 0.519025 -0.071427
v 0.441037 0.519025 -0.071427
v 0.441037 -0.278555 -0.071621
v 0.398032 0.562030 -0.071417
v 0.398032 -0.321560 -0.071632
v -0.399548 0.562030 -0.071417
v -0.399548 -0.321560 -0.071632
v -0.442553 0.519025 -0.071427
v -0.442553 -0.278555 -0.071621
v -0.411602 -0.350674 -0.027380
v 0.398032 -0.321560 -0.071632
v -0.399548 -0.321560 -0.071632
v 0.410086 -0.350674 -0.027380
v 0.410086 -0.350674 -0.027380
v -0.411602 -0.350674 -0.027380
v 0.398032 -0.321560 -0.071632
v -0.399548 -0.321560 -0.071632
v 0.410086 0.591122 -0.027151
v -0.399548 0.562030 -0.071417
v 0.398032 0.562030 -0.071417
v -0.411602 0.591122 -0.027151
v -0.411602 0.591122 -0.027151
v 0.410086 0.591122 -0.027151
v -0.399548 0.562030 -0.071417
v 0.398032 0.562030 -0.071417
v -0.399548 0.562030 -0.071417
v -0.471656 0.531068 -0.027165
v -0.442553 0.519025 -0.071427
v -0.411602 0.591122 -0.027151
v -0.411602 0.591122 -0.027151
v -0.399548 0.562030 -0.071417
v -0.471656 0.531068 -0.027165
v -0.442553 0.519025 -0.071427
v -0.442553 -0.278555 -0.071621
v -0.471656 0.531068 -0.027165
v -0.471656 -0.290620 -0.027365
v -0.442553 0.519025 -0.071427
v -0.442553 0.519025 -0.071427
v -0.442553 -0.278555 -0.071621
v -0.471656 0.531068 -0.027165
v -0.471656 -0.290620 -0.027365
v -0.442553 -0.278555 -0.071621
v -0.411602 -0.350674 -0.027380
v -0.399548 -0.321560 -0.071632
v -0.471656 -0.290620 -0.027365
v -0.471656 -0.290620 -0.027365
v -0.442553 -0.278555 -0.071621
v -0.411602 -0.350674 -0.027380
v -0.399548 -0.321560 -0.071632
vn -0.8355 -0.0001 0.5494
vn -0.5908 0.5907 0.5496
vn -0.5908 -0.5910 0.5493
vn 0.0000 -0.0002 1.0000
vn 0.0000 0.8354 0.5496
vn 0.0000 -0.8357 0.5492
vn 0.5908 -0.5910 0.5493
vn 0.8355 -0.0001 0.5494
vn 0.5908 0.5907 0.5496
vn 0.8355 0.0001 -0.5494
vn 0.5908 -0.5907 -0.5496
vn 0.5908 0.5910 -0.5493
vn 0.0000 0.0002 -1.0000
vn 0.0000 -0.8354 -0.5496
vn 0.0000 0.8357 -0.5492
vn -0.5908 0.5910 -0.5493
vn -0.8355 0.0001 -0.5494
vn -0.5908 -0.5907 -0.5496
usemtl Axiom_Blank_Button
s off
f 161//21 162//21 163//21
f 162//21 161//21 164//21
f 169//22 170//22 171//22
f 170//22 169//22 172//22
f 177//23 178//23 179//23
f 178//23 177//23 180//23
f 185//24 186//24 187//24
f 186//24 185//24 188//24
f 188//24 185//24 189//24
f 188//24 189//24 190//24
f 190//24 189//24 191//24
f 190//24 191//24 192//24
f 201//25 202//25 203//25
f 202//25 201//25 204//25
f 209//26 210//26 211//26
f 210//26 209//26 212//26
f 217//27 218//27 219//27
f 218//27 217//27 220//27
f 225//28 226//28 227//28
f 226//28 225//28 228//28
f 233//29 234//29 235//29
f 234//29 233//29 236//29
usemtl __auto_
f 165//30 166//30 167//30
f 168//30 167//30 166//30
f 173//31 174//31 175//31
f 176//31 175//31 174//31
f 181//32 182//32 183//32
f 184//32 183//32 182//32
f 193//33 194//33 195//33
f 194//33 196//33 195//33
f 195//33 196//33 197//33
f 196//33 198//33 197//33
f 197//33 198//33 199//33
f 200//33 199//33 198//33
f 205//34 206//34 207//34
f 208//34 207//34 206//34
f 213//35 214//35 215//35
f 216//35 215//35 214//35
f 221//36 222//36 223//36
f 224//36 223//36 222//36
f 229//37 230//37 231//37
f 232//37 231//37 230//37
f 237//38 238//38 239//38
f 240//38 239//38 238//38
