# Blender v3.1.2 OBJ File: 'C-ARMSAS.blend'
# www.blender.org
mtllib CM_-_Triton.mtl
o SM_CM_-_Triton_mesh.032
v -0.072100 0.063300 0.044405
v -0.057981 0.063300 0.044405
v -0.076874 0.101212 0.044414
v -0.001502 0.119778 0.044419
v 0.006553 0.155869 0.044427
v -0.015622 0.119778 0.044419
v -0.001502 0.020941 0.044395
v -0.083100 0.064060 0.044405
v -0.097220 0.064060 0.044405
v -0.083100 0.009511 0.044392
v -0.079885 0.009511 0.044392
v -0.072100 0.020941 0.044395
v -0.001502 0.009511 0.044392
v -0.001502 -0.068146 0.044373
v 0.014142 -0.068146 0.044373
v 0.014142 0.009511 0.044392
v 0.014142 0.119496 0.044419
v 0.028262 0.119496 0.044419
v 0.084740 0.177602 0.044433
v 0.090903 0.214790 0.044442
v 0.070621 0.177602 0.044433
v 0.084740 0.020941 0.044395
v 0.096610 0.178946 0.044433
v 0.110729 0.178946 0.044433
v 0.014142 0.020941 0.044395
v 0.096610 0.009511 0.044392
v 0.110729 0.178943 0.058992
v 0.090903 0.214786 0.059001
v 0.096610 0.178943 0.058992
v 0.096610 0.009508 0.058951
v 0.014142 0.009508 0.058951
v 0.014142 -0.068150 0.058932
v -0.001502 -0.068150 0.058932
v -0.001502 0.009508 0.058951
v -0.079885 0.009508 0.058951
v -0.083100 0.009508 0.058951
v -0.083100 0.064056 0.058964
v -0.097220 0.064056 0.058964
v -0.076874 0.101209 0.058973
v -0.057981 0.063297 0.058964
v -0.072100 0.063297 0.058964
v -0.072100 0.020938 0.058954
v -0.001502 0.020938 0.058954
v -0.001502 0.119775 0.058978
v -0.015622 0.119775 0.058978
v 0.006553 0.155866 0.058987
v 0.028262 0.119493 0.058978
v 0.014142 0.119493 0.058978
v 0.014142 0.020938 0.058954
v 0.084740 0.020938 0.058954
v 0.084740 0.177599 0.058992
v 0.070621 0.177599 0.058992
vt 0.677563 0.815991
vt 0.678971 0.896278
vt 0.680275 0.811257
vt 0.661434 0.815991
vt 0.680275 0.811257
vt 0.661434 0.811257
vt 0.661434 0.856810
vt 0.661434 0.815991
vt 0.677563 0.880876
vt 0.674337 0.880876
vt 0.678971 0.896278
vt 0.659700 0.871875
vt 0.664660 0.856810
vt 0.661434 0.856810
vt 0.661434 0.856810
vt 0.661434 0.811257
vt 0.659700 0.871875
vt 0.657859 0.815991
vt 0.661434 0.779094
vt 0.657859 0.779094
vt 0.657859 0.815991
vt 0.657859 0.779094
vt 0.657859 0.811257
vt 0.641730 0.815991
vt 0.640639 0.849237
vt 0.641730 0.833535
vt 0.641730 0.815991
vt 0.640639 0.849237
vt 0.641730 0.815991
vt 0.639951 0.811257
vt 0.639217 0.833850
vt 0.635991 0.833850
vt 0.640639 0.849237
vt 0.659700 0.871875
vt 0.657859 0.815991
vt 0.657859 0.856927
vt 0.654633 0.856927
vt 0.659700 0.871875
vt 0.680275 0.881433
vt 0.683501 0.881433
vt 0.683501 0.881433
vt 0.680275 0.811257
vt 0.680275 0.811257
vt 0.680275 0.881433
vt 0.680275 0.811257
vt 0.680275 0.811257
vt 0.661434 0.811257
vt 0.661434 0.779094
vt 0.657859 0.779094
vt 0.661434 0.779094
vt 0.639951 0.811257
vt 0.657859 0.811257
vt 0.657859 0.811257
vt 0.639951 0.811257
vt 0.639217 0.811257
vt 0.639217 0.811257
vt 0.639217 0.833850
vt 0.639217 0.833850
vt 0.639217 0.811257
vt 0.639217 0.811257
vt 0.639217 0.811257
vt 0.639217 0.833850
vt 0.639217 0.833850
vt 0.635991 0.833850
vt 0.635991 0.833850
vt 0.639217 0.833850
vt 0.640639 0.849237
vt 0.640639 0.849237
vt 0.635991 0.833850
vt 0.640639 0.849237
vt 0.640639 0.849237
vt 0.644956 0.833535
vt 0.644956 0.833535
vt 0.641730 0.833535
vt 0.641730 0.833535
vt 0.657859 0.815991
vt 0.657859 0.856927
vt 0.657859 0.856927
vt 0.654633 0.856927
vt 0.654633 0.856927
vt 0.657859 0.856927
vt 0.659700 0.871875
vt 0.659700 0.871875
vt 0.654633 0.856927
vt 0.664660 0.856810
vt 0.664660 0.856810
vt 0.664660 0.856810
vt 0.661434 0.856810
vt 0.661434 0.856810
vt 0.661434 0.856810
vt 0.661434 0.856810
vt 0.661434 0.815991
vt 0.661434 0.815991
vt 0.661434 0.815991
vt 0.661434 0.856810
vt 0.661434 0.815991
vt 0.677563 0.815991
vt 0.677563 0.815991
vt 0.661434 0.815991
vt 0.677563 0.880876
vt 0.677563 0.880876
vt 0.677563 0.815991
vt 0.674337 0.880876
vt 0.677563 0.880876
vt 0.677563 0.880876
vt 0.680275 0.881433
vt 0.683501 0.881433
vt 0.678971 0.896278
vt 0.680275 0.811257
vt 0.678971 0.896278
vt 0.677563 0.880876
vt 0.677563 0.880876
vt 0.677563 0.815991
vt 0.680275 0.811257
vt 0.677563 0.815991
vt 0.661434 0.815991
vt 0.661434 0.815991
vt 0.661434 0.811257
vt 0.680275 0.811257
vt 0.657859 0.811257
vt 0.657859 0.815991
vt 0.641730 0.815991
vt 0.639951 0.811257
vt 0.657859 0.811257
vt 0.641730 0.815991
vt 0.640639 0.849237
vt 0.635991 0.833850
vt 0.639217 0.833850
vt 0.654633 0.856927
vt 0.657859 0.856927
vt 0.659700 0.871875
vt 0.661434 0.811257
vt 0.661434 0.815991
vt 0.661434 0.856810
vt 0.661434 0.811257
vt 0.661434 0.856810
vt 0.659700 0.871875
vt 0.661434 0.779094
vt 0.661434 0.811257
vt 0.659700 0.871875
vt 0.639217 0.833850
vt 0.639217 0.811257
vt 0.639951 0.811257
vt 0.680275 0.881433
vt 0.680275 0.881433
vt 0.680275 0.881433
vt 0.680275 0.881433
vt 0.680275 0.881433
vt 0.680275 0.881433
vt 0.680275 0.881433
vt 0.680275 0.881433
vt 0.680275 0.881433
vt 0.680275 0.881433
vt 0.680275 0.881433
vt 0.680275 0.881433
vt 0.680275 0.881433
vt 0.680275 0.881433
vt 0.680275 0.881433
vt 0.680275 0.881433
vt 0.680275 0.881433
vt 0.680275 0.881433
vt 0.680275 0.881433
vt 0.680275 0.881433
vt 0.680275 0.881433
vt 0.680275 0.881433
vt 0.680275 0.881433
vt 0.680275 0.881433
vt 0.680275 0.881433
vt 0.680275 0.881433
vt 0.680275 0.881433
vt 0.680275 0.881433
vt 0.680275 0.881433
vt 0.680275 0.881433
vt 0.680275 0.881433
vt 0.680275 0.881433
vt 0.680275 0.881433
vt 0.680275 0.881433
vt 0.680275 0.881433
vt 0.680275 0.881433
vt 0.680275 0.881433
vt 0.680275 0.881433
vt 0.680275 0.881433
vt 0.680275 0.881433
vt 0.680275 0.881433
vt 0.680275 0.881433
vt 0.680275 0.881433
vt 0.680275 0.881433
vt 0.680275 0.881433
vt 0.680275 0.881433
vn 0.0000 -0.0002 1.0000
vn 0.0000 0.0000 -1.0000
vn 0.0000 1.0000 0.0002
vn -1.0000 -0.0000 -0.0000
vn 1.0000 0.0000 0.0000
vn 0.8771 -0.4803 -0.0001
vn -0.8950 -0.4460 -0.0001
vn 0.8520 -0.5235 -0.0001
vn -0.8587 -0.5125 -0.0001
vn 0.0000 -1.0000 -0.0002
vn 0.0000 0.0002 -1.0000
vn 0.9999 0.0000 0.0142
vn 0.0000 0.0006 1.0000
vn 0.8751 0.4840 0.0001
vn -0.8771 0.4803 0.0001
vn 0.8950 0.4460 0.0001
vn -0.8520 0.5235 0.0001
vn 0.8587 0.5125 0.0001
vn -0.8779 0.4788 0.0001
usemtl White.205
s 1
f 4/1/1 5/2/1 6/3/1
f 5/4/1 4/1/1 7/5/1
f 8/6/1 3/7/1 9/8/1
f 12/9/1 11/10/1 13/11/1
f 3/12/1 12/13/1 1/14/1
f 12/15/1 13/16/1 7/17/1
f 7/18/1 15/19/1 5/20/1
f 5/21/1 15/22/1 16/23/1
f 17/24/1 5/21/1 16/23/1
f 5/25/1 17/26/1 18/27/1
f 20/28/1 19/29/1 22/30/1
f 16/31/2 25/32/2 17/33/2
f 25/34/1 26/35/1 22/36/1
f 22/36/1 26/37/1 20/38/1
f 27/39/3 23/40/3 29/41/3
f 23/42/4 30/43/4 29/44/4
f 31/45/3 26/46/3 16/47/3
f 14/48/3 32/49/3 15/22/3
f 32/49/3 14/48/3 33/50/3
f 34/51/3 11/52/3 35/53/3
f 10/54/3 35/55/3 11/56/3
f 10/57/5 37/58/5 36/59/5
f 37/60/5 10/61/5 8/62/5
f 9/63/3 37/64/3 8/65/3
f 37/64/3 9/63/3 38/66/3
f 9/67/6 39/68/6 38/69/6
f 40/70/7 3/71/7 2/72/7
f 1/73/3 40/74/3 2/75/3
f 44/76/5 7/18/5 4/77/5
f 6/78/3 44/79/3 4/80/3
f 44/79/3 6/78/3 45/81/3
f 6/82/8 46/83/8 45/84/8
f 5/85/9 47/86/9 46/83/9
f 17/87/3 47/88/3 18/89/3
f 49/90/4 17/91/4 25/92/4
f 17/93/4 49/94/4 48/95/4
f 22/96/10 49/97/10 25/98/10
f 49/97/10 22/96/10 50/99/10
f 22/100/5 51/101/5 50/102/5
f 51/103/3 21/104/3 52/105/3
f 32/106/11 43/107/11 44/108/11
f 32/109/11 46/110/11 31/111/11
f 31/45/11 46/112/11 48/113/11
f 48/114/11 46/115/11 47/116/11
f 31/117/12 48/118/12 49/119/12
f 45/120/11 46/121/11 44/122/11
f 39/123/11 37/124/11 38/125/11
f 35/126/11 42/127/11 34/128/11
f 34/129/11 42/130/11 43/131/11
f 49/132/11 30/133/11 31/134/11
f 30/135/11 50/136/11 51/137/11
f 30/138/11 51/139/11 28/140/11
f 39/141/11 41/142/11 42/143/11
f 20/144/11 23/145/11 26/146/11
f 25/147/11 26/146/11 16/148/11
f 23/145/11 20/144/11 24/149/11
f 19/150/11 21/151/11 20/144/11
f 7/152/11 15/153/11 14/154/11
f 7/152/13 14/154/13 13/155/13
f 3/156/11 12/157/11 11/158/11
f 3/156/11 11/158/11 10/159/11
f 3/156/11 10/159/11 8/160/11
f 1/161/11 3/156/11 2/162/11
f 20/144/14 28/163/14 27/39/14
f 27/39/14 24/149/14 20/144/14
f 23/145/10 24/149/10 27/39/10
f 30/164/5 26/146/5 23/145/5
f 26/146/10 30/164/10 31/165/10
f 16/148/5 31/165/5 32/106/5
f 32/106/5 15/153/5 16/148/5
f 34/166/4 13/155/4 14/154/4
f 14/154/4 33/167/4 34/166/4
f 11/158/10 13/155/10 34/166/10
f 35/168/10 36/169/10 10/159/10
f 39/170/15 3/156/15 9/171/15
f 3/156/16 39/170/16 40/172/16
f 40/172/10 41/173/10 1/161/10
f 1/161/5 41/173/5 42/174/5
f 42/174/5 12/157/5 1/161/5
f 42/174/3 43/175/3 7/152/3
f 7/152/3 12/157/3 42/174/3
f 7/152/4 43/175/4 44/176/4
f 46/177/17 5/178/17 6/179/17
f 47/180/18 18/181/18 5/178/18
f 47/180/10 48/182/10 17/183/10
f 51/184/4 19/150/4 22/185/4
f 21/151/10 19/150/10 51/184/10
f 28/163/19 20/144/19 21/151/19
f 21/151/19 52/186/19 28/163/19
f 41/173/1 40/172/1 39/170/1
f 52/186/1 51/184/1 28/163/1
f 29/44/1 27/39/1 28/163/1
f 30/164/1 29/44/1 28/163/1
f 30/164/1 50/187/1 49/188/1
f 35/168/1 42/174/1 39/170/1
f 37/189/1 35/168/1 39/170/1
f 32/106/1 46/177/1 44/176/1
f 32/106/1 43/175/1 34/166/1
f 34/166/1 33/167/1 32/106/1
f 37/189/1 36/169/1 35/168/1
o Button_ID3
v -0.423657 0.620224 -0.027144
v 0.422141 0.620245 -0.113509
v -0.423657 0.620245 -0.113509
v 0.422141 0.620224 -0.027144
v 0.422141 0.620224 -0.027144
v -0.423657 0.620224 -0.027144
v 0.422141 0.620245 -0.113509
v -0.423657 0.620245 -0.113509
v -0.500758 0.543144 -0.113527
v -0.423657 0.620224 -0.027144
v -0.423657 0.620245 -0.113509
v -0.500758 0.543123 -0.027162
v -0.500758 0.543123 -0.027162
v -0.500758 0.543144 -0.113527
v -0.423657 0.620224 -0.027144
v -0.423657 0.620245 -0.113509
v -0.500758 -0.302675 -0.027368
v -0.471656 -0.290620 -0.027365
v -0.500758 0.543123 -0.027162
v -0.423657 -0.379776 -0.027387
v -0.411602 -0.350674 -0.027380
v 0.422141 -0.379776 -0.027387
v 0.410086 -0.350674 -0.027380
v 0.470140 -0.290620 -0.027365
v 0.499242 -0.302675 -0.027368
v 0.470140 0.531068 -0.027165
v -0.471656 0.531068 -0.027165
v -0.423657 0.620224 -0.027144
v -0.411602 0.591122 -0.027151
v 0.422141 0.620224 -0.027144
v 0.410086 0.591122 -0.027151
v 0.499242 0.543123 -0.027162
v 0.499242 -0.302675 -0.027368
v 0.470140 0.531068 -0.027165
v 0.499242 0.543123 -0.027162
v 0.422141 0.620224 -0.027144
v 0.410086 0.591122 -0.027151
v -0.411602 0.591122 -0.027151
v -0.423657 0.620224 -0.027144
v -0.471656 0.531068 -0.027165
v -0.471656 -0.290620 -0.027365
v -0.500758 0.543123 -0.027162
v 0.470140 -0.290620 -0.027365
v 0.422141 -0.379776 -0.027387
v 0.410086 -0.350674 -0.027380
v -0.411602 -0.350674 -0.027380
v -0.423657 -0.379776 -0.027387
v -0.500758 -0.302675 -0.027368
v 0.422141 0.620224 -0.027144
v 0.499242 0.543144 -0.113527
v 0.422141 0.620245 -0.113509
v 0.499242 0.543123 -0.027162
v 0.499242 0.543123 -0.027162
v 0.422141 0.620224 -0.027144
v 0.499242 0.543144 -0.113527
v 0.422141 0.620245 -0.113509
v -0.423657 0.620245 -0.113509
v -0.500758 -0.302654 -0.113732
v -0.500758 0.543144 -0.113527
v -0.423657 -0.379755 -0.113751
v 0.422141 0.620245 -0.113509
v 0.422141 -0.379755 -0.113752
v 0.499242 0.543144 -0.113527
v 0.499242 -0.302654 -0.113733
v 0.499242 -0.302654 -0.113733
v 0.499242 0.543144 -0.113527
v 0.422141 -0.379755 -0.113752
v 0.422141 0.620245 -0.113509
v -0.423657 -0.379755 -0.113751
v -0.423657 0.620245 -0.113509
v -0.500758 -0.302654 -0.113732
v -0.500758 0.543144 -0.113527
v -0.500758 0.543123 -0.027162
v -0.500758 -0.302654 -0.113732
v -0.500758 -0.302675 -0.027368
v -0.500758 0.543144 -0.113527
v -0.500758 0.543144 -0.113527
v -0.500758 0.543123 -0.027162
v -0.500758 -0.302654 -0.113732
v -0.500758 -0.302675 -0.027368
v 0.499242 -0.302675 -0.027368
v 0.422141 -0.379755 -0.113752
v 0.499242 -0.302654 -0.113733
v 0.422141 -0.379776 -0.027387
v 0.422141 -0.379776 -0.027387
v 0.499242 -0.302675 -0.027368
v 0.422141 -0.379755 -0.113752
v 0.499242 -0.302654 -0.113733
v 0.499242 0.543144 -0.113527
v 0.499242 -0.302675 -0.027368
v 0.499242 -0.302654 -0.113733
v 0.499242 0.543123 -0.027162
v 0.499242 0.543123 -0.027162
v 0.499242 0.543144 -0.113527
v 0.499242 -0.302675 -0.027368
v 0.499242 -0.302654 -0.113733
v -0.423657 -0.379776 -0.027387
v -0.500758 -0.302654 -0.113732
v -0.423657 -0.379755 -0.113751
v -0.500758 -0.302675 -0.027368
v -0.500758 -0.302675 -0.027368
v -0.423657 -0.379776 -0.027387
v -0.500758 -0.302654 -0.113732
v -0.423657 -0.379755 -0.113751
v 0.422141 -0.379776 -0.027387
v -0.423657 -0.379755 -0.113751
v 0.422141 -0.379755 -0.113752
v -0.423657 -0.379776 -0.027387
v -0.423657 -0.379776 -0.027387
v 0.422141 -0.379776 -0.027387
v -0.423657 -0.379755 -0.113751
v 0.422141 -0.379755 -0.113752
vn 0.0000 1.0000 0.0002
vn -0.7071 0.7071 0.0002
vn 0.0000 -0.0002 1.0000
vn 0.7071 0.7071 0.0002
vn 0.0000 0.0002 -1.0000
vn -1.0000 0.0000 0.0000
vn 0.7071 -0.7071 -0.0002
vn 1.0000 0.0000 0.0000
vn -0.7071 -0.7071 -0.0002
vn -0.0000 -1.0000 -0.0002
usemtl Axiom_Blank_Button
s off
f 53//20 54//20 55//20
f 54//20 53//20 56//20
f 61//21 62//21 63//21
f 62//21 61//21 64//21
f 69//22 70//22 71//22
f 70//22 69//22 72//22
f 70//22 72//22 73//22
f 73//22 72//22 74//22
f 73//22 74//22 75//22
f 75//22 74//22 76//22
f 76//22 74//22 77//22
f 76//22 77//22 78//22
f 71//22 79//22 80//22
f 79//22 71//22 70//22
f 80//22 79//22 81//22
f 80//22 81//22 82//22
f 82//22 81//22 83//22
f 82//22 83//22 78//22
f 82//22 78//22 84//22
f 84//22 78//22 77//22
f 101//23 102//23 103//23
f 102//23 101//23 104//23
f 109//24 110//24 111//24
f 110//24 109//24 112//24
f 112//24 109//24 113//24
f 112//24 113//24 114//24
f 114//24 113//24 115//24
f 114//24 115//24 116//24
f 125//25 126//25 127//25
f 126//25 125//25 128//25
f 133//26 134//26 135//26
f 134//26 133//26 136//26
f 141//27 142//27 143//27
f 142//27 141//27 144//27
f 149//28 150//28 151//28
f 150//28 149//28 152//28
f 157//29 158//29 159//29
f 158//29 157//29 160//29
usemtl __auto_
f 57//29 58//29 59//29
f 60//29 59//29 58//29
f 65//26 66//26 67//26
f 68//26 67//26 66//26
f 85//24 86//24 87//24
f 87//24 86//24 88//24
f 86//24 89//24 88//24
f 89//24 90//24 88//24
f 88//24 90//24 91//24
f 90//24 92//24 91//24
f 93//24 94//24 92//24
f 91//24 92//24 94//24
f 86//24 85//24 95//24
f 85//24 96//24 95//24
f 95//24 96//24 97//24
f 97//24 96//24 98//24
f 96//24 99//24 98//24
f 98//24 99//24 93//24
f 99//24 100//24 93//24
f 94//24 93//24 100//24
f 105//28 106//28 107//28
f 108//28 107//28 106//28
f 117//22 118//22 119//22
f 118//22 120//22 119//22
f 119//22 120//22 121//22
f 120//22 122//22 121//22
f 121//22 122//22 123//22
f 124//22 123//22 122//22
f 129//27 130//27 131//27
f 132//27 131//27 130//27
f 137//21 138//21 139//21
f 140//21 139//21 138//21
f 145//25 146//25 147//25
f 148//25 147//25 146//25
f 153//23 154//23 155//23
f 156//23 155//23 154//23
f 161//20 162//20 163//20
f 164//20 163//20 162//20
o Button.001_ID13
v 0.470140 0.531068 -0.027165
v 0.441037 -0.278555 -0.071621
v 0.470140 -0.290620 -0.027365
v 0.441037 0.519025 -0.071427
v 0.441037 0.519025 -0.071427
v 0.470140 0.531068 -0.027165
v 0.441037 -0.278555 -0.071621
v 0.470140 -0.290620 -0.027365
v 0.470140 -0.290620 -0.027365
v 0.398032 -0.321560 -0.071632
v 0.410086 -0.350674 -0.027380
v 0.441037 -0.278555 -0.071621
v 0.441037 -0.278555 -0.071621
v 0.470140 -0.290620 -0.027365
v 0.398032 -0.321560 -0.071632
v 0.410086 -0.350674 -0.027380
v 0.470140 0.531068 -0.027165
v 0.398032 0.562030 -0.071417
v 0.441037 0.519025 -0.071427
v 0.410086 0.591122 -0.027151
v 0.410086 0.591122 -0.027151
v 0.470140 0.531068 -0.027165
v 0.398032 0.562030 -0.071417
v 0.441037 0.519025 -0.071427
v -0.399548 -0.321560 -0.071632
v -0.442553 0.519025 -0.071427
v -0.442553 -0.278555 -0.071621
v -0.399548 0.562030 -0.071417
v 0.398032 -0.321560 -0.071632
v 0.398032 0.562030 -0.071417
v 0.441037 -0.278555 -0.071621
v 0.441037 0.519025 -0.071427
v 0.441037 0.519025 -0.071427
v 0.441037 -0.278555 -0.071621
v 0.398032 0.562030 -0.071417
v 0.398032 -0.321560 -0.071632
v -0.399548 0.562030 -0.071417
v -0.399548 -0.321560 -0.071632
v -0.442553 0.519025 -0.071427
v -0.442553 -0.278555 -0.071621
v -0.411602 -0.350674 -0.027380
v 0.398032 -0.321560 -0.071632
v -0.399548 -0.321560 -0.071632
v 0.410086 -0.350674 -0.027380
v 0.410086 -0.350674 -0.027380
v -0.411602 -0.350674 -0.027380
v 0.398032 -0.321560 -0.071632
v -0.399548 -0.321560 -0.071632
v 0.410086 0.591122 -0.027151
v -0.399548 0.562030 -0.071417
v 0.398032 0.562030 -0.071417
v -0.411602 0.591122 -0.027151
v -0.411602 0.591122 -0.027151
v 0.410086 0.591122 -0.027151
v -0.399548 0.562030 -0.071417
v 0.398032 0.562030 -0.071417
v -0.399548 0.562030 -0.071417
v -0.471656 0.531068 -0.027165
v -0.442553 0.519025 -0.071427
v -0.411602 0.591122 -0.027151
v -0.411602 0.591122 -0.027151
v -0.399548 0.562030 -0.071417
v -0.471656 0.531068 -0.027165
v -0.442553 0.519025 -0.071427
v -0.442553 -0.278555 -0.071621
v -0.471656 0.531068 -0.027165
v -0.471656 -0.290620 -0.027365
v -0.442553 0.519025 -0.071427
v -0.442553 0.519025 -0.071427
v -0.442553 -0.278555 -0.071621
v -0.471656 0.531068 -0.027165
v -0.471656 -0.290620 -0.027365
v -0.442553 -0.278555 -0.071621
v -0.411602 -0.350674 -0.027380
v -0.399548 -0.321560 -0.071632
v -0.471656 -0.290620 -0.027365
v -0.471656 -0.290620 -0.027365
v -0.442553 -0.278555 -0.071621
v -0.411602 -0.350674 -0.027380
v -0.399548 -0.321560 -0.071632
vn -0.8355 -0.0001 0.5494
vn -0.5908 0.5907 0.5496
vn -0.5908 -0.5910 0.5493
vn 0.0000 -0.0002 1.0000
vn 0.0000 0.8354 0.5496
vn 0.0000 -0.8357 0.5492
vn 0.5908 -0.5910 0.5493
vn 0.8355 -0.0001 0.5494
vn 0.5908 0.5907 0.5496
vn 0.8355 0.0001 -0.5494
vn 0.5908 -0.5907 -0.5496
vn 0.5908 0.5910 -0.5493
vn 0.0000 0.0002 -1.0000
vn 0.0000 -0.8354 -0.5496
vn 0.0000 0.8357 -0.5492
vn -0.5908 0.5910 -0.5493
vn -0.8355 0.0001 -0.5494
vn -0.5908 -0.5907 -0.5496
usemtl Axiom_Blank_Button
s off
f 165//30 166//30 167//30
f 166//30 165//30 168//30
f 173//31 174//31 175//31
f 174//31 173//31 176//31
f 181//32 182//32 183//32
f 182//32 181//32 184//32
f 189//33 190//33 191//33
f 190//33 189//33 192//33
f 192//33 189//33 193//33
f 192//33 193//33 194//33
f 194//33 193//33 195//33
f 194//33 195//33 196//33
f 205//34 206//34 207//34
f 206//34 205//34 208//34
f 213//35 214//35 215//35
f 214//35 213//35 216//35
f 221//36 222//36 223//36
f 222//36 221//36 224//36
f 229//37 230//37 231//37
f 230//37 229//37 232//37
f 237//38 238//38 239//38
f 238//38 237//38 240//38
usemtl __auto_
f 169//39 170//39 171//39
f 172//39 171//39 170//39
f 177//40 178//40 179//40
f 180//40 179//40 178//40
f 185//41 186//41 187//41
f 188//41 187//41 186//41
f 197//42 198//42 199//42
f 198//42 200//42 199//42
f 199//42 200//42 201//42
f 200//42 202//42 201//42
f 201//42 202//42 203//42
f 204//42 203//42 202//42
f 209//43 210//43 211//43
f 212//43 211//43 210//43
f 217//44 218//44 219//44
f 220//44 219//44 218//44
f 225//45 226//45 227//45
f 228//45 227//45 226//45
f 233//46 234//46 235//46
f 236//46 235//46 234//46
f 241//47 242//47 243//47
f 244//47 243//47 242//47
