# Blender v3.1.2 OBJ File: 'C-ARMSAS.blend'
# www.blender.org
mtllib CM_-_II.mtl
o SM_CM_-_II_path1763-2.085
v 0.044027 0.074466 0.069410
v 0.370981 0.074466 0.069410
v -0.363292 0.074466 0.069410
v -0.024176 0.074466 0.069410
v 0.005182 0.067720 0.069408
v 0.003805 0.078909 0.069411
v 0.005182 0.078909 0.069411
v 0.009445 0.067720 0.069408
v 0.009445 0.078909 0.069411
v 0.370981 0.072177 0.025751
v 0.044027 0.074477 0.025752
v -0.363292 0.072177 0.025751
v -0.363292 0.074477 0.025752
v -0.024176 0.074477 0.025752
v 0.005182 0.067722 0.064525
v 0.003805 0.067722 0.064525
v 0.003805 0.067720 0.069408
v 0.003805 0.078910 0.064528
v 0.005182 0.078910 0.064528
v 0.009445 0.067722 0.064525
v 0.008065 0.067722 0.064525
v 0.008065 0.067720 0.069408
v 0.008065 0.078910 0.064528
v 0.008065 0.078909 0.069411
v 0.009445 0.078910 0.064528
v -0.024176 0.072177 0.025751
v -0.024176 0.072166 0.069409
v -0.363292 0.072166 0.069409
v 0.370981 0.072166 0.069409
v 0.044027 0.072177 0.025751
v 0.044027 0.072166 0.069409
v 0.370981 0.074477 0.025752
v 0.021301 0.063202 0.062728
v 0.021300 0.084380 0.062733
v -0.007575 0.063202 0.062728
v -0.007577 0.084380 0.062733
v -0.006898 0.083881 0.065972
v -0.006896 0.063699 0.065968
v 0.020620 0.083881 0.065972
v 0.020622 0.063699 0.065968
vt 0.600000 0.000000
vt 0.733333 0.000000
vt 0.666667 0.000000
vt 0.533333 0.000000
vt 0.866667 0.000000
vt 1.000000 0.000000
vt 0.933333 0.000000
vt 0.800000 0.000000
vt 0.733333 0.000000
vt 0.600000 0.000000
vt 0.666667 0.000000
vt 0.533333 0.000000
vt 1.000000 0.000000
vt 0.866667 0.000000
vt 0.933333 0.000000
vt 0.800000 0.000000
vt 0.000000 1.000000
vt 0.250000 1.000000
vt 0.250000 0.000000
vt 0.000000 0.000000
vt 0.500000 1.000000
vt 0.500000 0.000000
vt 0.750000 1.000000
vt 0.750000 0.000000
vt 1.000000 1.000000
vt 1.000000 0.000000
vt 0.000000 1.000000
vt 0.250000 1.000000
vt 0.250000 0.000000
vt 0.000000 0.000000
vt 0.500000 1.000000
vt 0.500000 0.000000
vt 0.750000 1.000000
vt 0.750000 0.000000
vt 1.000000 1.000000
vt 1.000000 0.000000
vt 0.000000 0.000000
vt 0.000000 0.000000
vt 0.000000 0.000000
vt 0.000000 0.000000
vt 0.000000 0.000000
vt 0.000000 0.000000
vt 0.000000 0.000000
vt 0.000000 0.000000
vt 0.333333 0.000000
vt 0.466667 0.000000
vt 0.400000 0.000000
vt 0.266667 0.000000
vt 0.066667 0.000000
vt 0.200000 0.000000
vt 0.133333 0.000000
vt 0.000000 0.000000
vt 0.466667 0.000000
vt 0.333333 0.000000
vt 0.400000 0.000000
vt 0.266667 0.000000
vt 0.200000 0.000000
vt 0.066667 0.000000
vt 0.133333 0.000000
vt 0.000000 0.000000
vt 0.000000 1.000000
vt 0.250000 1.000000
vt 0.250000 0.000000
vt 0.000000 0.000000
vt 0.500000 1.000000
vt 0.500000 0.000000
vt 0.750000 1.000000
vt 0.750000 0.000000
vt 1.000000 1.000000
vt 1.000000 0.000000
vt 0.000000 1.000000
vt 0.250000 1.000000
vt 0.250000 0.000000
vt 0.500000 1.000000
vt 0.500000 0.000000
vt 0.750000 1.000000
vt 0.750000 0.000000
vt 1.000000 1.000000
vt 1.000000 0.000000
vn 0.0000 -0.0002 1.0000
vn 0.0000 0.0002 -1.0000
vn 0.0000 -1.0000 -0.0002
vn -1.0000 -0.0000 0.0000
vn 0.0000 1.0000 0.0002
vn 1.0000 -0.0000 0.0000
vn 0.0000 -0.9884 0.1518
vn 0.0000 0.9883 0.1523
vn 0.9787 0.0000 0.2052
vn -0.9787 -0.0001 0.2052
usemtl Text.183
s 1
f 17/1/1 7/2/1 6/3/1
f 17/1/1 5/4/1 7/2/1
f 22/5/1 9/6/1 24/7/1
f 22/5/1 8/8/1 9/6/1
f 19/9/2 16/10/2 18/11/2
f 15/12/2 16/10/2 19/9/2
f 25/13/2 21/14/2 23/15/2
f 20/16/2 21/14/2 25/13/2
f 5/17/3 17/18/3 16/19/3 15/20/3
f 17/18/4 6/21/4 18/22/4 16/19/4
f 6/21/5 7/23/5 19/24/5 18/22/5
f 7/23/6 5/25/6 15/26/6 19/24/6
f 8/27/3 22/28/3 21/29/3 20/30/3
f 22/28/4 24/31/4 23/32/4 21/29/4
f 24/31/5 9/33/5 25/34/5 23/32/5
f 9/33/6 8/35/6 20/36/6 25/34/6
usemtl Outline.183
f 40/37/7 38/38/7 35/39/7 33/40/7
f 37/41/8 39/42/8 34/43/8 36/44/8
f 39/42/9 40/37/9 33/40/9 34/43/9
f 35/39/2 36/44/2 34/43/2 33/40/2
f 38/38/10 37/41/10 36/44/10 35/39/10
f 38/38/1 40/37/1 39/42/1 37/41/1
usemtl White.183
f 28/45/1 4/46/1 3/47/1
f 28/45/1 27/48/1 4/46/1
f 31/49/1 2/50/1 1/51/1
f 31/49/1 29/52/1 2/50/1
f 14/53/2 12/54/2 13/55/2
f 26/56/2 12/54/2 14/53/2
f 32/57/2 30/58/2 11/59/2
f 10/60/2 30/58/2 32/57/2
f 27/61/3 28/62/3 12/63/3 26/64/3
f 28/62/4 3/65/4 13/66/4 12/63/4
f 3/65/5 4/67/5 14/68/5 13/66/5
f 4/67/6 27/69/6 26/70/6 14/68/6
f 29/71/3 31/72/3 30/73/3 10/60/3
f 31/72/4 1/74/4 11/75/4 30/73/4
f 1/74/5 2/76/5 32/77/5 11/75/5
f 2/76/6 29/78/6 10/79/6 32/77/6
o Button_ID3
v -0.423657 0.620224 -0.027144
v 0.422141 0.620245 -0.113509
v -0.423657 0.620245 -0.113509
v 0.422141 0.620224 -0.027144
v 0.422141 0.620224 -0.027144
v -0.423657 0.620224 -0.027144
v 0.422141 0.620245 -0.113509
v -0.423657 0.620245 -0.113509
v -0.500758 0.543144 -0.113527
v -0.423657 0.620224 -0.027144
v -0.423657 0.620245 -0.113509
v -0.500758 0.543123 -0.027162
v -0.500758 0.543123 -0.027162
v -0.500758 0.543144 -0.113527
v -0.423657 0.620224 -0.027144
v -0.423657 0.620245 -0.113509
v -0.500758 -0.302675 -0.027368
v -0.471656 -0.290620 -0.027365
v -0.500758 0.543123 -0.027162
v -0.423657 -0.379776 -0.027387
v -0.411602 -0.350674 -0.027380
v 0.422141 -0.379776 -0.027387
v 0.410086 -0.350674 -0.027380
v 0.470140 -0.290620 -0.027365
v 0.499242 -0.302675 -0.027368
v 0.470140 0.531068 -0.027165
v -0.471656 0.531068 -0.027165
v -0.423657 0.620224 -0.027144
v -0.411602 0.591122 -0.027151
v 0.422141 0.620224 -0.027144
v 0.410086 0.591122 -0.027151
v 0.499242 0.543123 -0.027162
v 0.499242 -0.302675 -0.027368
v 0.470140 0.531068 -0.027165
v 0.499242 0.543123 -0.027162
v 0.422141 0.620224 -0.027144
v 0.410086 0.591122 -0.027151
v -0.411602 0.591122 -0.027151
v -0.423657 0.620224 -0.027144
v -0.471656 0.531068 -0.027165
v -0.471656 -0.290620 -0.027365
v -0.500758 0.543123 -0.027162
v 0.470140 -0.290620 -0.027365
v 0.422141 -0.379776 -0.027387
v 0.410086 -0.350674 -0.027380
v -0.411602 -0.350674 -0.027380
v -0.423657 -0.379776 -0.027387
v -0.500758 -0.302675 -0.027368
v 0.422141 0.620224 -0.027144
v 0.499242 0.543144 -0.113527
v 0.422141 0.620245 -0.113509
v 0.499242 0.543123 -0.027162
v 0.499242 0.543123 -0.027162
v 0.422141 0.620224 -0.027144
v 0.499242 0.543144 -0.113527
v 0.422141 0.620245 -0.113509
v -0.423657 0.620245 -0.113509
v -0.500758 -0.302654 -0.113732
v -0.500758 0.543144 -0.113527
v -0.423657 -0.379755 -0.113751
v 0.422141 0.620245 -0.113509
v 0.422141 -0.379755 -0.113752
v 0.499242 0.543144 -0.113527
v 0.499242 -0.302654 -0.113733
v 0.499242 -0.302654 -0.113733
v 0.499242 0.543144 -0.113527
v 0.422141 -0.379755 -0.113752
v 0.422141 0.620245 -0.113509
v -0.423657 -0.379755 -0.113751
v -0.423657 0.620245 -0.113509
v -0.500758 -0.302654 -0.113732
v -0.500758 0.543144 -0.113527
v -0.500758 0.543123 -0.027162
v -0.500758 -0.302654 -0.113732
v -0.500758 -0.302675 -0.027368
v -0.500758 0.543144 -0.113527
v -0.500758 0.543144 -0.113527
v -0.500758 0.543123 -0.027162
v -0.500758 -0.302654 -0.113732
v -0.500758 -0.302675 -0.027368
v 0.499242 -0.302675 -0.027368
v 0.422141 -0.379755 -0.113752
v 0.499242 -0.302654 -0.113733
v 0.422141 -0.379776 -0.027387
v 0.422141 -0.379776 -0.027387
v 0.499242 -0.302675 -0.027368
v 0.422141 -0.379755 -0.113752
v 0.499242 -0.302654 -0.113733
v 0.499242 0.543144 -0.113527
v 0.499242 -0.302675 -0.027368
v 0.499242 -0.302654 -0.113733
v 0.499242 0.543123 -0.027162
v 0.499242 0.543123 -0.027162
v 0.499242 0.543144 -0.113527
v 0.499242 -0.302675 -0.027368
v 0.499242 -0.302654 -0.113733
v -0.423657 -0.379776 -0.027387
v -0.500758 -0.302654 -0.113732
v -0.423657 -0.379755 -0.113751
v -0.500758 -0.302675 -0.027368
v -0.500758 -0.302675 -0.027368
v -0.423657 -0.379776 -0.027387
v -0.500758 -0.302654 -0.113732
v -0.423657 -0.379755 -0.113751
v 0.422141 -0.379776 -0.027387
v -0.423657 -0.379755 -0.113751
v 0.422141 -0.379755 -0.113752
v -0.423657 -0.379776 -0.027387
v -0.423657 -0.379776 -0.027387
v 0.422141 -0.379776 -0.027387
v -0.423657 -0.379755 -0.113751
v 0.422141 -0.379755 -0.113752
vn 0.0000 1.0000 0.0002
vn -0.7071 0.7071 0.0002
vn 0.0000 -0.0002 1.0000
vn 0.7071 0.7071 0.0002
vn 0.0000 0.0002 -1.0000
vn -1.0000 0.0000 0.0000
vn 0.7071 -0.7071 -0.0002
vn 1.0000 0.0000 0.0000
vn -0.7071 -0.7071 -0.0002
vn -0.0000 -1.0000 -0.0002
usemtl Axiom_Blank_Button
s off
f 41//11 42//11 43//11
f 42//11 41//11 44//11
f 49//12 50//12 51//12
f 50//12 49//12 52//12
f 57//13 58//13 59//13
f 58//13 57//13 60//13
f 58//13 60//13 61//13
f 61//13 60//13 62//13
f 61//13 62//13 63//13
f 63//13 62//13 64//13
f 64//13 62//13 65//13
f 64//13 65//13 66//13
f 59//13 67//13 68//13
f 67//13 59//13 58//13
f 68//13 67//13 69//13
f 68//13 69//13 70//13
f 70//13 69//13 71//13
f 70//13 71//13 66//13
f 70//13 66//13 72//13
f 72//13 66//13 65//13
f 89//14 90//14 91//14
f 90//14 89//14 92//14
f 97//15 98//15 99//15
f 98//15 97//15 100//15
f 100//15 97//15 101//15
f 100//15 101//15 102//15
f 102//15 101//15 103//15
f 102//15 103//15 104//15
f 113//16 114//16 115//16
f 114//16 113//16 116//16
f 121//17 122//17 123//17
f 122//17 121//17 124//17
f 129//18 130//18 131//18
f 130//18 129//18 132//18
f 137//19 138//19 139//19
f 138//19 137//19 140//19
f 145//20 146//20 147//20
f 146//20 145//20 148//20
usemtl __auto_
f 45//20 46//20 47//20
f 48//20 47//20 46//20
f 53//17 54//17 55//17
f 56//17 55//17 54//17
f 73//15 74//15 75//15
f 75//15 74//15 76//15
f 74//15 77//15 76//15
f 77//15 78//15 76//15
f 76//15 78//15 79//15
f 78//15 80//15 79//15
f 81//15 82//15 80//15
f 79//15 80//15 82//15
f 74//15 73//15 83//15
f 73//15 84//15 83//15
f 83//15 84//15 85//15
f 85//15 84//15 86//15
f 84//15 87//15 86//15
f 86//15 87//15 81//15
f 87//15 88//15 81//15
f 82//15 81//15 88//15
f 93//19 94//19 95//19
f 96//19 95//19 94//19
f 105//13 106//13 107//13
f 106//13 108//13 107//13
f 107//13 108//13 109//13
f 108//13 110//13 109//13
f 109//13 110//13 111//13
f 112//13 111//13 110//13
f 117//18 118//18 119//18
f 120//18 119//18 118//18
f 125//12 126//12 127//12
f 128//12 127//12 126//12
f 133//16 134//16 135//16
f 136//16 135//16 134//16
f 141//14 142//14 143//14
f 144//14 143//14 142//14
f 149//11 150//11 151//11
f 152//11 151//11 150//11
o Button.001_ID13
v 0.470140 0.531068 -0.027165
v 0.441037 -0.278555 -0.071621
v 0.470140 -0.290620 -0.027365
v 0.441037 0.519025 -0.071427
v 0.441037 0.519025 -0.071427
v 0.470140 0.531068 -0.027165
v 0.441037 -0.278555 -0.071621
v 0.470140 -0.290620 -0.027365
v 0.470140 -0.290620 -0.027365
v 0.398032 -0.321560 -0.071632
v 0.410086 -0.350674 -0.027380
v 0.441037 -0.278555 -0.071621
v 0.441037 -0.278555 -0.071621
v 0.470140 -0.290620 -0.027365
v 0.398032 -0.321560 -0.071632
v 0.410086 -0.350674 -0.027380
v 0.470140 0.531068 -0.027165
v 0.398032 0.562030 -0.071417
v 0.441037 0.519025 -0.071427
v 0.410086 0.591122 -0.027151
v 0.410086 0.591122 -0.027151
v 0.470140 0.531068 -0.027165
v 0.398032 0.562030 -0.071417
v 0.441037 0.519025 -0.071427
v -0.399548 -0.321560 -0.071632
v -0.442553 0.519025 -0.071427
v -0.442553 -0.278555 -0.071621
v -0.399548 0.562030 -0.071417
v 0.398032 -0.321560 -0.071632
v 0.398032 0.562030 -0.071417
v 0.441037 -0.278555 -0.071621
v 0.441037 0.519025 -0.071427
v 0.441037 0.519025 -0.071427
v 0.441037 -0.278555 -0.071621
v 0.398032 0.562030 -0.071417
v 0.398032 -0.321560 -0.071632
v -0.399548 0.562030 -0.071417
v -0.399548 -0.321560 -0.071632
v -0.442553 0.519025 -0.071427
v -0.442553 -0.278555 -0.071621
v -0.411602 -0.350674 -0.027380
v 0.398032 -0.321560 -0.071632
v -0.399548 -0.321560 -0.071632
v 0.410086 -0.350674 -0.027380
v 0.410086 -0.350674 -0.027380
v -0.411602 -0.350674 -0.027380
v 0.398032 -0.321560 -0.071632
v -0.399548 -0.321560 -0.071632
v 0.410086 0.591122 -0.027151
v -0.399548 0.562030 -0.071417
v 0.398032 0.562030 -0.071417
v -0.411602 0.591122 -0.027151
v -0.411602 0.591122 -0.027151
v 0.410086 0.591122 -0.027151
v -0.399548 0.562030 -0.071417
v 0.398032 0.562030 -0.071417
v -0.399548 0.562030 -0.071417
v -0.471656 0.531068 -0.027165
v -0.442553 0.519025 -0.071427
v -0.411602 0.591122 -0.027151
v -0.411602 0.591122 -0.027151
v -0.399548 0.562030 -0.071417
v -0.471656 0.531068 -0.027165
v -0.442553 0.519025 -0.071427
v -0.442553 -0.278555 -0.071621
v -0.471656 0.531068 -0.027165
v -0.471656 -0.290620 -0.027365
v -0.442553 0.519025 -0.071427
v -0.442553 0.519025 -0.071427
v -0.442553 -0.278555 -0.071621
v -0.471656 0.531068 -0.027165
v -0.471656 -0.290620 -0.027365
v -0.442553 -0.278555 -0.071621
v -0.411602 -0.350674 -0.027380
v -0.399548 -0.321560 -0.071632
v -0.471656 -0.290620 -0.027365
v -0.471656 -0.290620 -0.027365
v -0.442553 -0.278555 -0.071621
v -0.411602 -0.350674 -0.027380
v -0.399548 -0.321560 -0.071632
vn -0.8355 -0.0001 0.5494
vn -0.5908 0.5907 0.5496
vn -0.5908 -0.5910 0.5493
vn 0.0000 -0.0002 1.0000
vn 0.0000 0.8354 0.5496
vn 0.0000 -0.8357 0.5492
vn 0.5908 -0.5910 0.5493
vn 0.8355 -0.0001 0.5494
vn 0.5908 0.5907 0.5496
vn 0.8355 0.0001 -0.5494
vn 0.5908 -0.5907 -0.5496
vn 0.5908 0.5910 -0.5493
vn 0.0000 0.0002 -1.0000
vn 0.0000 -0.8354 -0.5496
vn 0.0000 0.8357 -0.5492
vn -0.5908 0.5910 -0.5493
vn -0.8355 0.0001 -0.5494
vn -0.5908 -0.5907 -0.5496
usemtl Axiom_Blank_Button
s off
f 153//21 154//21 155//21
f 154//21 153//21 156//21
f 161//22 162//22 163//22
f 162//22 161//22 164//22
f 169//23 170//23 171//23
f 170//23 169//23 172//23
f 177//24 178//24 179//24
f 178//24 177//24 180//24
f 180//24 177//24 181//24
f 180//24 181//24 182//24
f 182//24 181//24 183//24
f 182//24 183//24 184//24
f 193//25 194//25 195//25
f 194//25 193//25 196//25
f 201//26 202//26 203//26
f 202//26 201//26 204//26
f 209//27 210//27 211//27
f 210//27 209//27 212//27
f 217//28 218//28 219//28
f 218//28 217//28 220//28
f 225//29 226//29 227//29
f 226//29 225//29 228//29
usemtl __auto_
f 157//30 158//30 159//30
f 160//30 159//30 158//30
f 165//31 166//31 167//31
f 168//31 167//31 166//31
f 173//32 174//32 175//32
f 176//32 175//32 174//32
f 185//33 186//33 187//33
f 186//33 188//33 187//33
f 187//33 188//33 189//33
f 188//33 190//33 189//33
f 189//33 190//33 191//33
f 192//33 191//33 190//33
f 197//34 198//34 199//34
f 200//34 199//34 198//34
f 205//35 206//35 207//35
f 208//35 207//35 206//35
f 213//36 214//36 215//36
f 216//36 215//36 214//36
f 221//37 222//37 223//37
f 224//37 223//37 222//37
f 229//38 230//38 231//38
f 232//38 231//38 230//38
