# Blender v3.1.2 OBJ File: 'C-ARMSAS.blend'
# www.blender.org
mtllib CM_-_Bridge.mtl
o SM_CM_-_Bridge_mesh.021
v -0.112069 0.043166 0.035030
v -0.105475 0.052143 0.035032
v 0.125578 0.043166 0.035030
v 0.118985 0.052143 0.035032
v -0.176748 -0.067734 0.035003
v -0.183570 -0.061759 0.035004
v -0.103727 0.036139 0.035028
v 0.117237 0.036139 0.035028
v 0.190257 -0.067734 0.035003
v 0.197080 -0.061759 0.035004
v 0.118985 0.052141 0.045438
v 0.125578 0.043163 0.045436
v 0.197080 -0.061761 0.045411
v 0.190257 -0.067737 0.045409
v 0.117237 0.036136 0.045434
v -0.103727 0.036136 0.045434
v -0.176748 -0.067737 0.045409
v -0.183570 -0.061761 0.045411
v -0.112069 0.043163 0.045436
v -0.105475 0.052141 0.045438
v -0.112069 0.113170 0.035047
v -0.105475 0.104192 0.035045
v 0.125578 0.113170 0.035047
v 0.118985 0.104192 0.035045
v -0.176748 0.224070 0.035074
v -0.183570 0.218094 0.035072
v -0.103727 0.120197 0.035048
v 0.117237 0.120197 0.035049
v 0.190257 0.224070 0.035074
v 0.197080 0.218094 0.035072
v 0.118985 0.104190 0.045451
v 0.125578 0.113168 0.045453
v 0.197080 0.218092 0.045479
v 0.190257 0.224067 0.045480
v 0.117237 0.120195 0.045455
v -0.103727 0.120195 0.045455
v -0.176748 0.224068 0.045480
v -0.183570 0.218092 0.045479
v -0.112069 0.113168 0.045453
v -0.105475 0.104190 0.045451
vt 0.405519 0.653073
vt 0.413698 0.631333
vt 0.412526 0.628438
vt 0.404330 0.650158
vt 0.405519 0.653073
vt 0.411767 0.655128
vt 0.411767 0.650158
vt 0.405519 0.653073
vt 0.454791 0.628438
vt 0.454791 0.628438
vt 0.467507 0.594610
vt 0.453307 0.626173
vt 0.453307 0.626173
vt 0.466294 0.592684
vt 0.453307 0.626173
vt 0.414009 0.626173
vt 0.414009 0.626173
vt 0.453307 0.626173
vt 0.401023 0.592684
vt 0.401023 0.592684
vt 0.414009 0.626173
vt 0.401023 0.592684
vt 0.399809 0.594610
vt 0.399809 0.594610
vt 0.412526 0.628438
vt 0.412526 0.628438
vt 0.399809 0.594610
vt 0.399809 0.594610
vt 0.399809 0.594610
vt 0.412526 0.628438
vt 0.466294 0.592684
vt 0.453618 0.631333
vt 0.453307 0.626173
vt 0.453618 0.631333
vt 0.413698 0.631333
vt 0.404330 0.650158
vt 0.404330 0.650158
vt 0.404330 0.650158
vt 0.404330 0.650158
vt 0.404330 0.650158
vt 0.404330 0.650158
vt 0.404330 0.650158
vt 0.404330 0.650158
vt 0.404330 0.650158
vt 0.404330 0.650158
vt 0.404330 0.650158
vt 0.404330 0.650158
vt 0.404330 0.650158
vt 0.404330 0.650158
vt 0.404330 0.650158
vt 0.404330 0.650158
vt 0.404330 0.650158
vt 0.404330 0.650158
vt 0.404330 0.650158
vt 0.405519 0.653073
vt 0.413698 0.631333
vt 0.412526 0.628438
vt 0.404330 0.650158
vt 0.405519 0.653073
vt 0.411767 0.655128
vt 0.411767 0.650158
vt 0.405519 0.653073
vt 0.454791 0.628438
vt 0.454791 0.628438
vt 0.467507 0.594610
vt 0.453307 0.626173
vt 0.453307 0.626173
vt 0.466294 0.592684
vt 0.453307 0.626173
vt 0.414009 0.626173
vt 0.414009 0.626173
vt 0.453307 0.626173
vt 0.401023 0.592684
vt 0.401023 0.592684
vt 0.414009 0.626173
vt 0.401023 0.592684
vt 0.399809 0.594610
vt 0.399809 0.594610
vt 0.412526 0.628438
vt 0.412526 0.628438
vt 0.399809 0.594610
vt 0.399809 0.594610
vt 0.399809 0.594610
vt 0.412526 0.628438
vt 0.466294 0.592684
vt 0.453618 0.631333
vt 0.453307 0.626173
vt 0.453618 0.631333
vt 0.413698 0.631333
vt 0.404330 0.650158
vt 0.404330 0.650158
vt 0.404330 0.650158
vt 0.404330 0.650158
vt 0.404330 0.650158
vt 0.404330 0.650158
vt 0.404330 0.650158
vt 0.404330 0.650158
vt 0.404330 0.650158
vt 0.404330 0.650158
vt 0.404330 0.650158
vt 0.404330 0.650158
vt 0.404330 0.650158
vt 0.404330 0.650158
vt 0.404330 0.650158
vt 0.404330 0.650158
vt 0.404330 0.650158
vt 0.404330 0.650158
vt 0.404330 0.650158
vn -0.0000 -0.0002 1.0000
vn -0.8264 -0.5631 -0.0001
vn 0.8181 0.5751 0.0001
vn -0.0000 1.0000 0.0002
vn -0.8181 0.5751 0.0001
vn 0.6589 0.7523 0.0002
vn 0.8264 -0.5631 -0.0001
vn 0.8163 -0.5776 -0.0001
vn 0.0000 0.0002 -1.0000
vn 0.8160 0.5780 0.0001
vn 0.8163 0.5776 0.0001
vn 0.8264 0.5631 0.0001
vn 0.6589 -0.7523 -0.0002
vn -0.8181 -0.5751 -0.0001
vn 0.8181 -0.5751 -0.0001
vn -0.6589 -0.7523 -0.0002
vn 0.8060 0.5920 0.0001
vn 0.8163 0.5777 0.0001
vn 0.8060 -0.5920 -0.0001
vn -0.6589 0.7523 0.0002
vn -0.8163 -0.5776 -0.0001
vn -0.8160 0.5780 0.0001
vn -0.8163 0.5776 0.0001
vn -0.8264 0.5631 0.0001
vn -0.8060 0.5920 0.0001
vn -0.8163 0.5777 0.0001
vn -0.8060 -0.5920 -0.0001
usemtl White.170
s 1
f 2/1/1 7/2/1 4/3/1
f 4/3/1 7/4/1 8/5/1
f 4/6/1 8/7/1 9/8/1
f 13/9/2 3/10/2 10/11/2
f 9/12/3 15/13/3 14/14/3
f 7/15/4 15/16/4 8/17/4
f 15/16/4 7/15/4 16/18/4
f 7/19/5 17/20/5 16/21/5
f 6/22/6 17/23/6 5/24/6
f 6/25/7 19/26/8 18/27/7
f 19/28/8 6/29/7 1/30/8
f 16/18/9 19/31/9 20/32/9
f 16/21/9 20/33/9 11/34/9
f 16/21/9 11/34/9 15/35/9
f 3/36/9 10/37/9 9/38/9
f 4/39/9 3/36/9 9/38/9
f 1/40/9 2/41/9 7/4/9
f 1/40/9 7/4/9 5/42/9
f 5/42/9 6/43/9 1/40/9
f 3/36/10 12/44/11 13/45/12
f 13/45/13 14/46/13 9/38/13
f 9/38/13 10/37/13 13/45/13
f 15/47/14 8/48/14 9/38/14
f 17/49/15 5/42/15 7/4/15
f 17/49/16 18/50/16 6/43/16
f 20/51/4 11/52/4 4/39/4
f 4/39/4 2/41/4 20/51/4
f 14/46/1 13/45/1 12/44/1
f 14/46/1 12/44/1 11/52/1
f 15/47/1 14/46/1 11/52/1
f 17/49/1 16/53/1 19/54/1
f 19/54/1 18/50/1 17/49/1
f 3/36/10 4/39/17 11/52/17 12/44/18
f 19/31/8 1/40/8 2/41/19 20/32/19
f 22/55/9 27/56/9 24/57/9
f 24/57/9 27/58/9 28/59/9
f 24/60/9 28/61/9 29/62/9
f 33/63/7 23/64/7 30/65/7
f 29/66/5 35/67/5 34/68/5
f 27/69/4 35/70/4 28/71/4
f 35/70/4 27/69/4 36/72/4
f 27/73/3 37/74/3 36/75/3
f 26/76/20 37/77/20 25/78/20
f 26/79/2 39/80/21 38/81/2
f 39/82/21 26/83/2 21/84/21
f 36/72/1 39/85/1 40/86/1
f 36/75/1 40/87/1 31/88/1
f 36/75/1 31/88/1 35/89/1
f 23/90/1 30/91/1 29/92/1
f 24/93/1 23/90/1 29/92/1
f 21/94/1 22/95/1 27/58/1
f 21/94/1 27/58/1 25/96/1
f 25/96/1 26/97/1 21/94/1
f 23/90/22 32/98/23 33/99/24
f 33/99/16 34/100/16 29/92/16
f 29/92/16 30/91/16 33/99/16
f 35/101/15 28/102/15 29/92/15
f 37/103/14 25/96/14 27/58/14
f 37/103/13 38/104/13 26/97/13
f 40/105/4 31/106/4 24/93/4
f 24/93/4 22/95/4 40/105/4
f 34/100/9 33/99/9 32/98/9
f 34/100/9 32/98/9 31/106/9
f 35/101/9 34/100/9 31/106/9
f 37/103/9 36/107/9 39/108/9
f 39/108/9 38/104/9 37/103/9
f 23/90/22 24/93/25 31/106/25 32/98/26
f 39/85/21 21/94/21 22/95/27 40/86/27
o Button_ID3
v -0.423657 0.620224 -0.027144
v 0.422141 0.620245 -0.113509
v -0.423657 0.620245 -0.113509
v 0.422141 0.620224 -0.027144
v 0.422141 0.620224 -0.027144
v -0.423657 0.620224 -0.027144
v 0.422141 0.620245 -0.113509
v -0.423657 0.620245 -0.113509
v -0.500758 0.543144 -0.113527
v -0.423657 0.620224 -0.027144
v -0.423657 0.620245 -0.113509
v -0.500758 0.543123 -0.027162
v -0.500758 0.543123 -0.027162
v -0.500758 0.543144 -0.113527
v -0.423657 0.620224 -0.027144
v -0.423657 0.620245 -0.113509
v -0.500758 -0.302675 -0.027368
v -0.471656 -0.290620 -0.027365
v -0.500758 0.543123 -0.027162
v -0.423657 -0.379776 -0.027387
v -0.411602 -0.350674 -0.027380
v 0.422141 -0.379776 -0.027387
v 0.410086 -0.350674 -0.027380
v 0.470140 -0.290620 -0.027365
v 0.499242 -0.302675 -0.027368
v 0.470140 0.531068 -0.027165
v -0.471656 0.531068 -0.027165
v -0.423657 0.620224 -0.027144
v -0.411602 0.591122 -0.027151
v 0.422141 0.620224 -0.027144
v 0.410086 0.591122 -0.027151
v 0.499242 0.543123 -0.027162
v 0.499242 -0.302675 -0.027368
v 0.470140 0.531068 -0.027165
v 0.499242 0.543123 -0.027162
v 0.422141 0.620224 -0.027144
v 0.410086 0.591122 -0.027151
v -0.411602 0.591122 -0.027151
v -0.423657 0.620224 -0.027144
v -0.471656 0.531068 -0.027165
v -0.471656 -0.290620 -0.027365
v -0.500758 0.543123 -0.027162
v 0.470140 -0.290620 -0.027365
v 0.422141 -0.379776 -0.027387
v 0.410086 -0.350674 -0.027380
v -0.411602 -0.350674 -0.027380
v -0.423657 -0.379776 -0.027387
v -0.500758 -0.302675 -0.027368
v 0.422141 0.620224 -0.027144
v 0.499242 0.543144 -0.113527
v 0.422141 0.620245 -0.113509
v 0.499242 0.543123 -0.027162
v 0.499242 0.543123 -0.027162
v 0.422141 0.620224 -0.027144
v 0.499242 0.543144 -0.113527
v 0.422141 0.620245 -0.113509
v -0.423657 0.620245 -0.113509
v -0.500758 -0.302654 -0.113732
v -0.500758 0.543144 -0.113527
v -0.423657 -0.379755 -0.113751
v 0.422141 0.620245 -0.113509
v 0.422141 -0.379755 -0.113752
v 0.499242 0.543144 -0.113527
v 0.499242 -0.302654 -0.113733
v 0.499242 -0.302654 -0.113733
v 0.499242 0.543144 -0.113527
v 0.422141 -0.379755 -0.113752
v 0.422141 0.620245 -0.113509
v -0.423657 -0.379755 -0.113751
v -0.423657 0.620245 -0.113509
v -0.500758 -0.302654 -0.113732
v -0.500758 0.543144 -0.113527
v -0.500758 0.543123 -0.027162
v -0.500758 -0.302654 -0.113732
v -0.500758 -0.302675 -0.027368
v -0.500758 0.543144 -0.113527
v -0.500758 0.543144 -0.113527
v -0.500758 0.543123 -0.027162
v -0.500758 -0.302654 -0.113732
v -0.500758 -0.302675 -0.027368
v 0.499242 -0.302675 -0.027368
v 0.422141 -0.379755 -0.113752
v 0.499242 -0.302654 -0.113733
v 0.422141 -0.379776 -0.027387
v 0.422141 -0.379776 -0.027387
v 0.499242 -0.302675 -0.027368
v 0.422141 -0.379755 -0.113752
v 0.499242 -0.302654 -0.113733
v 0.499242 0.543144 -0.113527
v 0.499242 -0.302675 -0.027368
v 0.499242 -0.302654 -0.113733
v 0.499242 0.543123 -0.027162
v 0.499242 0.543123 -0.027162
v 0.499242 0.543144 -0.113527
v 0.499242 -0.302675 -0.027368
v 0.499242 -0.302654 -0.113733
v -0.423657 -0.379776 -0.027387
v -0.500758 -0.302654 -0.113732
v -0.423657 -0.379755 -0.113751
v -0.500758 -0.302675 -0.027368
v -0.500758 -0.302675 -0.027368
v -0.423657 -0.379776 -0.027387
v -0.500758 -0.302654 -0.113732
v -0.423657 -0.379755 -0.113751
v 0.422141 -0.379776 -0.027387
v -0.423657 -0.379755 -0.113751
v 0.422141 -0.379755 -0.113752
v -0.423657 -0.379776 -0.027387
v -0.423657 -0.379776 -0.027387
v 0.422141 -0.379776 -0.027387
v -0.423657 -0.379755 -0.113751
v 0.422141 -0.379755 -0.113752
vn 0.0000 1.0000 0.0002
vn -0.7071 0.7071 0.0002
vn 0.0000 -0.0002 1.0000
vn 0.7071 0.7071 0.0002
vn 0.0000 0.0002 -1.0000
vn -1.0000 0.0000 0.0000
vn 0.7071 -0.7071 -0.0002
vn 1.0000 0.0000 0.0000
vn -0.7071 -0.7071 -0.0002
vn -0.0000 -1.0000 -0.0002
usemtl Axiom_Blank_Button
s off
f 41//28 42//28 43//28
f 42//28 41//28 44//28
f 49//29 50//29 51//29
f 50//29 49//29 52//29
f 57//30 58//30 59//30
f 58//30 57//30 60//30
f 58//30 60//30 61//30
f 61//30 60//30 62//30
f 61//30 62//30 63//30
f 63//30 62//30 64//30
f 64//30 62//30 65//30
f 64//30 65//30 66//30
f 59//30 67//30 68//30
f 67//30 59//30 58//30
f 68//30 67//30 69//30
f 68//30 69//30 70//30
f 70//30 69//30 71//30
f 70//30 71//30 66//30
f 70//30 66//30 72//30
f 72//30 66//30 65//30
f 89//31 90//31 91//31
f 90//31 89//31 92//31
f 97//32 98//32 99//32
f 98//32 97//32 100//32
f 100//32 97//32 101//32
f 100//32 101//32 102//32
f 102//32 101//32 103//32
f 102//32 103//32 104//32
f 113//33 114//33 115//33
f 114//33 113//33 116//33
f 121//34 122//34 123//34
f 122//34 121//34 124//34
f 129//35 130//35 131//35
f 130//35 129//35 132//35
f 137//36 138//36 139//36
f 138//36 137//36 140//36
f 145//37 146//37 147//37
f 146//37 145//37 148//37
usemtl __auto_
f 45//37 46//37 47//37
f 48//37 47//37 46//37
f 53//34 54//34 55//34
f 56//34 55//34 54//34
f 73//32 74//32 75//32
f 75//32 74//32 76//32
f 74//32 77//32 76//32
f 77//32 78//32 76//32
f 76//32 78//32 79//32
f 78//32 80//32 79//32
f 81//32 82//32 80//32
f 79//32 80//32 82//32
f 74//32 73//32 83//32
f 73//32 84//32 83//32
f 83//32 84//32 85//32
f 85//32 84//32 86//32
f 84//32 87//32 86//32
f 86//32 87//32 81//32
f 87//32 88//32 81//32
f 82//32 81//32 88//32
f 93//36 94//36 95//36
f 96//36 95//36 94//36
f 105//30 106//30 107//30
f 106//30 108//30 107//30
f 107//30 108//30 109//30
f 108//30 110//30 109//30
f 109//30 110//30 111//30
f 112//30 111//30 110//30
f 117//35 118//35 119//35
f 120//35 119//35 118//35
f 125//29 126//29 127//29
f 128//29 127//29 126//29
f 133//33 134//33 135//33
f 136//33 135//33 134//33
f 141//31 142//31 143//31
f 144//31 143//31 142//31
f 149//28 150//28 151//28
f 152//28 151//28 150//28
o Button.001_ID13
v 0.470140 0.531068 -0.027165
v 0.441037 -0.278555 -0.071621
v 0.470140 -0.290620 -0.027365
v 0.441037 0.519025 -0.071427
v 0.441037 0.519025 -0.071427
v 0.470140 0.531068 -0.027165
v 0.441037 -0.278555 -0.071621
v 0.470140 -0.290620 -0.027365
v 0.470140 -0.290620 -0.027365
v 0.398032 -0.321560 -0.071632
v 0.410086 -0.350674 -0.027380
v 0.441037 -0.278555 -0.071621
v 0.441037 -0.278555 -0.071621
v 0.470140 -0.290620 -0.027365
v 0.398032 -0.321560 -0.071632
v 0.410086 -0.350674 -0.027380
v 0.470140 0.531068 -0.027165
v 0.398032 0.562030 -0.071417
v 0.441037 0.519025 -0.071427
v 0.410086 0.591122 -0.027151
v 0.410086 0.591122 -0.027151
v 0.470140 0.531068 -0.027165
v 0.398032 0.562030 -0.071417
v 0.441037 0.519025 -0.071427
v -0.399548 -0.321560 -0.071632
v -0.442553 0.519025 -0.071427
v -0.442553 -0.278555 -0.071621
v -0.399548 0.562030 -0.071417
v 0.398032 -0.321560 -0.071632
v 0.398032 0.562030 -0.071417
v 0.441037 -0.278555 -0.071621
v 0.441037 0.519025 -0.071427
v 0.441037 0.519025 -0.071427
v 0.441037 -0.278555 -0.071621
v 0.398032 0.562030 -0.071417
v 0.398032 -0.321560 -0.071632
v -0.399548 0.562030 -0.071417
v -0.399548 -0.321560 -0.071632
v -0.442553 0.519025 -0.071427
v -0.442553 -0.278555 -0.071621
v -0.411602 -0.350674 -0.027380
v 0.398032 -0.321560 -0.071632
v -0.399548 -0.321560 -0.071632
v 0.410086 -0.350674 -0.027380
v 0.410086 -0.350674 -0.027380
v -0.411602 -0.350674 -0.027380
v 0.398032 -0.321560 -0.071632
v -0.399548 -0.321560 -0.071632
v 0.410086 0.591122 -0.027151
v -0.399548 0.562030 -0.071417
v 0.398032 0.562030 -0.071417
v -0.411602 0.591122 -0.027151
v -0.411602 0.591122 -0.027151
v 0.410086 0.591122 -0.027151
v -0.399548 0.562030 -0.071417
v 0.398032 0.562030 -0.071417
v -0.399548 0.562030 -0.071417
v -0.471656 0.531068 -0.027165
v -0.442553 0.519025 -0.071427
v -0.411602 0.591122 -0.027151
v -0.411602 0.591122 -0.027151
v -0.399548 0.562030 -0.071417
v -0.471656 0.531068 -0.027165
v -0.442553 0.519025 -0.071427
v -0.442553 -0.278555 -0.071621
v -0.471656 0.531068 -0.027165
v -0.471656 -0.290620 -0.027365
v -0.442553 0.519025 -0.071427
v -0.442553 0.519025 -0.071427
v -0.442553 -0.278555 -0.071621
v -0.471656 0.531068 -0.027165
v -0.471656 -0.290620 -0.027365
v -0.442553 -0.278555 -0.071621
v -0.411602 -0.350674 -0.027380
v -0.399548 -0.321560 -0.071632
v -0.471656 -0.290620 -0.027365
v -0.471656 -0.290620 -0.027365
v -0.442553 -0.278555 -0.071621
v -0.411602 -0.350674 -0.027380
v -0.399548 -0.321560 -0.071632
vn -0.8355 -0.0001 0.5494
vn -0.5908 0.5907 0.5496
vn -0.5908 -0.5910 0.5493
vn 0.0000 -0.0002 1.0000
vn 0.0000 0.8354 0.5496
vn 0.0000 -0.8357 0.5492
vn 0.5908 -0.5910 0.5493
vn 0.8355 -0.0001 0.5494
vn 0.5908 0.5907 0.5496
vn 0.8355 0.0001 -0.5494
vn 0.5908 -0.5907 -0.5496
vn 0.5908 0.5910 -0.5493
vn 0.0000 0.0002 -1.0000
vn 0.0000 -0.8354 -0.5496
vn 0.0000 0.8357 -0.5492
vn -0.5908 0.5910 -0.5493
vn -0.8355 0.0001 -0.5494
vn -0.5908 -0.5907 -0.5496
usemtl Axiom_Blank_Button
s off
f 153//38 154//38 155//38
f 154//38 153//38 156//38
f 161//39 162//39 163//39
f 162//39 161//39 164//39
f 169//40 170//40 171//40
f 170//40 169//40 172//40
f 177//41 178//41 179//41
f 178//41 177//41 180//41
f 180//41 177//41 181//41
f 180//41 181//41 182//41
f 182//41 181//41 183//41
f 182//41 183//41 184//41
f 193//42 194//42 195//42
f 194//42 193//42 196//42
f 201//43 202//43 203//43
f 202//43 201//43 204//43
f 209//44 210//44 211//44
f 210//44 209//44 212//44
f 217//45 218//45 219//45
f 218//45 217//45 220//45
f 225//46 226//46 227//46
f 226//46 225//46 228//46
usemtl __auto_
f 157//47 158//47 159//47
f 160//47 159//47 158//47
f 165//48 166//48 167//48
f 168//48 167//48 166//48
f 173//49 174//49 175//49
f 176//49 175//49 174//49
f 185//50 186//50 187//50
f 186//50 188//50 187//50
f 187//50 188//50 189//50
f 188//50 190//50 189//50
f 189//50 190//50 191//50
f 192//50 191//50 190//50
f 197//51 198//51 199//51
f 200//51 199//51 198//51
f 205//52 206//52 207//52
f 208//52 207//52 206//52
f 213//53 214//53 215//53
f 216//53 215//53 214//53
f 221//54 222//54 223//54
f 224//54 223//54 222//54
f 229//55 230//55 231//55
f 232//55 231//55 230//55
