# Blender v3.1.2 OBJ File: 'C-ARMSAS.blend'
# www.blender.org
mtllib CM_-_EA.mtl
o SM_CM_-_EA_path1763-2.083
v 0.097788 -0.136756 0.069358
v -0.081542 -0.136756 0.069358
v -0.167158 0.243083 0.069451
v -0.167942 0.246583 0.069451
v 0.176996 0.240840 0.069450
v -0.076944 -0.131014 0.069360
v -0.099902 0.212230 0.069443
v -0.100550 0.206342 0.069442
v -0.100550 0.204315 0.069441
v -0.108927 0.204315 0.069441
v -0.108927 0.197967 0.069440
v -0.099632 0.195889 0.069439
v -0.111194 0.195889 0.069439
v -0.111194 0.214310 0.069444
v -0.086328 0.200804 0.069440
v -0.097810 0.195889 0.069439
v -0.088676 0.214310 0.069444
v -0.087055 0.202964 0.069441
v -0.090109 0.212150 0.069443
v 0.097788 -0.136746 0.025701
v -0.081542 -0.136746 0.025701
v -0.167158 0.243094 0.025793
v 0.184188 0.246593 0.025794
v -0.160753 0.240850 0.025792
v -0.076944 -0.131003 0.025702
v -0.108927 0.212231 0.064561
v -0.100550 0.204316 0.064559
v -0.108927 0.197968 0.064557
v -0.099632 0.195890 0.064557
v -0.111194 0.195890 0.064557
v -0.111194 0.214311 0.064561
v -0.099902 0.214311 0.064561
v -0.082356 0.195890 0.064557
v -0.086328 0.200805 0.064558
v -0.095459 0.195890 0.064557
v -0.088676 0.214311 0.064561
v -0.167942 0.246593 0.025794
v 0.184188 0.246583 0.069451
v 0.093187 -0.131003 0.025702
v 0.093187 -0.131014 0.069360
v 0.176996 0.240850 0.025792
v -0.160753 0.240840 0.069450
v -0.099902 0.212231 0.064561
v -0.108927 0.212230 0.069443
v -0.108927 0.206343 0.064559
v -0.108927 0.206342 0.069442
v -0.100550 0.206343 0.064559
v -0.108927 0.204316 0.064559
v -0.099632 0.197968 0.064557
v -0.099632 0.197967 0.069440
v -0.099902 0.214310 0.069444
v -0.082356 0.195889 0.069439
v -0.084704 0.195890 0.064557
v -0.084704 0.195889 0.069439
v -0.093811 0.200805 0.064558
v -0.093811 0.200804 0.069440
v -0.095459 0.195889 0.069439
v -0.097810 0.195890 0.064557
v -0.091487 0.214311 0.064561
v -0.091487 0.214310 0.069444
v -0.087055 0.202966 0.064558
v -0.090026 0.212151 0.064561
v -0.093108 0.202966 0.064558
v -0.093108 0.202964 0.069441
v -0.073351 0.190646 0.062759
v -0.073352 0.219910 0.062766
v -0.119490 0.190646 0.062759
v -0.119491 0.219910 0.062766
v -0.118812 0.219411 0.066005
v -0.118810 0.191143 0.065999
v -0.074032 0.219411 0.066005
v -0.074030 0.191143 0.065999
vt 0.562500 0.000000
vt 0.312500 0.000000
vt 0.593750 0.000000
vt 0.625000 0.000000
vt 0.281250 0.000000
vt 0.812500 0.000000
vt 0.968750 0.000000
vt 0.843750 0.000000
vt 0.875000 0.000000
vt 0.937500 0.000000
vt 0.656250 0.000000
vt 0.343750 0.000000
vt 1.000000 0.000000
vt 0.906250 0.000000
vt 0.437500 0.000000
vt 0.375000 0.000000
vt 0.406250 0.000000
vt 0.468750 0.000000
vt 0.750000 0.000000
vt 0.718750 0.000000
vt 0.781250 0.000000
vt 0.687500 0.000000
vt 0.500000 0.000000
vt 0.531250 0.000000
vt 0.312500 0.000000
vt 0.562500 0.000000
vt 0.593750 0.000000
vt 0.625000 0.000000
vt 0.281250 0.000000
vt 0.968750 0.000000
vt 0.812500 0.000000
vt 0.843750 0.000000
vt 0.875000 0.000000
vt 0.656250 0.000000
vt 0.937500 0.000000
vt 0.343750 0.000000
vt 1.000000 0.000000
vt 0.906250 0.000000
vt 0.437500 0.000000
vt 0.375000 0.000000
vt 0.406250 0.000000
vt 0.468750 0.000000
vt 0.750000 0.000000
vt 0.718750 0.000000
vt 0.781250 0.000000
vt 0.687500 0.000000
vt 0.500000 0.000000
vt 0.531250 0.000000
vt 0.000000 1.000000
vt 0.083333 1.000000
vt 0.083333 0.000000
vt 0.000000 0.000000
vt 0.166667 1.000000
vt 0.166667 0.000000
vt 0.250000 1.000000
vt 0.250000 0.000000
vt 0.333333 1.000000
vt 0.333333 0.000000
vt 0.416667 1.000000
vt 0.416667 0.000000
vt 0.500000 1.000000
vt 0.500000 0.000000
vt 0.583333 1.000000
vt 0.583333 0.000000
vt 0.666667 1.000000
vt 0.666667 0.000000
vt 0.750000 1.000000
vt 0.750000 0.000000
vt 0.833333 1.000000
vt 0.833333 0.000000
vt 0.916667 1.000000
vt 0.916667 0.000000
vt 1.000000 1.000000
vt 1.000000 0.000000
vt 0.000000 1.000000
vt 0.125000 1.000000
vt 0.125000 0.000000
vt 0.000000 0.000000
vt 0.250000 1.000000
vt 0.250000 0.000000
vt 0.375000 1.000000
vt 0.375000 0.000000
vt 0.500000 1.000000
vt 0.500000 0.000000
vt 0.625000 1.000000
vt 0.625000 0.000000
vt 0.750000 1.000000
vt 0.750000 0.000000
vt 0.875000 1.000000
vt 1.000000 1.000000
vt 1.000000 0.000000
vt 0.000000 1.000000
vt 0.250000 1.000000
vt 0.250000 0.000000
vt 0.000000 0.000000
vt 0.500000 1.000000
vt 0.750000 1.000000
vt 0.750000 0.000000
vt 0.500000 0.000000
vt 1.000000 1.000000
vt 1.000000 0.000000
vt 0.000000 0.000000
vt 0.000000 0.000000
vt 0.000000 0.000000
vt 0.000000 0.000000
vt 0.000000 0.000000
vt 0.000000 0.000000
vt 0.000000 0.000000
vt 0.000000 0.000000
vt 0.062500 0.000000
vt 0.125000 0.000000
vt 0.093750 0.000000
vt 0.187500 0.000000
vt 0.000000 0.000000
vt 0.031250 0.000000
vt 0.218750 0.000000
vt 0.250000 0.000000
vt 0.156250 0.000000
vt 0.125000 0.000000
vt 0.062500 0.000000
vt 0.093750 0.000000
vt 0.187500 0.000000
vt 0.000000 0.000000
vt 0.218750 0.000000
vt 0.031250 0.000000
vt 0.250000 0.000000
vt 0.156250 0.000000
vt 0.000000 1.000000
vt 0.200000 1.000000
vt 0.200000 0.000000
vt 0.400000 1.000000
vt 0.400000 0.000000
vt 0.600000 1.000000
vt 0.600000 0.000000
vt 0.800000 1.000000
vt 0.800000 0.000000
vt 1.000000 1.000000
vt 1.000000 0.000000
vt 0.000000 1.000000
vt 0.250000 1.000000
vt 0.250000 0.000000
vt 0.000000 0.000000
vt 0.500000 1.000000
vt 0.500000 0.000000
vt 0.750000 1.000000
vt 0.750000 0.000000
vt 1.000000 1.000000
vt 1.000000 0.000000
vn 0.0000 -0.0002 1.0000
vn 0.0000 0.0002 -1.0000
vn 0.0000 -1.0000 -0.0002
vn 1.0000 -0.0000 0.0000
vn 0.0000 1.0000 0.0002
vn -1.0000 0.0000 0.0000
vn -0.9495 -0.3137 -0.0001
vn 0.9481 -0.3178 -0.0001
vn -0.9458 0.3246 0.0001
vn 0.9459 0.3245 0.0001
vn -0.9502 -0.3117 -0.0082
vn 0.9493 -0.3142 0.0080
vn 0.0000 -0.9884 0.1518
vn 0.0000 0.9883 0.1522
vn 0.9787 0.0000 0.2052
vn -0.9787 -0.0001 0.2052
vn -0.9755 -0.2199 -0.0001
vn -0.9757 -0.2192 -0.0001
vn -0.9758 -0.2186 -0.0001
vn 0.9755 -0.2199 -0.0001
vn -0.9755 0.2199 0.0001
vn 0.9755 0.2199 0.0001
usemtl Text.178
s 1
f 13/1/1 44/2/1 14/3/1
f 44/2/1 51/4/1 14/3/1
f 44/2/1 7/5/1 51/4/1
f 16/6/1 19/7/1 60/8/1
f 19/7/1 17/9/1 60/8/1
f 19/10/1 52/11/1 17/9/1
f 13/1/1 46/12/1 44/2/1
f 16/6/1 64/13/1 19/7/1
f 18/14/1 52/11/1 19/10/1
f 13/1/1 10/15/1 46/12/1
f 10/15/1 8/16/1 46/12/1
f 10/15/1 9/17/1 8/16/1
f 13/1/1 11/18/1 10/15/1
f 16/6/1 56/19/1 64/13/1
f 56/19/1 18/14/1 64/13/1
f 56/19/1 15/20/1 18/14/1
f 15/20/1 52/11/1 18/14/1
f 16/6/1 57/21/1 56/19/1
f 54/22/1 52/11/1 15/20/1
f 13/1/1 50/23/1 11/18/1
f 13/1/1 12/24/1 50/23/1
f 26/25/2 30/26/2 31/27/2
f 32/28/2 26/25/2 31/27/2
f 43/29/2 26/25/2 32/28/2
f 62/30/2 58/31/2 59/32/2
f 36/33/2 62/30/2 59/32/2
f 33/34/2 62/35/2 36/33/2
f 45/36/2 30/26/2 26/25/2
f 63/37/2 58/31/2 62/30/2
f 33/34/2 61/38/2 62/35/2
f 48/39/2 30/26/2 45/36/2
f 47/40/2 48/39/2 45/36/2
f 27/41/2 48/39/2 47/40/2
f 28/42/2 30/26/2 48/39/2
f 55/43/2 58/31/2 63/37/2
f 61/38/2 55/43/2 63/37/2
f 34/44/2 55/43/2 61/38/2
f 33/34/2 34/44/2 61/38/2
f 35/45/2 58/31/2 55/43/2
f 33/34/2 53/46/2 34/44/2
f 49/47/2 30/26/2 28/42/2
f 29/48/2 30/26/2 49/47/2
f 7/49/3 44/50/3 26/51/3 43/52/3
f 44/50/4 46/53/4 45/54/4 26/51/4
f 46/53/5 8/55/5 47/56/5 45/54/5
f 8/55/4 9/57/4 27/58/4 47/56/4
f 9/57/3 10/59/3 48/60/3 27/58/3
f 10/59/4 11/61/4 28/62/4 48/60/4
f 11/61/5 50/63/5 49/64/5 28/62/5
f 50/63/4 12/65/4 29/66/4 49/64/4
f 12/65/3 13/67/3 30/68/3 29/66/3
f 13/67/6 14/69/6 31/70/6 30/68/6
f 14/69/5 51/71/5 32/72/5 31/70/5
f 51/71/4 7/73/4 43/74/4 32/72/4
f 52/75/3 54/76/3 53/77/3 33/78/3
f 54/76/7 15/79/7 34/80/7 53/77/7
f 15/79/3 56/81/3 55/82/3 34/80/3
f 56/81/8 57/83/8 35/84/8 55/82/8
f 57/83/3 16/85/3 58/86/3 35/84/3
f 16/85/9 60/87/9 59/88/9 58/86/9
f 60/87/5 17/89/5 36/33/5 59/88/5
f 17/89/10 52/90/10 33/91/10 36/33/10
f 18/92/11 19/93/11 62/94/11 61/95/11
f 19/96/12 64/97/12 63/98/12 62/99/12
f 64/97/5 18/100/5 61/101/5 63/98/5
usemtl Outline.178
f 72/102/13 70/103/13 67/104/13 65/105/13
f 69/106/14 71/107/14 66/108/14 68/109/14
f 71/107/15 72/102/15 65/105/15 66/108/15
f 67/104/2 68/109/2 66/108/2 65/105/2
f 70/103/16 69/106/16 68/109/16 67/104/16
f 70/103/1 72/102/1 71/107/1 69/106/1
usemtl White.178
f 3/110/1 38/111/1 4/112/1
f 3/110/1 5/113/1 38/111/1
f 5/113/1 1/114/1 38/111/1
f 2/115/1 42/116/1 3/110/1
f 42/116/1 5/113/1 3/110/1
f 2/115/1 6/117/1 42/116/1
f 40/118/1 1/114/1 5/113/1
f 2/115/1 40/118/1 6/117/1
f 2/115/1 1/114/1 40/118/1
f 23/119/2 22/120/2 37/121/2
f 41/122/2 22/120/2 23/119/2
f 20/123/2 41/122/2 23/119/2
f 24/124/2 21/125/2 22/120/2
f 41/122/2 24/124/2 22/120/2
f 25/126/2 21/125/2 24/124/2
f 20/123/2 39/127/2 41/122/2
f 39/127/2 21/125/2 25/126/2
f 20/123/2 21/125/2 39/127/2
f 1/128/3 2/129/3 21/130/3 20/123/3
f 2/129/17 3/131/18 22/132/18 21/130/17
f 3/131/18 4/133/19 37/134/19 22/132/18
f 4/133/5 38/135/5 23/136/5 37/134/5
f 38/135/20 1/137/20 20/138/20 23/136/20
f 40/139/21 5/140/21 41/141/21 39/142/21
f 5/140/3 42/143/3 24/144/3 41/141/3
f 42/143/22 6/145/22 25/146/22 24/144/22
f 6/145/5 40/147/5 39/148/5 25/146/5
o Button_ID3
v -0.423657 0.620224 -0.027144
v 0.422141 0.620245 -0.113509
v -0.423657 0.620245 -0.113509
v 0.422141 0.620224 -0.027144
v 0.422141 0.620224 -0.027144
v -0.423657 0.620224 -0.027144
v 0.422141 0.620245 -0.113509
v -0.423657 0.620245 -0.113509
v -0.500758 0.543144 -0.113527
v -0.423657 0.620224 -0.027144
v -0.423657 0.620245 -0.113509
v -0.500758 0.543123 -0.027162
v -0.500758 0.543123 -0.027162
v -0.500758 0.543144 -0.113527
v -0.423657 0.620224 -0.027144
v -0.423657 0.620245 -0.113509
v -0.500758 -0.302675 -0.027368
v -0.471656 -0.290620 -0.027365
v -0.500758 0.543123 -0.027162
v -0.423657 -0.379776 -0.027387
v -0.411602 -0.350674 -0.027380
v 0.422141 -0.379776 -0.027387
v 0.410086 -0.350674 -0.027380
v 0.470140 -0.290620 -0.027365
v 0.499242 -0.302675 -0.027368
v 0.470140 0.531068 -0.027165
v -0.471656 0.531068 -0.027165
v -0.423657 0.620224 -0.027144
v -0.411602 0.591122 -0.027151
v 0.422141 0.620224 -0.027144
v 0.410086 0.591122 -0.027151
v 0.499242 0.543123 -0.027162
v 0.499242 -0.302675 -0.027368
v 0.470140 0.531068 -0.027165
v 0.499242 0.543123 -0.027162
v 0.422141 0.620224 -0.027144
v 0.410086 0.591122 -0.027151
v -0.411602 0.591122 -0.027151
v -0.423657 0.620224 -0.027144
v -0.471656 0.531068 -0.027165
v -0.471656 -0.290620 -0.027365
v -0.500758 0.543123 -0.027162
v 0.470140 -0.290620 -0.027365
v 0.422141 -0.379776 -0.027387
v 0.410086 -0.350674 -0.027380
v -0.411602 -0.350674 -0.027380
v -0.423657 -0.379776 -0.027387
v -0.500758 -0.302675 -0.027368
v 0.422141 0.620224 -0.027144
v 0.499242 0.543144 -0.113527
v 0.422141 0.620245 -0.113509
v 0.499242 0.543123 -0.027162
v 0.499242 0.543123 -0.027162
v 0.422141 0.620224 -0.027144
v 0.499242 0.543144 -0.113527
v 0.422141 0.620245 -0.113509
v -0.423657 0.620245 -0.113509
v -0.500758 -0.302654 -0.113732
v -0.500758 0.543144 -0.113527
v -0.423657 -0.379755 -0.113751
v 0.422141 0.620245 -0.113509
v 0.422141 -0.379755 -0.113752
v 0.499242 0.543144 -0.113527
v 0.499242 -0.302654 -0.113733
v 0.499242 -0.302654 -0.113733
v 0.499242 0.543144 -0.113527
v 0.422141 -0.379755 -0.113752
v 0.422141 0.620245 -0.113509
v -0.423657 -0.379755 -0.113751
v -0.423657 0.620245 -0.113509
v -0.500758 -0.302654 -0.113732
v -0.500758 0.543144 -0.113527
v -0.500758 0.543123 -0.027162
v -0.500758 -0.302654 -0.113732
v -0.500758 -0.302675 -0.027368
v -0.500758 0.543144 -0.113527
v -0.500758 0.543144 -0.113527
v -0.500758 0.543123 -0.027162
v -0.500758 -0.302654 -0.113732
v -0.500758 -0.302675 -0.027368
v 0.499242 -0.302675 -0.027368
v 0.422141 -0.379755 -0.113752
v 0.499242 -0.302654 -0.113733
v 0.422141 -0.379776 -0.027387
v 0.422141 -0.379776 -0.027387
v 0.499242 -0.302675 -0.027368
v 0.422141 -0.379755 -0.113752
v 0.499242 -0.302654 -0.113733
v 0.499242 0.543144 -0.113527
v 0.499242 -0.302675 -0.027368
v 0.499242 -0.302654 -0.113733
v 0.499242 0.543123 -0.027162
v 0.499242 0.543123 -0.027162
v 0.499242 0.543144 -0.113527
v 0.499242 -0.302675 -0.027368
v 0.499242 -0.302654 -0.113733
v -0.423657 -0.379776 -0.027387
v -0.500758 -0.302654 -0.113732
v -0.423657 -0.379755 -0.113751
v -0.500758 -0.302675 -0.027368
v -0.500758 -0.302675 -0.027368
v -0.423657 -0.379776 -0.027387
v -0.500758 -0.302654 -0.113732
v -0.423657 -0.379755 -0.113751
v 0.422141 -0.379776 -0.027387
v -0.423657 -0.379755 -0.113751
v 0.422141 -0.379755 -0.113752
v -0.423657 -0.379776 -0.027387
v -0.423657 -0.379776 -0.027387
v 0.422141 -0.379776 -0.027387
v -0.423657 -0.379755 -0.113751
v 0.422141 -0.379755 -0.113752
vn 0.0000 1.0000 0.0002
vn -0.7071 0.7071 0.0002
vn 0.0000 -0.0002 1.0000
vn 0.7071 0.7071 0.0002
vn 0.0000 0.0002 -1.0000
vn -1.0000 0.0000 0.0000
vn 0.7071 -0.7071 -0.0002
vn 1.0000 0.0000 0.0000
vn -0.7071 -0.7071 -0.0002
vn -0.0000 -1.0000 -0.0002
usemtl Axiom_Blank_Button
s off
f 73//23 74//23 75//23
f 74//23 73//23 76//23
f 81//24 82//24 83//24
f 82//24 81//24 84//24
f 89//25 90//25 91//25
f 90//25 89//25 92//25
f 90//25 92//25 93//25
f 93//25 92//25 94//25
f 93//25 94//25 95//25
f 95//25 94//25 96//25
f 96//25 94//25 97//25
f 96//25 97//25 98//25
f 91//25 99//25 100//25
f 99//25 91//25 90//25
f 100//25 99//25 101//25
f 100//25 101//25 102//25
f 102//25 101//25 103//25
f 102//25 103//25 98//25
f 102//25 98//25 104//25
f 104//25 98//25 97//25
f 121//26 122//26 123//26
f 122//26 121//26 124//26
f 129//27 130//27 131//27
f 130//27 129//27 132//27
f 132//27 129//27 133//27
f 132//27 133//27 134//27
f 134//27 133//27 135//27
f 134//27 135//27 136//27
f 145//28 146//28 147//28
f 146//28 145//28 148//28
f 153//29 154//29 155//29
f 154//29 153//29 156//29
f 161//30 162//30 163//30
f 162//30 161//30 164//30
f 169//31 170//31 171//31
f 170//31 169//31 172//31
f 177//32 178//32 179//32
f 178//32 177//32 180//32
usemtl __auto_
f 77//32 78//32 79//32
f 80//32 79//32 78//32
f 85//29 86//29 87//29
f 88//29 87//29 86//29
f 105//27 106//27 107//27
f 107//27 106//27 108//27
f 106//27 109//27 108//27
f 109//27 110//27 108//27
f 108//27 110//27 111//27
f 110//27 112//27 111//27
f 113//27 114//27 112//27
f 111//27 112//27 114//27
f 106//27 105//27 115//27
f 105//27 116//27 115//27
f 115//27 116//27 117//27
f 117//27 116//27 118//27
f 116//27 119//27 118//27
f 118//27 119//27 113//27
f 119//27 120//27 113//27
f 114//27 113//27 120//27
f 125//31 126//31 127//31
f 128//31 127//31 126//31
f 137//25 138//25 139//25
f 138//25 140//25 139//25
f 139//25 140//25 141//25
f 140//25 142//25 141//25
f 141//25 142//25 143//25
f 144//25 143//25 142//25
f 149//30 150//30 151//30
f 152//30 151//30 150//30
f 157//24 158//24 159//24
f 160//24 159//24 158//24
f 165//28 166//28 167//28
f 168//28 167//28 166//28
f 173//26 174//26 175//26
f 176//26 175//26 174//26
f 181//23 182//23 183//23
f 184//23 183//23 182//23
o Button.001_ID13
v 0.470140 0.531068 -0.027165
v 0.441037 -0.278555 -0.071621
v 0.470140 -0.290620 -0.027365
v 0.441037 0.519025 -0.071427
v 0.441037 0.519025 -0.071427
v 0.470140 0.531068 -0.027165
v 0.441037 -0.278555 -0.071621
v 0.470140 -0.290620 -0.027365
v 0.470140 -0.290620 -0.027365
v 0.398032 -0.321560 -0.071632
v 0.410086 -0.350674 -0.027380
v 0.441037 -0.278555 -0.071621
v 0.441037 -0.278555 -0.071621
v 0.470140 -0.290620 -0.027365
v 0.398032 -0.321560 -0.071632
v 0.410086 -0.350674 -0.027380
v 0.470140 0.531068 -0.027165
v 0.398032 0.562030 -0.071417
v 0.441037 0.519025 -0.071427
v 0.410086 0.591122 -0.027151
v 0.410086 0.591122 -0.027151
v 0.470140 0.531068 -0.027165
v 0.398032 0.562030 -0.071417
v 0.441037 0.519025 -0.071427
v -0.399548 -0.321560 -0.071632
v -0.442553 0.519025 -0.071427
v -0.442553 -0.278555 -0.071621
v -0.399548 0.562030 -0.071417
v 0.398032 -0.321560 -0.071632
v 0.398032 0.562030 -0.071417
v 0.441037 -0.278555 -0.071621
v 0.441037 0.519025 -0.071427
v 0.441037 0.519025 -0.071427
v 0.441037 -0.278555 -0.071621
v 0.398032 0.562030 -0.071417
v 0.398032 -0.321560 -0.071632
v -0.399548 0.562030 -0.071417
v -0.399548 -0.321560 -0.071632
v -0.442553 0.519025 -0.071427
v -0.442553 -0.278555 -0.071621
v -0.411602 -0.350674 -0.027380
v 0.398032 -0.321560 -0.071632
v -0.399548 -0.321560 -0.071632
v 0.410086 -0.350674 -0.027380
v 0.410086 -0.350674 -0.027380
v -0.411602 -0.350674 -0.027380
v 0.398032 -0.321560 -0.071632
v -0.399548 -0.321560 -0.071632
v 0.410086 0.591122 -0.027151
v -0.399548 0.562030 -0.071417
v 0.398032 0.562030 -0.071417
v -0.411602 0.591122 -0.027151
v -0.411602 0.591122 -0.027151
v 0.410086 0.591122 -0.027151
v -0.399548 0.562030 -0.071417
v 0.398032 0.562030 -0.071417
v -0.399548 0.562030 -0.071417
v -0.471656 0.531068 -0.027165
v -0.442553 0.519025 -0.071427
v -0.411602 0.591122 -0.027151
v -0.411602 0.591122 -0.027151
v -0.399548 0.562030 -0.071417
v -0.471656 0.531068 -0.027165
v -0.442553 0.519025 -0.071427
v -0.442553 -0.278555 -0.071621
v -0.471656 0.531068 -0.027165
v -0.471656 -0.290620 -0.027365
v -0.442553 0.519025 -0.071427
v -0.442553 0.519025 -0.071427
v -0.442553 -0.278555 -0.071621
v -0.471656 0.531068 -0.027165
v -0.471656 -0.290620 -0.027365
v -0.442553 -0.278555 -0.071621
v -0.411602 -0.350674 -0.027380
v -0.399548 -0.321560 -0.071632
v -0.471656 -0.290620 -0.027365
v -0.471656 -0.290620 -0.027365
v -0.442553 -0.278555 -0.071621
v -0.411602 -0.350674 -0.027380
v -0.399548 -0.321560 -0.071632
vn -0.8355 -0.0001 0.5494
vn -0.5908 0.5907 0.5496
vn -0.5908 -0.5910 0.5493
vn 0.0000 -0.0002 1.0000
vn 0.0000 0.8354 0.5496
vn 0.0000 -0.8357 0.5492
vn 0.5908 -0.5910 0.5493
vn 0.8355 -0.0001 0.5494
vn 0.5908 0.5907 0.5496
vn 0.8355 0.0001 -0.5494
vn 0.5908 -0.5907 -0.5496
vn 0.5908 0.5910 -0.5493
vn 0.0000 0.0002 -1.0000
vn 0.0000 -0.8354 -0.5496
vn 0.0000 0.8357 -0.5492
vn -0.5908 0.5910 -0.5493
vn -0.8355 0.0001 -0.5494
vn -0.5908 -0.5907 -0.5496
usemtl Axiom_Blank_Button
s off
f 185//33 186//33 187//33
f 186//33 185//33 188//33
f 193//34 194//34 195//34
f 194//34 193//34 196//34
f 201//35 202//35 203//35
f 202//35 201//35 204//35
f 209//36 210//36 211//36
f 210//36 209//36 212//36
f 212//36 209//36 213//36
f 212//36 213//36 214//36
f 214//36 213//36 215//36
f 214//36 215//36 216//36
f 225//37 226//37 227//37
f 226//37 225//37 228//37
f 233//38 234//38 235//38
f 234//38 233//38 236//38
f 241//39 242//39 243//39
f 242//39 241//39 244//39
f 249//40 250//40 251//40
f 250//40 249//40 252//40
f 257//41 258//41 259//41
f 258//41 257//41 260//41
usemtl __auto_
f 189//42 190//42 191//42
f 192//42 191//42 190//42
f 197//43 198//43 199//43
f 200//43 199//43 198//43
f 205//44 206//44 207//44
f 208//44 207//44 206//44
f 217//45 218//45 219//45
f 218//45 220//45 219//45
f 219//45 220//45 221//45
f 220//45 222//45 221//45
f 221//45 222//45 223//45
f 224//45 223//45 222//45
f 229//46 230//46 231//46
f 232//46 231//46 230//46
f 237//47 238//47 239//47
f 240//47 239//47 238//47
f 245//48 246//48 247//48
f 248//48 247//48 246//48
f 253//49 254//49 255//49
f 256//49 255//49 254//49
f 261//50 262//50 263//50
f 264//50 263//50 262//50
