# Blender v3.1.2 OBJ File: 'C-ARMSAS.blend'
# www.blender.org
mtllib era.mtl
o Button_ID3
v -0.423657 0.000126 -0.498415
v 0.422141 -0.086239 -0.498415
v -0.423657 -0.086239 -0.498415
v 0.422141 0.000126 -0.498415
v 0.422141 0.000126 -0.498415
v -0.423657 0.000126 -0.498415
v 0.422141 -0.086239 -0.498415
v -0.423657 -0.086239 -0.498415
v -0.500758 -0.086239 -0.421314
v -0.423657 0.000126 -0.498415
v -0.423657 -0.086239 -0.498415
v -0.500758 0.000126 -0.421314
v -0.500758 0.000126 -0.421314
v -0.500758 -0.086239 -0.421314
v -0.423657 0.000126 -0.498415
v -0.423657 -0.086239 -0.498415
v -0.500758 0.000126 0.424484
v -0.471656 0.000126 0.412429
v -0.500758 0.000126 -0.421314
v -0.423657 0.000126 0.501585
v -0.411602 0.000126 0.472483
v 0.422141 0.000126 0.501585
v 0.410086 0.000126 0.472483
v 0.470140 0.000126 0.412429
v 0.499242 0.000126 0.424484
v 0.470140 0.000126 -0.409259
v -0.471656 0.000126 -0.409259
v -0.423657 0.000126 -0.498415
v -0.411602 0.000126 -0.469313
v 0.422141 0.000126 -0.498415
v 0.410086 0.000126 -0.469313
v 0.499242 0.000126 -0.421314
v 0.499242 0.000126 0.424484
v 0.470140 0.000126 -0.409259
v 0.499242 0.000126 -0.421314
v 0.422141 0.000126 -0.498415
v 0.410086 0.000126 -0.469313
v -0.411602 0.000126 -0.469313
v -0.423657 0.000126 -0.498415
v -0.471656 0.000126 -0.409259
v -0.471656 0.000126 0.412429
v -0.500758 0.000126 -0.421314
v 0.470140 0.000126 0.412429
v 0.422141 0.000126 0.501585
v 0.410086 0.000126 0.472483
v -0.411602 0.000126 0.472483
v -0.423657 0.000126 0.501585
v -0.500758 0.000126 0.424484
v 0.422141 0.000126 -0.498415
v 0.499242 -0.086239 -0.421314
v 0.422141 -0.086239 -0.498415
v 0.499242 0.000126 -0.421314
v 0.499242 0.000126 -0.421314
v 0.422141 0.000126 -0.498415
v 0.499242 -0.086239 -0.421314
v 0.422141 -0.086239 -0.498415
v -0.423657 -0.086239 -0.498415
v -0.500758 -0.086238 0.424484
v -0.500758 -0.086239 -0.421314
v -0.423657 -0.086238 0.501585
v 0.422141 -0.086239 -0.498415
v 0.422141 -0.086239 0.501585
v 0.499242 -0.086239 -0.421314
v 0.499242 -0.086239 0.424484
v 0.499242 -0.086239 0.424484
v 0.499242 -0.086239 -0.421314
v 0.422141 -0.086239 0.501585
v 0.422141 -0.086239 -0.498415
v -0.423657 -0.086238 0.501585
v -0.423657 -0.086239 -0.498415
v -0.500758 -0.086238 0.424484
v -0.500758 -0.086239 -0.421314
v -0.500758 0.000126 -0.421314
v -0.500758 -0.086238 0.424484
v -0.500758 0.000126 0.424484
v -0.500758 -0.086239 -0.421314
v -0.500758 -0.086239 -0.421314
v -0.500758 0.000126 -0.421314
v -0.500758 -0.086238 0.424484
v -0.500758 0.000126 0.424484
v 0.499242 0.000126 0.424484
v 0.422141 -0.086239 0.501585
v 0.499242 -0.086239 0.424484
v 0.422141 0.000126 0.501585
v 0.422141 0.000126 0.501585
v 0.499242 0.000126 0.424484
v 0.422141 -0.086239 0.501585
v 0.499242 -0.086239 0.424484
v 0.499242 -0.086239 -0.421314
v 0.499242 0.000126 0.424484
v 0.499242 -0.086239 0.424484
v 0.499242 0.000126 -0.421314
v 0.499242 0.000126 -0.421314
v 0.499242 -0.086239 -0.421314
v 0.499242 0.000126 0.424484
v 0.499242 -0.086239 0.424484
v -0.423657 0.000126 0.501585
v -0.500758 -0.086238 0.424484
v -0.423657 -0.086238 0.501585
v -0.500758 0.000126 0.424484
v -0.500758 0.000126 0.424484
v -0.423657 0.000126 0.501585
v -0.500758 -0.086238 0.424484
v -0.423657 -0.086238 0.501585
v 0.422141 0.000126 0.501585
v -0.423657 -0.086238 0.501585
v 0.422141 -0.086239 0.501585
v -0.423657 0.000126 0.501585
v -0.423657 0.000126 0.501585
v 0.422141 0.000126 0.501585
v -0.423657 -0.086238 0.501585
v 0.422141 -0.086239 0.501585
vn 0.0000 0.0000 -1.0000
vn -0.7071 0.0000 -0.7071
vn 0.0000 1.0000 0.0000
vn 0.7071 0.0000 -0.7071
vn 0.0000 -1.0000 0.0000
vn -1.0000 0.0000 0.0000
vn 0.7071 0.0000 0.7071
vn 1.0000 0.0000 0.0000
vn -0.7071 0.0000 0.7071
vn -0.0000 0.0000 1.0000
usemtl Axiom_Blank_Button
s off
f 1//1 2//1 3//1
f 2//1 1//1 4//1
f 9//2 10//2 11//2
f 10//2 9//2 12//2
f 17//3 18//3 19//3
f 18//3 17//3 20//3
f 18//3 20//3 21//3
f 21//3 20//3 22//3
f 21//3 22//3 23//3
f 23//3 22//3 24//3
f 24//3 22//3 25//3
f 24//3 25//3 26//3
f 19//3 27//3 28//3
f 27//3 19//3 18//3
f 28//3 27//3 29//3
f 28//3 29//3 30//3
f 30//3 29//3 31//3
f 30//3 31//3 26//3
f 30//3 26//3 32//3
f 32//3 26//3 25//3
f 49//4 50//4 51//4
f 50//4 49//4 52//4
f 57//5 58//5 59//5
f 58//5 57//5 60//5
f 60//5 57//5 61//5
f 60//5 61//5 62//5
f 62//5 61//5 63//5
f 62//5 63//5 64//5
f 73//6 74//6 75//6
f 74//6 73//6 76//6
f 81//7 82//7 83//7
f 82//7 81//7 84//7
f 89//8 90//8 91//8
f 90//8 89//8 92//8
f 97//9 98//9 99//9
f 98//9 97//9 100//9
f 105//10 106//10 107//10
f 106//10 105//10 108//10
usemtl __auto_
f 5//10 6//10 7//10
f 8//10 7//10 6//10
f 13//7 14//7 15//7
f 16//7 15//7 14//7
f 33//5 34//5 35//5
f 35//5 34//5 36//5
f 34//5 37//5 36//5
f 37//5 38//5 36//5
f 36//5 38//5 39//5
f 38//5 40//5 39//5
f 41//5 42//5 40//5
f 39//5 40//5 42//5
f 34//5 33//5 43//5
f 33//5 44//5 43//5
f 43//5 44//5 45//5
f 45//5 44//5 46//5
f 44//5 47//5 46//5
f 46//5 47//5 41//5
f 47//5 48//5 41//5
f 42//5 41//5 48//5
f 53//9 54//9 55//9
f 56//9 55//9 54//9
f 65//3 66//3 67//3
f 66//3 68//3 67//3
f 67//3 68//3 69//3
f 68//3 70//3 69//3
f 69//3 70//3 71//3
f 72//3 71//3 70//3
f 77//8 78//8 79//8
f 80//8 79//8 78//8
f 85//2 86//2 87//2
f 88//2 87//2 86//2
f 93//6 94//6 95//6
f 96//6 95//6 94//6
f 101//4 102//4 103//4
f 104//4 103//4 102//4
f 109//1 110//1 111//1
f 112//1 111//1 110//1
o Button.001_ID13
v 0.470140 0.000126 -0.409259
v 0.441037 -0.044133 0.400375
v 0.470140 0.000126 0.412429
v 0.441037 -0.044133 -0.397205
v 0.441037 -0.044133 -0.397205
v 0.470140 0.000126 -0.409259
v 0.441037 -0.044133 0.400375
v 0.470140 0.000126 0.412429
v 0.470140 0.000126 0.412429
v 0.398032 -0.044133 0.443380
v 0.410086 0.000126 0.472483
v 0.441037 -0.044133 0.400375
v 0.441037 -0.044133 0.400375
v 0.470140 0.000126 0.412429
v 0.398032 -0.044133 0.443380
v 0.410086 0.000126 0.472483
v 0.470140 0.000126 -0.409259
v 0.398032 -0.044133 -0.440210
v 0.441037 -0.044133 -0.397205
v 0.410086 0.000126 -0.469313
v 0.410086 0.000126 -0.469313
v 0.470140 0.000126 -0.409259
v 0.398032 -0.044133 -0.440210
v 0.441037 -0.044133 -0.397205
v -0.399548 -0.044133 0.443380
v -0.442553 -0.044133 -0.397205
v -0.442553 -0.044133 0.400375
v -0.399548 -0.044133 -0.440210
v 0.398032 -0.044133 0.443380
v 0.398032 -0.044133 -0.440210
v 0.441037 -0.044133 0.400375
v 0.441037 -0.044133 -0.397205
v 0.441037 -0.044133 -0.397205
v 0.441037 -0.044133 0.400375
v 0.398032 -0.044133 -0.440210
v 0.398032 -0.044133 0.443380
v -0.399548 -0.044133 -0.440210
v -0.399548 -0.044133 0.443380
v -0.442553 -0.044133 -0.397205
v -0.442553 -0.044133 0.400375
v -0.411602 0.000126 0.472483
v 0.398032 -0.044133 0.443380
v -0.399548 -0.044133 0.443380
v 0.410086 0.000126 0.472483
v 0.410086 0.000126 0.472483
v -0.411602 0.000126 0.472483
v 0.398032 -0.044133 0.443380
v -0.399548 -0.044133 0.443380
v 0.410086 0.000126 -0.469313
v -0.399548 -0.044133 -0.440210
v 0.398032 -0.044133 -0.440210
v -0.411602 0.000126 -0.469313
v -0.411602 0.000126 -0.469313
v 0.410086 0.000126 -0.469313
v -0.399548 -0.044133 -0.440210
v 0.398032 -0.044133 -0.440210
v -0.399548 -0.044133 -0.440210
v -0.471656 0.000126 -0.409259
v -0.442553 -0.044133 -0.397205
v -0.411602 0.000126 -0.469313
v -0.411602 0.000126 -0.469313
v -0.399548 -0.044133 -0.440210
v -0.471656 0.000126 -0.409259
v -0.442553 -0.044133 -0.397205
v -0.442553 -0.044133 0.400375
v -0.471656 0.000126 -0.409259
v -0.471656 0.000126 0.412429
v -0.442553 -0.044133 -0.397205
v -0.442553 -0.044133 -0.397205
v -0.442553 -0.044133 0.400375
v -0.471656 0.000126 -0.409259
v -0.471656 0.000126 0.412429
v -0.442553 -0.044133 0.400375
v -0.411602 0.000126 0.472483
v -0.399548 -0.044133 0.443380
v -0.471656 0.000126 0.412429
v -0.471656 0.000126 0.412429
v -0.442553 -0.044133 0.400375
v -0.411602 0.000126 0.472483
v -0.399548 -0.044133 0.443380
vn -0.8355 0.5494 0.0000
vn -0.5908 0.5494 -0.5908
vn -0.5908 0.5494 0.5908
vn 0.0000 1.0000 0.0000
vn 0.0000 0.5494 -0.8355
vn 0.0000 0.5494 0.8355
vn 0.5908 0.5494 0.5908
vn 0.8355 0.5494 0.0000
vn 0.5908 0.5494 -0.5908
vn 0.8355 -0.5494 0.0000
vn 0.5908 -0.5494 0.5908
vn 0.5908 -0.5494 -0.5908
vn 0.0000 -1.0000 0.0000
vn 0.0000 -0.5494 0.8355
vn 0.0000 -0.5494 -0.8355
vn -0.5908 -0.5494 -0.5908
vn -0.8355 -0.5494 0.0000
vn -0.5908 -0.5494 0.5908
usemtl Axiom_Blank_Button
s off
f 113//11 114//11 115//11
f 114//11 113//11 116//11
f 121//12 122//12 123//12
f 122//12 121//12 124//12
f 129//13 130//13 131//13
f 130//13 129//13 132//13
f 137//14 138//14 139//14
f 138//14 137//14 140//14
f 140//14 137//14 141//14
f 140//14 141//14 142//14
f 142//14 141//14 143//14
f 142//14 143//14 144//14
f 153//15 154//15 155//15
f 154//15 153//15 156//15
f 161//16 162//16 163//16
f 162//16 161//16 164//16
f 169//17 170//17 171//17
f 170//17 169//17 172//17
f 177//18 178//18 179//18
f 178//18 177//18 180//18
f 185//19 186//19 187//19
f 186//19 185//19 188//19
usemtl __auto_
f 117//20 118//20 119//20
f 120//20 119//20 118//20
f 125//21 126//21 127//21
f 128//21 127//21 126//21
f 133//22 134//22 135//22
f 136//22 135//22 134//22
f 145//23 146//23 147//23
f 146//23 148//23 147//23
f 147//23 148//23 149//23
f 148//23 150//23 149//23
f 149//23 150//23 151//23
f 152//23 151//23 150//23
f 157//24 158//24 159//24
f 160//24 159//24 158//24
f 165//25 166//25 167//25
f 168//25 167//25 166//25
f 173//26 174//26 175//26
f 176//26 175//26 174//26
f 181//27 182//27 183//27
f 184//27 183//27 182//27
f 189//28 190//28 191//28
f 192//28 191//28 190//28
