# Blender v3.1.2 OBJ File: 'C-ARMSAS.blend'
# www.blender.org
mtllib SM_CM_-_1.mtl
o SM_CM_-_1_path1763-2.002
v -80.685516 43.254528 -176.624771
v 65.611130 43.254528 -166.627350
v 65.611130 -32.748657 -166.627350
v -80.685516 -32.748657 -176.624771
v 75.610771 -32.748657 -176.624832
v 75.610771 43.254528 -176.624832
v 75.610840 -32.748646 -4.016358
v 75.610840 43.254539 -4.016364
v -80.685448 -32.748646 -4.016295
v -80.685448 43.254539 -4.016301
v -70.680954 -32.748657 -166.627289
v -70.680954 43.254528 -166.627289
v -28.088278 31.627001 -99.341537
v -28.086815 31.626829 -48.554203
v 21.879297 31.627001 -99.341560
v 21.880760 31.626829 -48.554234
v 21.289370 37.266777 -49.421631
v 21.287981 37.266941 -98.474167
v -27.495501 37.266777 -49.421597
v -27.496887 37.266941 -98.474129
v 2.921651 43.254536 -60.517658
v 3.361170 43.254536 -60.479996
v 4.459975 43.254536 -60.385857
v 5.153587 43.254536 -60.326424
v 5.888419 43.254536 -60.263466
v 7.316854 43.254536 -60.141071
v 9.236897 43.254536 -59.976395
v -11.922104 43.254536 -58.304382
v -11.922100 43.254536 -59.949451
v -3.520483 43.254532 -87.731232
v 3.038402 35.535679 -60.507656
v 4.459975 35.535679 -60.385857
v 6.623232 35.535679 -60.200508
v 7.316854 35.535679 -60.141071
v 7.928053 35.535679 -60.088711
v 8.415655 35.535679 -60.046932
v 9.279290 35.535679 -59.968365
v 9.749618 35.535679 -59.833408
v -11.922104 35.535679 -58.304382
v -11.922100 35.535679 -59.949451
v -13.058936 35.535675 -81.794037
v 2.921641 35.535675 -92.023354
v 3.848767 35.535679 -60.438213
v 3.848767 43.254536 -60.438213
v 5.153587 35.535679 -60.326424
v 5.888419 35.535679 -60.263466
v 6.623232 43.254536 -60.200508
v 7.928053 43.254536 -60.088711
v 8.738433 43.254536 -60.019272
v 8.855175 35.535679 -60.009270
v 9.749618 43.254536 -59.833408
v 10.196476 35.535679 -59.540329
v 10.196476 43.254536 -59.540329
v 10.546579 35.535679 -58.928413
v 10.546579 43.254536 -58.928413
v 10.616521 35.535679 -58.528076
v 10.616521 43.254536 -58.528076
v -3.520477 35.535679 -60.517658
v -3.520477 43.254536 -60.517658
v -3.520483 35.535675 -87.731232
v -13.058936 43.254532 -81.794037
v -14.195765 35.535675 -83.563766
v -14.195765 43.254532 -83.563766
v -1.186944 35.535675 -92.023354
v -1.186944 43.254532 -92.023354
v 2.921641 43.254532 -92.023354
v 9.807642 43.254551 133.838318
v -8.538909 43.254551 134.159927
v 63.089699 43.254539 5.981047
v 0.388131 43.254547 125.722878
v 9.807642 -32.748634 133.838318
v -8.538909 -32.748634 134.159927
v -64.277153 -32.748646 5.981012
v 0.388131 -32.748638 125.722878
v 0.935888 -32.748638 125.722878
v 0.935888 43.254547 125.722878
v 63.089699 -32.748646 5.981052
v -64.277153 43.254539 5.981007
v 0.664659 43.254551 152.842300
v 0.664659 -32.748634 152.842300
v 0.662010 43.254547 125.722878
v 0.662010 -32.748638 125.722878
v -70.680885 43.254539 -4.016481
v 65.611198 43.254539 -4.016448
v -70.680885 -32.748646 -4.016476
v 65.611198 -32.748646 -4.016443
vt 0.073427 0.000000
vt 0.076923 0.000000
vt 0.075175 0.000000
vt 0.069930 0.000000
vt 0.000000 0.000000
vt 0.071678 0.000000
vt 0.068182 0.000000
vt 0.066434 0.000000
vt 0.001748 0.000000
vt 0.005245 0.000000
vt 0.003497 0.000000
vt 0.006993 0.000000
vt 0.008741 0.000000
vt 0.010490 0.000000
vt 0.012238 0.000000
vt 0.013986 0.000000
vt 0.015734 0.000000
vt 0.017483 0.000000
vt 0.020979 0.000000
vt 0.019231 0.000000
vt 0.064685 0.000000
vt 0.041958 0.000000
vt 0.045455 0.000000
vt 0.043706 0.000000
vt 0.050699 0.000000
vt 0.048951 0.000000
vt 0.054196 0.000000
vt 0.052448 0.000000
vt 0.061189 0.000000
vt 0.059441 0.000000
vt 0.073427 0.000000
vt 0.075175 0.000000
vt 0.076923 0.000000
vt 0.069930 0.000000
vt 0.000000 0.000000
vt 0.071678 0.000000
vt 0.068182 0.000000
vt 0.066434 0.000000
vt 0.003497 0.000000
vt 0.005245 0.000000
vt 0.006993 0.000000
vt 0.008741 0.000000
vt 0.010490 0.000000
vt 0.012238 0.000000
vt 0.013986 0.000000
vt 0.015734 0.000000
vt 0.017483 0.000000
vt 0.019231 0.000000
vt 0.020979 0.000000
vt 0.036713 0.000000
vt 0.038462 0.000000
vt 0.064685 0.000000
vt 0.041958 0.000000
vt 0.043706 0.000000
vt 0.045455 0.000000
vt 0.048951 0.000000
vt 0.050699 0.000000
vt 0.052448 0.000000
vt 0.054196 0.000000
vt 0.059441 0.000000
vt 0.061189 0.000000
vt 0.000000 1.000000
vt 0.022222 1.000000
vt 0.044444 1.000000
vt 0.066667 1.000000
vt 0.066667 0.000000
vt 0.044444 0.000000
vt 0.088889 1.000000
vt 0.088889 0.000000
vt 0.111111 1.000000
vt 0.111111 0.000000
vt 0.133333 1.000000
vt 0.133333 0.000000
vt 0.155556 1.000000
vt 0.155556 0.000000
vt 0.177778 1.000000
vt 0.177778 0.000000
vt 0.200000 1.000000
vt 0.200000 0.000000
vt 0.222222 1.000000
vt 0.222222 0.000000
vt 0.244444 1.000000
vt 0.266667 1.000000
vt 0.266667 0.000000
vt 0.244444 0.000000
vt 0.488889 1.000000
vt 0.488889 0.000000
vt 0.466667 0.000000
vt 0.555556 1.000000
vt 0.577778 1.000000
vt 0.577778 0.000000
vt 0.555556 0.000000
vt 0.622222 1.000000
vt 0.644444 1.000000
vt 0.644444 0.000000
vt 0.622222 0.000000
vt 0.666667 1.000000
vt 0.688889 1.000000
vt 0.688889 0.000000
vt 0.666667 0.000000
vt 0.755556 1.000000
vt 0.777778 1.000000
vt 0.777778 0.000000
vt 0.755556 0.000000
vt 0.800000 1.000000
vt 0.822222 1.000000
vt 0.822222 0.000000
vt 0.800000 0.000000
vt 0.844444 1.000000
vt 0.844444 0.000000
vt 0.866667 1.000000
vt 0.866667 0.000000
vt 0.888889 1.000000
vt 0.888889 0.000000
vt 0.911111 1.000000
vt 0.911111 0.000000
vt 0.933333 1.000000
vt 0.933333 0.000000
vt 0.955556 1.000000
vt 0.955556 0.000000
vt 0.977778 1.000000
vt 0.977778 0.000000
vt 1.000000 1.000000
vt 1.000000 0.000000
vt 0.000000 0.000000
vt 0.000000 0.000000
vt 0.000000 0.000000
vt 0.000000 0.000000
vt 0.000000 0.000000
vt 0.000000 0.000000
vt 0.000000 0.000000
vt 0.000000 0.000000
vt 0.600000 0.000000
vt 0.416667 0.000000
vt 0.083333 0.000000
vt 0.010417 0.000000
vt 0.041667 0.000000
vt 0.208333 0.333333
vt 0.052083 0.000000
vt 0.000000 0.000000
vt 0.354167 0.666667
vt 0.413889 0.666667
vt 0.600000 1.000000
vt 0.010417 0.000000
vt 0.083333 0.000000
vt 0.200000 1.000000
vt 0.000000 0.000000
vt 0.071476 0.000000
vt 0.250000 0.000000
vt 0.218750 0.000000
vt 0.000000 0.000000
vt 0.052083 0.000000
vt 0.000000 1.000000
vt 0.200000 0.000000
vt 0.227778 0.000000
vt 0.041667 0.000000
vt 0.333333 0.000000
vt 0.733333 1.000000
vt 0.800000 1.000000
vt 0.800000 0.000000
vt 0.733333 0.000000
vt 1.000000 1.000000
vt 1.000000 0.000000
vt 0.750000 1.000000
vt 1.000000 1.000000
vt 1.000000 0.000000
vt 0.750000 0.000000
vt -0.030330 0.000000
vt 0.156250 0.000000
vt 0.187500 0.000000
vt 0.125000 0.000000
vt 0.071476 0.000000
vt 0.000000 0.000000
vt 0.218750 0.000000
vt 0.250000 0.000000
vt 0.015625 0.000000
vt 0.203125 0.000000
vt 0.210437 1.000000
vt 0.210437 0.000000
vt 0.156250 0.000000
vt -0.039385 0.000000
vt 0.125000 0.000000
vt 0.187500 0.000000
vt 0.100000 1.000000
vt 0.100000 0.000000
vt 0.800000 1.000000
vt 0.997326 1.000000
vt 0.997327 0.000000
vt 0.800000 0.000000
vt 0.000000 1.000000
vt 0.250000 1.000000
vt 0.250000 0.000000
vt 0.000000 0.000000
vt 0.500000 1.000000
vt 0.750000 1.000000
vt 0.750000 0.000000
vt 0.500000 0.000000
vt 0.875000 1.000000
vt 1.000000 1.000000
vt 1.000000 0.000000
vt 0.875000 0.000000
vt 0.015625 0.000000
vt 0.203125 0.000000
vt -0.014161 1.000000
vt 0.333333 1.000000
vt 0.416667 1.000000
vt 0.666667 1.000000
vt 0.666667 0.000000
vt 0.413889 0.000000
vt 0.227778 0.333333
vt 0.000000 1.000000
vt 0.000000 0.000000
vn 0.0000 1.0000 -0.0000
vn 0.0000 1.0000 -0.0001
vn 0.0000 1.0000 0.0001
vn 0.0000 -1.0000 0.0000
vn 0.0000 -1.0000 -0.0001
vn 0.0000 -1.0000 0.0001
vn 0.0854 0.0000 -0.9964
vn 0.0854 0.0000 -0.9963
vn 0.0855 0.0000 -0.9963
vn 0.1795 0.0001 -0.9838
vn 0.0906 -0.0002 -0.9959
vn 0.1851 -0.0001 -0.9827
vn 0.4151 0.0001 -0.9098
vn 0.7283 0.0000 -0.6853
vn 0.9406 0.0000 -0.3394
vn 0.9851 0.0000 -0.1721
vn 0.0099 0.0000 1.0000
vn -1.0000 0.0000 -0.0000
vn -0.0675 0.0000 -0.9977
vn 0.5284 0.0000 0.8490
vn -0.8414 0.0000 0.5405
vn -0.5452 0.0000 -0.8383
vn 0.0000 0.0000 -1.0000
vn 1.0000 0.0076 -0.0019
vn -0.0000 0.1520 -0.9884
vn 0.0000 0.1520 0.9884
vn -0.9945 0.1043 0.0000
vn 0.9945 0.1043 -0.0000
vn 1.0000 0.0000 -0.0000
vn -0.5203 0.0000 0.8540
vn 0.0000 0.0000 1.0000
vn -0.8918 0.0000 0.4524
vn -0.8864 0.0000 0.4628
vn -0.8971 0.0000 0.4419
vn 0.9025 0.0000 0.4308
vn 0.9018 0.0000 0.4322
vn -0.8876 0.0000 -0.4607
vn 0.8799 -0.0000 -0.4752
vn 0.9011 0.0000 0.4335
vn 0.6240 0.0000 0.7815
usemtl Text.075
s 1
f 63/1/1 66/2/1 65/3/1
f 63/1/1 30/4/1 66/2/1
f 30/4/1 21/5/1 66/2/1
f 63/1/1 61/6/1 30/4/1
f 59/7/1 21/5/1 30/4/1
f 29/8/1 21/5/1 59/7/1
f 29/8/1 22/9/1 21/5/1
f 29/8/1 44/10/2 22/11/1
f 29/8/1 23/12/1 44/10/2
f 29/8/1 24/13/1 23/12/1
f 29/8/1 25/14/3 24/13/1
f 29/8/1 47/15/3 25/14/3
f 29/8/1 26/16/2 47/15/3
f 29/8/1 48/17/2 26/16/2
f 29/8/1 49/18/1 48/17/2
f 29/8/1 27/19/1 49/20/1
f 28/21/1 27/22/1 29/8/1
f 28/21/1 51/23/1 27/24/1
f 28/21/1 53/25/1 51/26/1
f 28/21/1 55/27/1 53/28/1
f 28/21/1 57/29/1 55/30/1
f 62/31/4 64/32/4 42/33/4
f 62/31/4 42/33/4 60/34/4
f 60/34/4 42/33/4 31/35/4
f 62/31/4 60/34/4 41/36/4
f 58/37/4 60/34/4 31/35/4
f 40/38/4 58/37/4 31/35/4
f 40/38/4 31/39/4 43/40/4
f 40/38/4 43/40/4 32/41/4
f 40/38/4 32/41/4 45/42/4
f 40/38/4 45/42/4 46/43/5
f 40/38/4 46/43/5 33/44/4
f 40/38/4 33/44/4 34/45/6
f 40/38/4 34/45/6 35/46/4
f 40/38/4 35/46/4 36/47/4
f 40/38/4 36/48/4 50/49/5
f 40/38/4 50/50/5 37/51/4
f 39/52/4 40/38/4 37/53/4
f 39/52/4 37/54/4 38/55/4
f 39/52/4 38/56/4 52/57/4
f 39/52/4 52/58/4 54/59/4
f 39/52/4 54/60/4 56/61/4
f 21/62/7 22/63/8 31/35/8
f 22/64/8 44/65/8 43/66/8 31/67/8
f 44/65/8 23/68/7 32/69/7 43/66/8
f 23/68/7 24/70/8 45/71/8 32/69/7
f 24/70/8 25/72/8 46/73/8 45/71/8
f 25/72/8 47/74/8 33/75/8 46/73/8
f 47/74/8 26/76/8 34/77/8 33/75/8
f 26/76/8 48/78/7 35/79/7 34/77/8
f 48/78/7 49/80/9 36/81/9 35/79/7
f 49/82/9 27/83/10 50/84/11 36/85/9
f 27/86/10 37/87/12 50/88/11
f 27/89/10 51/90/13 38/91/13 37/92/12
f 51/93/13 53/94/14 52/95/14 38/96/13
f 53/97/14 55/98/15 54/99/15 52/100/14
f 55/101/15 57/102/16 56/103/16 54/104/15
f 57/105/17 28/106/17 39/107/17 56/108/17
f 28/106/18 29/109/18 40/110/18 39/107/18
f 29/109/19 59/111/19 58/112/19 40/110/19
f 59/111/18 30/113/18 60/114/18 58/112/18
f 30/113/20 61/115/20 41/116/20 60/114/20
f 61/115/21 63/117/21 62/118/21 41/116/21
f 63/117/22 65/119/22 64/120/22 62/118/22
f 65/119/23 66/121/23 42/122/23 64/120/23
f 66/121/24 21/123/24 31/124/24 42/122/24
usemtl Outline.075
f 20/125/25 18/126/25 15/127/25 13/128/25
f 17/129/26 19/130/26 14/131/26 16/132/26
f 19/130/27 20/125/27 13/128/27 14/131/27
f 15/127/4 16/132/4 14/131/4 13/128/4
f 18/126/28 17/129/28 16/132/28 15/127/28
f 18/126/1 20/125/1 19/130/1 17/129/1
usemtl White.075
f 7/133/4 86/134/4 3/135/4 5/136/4
f 10/137/1 83/138/1 12/139/1 1/140/1
f 84/141/1 69/142/1 8/143/1
f 6/144/1 1/140/1 12/139/1 2/145/1
f 6/146/29 8/143/29 7/133/29 5/136/29
f 10/147/1 68/148/1 70/149/1 78/150/1
f 4/151/4 5/136/4 3/135/4 11/152/4
f 1/153/23 6/146/23 5/154/23 4/151/23
f 73/155/4 9/156/4 85/157/4
f 78/158/30 10/159/30 9/160/30 73/161/30
f 10/159/18 1/162/18 4/163/18 9/160/18
f 11/152/4 85/157/4 9/156/4 4/151/4
f 2/164/31 12/165/31 11/166/31 3/167/31
f 71/168/4 75/169/4 77/170/4 7/171/4
f 72/172/4 9/173/4 73/174/4 74/175/4
f 80/176/4 72/172/4 74/175/4 82/177/4
f 68/178/32 10/147/33 9/173/33 72/179/32
f 76/180/1 67/181/1 8/182/1 69/183/1
f 79/184/34 68/178/32 72/179/32 80/185/34
f 8/186/35 67/187/36 71/188/36 7/189/35
f 76/190/37 69/191/37 77/192/37 75/193/37
f 78/194/38 70/195/38 74/196/38 73/197/38
f 81/198/23 76/199/23 75/200/23 82/201/23
f 79/202/1 67/181/1 76/180/1 81/203/1
f 68/148/1 79/202/1 81/203/1 70/149/1
f 70/195/23 81/198/23 82/201/23 74/196/23
f 67/204/36 79/184/39 80/185/39 71/168/36
f 71/168/4 80/176/4 82/177/4 75/169/4
f 83/205/23 84/206/23 86/134/23 85/157/23
f 8/143/40 69/207/40 77/208/40 7/133/40
f 69/207/31 78/158/31 73/161/31 77/208/31
f 7/133/4 77/209/4 86/134/4
f 77/209/4 73/155/4 85/157/4 86/134/4
f 10/137/1 78/210/1 83/138/1
f 83/138/1 78/210/1 69/142/1 84/141/1
f 84/206/18 2/164/18 3/167/18 86/134/18
f 12/211/29 83/205/29 85/157/29 11/212/29
f 84/141/1 8/143/1 6/146/1 2/145/1
