# Blender v3.1.2 OBJ File: 'C-ARMSAS.blend'
# www.blender.org
mtllib SM_CM_-_AttackAviation.mtl
o SM_CM_-_AttackAviation_mesh.002
v -17.055922 1.875254 -27.215950
v 17.055700 1.875254 -27.215954
v -0.000106 1.875257 7.040607
v -12.298081 1.875242 -190.428116
v -62.833073 1.875247 -119.157478
v -120.070755 1.875247 -119.157471
v -25.487371 1.875253 -44.149994
v 25.487183 1.875253 -44.149929
v 12.297811 1.875242 -190.428116
v 62.832893 1.875247 -119.157562
v 120.070541 1.875247 -119.157501
v -0.000100 1.875260 44.700943
v 41.565212 1.875267 146.448074
v -41.565346 1.875267 146.448013
v -49.100822 1.875269 164.896408
v 63.642609 1.875271 200.493179
v -63.642761 1.875271 200.493210
v 49.100700 1.875269 164.896378
v 69.065117 -7.588269 -109.092735
v 69.065117 4.175198 -109.092735
v 7.593944 4.175207 14.367879
v 7.593944 -7.588260 14.367880
v 130.362045 4.175198 -109.092751
v 130.362045 -7.588269 -109.092751
v 7.593944 4.175207 14.508183
v 7.593944 -7.588260 14.508183
v 130.362045 -7.588271 -124.418091
v 130.362045 4.175196 -124.418091
v 15.323701 4.175190 -200.492874
v 15.323701 -7.588276 -200.492874
v -0.000137 4.175190 -200.492874
v -0.000137 -7.588276 -200.492874
v -15.323976 4.175190 -200.492874
v -15.323976 -7.588276 -200.492874
v -130.362228 4.175196 -124.418045
v -130.362228 -7.588271 -124.418045
v -130.362228 -7.588269 -109.092705
v -130.362228 4.175198 -109.092705
v -69.065361 4.175198 -109.092720
v -69.065361 -7.588269 -109.092720
v -7.594153 -7.588260 14.367882
v -7.594153 4.175207 14.367881
v 12.461315 4.175207 20.254622
v 55.564243 4.175207 20.254616
v 55.564243 -7.588260 20.254616
v 12.461315 -7.588260 20.254622
v 55.564243 4.175208 34.475777
v 55.564243 -7.588259 34.475777
v 10.661509 4.175208 34.475784
v 10.661509 -7.588259 34.475784
v -39.501884 4.175206 8.689317
v -59.366108 4.175207 20.254633
v -59.366108 -7.588260 20.254633
v -39.501884 -7.588261 8.689318
v -39.501884 -7.588261 1.027328
v -39.501884 4.175206 1.027327
v -13.750842 4.175208 26.690460
v -13.496365 4.175208 23.103176
v -12.513959 4.175207 20.254625
v -13.067612 4.175208 30.220709
v -11.492981 4.175208 33.454807
v -10.606176 4.175208 34.475784
v -59.366108 4.175208 34.475792
v -54.825718 4.175210 53.703094
v -39.501877 4.175210 53.703094
v -39.501877 4.175209 46.041172
v -92.506012 4.175208 27.365965
v -54.825726 4.175206 1.027329
v -12.513959 -7.588260 20.254625
v -54.825726 -7.588261 1.027330
v -59.366108 -7.588259 34.475792
v -10.606176 -7.588259 34.475784
v -92.506012 -7.588259 27.365965
v -54.825718 -7.588257 53.703094
v -39.501877 -7.588257 53.703094
v -39.501877 -7.588258 46.041172
v 7.593947 -7.588258 37.353638
v 7.593947 4.175209 37.353638
v 74.237885 4.175221 200.493179
v 74.237885 -7.588246 200.493179
v -63.642761 4.175221 200.493210
v -74.237984 4.175221 200.493210
v -74.237999 -7.588246 200.493210
v 63.642609 4.175221 200.493179
v 49.100662 4.175218 164.896408
v -49.100822 4.175218 164.896408
v -7.594150 4.175209 37.353638
v -7.594150 -7.588258 37.353638
v -7.594150 4.175209 37.211765
v -7.594150 -7.588258 37.211765
v -0.000100 4.175209 44.700943
v 41.565212 4.175217 146.448074
v -41.565380 4.175217 146.448074
v -62.833073 4.175197 -119.157478
v -25.487408 4.175202 -44.149921
v 25.487183 4.175202 -44.149929
v -120.070755 4.175197 -119.157471
v 62.832855 4.175197 -119.157494
v -12.298081 4.175191 -190.428116
v 120.070541 4.175197 -119.157501
v 12.297811 4.175191 -190.428116
v -17.055922 4.175204 -27.215950
v -0.000106 4.175206 7.040606
v 17.055700 4.175204 -27.215954
v -7.529381 4.175209 37.254898
v -7.385941 4.175209 37.353638
v -12.324250 4.175207 19.704035
v -10.310066 4.175207 16.724447
v -9.136415 4.175209 36.170685
v 7.385735 4.175207 14.367879
v 7.529175 4.175207 14.465051
v 10.309861 4.175209 34.995502
v 9.136209 4.175207 15.549191
v 11.492774 4.175207 18.265141
v -9.136415 -7.588258 36.170685
v 10.309861 -7.588258 34.995502
v 11.492774 -7.588260 18.265141
v 9.136209 -7.588260 15.549192
v -10.310066 -7.588260 16.724447
v -12.324250 -7.588260 19.704035
vt 0.376059 0.385318
vt 0.367309 0.346489
vt 0.384808 0.346489
vt 0.389456 0.325865
vt 0.386395 0.339449
vt 0.365722 0.339449
vt 0.376059 0.399690
vt 0.376059 0.399690
vt 0.376059 0.399690
vt 0.401335 0.447849
vt 0.401335 0.447849
vt 0.401335 0.447849
vt 0.401335 0.447849
vt 0.401335 0.447849
vt 0.401335 0.447849
vt 0.401335 0.447849
vt 0.401335 0.447849
vt 0.386395 0.339449
vt 0.386395 0.339449
vt 0.361519 0.444008
vt 0.361519 0.444008
vt 0.361519 0.444008
vt 0.361519 0.444008
vt 0.361519 0.444008
vt 0.361519 0.444008
vt 0.361519 0.444008
vt 0.361519 0.444008
vt 0.361519 0.444008
vt 0.361519 0.444008
vt 0.361519 0.444008
vt 0.361519 0.444008
vt 0.361519 0.444008
vt 0.361519 0.444008
vt 0.361519 0.444008
vt 0.361519 0.444008
vt 0.361519 0.444008
vt 0.361519 0.444008
vt 0.361519 0.444008
vt 0.361519 0.444008
vt 0.361519 0.444008
vt 0.361519 0.444008
vt 0.387755 0.389220
vt 0.387755 0.389220
vt 0.387755 0.389220
vt 0.387755 0.389220
vt 0.387755 0.389220
vt 0.387755 0.389220
vt 0.387755 0.389220
vt 0.363561 0.389220
vt 0.363561 0.389220
vt 0.363561 0.389220
vt 0.363561 0.389220
vt 0.363561 0.389220
vt 0.363561 0.389220
vt 0.363561 0.389220
vt 0.363561 0.389220
vt 0.363561 0.389220
vt 0.363561 0.389220
vt 0.363561 0.389220
vt 0.363561 0.389220
vt 0.363561 0.389220
vt 0.363561 0.389220
vt 0.363561 0.389220
vt 0.363561 0.389220
vt 0.363561 0.389220
vt 0.363561 0.389220
vt 0.363561 0.389220
vt 0.363561 0.389220
vt 0.363561 0.389220
vt 0.374460 0.388122
vt 0.374460 0.388122
vt 0.374460 0.388122
vt 0.374460 0.388122
vt 0.374460 0.388122
vt 0.374460 0.388122
vt 0.374460 0.388122
vt 0.374460 0.388122
vt 0.374460 0.388122
vt 0.374460 0.388122
vt 0.374460 0.388122
vt 0.374460 0.388122
vt 0.374460 0.388122
vt 0.374460 0.388122
vt 0.374460 0.388122
vt 0.374460 0.388122
vt 0.374460 0.388122
vt 0.374460 0.388122
vt 0.376059 0.385318
vt 0.376059 0.385318
vt 0.376059 0.385318
vt 0.376059 0.385318
vt 0.362831 0.447849
vt 0.362831 0.447849
vt 0.362831 0.447849
vt 0.362831 0.447849
vt 0.362831 0.447849
vt 0.362831 0.447849
vt 0.362831 0.447849
vt 0.362831 0.447849
vt 0.362831 0.447849
vt 0.362831 0.447849
vt 0.362831 0.447849
vt 0.362831 0.447849
vt 0.362831 0.447849
vt 0.362831 0.447849
vt 0.372468 0.412762
vt 0.372468 0.412762
vt 0.372468 0.412762
vt 0.372468 0.412762
vt 0.372468 0.412762
vt 0.372468 0.412762
vt 0.348616 0.444008
vt 0.348616 0.444008
vt 0.374460 0.396840
vt 0.374460 0.396840
vt 0.374460 0.396894
vt 0.348616 0.444008
vt 0.348616 0.444008
vt 0.348616 0.449856
vt 0.348616 0.449856
vt 0.372833 0.478888
vt 0.372833 0.478888
vt 0.348616 0.449856
vt 0.372833 0.478888
vt 0.372833 0.478888
vt 0.348616 0.444008
vt 0.348616 0.444008
vt 0.348616 0.449856
vt 0.374460 0.396894
vt 0.374460 0.396894
vt 0.378682 0.389220
vt 0.387755 0.389220
vt 0.387755 0.394647
vt 0.367743 0.381882
vt 0.367743 0.381882
vt 0.367743 0.384806
vt 0.367743 0.384806
vt 0.367743 0.384806
vt 0.367743 0.381882
vt 0.363561 0.394647
vt 0.373164 0.392191
vt 0.373217 0.393560
vt 0.373217 0.393560
vt 0.373424 0.394647
vt 0.363561 0.394647
vt 0.373639 0.389609
vt 0.373308 0.390843
vt 0.363561 0.394647
vt 0.373826 0.389220
vt 0.373639 0.389609
vt 0.363561 0.394647
vt 0.363561 0.394647
vt 0.373826 0.389220
vt 0.363561 0.394647
vt 0.367743 0.399060
vt 0.364517 0.401984
vt 0.356585 0.391933
vt 0.363561 0.394647
vt 0.364517 0.401984
vt 0.356585 0.391933
vt 0.364517 0.381882
vt 0.367743 0.381882
vt 0.367743 0.381882
vt 0.364517 0.381882
vt 0.363561 0.394647
vt 0.373826 0.394647
vt 0.373826 0.394647
vt 0.356585 0.391933
vt 0.364517 0.381882
vt 0.364517 0.381882
vt 0.356585 0.391933
vt 0.364517 0.401984
vt 0.356585 0.391933
vt 0.356585 0.391933
vt 0.364517 0.401984
vt 0.367743 0.401984
vt 0.367743 0.401984
vt 0.360430 0.325865
vt 0.391687 0.325865
vt 0.362661 0.325865
vt 0.389456 0.325865
vt 0.360430 0.325865
vt 0.360430 0.325865
vt 0.362661 0.325865
vt 0.391687 0.325865
vt 0.360430 0.325865
vt 0.389456 0.325865
vt 0.389456 0.325865
vt 0.365722 0.339449
vt 0.365722 0.339449
vt 0.360430 0.325865
vt 0.360430 0.325865
vt 0.365722 0.339449
vt 0.386395 0.339449
vt 0.384808 0.346489
vt 0.384808 0.346489
vt 0.367309 0.346489
vt 0.367309 0.346489
vt 0.367309 0.346489
vt 0.370693 0.419225
vt 0.370693 0.419225
vt 0.362831 0.447849
vt 0.381424 0.419225
vt 0.370693 0.419225
vt 0.370693 0.419225
vt 0.350782 0.447849
vt 0.350782 0.447849
vt 0.389286 0.447849
vt 0.389286 0.447849
vt 0.381424 0.419225
vt 0.350782 0.447849
vt 0.373470 0.475047
vt 0.373470 0.475047
vt 0.362831 0.447849
vt 0.362831 0.447849
vt 0.362831 0.447849
vt 0.362831 0.447849
vt 0.362831 0.447849
vt 0.362831 0.447849
vt 0.362831 0.447849
vt 0.362831 0.447849
vt 0.362831 0.447849
vt 0.362831 0.447849
vt 0.362831 0.447849
vt 0.362831 0.447849
vt 0.362831 0.447849
vt 0.362831 0.447849
vt 0.362831 0.447849
vt 0.362831 0.447849
vt 0.362831 0.447849
vt 0.362831 0.447849
vt 0.362831 0.447849
vt 0.362831 0.447849
vt 0.362831 0.447849
vt 0.362831 0.447849
vt 0.362831 0.447849
vt 0.362831 0.447849
vt 0.362831 0.447849
vt 0.362831 0.447849
vt 0.362831 0.447849
vt 0.362831 0.447849
vt 0.362831 0.447849
vt 0.362831 0.447849
vt 0.362831 0.447849
vt 0.362831 0.447849
vt 0.362831 0.447849
vt 0.362831 0.447849
vt 0.362831 0.447849
vt 0.362831 0.447849
vt 0.362831 0.447849
vt 0.362831 0.447849
vt 0.362831 0.447849
vt 0.362831 0.447849
vt 0.362831 0.447849
vt 0.362831 0.447849
vt 0.362831 0.447849
vt 0.362831 0.447849
vt 0.362831 0.447849
vt 0.362831 0.447849
vt 0.362831 0.447849
vt 0.362831 0.447849
vt 0.362831 0.447849
vt 0.362831 0.447849
vt 0.362831 0.447849
vt 0.362831 0.447849
vt 0.362831 0.447849
vt 0.362831 0.447849
vt 0.362831 0.447849
vt 0.362831 0.447849
vt 0.362831 0.447849
vt 0.362831 0.447849
vt 0.362831 0.447849
vt 0.362831 0.447849
vt 0.362831 0.447849
vt 0.362831 0.447849
vt 0.362831 0.447849
vt 0.362831 0.447849
vt 0.362831 0.447849
vt 0.362831 0.447849
vt 0.362831 0.447849
vt 0.362831 0.447849
vt 0.362831 0.447849
vt 0.362831 0.447849
vt 0.362831 0.447849
vt 0.362831 0.447849
vt 0.362831 0.447849
vt 0.362831 0.447849
vt 0.362831 0.447849
vt 0.362831 0.447849
vt 0.362831 0.447849
vt 0.362831 0.447849
vt 0.362831 0.447849
vt 0.362831 0.447849
vt 0.362831 0.447849
vt 0.362831 0.447849
vt 0.362831 0.447849
vt 0.362831 0.447849
vt 0.362831 0.447849
vt 0.362831 0.447849
vt 0.379649 0.412762
vt 0.379649 0.412762
vn -0.0000 -1.0000 0.0000
vn -0.0000 1.0000 -0.0000
vn 0.8952 0.0000 0.4457
vn 0.0000 0.0000 1.0000
vn 1.0000 0.0000 0.0000
vn 0.5516 0.0000 -0.8341
vn 0.0000 0.0000 -1.0000
vn -0.5516 0.0000 -0.8341
vn -1.0000 0.0000 0.0000
vn -0.8952 0.0000 0.4457
vn 0.5032 0.0000 0.8642
vn -0.5729 0.0000 0.8196
vn 0.5032 0.0000 -0.8642
vn 0.9257 0.0000 -0.3782
vn -0.9257 0.0000 0.3782
vn 0.9257 0.0000 0.3782
vn 0.8952 0.0000 -0.4457
vn -0.8952 0.0000 -0.4457
vn 0.5516 0.0000 0.8341
vn -0.5516 0.0000 0.8341
vn 0.5729 0.0000 0.8196
vn 0.5729 0.0000 -0.8196
vn -0.9257 0.0000 -0.3782
vn 0.5595 0.0000 -0.8288
vn 0.7398 0.0000 -0.6728
vn 0.6632 0.0000 -0.7484
vn -0.5595 0.0000 0.8288
vn -0.6556 0.0000 -0.7551
vn 0.8045 0.0000 0.5940
vn 0.7483 -0.0000 0.6634
vn 0.6556 0.0000 0.7551
vn 0.8282 0.0000 0.5604
vn 0.8343 0.0000 -0.5512
vn 0.8803 0.0000 -0.4745
vn 0.8991 0.0000 -0.4377
vn 0.8343 -0.0000 -0.5513
vn -0.7553 0.0000 0.6554
vn 0.7553 0.0000 -0.6554
vn 0.5595 -0.0000 -0.8289
vn 0.6554 0.0000 0.7553
vn 0.6860 0.0000 0.7276
vn 0.8285 0.0000 0.5600
vn 0.7483 -0.0000 0.6633
vn -0.9311 -0.0000 -0.3646
vn -0.8947 -0.0000 -0.4467
vn -0.8285 0.0000 -0.5600
vn -0.9311 0.0000 -0.3647
vn -0.9455 0.0000 -0.3258
vn 0.7555 0.0000 -0.6551
vn -0.0560 0.9984 0.0000
usemtl Text.085
s 1
f 12/1/1 13/2/1 14/3/1
f 15/4/1 16/5/1 17/6/1
f 1/7/2 3/8/2 2/9/2
f 10/10/2 11/11/2 9/12/2
f 8/13/2 10/10/2 9/12/2
f 8/13/2 9/12/2 4/14/2
f 7/15/2 8/13/2 4/14/2
f 5/16/2 7/15/2 4/14/2
f 4/14/2 6/17/2 5/16/2
f 16/5/2 18/18/2 15/19/2
usemtl White.085
f 19/20/3 20/21/3 21/22/3
f 21/22/3 22/23/3 19/20/3
f 19/20/4 24/24/4 23/25/4
f 25/26/5 26/27/5 22/23/5
f 23/25/5 24/24/5 27/28/5
f 27/28/6 30/29/6 29/30/6
f 31/31/7 29/30/7 30/29/7
f 30/29/7 32/32/7 31/31/7
f 33/33/7 31/31/7 32/32/7
f 32/32/7 34/34/7 33/33/7
f 35/35/8 33/33/8 34/34/8
f 37/36/9 38/37/9 35/35/9
f 39/38/4 38/37/4 37/36/4
f 37/36/4 40/39/4 39/38/4
f 41/40/10 42/41/10 39/38/10
f 43/42/7 44/43/7 45/44/7
f 45/44/5 44/43/5 47/45/5
f 47/45/4 49/46/4 50/47/4
f 50/47/4 48/48/4 47/45/4
f 51/49/11 52/50/11 53/51/11
f 53/51/11 54/52/11 51/49/11
f 61/53/2 60/54/2 52/50/2
f 62/55/2 61/53/2 52/50/2
f 52/50/2 63/56/2 62/55/2
f 64/57/2 65/58/2 66/59/2
f 52/50/2 51/49/2 68/60/2
f 52/50/7 59/61/7 69/62/7
f 69/62/7 53/51/7 52/50/7
f 71/63/4 72/64/4 62/55/4
f 64/57/12 67/65/12 73/66/12
f 74/67/4 75/68/4 65/58/4
f 76/69/5 66/59/5 65/58/5
f 65/58/5 75/68/5 76/69/5
f 63/56/13 66/59/13 76/69/13
f 76/69/13 71/63/13 63/56/13
f 77/70/14 78/71/14 79/72/14
f 17/73/4 82/74/4 83/75/4
f 79/72/4 84/76/4 16/77/4
f 16/77/4 83/75/4 80/78/4
f 16/77/15 84/76/15 85/79/15
f 15/80/16 86/81/16 81/82/16
f 15/80/4 18/83/4 85/79/4
f 89/84/9 90/85/9 88/86/9
f 88/86/9 87/87/9 89/84/9
f 91/88/15 12/1/15 13/89/15
f 93/90/16 14/91/16 12/1/16
f 95/92/17 7/93/17 5/94/17
f 8/95/7 7/93/7 95/92/7
f 5/94/7 6/96/7 97/97/7
f 98/98/18 10/99/18 8/95/18
f 6/96/19 4/100/19 99/101/19
f 98/98/7 100/102/7 11/103/7
f 11/103/7 10/99/7 98/98/7
f 101/104/4 99/101/4 4/100/4
f 4/100/4 9/105/4 101/104/4
f 100/102/20 101/104/20 9/105/20
f 9/105/20 11/103/20 100/102/20
f 1/106/17 102/107/17 103/108/17
f 103/108/17 3/109/17 1/106/17
f 1/106/4 2/110/4 104/111/4
f 104/111/18 2/110/18 3/109/18
f 3/109/18 103/108/18 104/111/18
f 23/25/7 19/112/7 20/113/7
f 22/114/9 25/115/9 21/116/9
f 27/117/9 23/118/9 28/119/9
f 29/120/20 27/121/20 28/122/20
f 34/123/19 35/124/19 36/125/19
f 35/126/5 37/127/5 36/128/5
f 39/129/17 41/130/17 40/39/17
f 45/131/4 43/42/4 46/132/4
f 47/45/9 45/44/9 48/133/9
f 51/134/9 55/135/9 54/136/9
f 55/137/9 51/138/9 56/139/9
f 52/140/1 67/141/1 68/142/1
f 67/143/1 52/144/1 63/145/1
f 51/146/1 68/147/1 56/148/1
f 63/149/1 64/150/1 67/151/1
f 64/152/1 63/56/1 66/153/1
f 60/154/1 52/155/1 57/156/1
f 58/157/1 52/50/1 59/158/1
f 52/140/1 58/159/1 57/160/1
f 55/161/4 68/162/4 70/163/4
f 68/162/4 55/161/4 56/164/4
f 62/165/7 71/166/7 63/167/7
f 70/168/21 67/169/21 73/170/21
f 67/169/21 70/168/21 68/171/21
f 73/172/22 64/173/22 74/174/22
f 65/175/7 74/176/7 64/177/7
f 79/72/15 77/70/15 80/178/15
f 80/179/7 16/180/7 79/181/7
f 83/182/7 17/183/7 16/180/7
f 17/184/7 82/185/7 81/186/7
f 85/187/14 16/188/14 18/18/14
f 81/189/23 15/190/23 17/184/23
f 83/75/16 87/87/16 82/191/16
f 87/192/16 83/182/16 88/86/16
f 85/193/7 15/19/7 86/194/7
f 13/89/14 91/88/14 92/195/14
f 13/2/4 93/196/4 14/3/4
f 93/196/4 13/2/4 92/197/4
f 12/198/23 93/199/23 91/88/23
f 5/200/10 95/201/10 94/202/10
f 95/203/4 8/204/4 96/205/4
f 97/97/4 5/206/4 94/207/4
f 8/208/3 98/209/3 96/210/3
f 99/211/8 6/212/8 97/213/8
f 105/214/1 106/215/1 87/216/1
f 58/217/1 60/218/1 57/219/1
f 60/218/1 58/217/1 59/220/1
f 61/221/1 59/220/1 107/222/1
f 62/223/1 108/224/1 109/225/1
f 109/225/1 108/224/1 42/226/1
f 109/225/1 42/226/1 89/227/1
f 89/227/1 42/226/1 105/214/1
f 81/228/1 87/216/1 86/229/1
f 86/229/1 87/216/1 93/230/1
f 93/230/1 87/216/1 91/231/1
f 91/231/1 87/216/1 106/215/1
f 93/230/1 85/232/1 86/229/1
f 85/232/1 93/230/1 92/233/1
f 97/97/1 38/234/1 35/235/1
f 38/234/1 97/97/1 39/236/1
f 39/236/1 97/97/1 94/202/1
f 42/226/1 94/202/1 95/92/1
f 42/226/1 95/92/1 102/237/1
f 106/215/1 103/238/1 91/231/1
f 91/231/1 103/238/1 78/239/1
f 78/239/1 110/240/1 111/241/1
f 92/233/1 79/242/1 85/232/1
f 78/239/1 25/243/1 112/244/1
f 112/244/1 25/243/1 113/245/1
f 49/246/1 114/247/1 43/248/1
f 110/240/1 104/249/1 21/250/1
f 21/250/1 104/249/1 20/251/1
f 20/251/1 96/252/1 98/98/1
f 20/251/1 98/98/1 100/102/1
f 33/253/1 97/97/1 35/235/1
f 97/97/1 33/253/1 99/101/1
f 99/101/1 31/254/1 101/104/1
f 101/104/1 31/254/1 29/255/1
f 101/104/1 29/255/1 100/102/1
f 100/102/1 28/256/1 23/257/1
f 96/252/1 102/237/1 95/92/1
f 102/237/1 96/252/1 104/249/1
f 100/102/2 28/256/2 29/255/2
f 99/101/2 31/254/2 33/253/2
f 20/251/2 23/257/2 100/102/2
f 20/251/2 96/252/2 104/249/2
f 104/249/2 103/238/2 110/240/2
f 47/258/2 44/259/2 43/248/2
f 49/246/2 47/258/2 43/248/2
f 112/244/2 49/246/2 114/247/2
f 112/244/2 114/247/2 113/245/2
f 25/243/2 111/241/2 78/239/2
f 85/232/2 84/260/2 79/242/2
f 92/233/2 79/242/2 78/239/2
f 78/239/2 110/240/2 103/238/2
f 91/231/2 92/233/2 78/239/2
f 105/214/2 106/215/2 103/238/2
f 42/226/2 105/214/2 103/238/2
f 42/226/2 103/238/2 102/237/2
f 39/236/2 42/226/2 94/202/2
f 87/216/2 82/261/2 81/228/2
f 61/221/2 62/223/2 108/224/2
f 61/221/2 108/224/2 107/222/2
f 60/218/2 61/221/2 59/220/2
f 89/227/1 105/214/1 87/216/1
f 89/227/24 115/262/25 109/225/26
f 115/262/27 90/263/27 89/227/27
f 78/239/28 116/264/28 77/265/28
f 116/264/29 112/244/30 78/239/31
f 50/266/32 49/246/32 112/244/30
f 112/244/30 116/264/29 50/266/32
f 117/267/33 114/247/34 43/248/35
f 43/248/35 46/268/35 117/267/36
f 118/269/37 114/247/37 113/245/37
f 114/247/34 117/267/33 118/269/38
f 25/243/39 113/245/39 118/269/39
f 118/269/39 26/270/39 25/243/39
f 111/241/1 21/250/1 25/243/1
f 110/240/2 111/241/2 21/250/2
f 41/271/40 108/224/41 119/272/30
f 108/224/41 41/271/40 42/226/40
f 108/224/41 120/273/42 119/272/43
f 120/273/44 107/222/45 108/224/46
f 107/222/45 120/273/47 69/274/48
f 69/274/48 59/220/48 107/222/45
f 115/262/25 62/223/49 109/225/26
f 62/223/49 115/262/25 72/275/49
f 40/276/1 34/277/1 41/271/1
f 41/271/1 34/277/1 32/278/1
f 53/279/1 72/275/1 71/280/1
f 72/275/1 53/279/1 69/274/1
f 72/275/1 69/274/1 120/273/1
f 72/275/1 120/273/1 119/272/1
f 115/262/1 41/271/1 90/263/1
f 53/279/1 73/281/1 70/282/1
f 53/279/1 70/282/1 54/283/1
f 54/283/1 70/282/1 55/284/1
f 71/280/1 74/285/1 73/281/1
f 74/285/1 76/286/1 75/287/1
f 88/288/1 80/289/1 83/290/1
f 77/265/1 41/271/1 32/278/1
f 26/270/1 116/264/1 77/265/1
f 116/264/1 26/270/1 118/269/1
f 116/264/1 118/269/1 117/267/1
f 50/266/1 46/268/1 48/291/1
f 48/291/1 46/268/1 45/292/1
f 22/293/1 32/278/1 30/294/1
f 32/278/1 22/293/1 77/265/1
f 77/265/50 22/293/50 26/270/50
f 22/293/1 30/294/1 19/295/1
f 19/295/1 30/294/1 27/296/1
f 19/295/1 27/296/1 24/297/1
f 50/266/2 46/268/2 117/267/2
f 116/264/2 50/266/2 117/267/2
f 80/289/2 77/265/2 41/271/2
f 80/289/2 41/271/2 90/263/2
f 80/289/2 90/263/2 88/288/2
f 74/285/2 76/286/2 71/280/2
f 73/281/2 71/280/2 53/279/2
f 115/262/2 41/271/2 119/272/2
f 72/275/2 115/262/2 119/272/2
f 40/276/2 34/277/2 36/298/2
f 36/298/2 37/299/2 40/276/2
f 104/111/7 1/300/7 102/301/7
