# Blender v3.1.2 OBJ File: 'C-ARMSAS.blend'
# www.blender.org
mtllib SM_CM_-_T.mtl
o SM_CM_-_T_mesh.015
v -183.879166 -21.007347 -131.735870
v 199.352493 -21.007351 -179.639786
v -183.879181 -21.007351 -179.639725
v -16.215546 -21.007347 -131.735901
v 19.712391 -21.007347 -131.735901
v -16.215500 -21.007324 179.639755
v 199.352509 -21.007347 -131.735931
v 19.712437 -21.007324 179.639755
v -183.879181 1.941290 -179.639725
v -183.879166 1.941294 -131.735870
v 199.352493 1.941290 -179.639786
v 199.352509 1.941294 -131.735931
v 19.712534 1.941294 -131.735901
v 19.712580 1.941318 179.639755
v -16.215500 1.941318 179.639755
v -16.215546 1.941294 -131.735901
vt 0.577371 0.777762
vt 0.582209 0.853785
vt 0.582209 0.777762
vt 0.606404 0.865481
vt 0.606404 0.853785
vt 0.582209 0.853785
vt 0.606404 0.865481
vt 0.577371 0.853785
vt 0.554789 0.853785
vt 0.554789 0.865481
vt 0.554789 0.853785
vt 0.554789 0.853785
vt 0.554789 0.865481
vt 0.554789 0.865481
vt 0.606404 0.865481
vt 0.606404 0.865481
vt 0.554789 0.865481
vt 0.606404 0.865481
vt 0.606404 0.853785
vt 0.582209 0.853785
vt 0.606404 0.853785
vt 0.606404 0.853785
vt 0.582209 0.853785
vt 0.582209 0.853785
vt 0.582209 0.777762
vt 0.577371 0.777762
vt 0.582209 0.777762
vt 0.582209 0.777762
vt 0.577371 0.853785
vt 0.582209 0.853785
vt 0.606404 0.865481
vt 0.582209 0.853785
vt 0.582209 0.853785
vt 0.582209 0.853785
vt 0.582209 0.853785
vt 0.582209 0.853785
vt 0.582209 0.853785
vt 0.582209 0.853785
vt 0.582209 0.853785
vt 0.582209 0.853785
vn -0.0000 1.0000 -0.0000
vn 1.0000 0.0000 -0.0000
vn 0.0000 0.0000 1.0000
vn -1.0000 0.0000 0.0000
vn -0.0000 0.0000 -1.0000
vn 0.0000 -1.0000 0.0000
usemtl White.129
s 1
f 1/1/1 2/2/1 3/3/1
f 2/4/1 1/5/1 4/6/1
f 5/7/1 4/6/1 6/8/1
f 6/9/1 8/10/1 5/7/1
f 9/11/2 1/12/2 3/13/2
f 2/14/3 9/15/3 3/16/3
f 9/15/3 2/14/3 11/17/3
f 12/18/4 2/4/4 7/19/4
f 12/20/5 5/21/5 13/22/5
f 14/23/4 5/24/4 8/25/4
f 14/26/5 6/27/5 15/28/5
f 10/29/6 11/30/6 16/31/6
f 2/2/6 7/32/6 5/24/6
f 2/2/6 5/24/6 4/6/6
f 1/33/4 10/34/4 9/35/4
f 2/2/2 11/30/2 12/20/2
f 5/24/3 7/32/3 12/20/3
f 5/24/2 13/36/2 14/23/2
f 6/37/3 8/38/3 14/23/3
f 16/39/4 4/6/4 6/37/4
f 6/37/4 15/40/4 16/39/4
f 16/39/3 10/34/3 1/33/3
f 1/33/3 4/6/3 16/39/3
f 13/36/1 12/20/1 11/30/1
f 16/39/1 14/23/1 13/36/1
f 16/39/1 13/36/1 11/30/1
f 11/30/1 9/35/1 10/34/1
f 16/39/1 15/40/1 14/23/1
