# Blender v3.1.2 OBJ File: 'C-ARMSAS.blend'
# www.blender.org
mtllib SM_CM_-_Supporting_Attack.mtl
o SM_CM_-_Supporting_Attack_mesh.014
v 13.179456 -21.007353 -206.708130
v 142.668823 -21.007345 -105.226051
v 5.987525 -21.007355 -239.519897
v 130.692856 -21.007345 -93.250076
v 142.668823 -21.007345 -93.250076
v -142.669510 -21.007345 -93.250031
v -5.988454 -21.007355 -239.519897
v -142.669510 -21.007345 -105.226006
v -130.693527 -21.007345 -93.250031
v -13.180375 -21.007353 -206.708130
v -13.180308 -21.007320 236.403366
v -13.180307 -21.007320 239.519577
v 13.179523 -21.007320 239.519577
v 13.179665 -8.870247 236.403442
v 13.179523 1.941322 239.519577
v -13.180307 1.941322 239.519577
v -13.180308 1.941322 236.403366
v -13.180375 1.941288 -206.708130
v -130.693527 1.941297 -93.250031
v -142.669510 1.941297 -93.250031
v -142.669510 1.941296 -105.226006
v -5.988454 1.941286 -239.519897
v 5.987525 1.941286 -239.519897
v 142.668823 1.941296 -105.226051
v 142.668823 1.941297 -93.250076
v 130.692856 1.941297 -93.250076
v 13.179456 1.941288 -206.708130
v 13.179523 1.941322 236.403366
vt 0.167044 0.254094
vt 0.166075 0.137896
vt 0.166075 0.246083
vt 0.150248 0.218382
vt 0.148635 0.218382
vt 0.148635 0.221306
vt 0.167044 0.254094
vt 0.187065 0.221306
vt 0.187065 0.218382
vt 0.185452 0.218382
vt 0.169625 0.246083
vt 0.168656 0.254094
vt 0.187065 0.221306
vt 0.166075 0.137135
vt 0.169625 0.137135
vt 0.169625 0.137135
vt 0.166075 0.137896
vt 0.166075 0.137896
vt 0.166075 0.137135
vt 0.166075 0.137135
vt 0.166075 0.137135
vt 0.166075 0.137896
vt 0.166075 0.137896
vt 0.148635 0.218382
vt 0.150248 0.218382
vt 0.150248 0.218382
vt 0.148635 0.221306
vt 0.167044 0.254094
vt 0.167044 0.254094
vt 0.167044 0.254094
vt 0.168656 0.254094
vt 0.168656 0.254094
vt 0.187065 0.218382
vt 0.185452 0.218382
vt 0.185452 0.218382
vt 0.185452 0.218382
vt 0.169625 0.246083
vt 0.169625 0.246083
vt 0.185452 0.218382
vt 0.169625 0.137896
vt 0.169625 0.137896
vt 0.169625 0.137135
vt 0.150248 0.218382
vt 0.167044 0.254094
vt 0.148635 0.221306
vt 0.148635 0.221306
vt 0.148635 0.218382
vt 0.150248 0.218382
vt 0.169625 0.137135
vt 0.169625 0.137896
vt 0.169625 0.246083
vt 0.169625 0.246083
vt 0.187065 0.221306
vt 0.168656 0.254094
vt 0.168656 0.254094
vt 0.169625 0.137135
vt 0.168656 0.254094
vt 0.167044 0.254094
vt 0.169625 0.137135
vt 0.166075 0.246083
vt 0.166075 0.137896
vt 0.169625 0.137896
vt 0.169625 0.137896
vt 0.169625 0.137896
vt 0.169625 0.137896
vt 0.169625 0.137896
vt 0.169625 0.137896
vt 0.169625 0.137896
vt 0.169625 0.137896
vt 0.169625 0.137896
vt 0.169625 0.137896
vt 0.169625 0.137896
vt 0.169625 0.137896
vt 0.169625 0.137896
vt 0.169625 0.137896
vt 0.169625 0.137896
vt 0.169625 0.137896
vt 0.169625 0.137896
vt 0.169625 0.137896
vt 0.169625 0.137896
vt 0.169625 0.137896
vt 0.169625 0.137896
vt 0.169625 0.137896
vt 0.169625 0.137896
vt 0.169625 0.137896
vt 0.169625 0.137896
vn 0.0000 1.0000 0.0000
vn -1.0000 0.0000 0.0000
vn 0.0000 0.0000 -1.0000
vn 1.0000 0.0000 -0.0000
vn 0.7009 0.0000 0.7133
vn 0.0000 0.0000 1.0000
vn 0.6946 0.0000 -0.7194
vn 0.0000 -1.0000 0.0000
vn -0.0013 -1.0000 0.0000
vn 0.6946 0.0000 0.7194
vn -0.7009 0.0000 -0.7133
vn 0.7008 0.0000 -0.7133
usemtl White.128
s 1
f 7/1/1 9/2/1 10/3/1
f 7/1/1 10/3/1 11/4/1
f 7/5/1 12/6/1 13/7/1
f 7/8/1 13/9/1 3/10/1
f 1/11/2 13/12/2 14/13/2
f 15/14/3 12/15/3 16/16/3
f 12/17/4 17/18/4 16/19/4
f 17/20/4 12/21/4 11/22/4
f 18/23/4 11/22/4 10/3/4
f 19/24/3 6/25/3 20/26/3
f 7/27/5 21/28/5 8/29/5
f 3/30/6 22/31/6 7/32/6
f 4/33/3 25/34/3 5/35/3
f 1/36/7 26/37/7 4/38/7
f 26/37/7 1/36/7 27/39/7
f 15/40/2 14/41/2 13/42/2
f 15/43/8 17/44/8 18/45/8
f 15/46/8 18/47/8 22/48/8
f 27/49/8 23/50/8 24/51/8
f 15/52/9 27/53/9 28/54/9
f 27/49/8 24/51/8 26/55/8
f 26/56/8 24/57/8 25/58/8
f 19/59/8 21/60/8 22/61/8
f 3/62/8 1/63/8 13/64/8
f 7/65/8 12/66/8 11/67/8
f 7/65/8 9/68/8 6/69/8
f 6/69/8 8/70/8 7/65/8
f 2/71/8 5/72/8 4/73/8
f 2/71/8 4/73/8 1/63/8
f 1/63/8 3/62/8 2/71/8
f 12/66/6 13/64/6 15/40/6
f 11/67/2 17/74/2 18/75/2
f 18/75/10 19/76/10 9/68/10
f 9/68/10 10/77/10 18/75/10
f 6/69/6 9/68/6 19/76/6
f 21/78/2 8/70/2 6/69/2
f 6/69/2 20/79/2 21/78/2
f 21/78/11 22/80/11 7/65/11
f 22/80/3 23/50/3 3/62/3
f 23/50/12 24/81/12 2/71/12
f 2/71/12 3/62/12 23/50/12
f 2/71/4 24/81/4 25/82/4
f 25/82/4 5/72/4 2/71/4
f 25/82/6 26/83/6 4/73/6
f 1/63/4 27/84/4 28/85/4
f 28/85/4 14/41/4 1/63/4
f 14/41/4 28/85/4 15/40/4
f 19/76/1 18/75/1 22/80/1
f 21/78/1 20/79/1 19/76/1
f 15/40/1 27/84/1 23/50/1
f 15/40/1 23/50/1 22/80/1
f 17/74/1 16/86/1 15/40/1
