# Blender v3.1.2 OBJ File: 'C-ARMSAS.blend'
# www.blender.org
mtllib SM_CM_-_NAI.mtl
o SM_CM_-_NAI_path1763-2.032
v 232.596237 43.254562 145.452499
v 222.591660 43.254517 -130.979095
v -219.757202 43.254517 -130.979095
v -219.757202 43.254562 135.455017
v -157.120895 43.254524 -83.203789
v -157.160095 43.254524 -84.206467
v -157.237076 43.254524 -85.627243
v -157.307999 43.254524 -87.475906
v -157.307999 43.254524 -90.999580
v -174.231079 43.254524 -100.218353
v -174.048172 43.254524 -95.787758
v -173.960648 43.254528 -74.920929
v -177.722809 43.254520 -106.990318
v -121.632088 43.254528 -74.920929
v -125.725067 43.254528 -74.920929
v -141.574463 43.254524 -83.476883
v -144.447632 43.254528 -74.920929
v -132.639496 43.254520 -106.990318
v -116.629768 43.254528 -74.920929
v -116.629768 43.254520 -106.990318
v -140.354645 43.254524 -87.238235
v -229.756851 -32.748669 -135.975296
v 222.591660 -32.748669 -130.979095
v -219.757202 -32.748623 135.455017
v -157.151382 34.754681 -83.951828
v -157.237076 34.754681 -85.627243
v -157.307999 34.754681 -87.475906
v -157.307999 34.754677 -106.990318
v -153.545837 34.754684 -74.920929
v -174.231079 34.754681 -100.218353
v -174.180283 34.754681 -99.006920
v -177.722809 34.754684 -74.920929
v -177.722809 34.754677 -106.990318
v -125.725067 34.754684 -74.920929
v -128.546677 34.754681 -83.476883
v -144.447632 34.754684 -74.920929
v -148.535538 34.754684 -74.920929
v -112.681633 34.754684 -74.920929
v -129.817444 34.754681 -87.238235
v -135.130310 34.754681 -103.228966
v 232.596237 -32.748623 145.452499
v -229.756851 -32.748623 145.452499
v -229.756851 43.254562 145.452499
v -229.756851 43.254517 -135.975296
v -229.756851 -32.748669 -140.976578
v -229.756851 43.254517 -140.976578
v 232.596237 -32.748669 -140.976578
v 232.596237 43.254517 -140.976578
v 222.591660 -32.748623 135.455017
v 222.591660 43.254562 135.455017
v -219.757202 -32.748669 -130.979095
v -157.043579 43.254528 -81.778267
v -157.084625 34.754681 -82.479362
v -157.307999 34.754681 -90.999580
v -157.307999 43.254520 -106.990318
v -153.545837 34.754677 -106.990318
v -153.545837 43.254520 -106.990318
v -153.545837 43.254528 -74.920929
v -157.307999 34.754684 -74.920929
v -157.307999 43.254528 -74.920929
v -174.180283 43.254524 -99.006920
v -174.093216 34.754681 -97.259354
v -174.085709 43.254524 -97.025360
v -174.048172 34.754681 -95.787758
v -174.001251 43.254524 -94.152489
v -173.993042 34.754681 -93.868240
v -173.974808 43.254524 -93.007317
v -173.964722 34.754681 -92.134476
v -173.960861 43.254524 -91.250175
v -173.960648 34.754681 -90.952942
v -173.960648 34.754684 -74.920929
v -177.722809 43.254528 -74.920929
v -173.955505 34.754677 -106.990318
v -173.955505 43.254520 -106.990318
v -121.632088 34.754684 -74.920929
v -128.546677 43.254524 -83.476883
v -141.574463 34.754681 -83.476883
v -148.535538 43.254528 -74.920929
v -137.533417 34.754677 -106.990318
v -137.533417 43.254520 -106.990318
v -132.639496 34.754677 -106.990318
v -112.681633 43.254528 -74.920929
v -116.629768 34.754684 -74.920929
v -116.629768 34.754677 -106.990318
v -112.681633 34.754677 -106.990318
v -112.681633 43.254520 -106.990318
v -129.817444 43.254524 -87.238235
v -135.130310 43.254524 -103.228966
v -140.354645 34.754681 -87.238235
v -91.447678 31.626997 -65.217445
v -91.450584 31.626814 -116.004784
v -191.382843 31.626997 -65.217445
v -191.385742 31.626814 -116.004784
v -190.202972 37.266762 -115.137390
v -190.200211 37.266937 -66.084854
v -92.633217 37.266762 -115.137390
v -92.630463 37.266937 -66.084854
vt 0.812500 0.000000
vt 0.833333 0.000000
vt 0.822917 0.000000
vt 0.427083 0.000000
vt 0.416667 0.000000
vt 0.093750 0.000000
vt 0.364583 0.000000
vt 0.385417 0.000000
vt 0.375000 0.000000
vt 0.395833 0.000000
vt 0.895833 0.000000
vt 0.989583 0.000000
vt 0.906250 0.000000
vt 0.916667 0.000000
vt 0.979167 0.000000
vt 0.843750 0.000000
vt 0.937500 0.000000
vt 0.958333 0.000000
vt 0.947917 0.000000
vt 0.927083 0.000000
vt 1.000000 0.000000
vt 0.968750 0.000000
vt 0.406250 0.000000
vt 0.437500 0.000000
vt 0.520833 0.000000
vt 0.510417 0.000000
vt 0.572917 0.000000
vt 0.562500 0.000000
vt 0.645833 0.000000
vt 0.635417 0.000000
vt 0.718750 0.000000
vt 0.708333 0.000000
vt 0.750000 0.000000
vt 0.739583 0.000000
vt 0.354167 0.000000
vt 0.802083 0.000000
vt 0.791667 0.000000
vt 0.875000 0.000000
vt 0.864583 0.000000
vt 0.312500 0.000000
vt 0.322917 0.000000
vt 0.260417 0.000000
vt 0.270833 0.000000
vt 0.208333 0.000000
vt 0.218750 0.000000
vt 0.885417 0.000000
vt 0.854167 0.000000
vt 0.156250 0.000000
vt 0.166667 0.000000
vt 0.104167 0.000000
vt 0.833333 0.000000
vt 0.812500 0.000000
vt 0.822917 0.000000
vt 0.427083 0.000000
vt 0.093750 0.000000
vt 0.416667 0.000000
vt 0.385417 0.000000
vt 0.364583 0.000000
vt 0.375000 0.000000
vt 0.395833 0.000000
vt 0.989583 0.000000
vt 0.895833 0.000000
vt 0.906250 0.000000
vt 0.916667 0.000000
vt 0.843750 0.000000
vt 0.979167 0.000000
vt 0.958333 0.000000
vt 0.937500 0.000000
vt 0.947917 0.000000
vt 0.927083 0.000000
vt 1.000000 0.000000
vt 0.968750 0.000000
vt 0.406250 0.000000
vt 0.437500 0.000000
vt 0.520833 0.000000
vt 0.510417 0.000000
vt 0.572917 0.000000
vt 0.562500 0.000000
vt 0.656250 0.000000
vt 0.645833 0.000000
vt 0.729167 0.000000
vt 0.718750 0.000000
vt 0.760417 0.000000
vt 0.750000 0.000000
vt 0.354167 0.000000
vt 0.802083 0.000000
vt 0.791667 0.000000
vt 0.875000 0.000000
vt 0.864583 0.000000
vt 0.312500 0.000000
vt 0.322917 0.000000
vt 0.250000 0.000000
vt 0.260417 0.000000
vt 0.187500 0.000000
vt 0.197917 0.000000
vt 0.885417 0.000000
vt 0.854167 0.000000
vt 0.104167 0.000000
vt 0.083333 1.000000
vt 0.097222 1.000000
vt 0.083333 0.000000
vt 0.138889 1.000000
vt 0.138889 0.000000
vt 0.125000 0.000000
vt 0.152778 1.000000
vt 0.166667 1.000000
vt 0.152778 0.000000
vt 0.222222 1.000000
vt 0.222222 0.000000
vt 0.208333 0.000000
vt 0.236111 1.000000
vt 0.291667 1.000000
vt 0.305556 1.000000
vt 0.305556 0.000000
vt 0.291667 0.000000
vt 0.347222 1.000000
vt 0.361111 1.000000
vt 0.361111 0.000000
vt 0.347222 0.000000
vt 0.375000 1.000000
vt 0.388889 1.000000
vt 0.388889 0.000000
vt 0.402778 1.000000
vt 0.402778 0.000000
vt 0.416667 1.000000
vt 0.416667 0.000000
vt 0.430556 1.000000
vt 0.430556 0.000000
vt 0.444444 1.000000
vt 0.458333 1.000000
vt 0.458333 0.000000
vt 0.444444 0.000000
vt 0.555556 1.000000
vt 0.569444 1.000000
vt 0.569444 0.000000
vt 0.555556 0.000000
vt 0.625000 1.000000
vt 0.638889 1.000000
vt 0.638889 0.000000
vt 0.625000 0.000000
vt 0.722222 1.000000
vt 0.736111 1.000000
vt 0.722222 0.000000
vt 0.750000 1.000000
vt 0.750000 0.000000
vt 0.736111 0.000000
vt 0.819444 1.000000
vt 0.833333 1.000000
vt 0.819444 0.000000
vt 0.847222 1.000000
vt 0.847222 0.000000
vt 0.833333 0.000000
vt 0.861111 1.000000
vt 0.875000 1.000000
vt 0.861111 0.000000
vt 0.888889 1.000000
vt 0.888889 0.000000
vt 0.875000 0.000000
vt 0.930556 1.000000
vt 0.944444 1.000000
vt 0.944444 0.000000
vt 0.930556 0.000000
vt 0.958333 1.000000
vt 0.958333 0.000000
vt 0.972222 1.000000
vt 0.972222 0.000000
vt 0.986111 1.000000
vt 0.986111 0.000000
vt 1.000000 1.000000
vt 1.000000 0.000000
vt 0.000000 1.000000
vt 0.125000 1.000000
vt 0.125000 0.000000
vt 0.000000 0.000000
vt 0.250000 1.000000
vt 0.250000 0.000000
vt 0.375000 1.000000
vt 0.375000 0.000000
vt 0.500000 1.000000
vt 0.500000 0.000000
vt 0.625000 1.000000
vt 0.625000 0.000000
vt 0.750000 1.000000
vt 0.750000 0.000000
vt 0.875000 1.000000
vt 0.875000 0.000000
vt 1.000000 1.000000
vt 1.000000 0.000000
vt 0.000000 1.000000
vt 0.250000 1.000000
vt 0.250000 0.000000
vt 0.000000 0.000000
vt 0.500000 1.000000
vt 0.500000 0.000000
vt 0.750000 1.000000
vt 0.750000 0.000000
vt 1.000000 1.000000
vt 1.000000 0.000000
vt 0.000000 1.000000
vt 0.250000 1.000000
vt 0.250000 0.000000
vt 0.000000 0.000000
vt 0.500000 1.000000
vt 0.750000 1.000000
vt 0.750000 0.000000
vt 0.500000 0.000000
vt 1.000000 1.000000
vt 1.000000 0.000000
vt 0.000000 0.000000
vt 0.000000 0.000000
vt 0.000000 0.000000
vt 0.000000 0.000000
vt 0.000000 0.000000
vt 0.000000 0.000000
vt 0.000000 0.000000
vt 0.000000 0.000000
vt 0.020833 0.000000
vt 0.041667 0.000000
vt 0.031250 0.000000
vt 0.062500 0.000000
vt 0.000000 0.000000
vt 0.010417 0.000000
vt 0.072917 0.000000
vt 0.083333 0.000000
vt 0.052083 0.000000
vt 0.041667 0.000000
vt 0.020833 0.000000
vt 0.031250 0.000000
vt 0.062500 0.000000
vt 0.000000 0.000000
vt 0.072917 0.000000
vt 0.010417 0.000000
vt 0.083333 0.000000
vt 0.052083 0.000000
vt 0.000000 1.000000
vt 0.200000 1.000000
vt 0.200000 0.000000
vt 0.400000 1.000000
vt 0.400000 0.000000
vt 0.600000 1.000000
vt 0.600000 0.000000
vt 0.800000 1.000000
vt 0.800000 0.000000
vt 1.000000 1.000000
vt 1.000000 0.000000
vt 0.000000 1.000000
vt 0.250000 1.000000
vt 0.250000 0.000000
vt 0.000000 0.000000
vt 0.500000 1.000000
vt 0.500000 0.000000
vt 0.750000 1.000000
vt 0.750000 0.000000
vt 1.000000 1.000000
vt 1.000000 0.000000
vn -0.0000 1.0000 -0.0000
vn -0.0000 -1.0000 0.0000
vn -0.9985 0.0004 0.0542
vn -0.9989 0.0002 0.0465
vn -0.9989 -0.0003 0.0462
vn -0.9989 0.0001 0.0479
vn -0.9989 0.0001 0.0465
vn -0.9990 0.0002 0.0449
vn -0.9989 0.0000 0.0462
vn -0.9998 0.0000 0.0192
vn -1.0000 0.0000 0.0000
vn 0.0000 0.0000 -1.0000
vn 1.0000 0.0000 0.0000
vn 0.0000 0.0000 1.0000
vn -0.8312 0.0000 0.5560
vn 0.9991 0.0000 -0.0419
vn 0.9990 0.0001 -0.0453
vn 0.9992 0.0001 -0.0394
vn 0.9992 0.0001 -0.0397
vn 0.9996 -0.0000 -0.0296
vn 0.9997 0.0001 -0.0259
vn 0.9997 -0.0002 -0.0227
vn 0.9999 0.0002 -0.0156
vn 1.0000 -0.0002 -0.0098
vn 1.0000 0.0002 -0.0039
vn 1.0000 -0.0000 -0.0017
vn 0.8270 0.0212 -0.5619
vn -0.9497 0.0000 0.3132
vn 0.9480 0.0000 0.3183
vn -0.9459 0.0000 -0.3245
vn 0.9458 0.0000 -0.3246
vn -0.9490 0.0000 0.3153
vn 0.9506 0.0000 0.3106
vn 0.0000 0.1520 0.9884
vn 0.0000 0.1520 -0.9884
vn 0.9787 0.2052 -0.0001
vn -0.9787 0.2052 0.0001
usemtl Text.114
s 1
f 72/1/1 74/2/1 13/3/1
f 72/1/1 10/4/1 74/2/1
f 10/5/1 52/6/1 74/2/1
f 9/7/1 57/8/1 55/9/1
f 9/7/1 58/10/1 57/8/1
f 78/11/1 88/12/1 80/13/1
f 88/12/1 18/14/1 80/13/1
f 88/15/1 14/16/1 18/14/1
f 19/17/1 86/18/1 20/19/1
f 19/17/1 82/20/1 86/18/1
f 78/11/1 21/21/1 88/12/1
f 87/22/1 14/16/1 88/15/1
f 60/23/1 52/6/1 10/5/1
f 72/1/1 61/24/1 10/4/1
f 72/1/1 63/25/1 61/26/1
f 72/1/1 11/27/1 63/28/1
f 72/1/1 65/29/1 11/30/1
f 72/1/1 67/31/1 65/32/1
f 72/1/1 69/33/1 67/34/1
f 8/35/1 58/10/1 9/7/1
f 72/1/1 12/36/1 69/37/1
f 78/11/1 16/38/1 21/21/1
f 16/38/1 87/22/1 21/21/1
f 16/38/1 76/39/1 87/22/1
f 76/39/1 14/16/1 87/22/1
f 7/40/1 58/10/1 8/41/1
f 6/42/1 58/10/1 7/43/1
f 5/44/1 58/10/1 6/45/1
f 78/11/1 17/46/1 16/38/1
f 15/47/1 14/16/1 76/39/1
f 52/48/1 58/10/1 5/49/1
f 60/23/1 58/10/1 52/50/1
f 73/51/2 32/52/2 33/53/2
f 30/54/2 32/52/2 73/51/2
f 53/55/2 30/56/2 73/51/2
f 56/57/2 54/58/2 28/59/2
f 29/60/2 54/58/2 56/57/2
f 40/61/2 37/62/2 79/63/2
f 81/64/2 40/61/2 79/63/2
f 75/65/2 40/66/2 81/64/2
f 85/67/2 83/68/2 84/69/2
f 38/70/2 83/68/2 85/67/2
f 89/71/2 37/62/2 40/61/2
f 75/65/2 39/72/2 40/66/2
f 53/55/2 59/73/2 30/56/2
f 31/74/2 32/52/2 30/54/2
f 62/75/2 32/52/2 31/76/2
f 64/77/2 32/52/2 62/78/2
f 66/79/2 32/52/2 64/80/2
f 68/81/2 32/52/2 66/82/2
f 70/83/2 32/52/2 68/84/2
f 29/60/2 27/85/2 54/58/2
f 71/86/2 32/52/2 70/87/2
f 77/88/2 37/62/2 89/71/2
f 39/72/2 77/88/2 89/71/2
f 35/89/2 77/88/2 39/72/2
f 75/65/2 35/89/2 39/72/2
f 29/60/2 26/90/2 27/91/2
f 29/60/2 25/92/2 26/93/2
f 29/60/2 53/94/2 25/95/2
f 36/96/2 37/62/2 77/88/2
f 75/65/2 34/97/2 35/89/2
f 29/60/2 59/73/2 53/98/2
f 52/99/3 5/100/4 53/101/5
f 5/102/4 25/103/6 53/104/5
f 5/105/4 6/106/7 25/107/6
f 6/108/7 26/109/8 25/110/6
f 6/108/7 7/111/9 26/109/8
f 7/112/9 8/113/10 27/114/10 26/115/8
f 8/116/10 9/117/11 54/118/11 27/119/10
f 9/117/11 55/120/11 28/59/11 54/118/11
f 55/120/12 57/121/12 56/122/12 28/59/12
f 57/121/13 58/123/13 29/124/13 56/122/13
f 58/123/14 60/125/14 59/126/14 29/124/14
f 60/125/15 10/127/15 30/128/15 59/126/15
f 10/129/16 61/130/17 31/131/17 30/132/16
f 61/133/17 63/134/18 62/135/19 31/136/17
f 63/137/18 11/138/20 64/139/20 62/140/19
f 11/141/20 65/142/21 64/143/20
f 65/144/21 66/145/22 64/146/20
f 65/147/21 67/148/23 66/149/22
f 67/150/23 68/151/24 66/152/22
f 67/153/23 69/154/25 68/155/24
f 69/156/25 70/157/26 68/158/24
f 69/159/25 12/160/13 71/161/13 70/162/26
f 12/160/14 72/163/14 32/164/14 71/161/14
f 72/163/11 13/165/11 33/166/11 32/164/11
f 13/165/12 74/167/12 73/168/12 33/166/12
f 74/167/27 52/169/27 53/170/27 73/168/27
f 14/171/14 15/172/14 34/173/14 75/174/14
f 15/172/28 76/175/28 35/176/28 34/173/28
f 76/175/14 16/177/14 77/178/14 35/176/14
f 16/177/29 17/179/29 36/180/29 77/178/29
f 17/179/14 78/181/14 37/182/14 36/180/14
f 78/181/30 80/183/30 79/184/30 37/182/30
f 80/183/12 18/185/12 81/186/12 79/184/12
f 18/185/31 14/187/31 75/188/31 81/186/31
f 82/189/14 19/190/14 83/191/14 38/192/14
f 19/190/11 20/193/11 84/194/11 83/191/11
f 20/193/12 86/195/12 85/196/12 84/194/12
f 86/195/13 82/197/13 38/198/13 85/196/13
f 87/199/32 88/200/32 40/201/32 39/202/32
f 88/203/33 21/204/33 89/205/33 40/206/33
f 21/204/12 87/207/12 39/208/12 89/205/12
usemtl Outline.114
f 97/209/34 95/210/34 92/211/34 90/212/34
f 94/213/35 96/214/35 91/215/35 93/216/35
f 96/214/36 97/209/36 90/212/36 91/215/36
f 92/211/2 93/216/2 91/215/2 90/212/2
f 95/210/37 94/213/37 93/216/37 92/211/37
f 95/210/1 97/209/1 96/214/1 94/213/1
usemtl White.114
f 44/217/1 48/218/1 46/219/1
f 44/217/1 2/220/1 48/218/1
f 2/220/1 1/221/1 48/218/1
f 43/222/1 3/223/1 44/217/1
f 3/223/1 2/220/1 44/217/1
f 43/222/1 4/224/1 3/223/1
f 50/225/1 1/221/1 2/220/1
f 43/222/1 50/225/1 4/224/1
f 43/222/1 1/221/1 50/225/1
f 47/226/2 22/227/2 45/228/2
f 23/229/2 22/227/2 47/226/2
f 41/230/2 23/229/2 47/226/2
f 51/231/2 42/232/2 22/227/2
f 23/229/2 51/231/2 22/227/2
f 24/233/2 42/232/2 51/231/2
f 41/230/2 49/234/2 23/229/2
f 49/234/2 42/232/2 24/233/2
f 41/230/2 42/232/2 49/234/2
f 1/235/14 43/236/14 42/237/14 41/230/14
f 43/236/11 44/238/11 22/239/11 42/237/11
f 44/238/11 46/240/11 45/241/11 22/239/11
f 46/240/12 48/242/12 47/243/12 45/241/12
f 48/242/13 1/244/13 41/245/13 47/243/13
f 50/246/11 2/247/11 23/248/11 49/249/11
f 2/247/14 3/250/14 51/251/14 23/248/14
f 3/250/13 4/252/13 24/253/13 51/251/13
f 4/252/12 50/254/12 49/255/12 24/253/12
