# Blender v3.1.2 OBJ File: 'C-ARMSAS.blend'
# www.blender.org
mtllib SM_CM_-_Clear.mtl
o SM_CM_-_Clear_mesh.006
v -15.836485 -10.222634 -106.712112
v 1.066035 0.944670 -137.322021
v -15.836485 0.944673 -106.712112
v 1.066035 -10.222637 -137.322021
v 8.568863 -10.222634 -106.712112
v 17.968599 -10.222634 -106.712112
v -6.436749 -10.222634 -106.712112
v -6.436707 -10.222613 171.550125
v 8.568905 -10.222613 171.550125
v -6.436749 0.944673 -106.712112
v 8.568905 0.944694 171.550125
v -6.436707 0.944694 171.550125
v 8.568863 0.944673 -106.712112
v 17.968599 0.944673 -106.712112
v -82.074371 0.944668 -171.550201
v 75.275604 0.944669 -159.894562
v -82.074371 0.944669 -159.894531
v 75.275604 0.944668 -171.550232
v -82.074371 -10.222639 -159.894531
v -82.074371 -10.222640 -171.550201
v 75.275604 -10.222639 -159.894562
v 75.275604 -10.222640 -171.550232
v -70.542305 0.944673 -106.712105
v -55.536652 0.944694 171.550140
v -70.542267 0.944694 171.550140
v -63.039520 0.944670 -137.322006
v -55.536694 0.944673 -106.712105
v -46.136955 0.944673 -106.712105
v -79.942039 0.944673 -106.712097
v -70.542267 -10.222613 171.550140
v -70.542305 -10.222634 -106.712105
v -55.536652 -10.222613 171.550140
v -55.536694 -10.222634 -106.712105
v -46.136955 -10.222634 -106.712105
v -63.039520 -10.222637 -137.322006
v -79.942039 -10.222634 -106.712097
v 82.074120 0.944673 -106.712128
v 65.171593 -10.222637 -137.322037
v 82.074120 -10.222634 -106.712128
v 65.171593 0.944670 -137.322037
v 72.674355 -10.222634 -106.712120
v 57.668808 -10.222634 -106.712120
v 48.269039 -10.222634 -106.712120
v 57.668850 -10.222613 171.550110
v 72.674393 -10.222613 171.550110
v 48.269039 0.944673 -106.712120
v 57.668808 0.944673 -106.712120
v 72.674393 0.944694 171.550110
v 57.668850 0.944694 171.550110
v 72.674355 0.944673 -106.712120
vt 0.061333 0.474986
vt 0.059257 0.320016
vt 0.059257 0.459628
vt 0.059257 0.459628
vt 0.056655 0.459628
vt 0.061333 0.474986
vt 0.056655 0.459628
vt 0.059257 0.459628
vt 0.061333 0.474986
vt 0.063410 0.320016
vt 0.063410 0.459628
vt 0.061333 0.474986
vt 0.066012 0.459628
vt 0.066012 0.459628
vt 0.061333 0.474986
vt 0.059257 0.459628
vt 0.059257 0.320016
vt 0.059257 0.320016
vt 0.059257 0.320016
vt 0.059257 0.459628
vt 0.063410 0.459628
vt 0.066012 0.459628
vt 0.066012 0.459628
vt 0.063410 0.320016
vt 0.059257 0.320016
vt 0.059257 0.320016
vt 0.061333 0.474986
vt 0.061333 0.474986
vt 0.061333 0.474986
vt 0.061333 0.474986
vt 0.061333 0.474986
vt 0.061333 0.474986
vt 0.061333 0.474986
vt 0.061333 0.474986
vt 0.061333 0.474986
vt 0.056065 0.486312
vt 0.056065 0.486312
vt 0.056065 0.492160
vt 0.099615 0.486312
vt 0.056065 0.486312
vt 0.056065 0.486312
vt 0.099615 0.486312
vt 0.099615 0.486312
vt 0.099615 0.486312
vt 0.099615 0.492160
vt 0.056065 0.492160
vt 0.099615 0.492160
vt 0.099615 0.492160
vt 0.099615 0.492160
vt 0.056065 0.486312
vt 0.099615 0.492160
vt 0.099615 0.492160
vt 0.099615 0.492160
vt 0.099615 0.492160
vt 0.063410 0.320016
vt 0.063410 0.459628
vt 0.061333 0.474986
vt 0.063410 0.320016
vt 0.061333 0.474986
vt 0.059257 0.459628
vt 0.059257 0.459628
vt 0.059257 0.459628
vt 0.059257 0.320016
vt 0.059257 0.320016
vt 0.059257 0.320016
vt 0.059257 0.459628
vt 0.063410 0.320016
vt 0.059257 0.320016
vt 0.059257 0.320016
vt 0.063410 0.320016
vt 0.066012 0.459628
vt 0.063410 0.459628
vt 0.063410 0.459628
vt 0.066012 0.459628
vt 0.066012 0.459628
vt 0.066012 0.459628
vt 0.061333 0.474986
vt 0.056655 0.459628
vt 0.056655 0.459628
vt 0.056655 0.459628
vt 0.061333 0.474986
vt 0.059257 0.459628
vt 0.056655 0.459628
vt 0.061333 0.474986
vt 0.063410 0.320016
vt 0.059257 0.320016
vt 0.059257 0.459628
vt 0.056655 0.459628
vt 0.061333 0.474986
vt 0.059257 0.459628
vt 0.059257 0.459628
vt 0.059257 0.459628
vt 0.059257 0.459628
vt 0.059257 0.459628
vt 0.059257 0.459628
vt 0.059257 0.459628
vt 0.061333 0.474986
vt 0.061333 0.474986
vt 0.066012 0.459628
vt 0.061333 0.474986
vt 0.063410 0.459628
vt 0.063410 0.320016
vt 0.059257 0.459628
vt 0.056655 0.459628
vt 0.061333 0.474986
vt 0.063410 0.459628
vt 0.066012 0.459628
vt 0.061333 0.474986
vt 0.061333 0.474986
vt 0.056655 0.459628
vt 0.056655 0.459628
vt 0.059257 0.459628
vt 0.061333 0.474986
vt 0.063410 0.320016
vt 0.059257 0.459628
vt 0.059257 0.459628
vt 0.059257 0.320016
vt 0.063410 0.320016
vt 0.059257 0.459628
vt 0.059257 0.459628
vt 0.059257 0.320016
vt 0.059257 0.320016
vt 0.059257 0.320016
vt 0.059257 0.459628
vt 0.056655 0.459628
vt 0.056655 0.459628
vt 0.063410 0.459628
vt 0.063410 0.459628
vt 0.063410 0.320016
vt 0.063410 0.320016
vt 0.063410 0.320016
vt 0.063410 0.459628
vt 0.063410 0.320016
vt 0.059257 0.320016
vt 0.059257 0.320016
vt 0.061333 0.474986
vt 0.061333 0.474986
vt 0.061333 0.474986
vt 0.061333 0.474986
vt 0.061333 0.474986
vt 0.061333 0.474986
vn 0.0000 1.0000 -0.0000
vn 0.0000 -1.0000 0.0000
vn -0.8754 0.0000 0.4834
vn 1.0000 0.0000 -0.0000
vn 0.0000 0.0000 -1.0000
vn -0.8754 0.0000 -0.4834
vn 0.0000 0.0000 1.0000
vn 0.8754 0.0000 -0.4834
vn -1.0000 0.0000 0.0000
vn 0.8754 0.0000 0.4834
usemtl White.098
s 1
f 4/1/1 7/2/1 8/3/1
f 4/4/1 8/5/1 9/6/1
f 10/7/2 11/8/2 12/9/2
f 11/10/2 2/11/2 13/12/2
f 4/13/3 14/14/3 2/15/3
f 8/3/4 10/16/4 12/17/4
f 10/18/4 8/19/4 7/20/4
f 14/21/5 5/22/5 13/23/5
f 8/24/5 11/25/5 9/26/5
f 2/15/6 4/1/6 1/27/6
f 1/27/6 3/28/6 2/15/6
f 4/1/2 5/29/2 9/6/2
f 7/30/2 1/27/2 4/1/2
f 5/29/2 4/1/2 6/31/2
f 7/30/7 10/32/7 3/28/7
f 3/28/7 1/27/7 7/30/7
f 3/28/1 10/32/1 2/15/1
f 13/12/1 14/33/1 2/15/1
f 11/34/1 2/15/1 10/32/1
f 14/33/8 6/31/8 4/1/8
f 5/29/7 6/31/7 14/33/7
f 5/29/4 13/12/4 11/34/4
f 11/34/4 9/6/4 5/29/4
f 11/34/7 12/9/7 8/35/7
f 15/36/4 19/37/4 20/38/4
f 19/39/5 16/40/5 21/41/5
f 16/40/5 19/39/5 17/42/5
f 22/43/9 16/44/9 18/45/9
f 22/46/7 15/47/7 20/48/7
f 19/49/1 22/43/1 20/50/1
f 16/51/1 18/45/1 15/47/1
f 15/47/1 17/52/1 16/51/1
f 19/49/9 17/52/9 15/47/9
f 16/51/4 21/53/4 22/54/4
f 15/47/5 18/45/5 22/54/5
f 22/54/2 21/53/2 19/49/2
f 24/55/2 26/56/2 27/57/2
f 27/58/2 26/59/2 28/60/2
f 30/61/4 23/62/4 25/63/4
f 23/64/4 30/65/4 31/66/4
f 30/67/5 24/68/5 32/69/5
f 24/68/5 30/67/5 25/70/5
f 33/71/5 28/72/5 34/73/5
f 28/72/5 33/71/5 27/74/5
f 35/75/3 28/76/3 26/59/3
f 36/77/10 26/59/10 29/78/10
f 26/79/10 36/80/10 35/81/10
f 29/82/5 31/66/5 36/80/5
f 31/83/5 29/78/5 23/62/5
f 31/84/1 35/85/1 36/86/1
f 35/87/1 30/88/1 32/89/1
f 29/82/1 23/62/1 26/90/1
f 24/91/1 26/90/1 23/62/1
f 23/62/1 25/92/1 24/91/1
f 33/93/4 27/94/4 24/91/4
f 24/91/4 32/95/4 33/93/4
f 28/60/8 34/96/8 35/87/8
f 35/87/2 33/93/2 32/95/2
f 35/87/2 30/61/2 31/66/2
f 33/93/2 35/87/2 34/96/2
f 37/97/3 38/98/3 39/99/3
f 41/100/1 39/101/1 38/102/1
f 38/103/1 44/104/1 45/105/1
f 38/106/1 45/105/1 41/107/1
f 43/108/10 40/109/10 46/110/10
f 47/111/2 48/112/2 49/113/2
f 50/114/2 40/109/2 37/115/2
f 46/116/2 40/117/2 47/118/2
f 44/119/4 47/120/4 49/121/4
f 47/122/4 44/123/4 42/124/4
f 46/116/5 42/124/5 43/125/5
f 42/126/5 46/110/5 47/120/5
f 48/127/9 41/128/9 45/129/9
f 41/130/9 48/131/9 50/132/9
f 44/133/5 48/134/5 45/135/5
f 38/98/8 40/109/8 37/97/8
f 38/98/2 44/136/2 42/137/2
f 42/137/2 43/108/2 38/98/2
f 40/109/6 38/98/6 43/108/6
f 48/138/1 50/139/1 40/109/1
f 48/138/1 40/109/1 47/140/1
f 37/97/7 50/139/7 41/100/7
f 41/100/7 39/141/7 37/97/7
f 48/138/7 49/113/7 44/136/7
