# Blender v3.1.2 OBJ File: 'C-ARMSAS.blend'
# www.blender.org
mtllib SM_CM_-_Aviation.mtl
o SM_CM_-_Aviation_mesh.004
v -57.163788 -7.881783 218.458389
v -5.906769 5.396324 41.861660
v -57.163788 5.396337 218.458389
v -5.906769 -7.881796 41.861660
v -40.061855 5.396336 205.613037
v 0.000010 5.396326 67.591026
v -5.906772 5.396322 25.904104
v 57.163857 5.396337 218.458359
v 40.061916 5.396336 205.613037
v -97.227440 5.396311 -124.541458
v -51.253716 5.396312 -115.346046
v -97.227440 5.396312 -115.346039
v -76.199982 5.396311 -128.191406
v -41.886917 5.396311 -128.191422
v 0.000000 5.396320 2.282064
v 5.906782 5.396324 41.861660
v 5.906779 5.396322 25.904104
v 41.886879 5.396311 -128.191422
v 51.253677 5.396312 -115.346062
v 76.199966 5.396311 -128.191437
v 97.227409 5.396312 -115.346069
v -9.195448 5.396304 -218.458374
v -3.629804 5.396305 -205.613083
v 9.195381 5.396304 -218.458374
v 3.629742 5.396305 -205.613083
v 97.227409 5.396311 -124.541489
v -5.906772 -7.881798 25.904104
v 57.163857 -7.881783 218.458359
v 5.906782 -7.881796 41.861660
v -97.227440 -7.881809 -124.541458
v -51.253716 -7.881808 -115.346046
v -97.227440 -7.881808 -115.346039
v -9.195448 -7.881816 -218.458374
v 9.195381 -7.881816 -218.458374
v 5.906779 -7.881798 25.904104
v 11.339672 -7.881799 8.978614
v 11.902596 -7.881799 6.703322
v 13.594858 -7.881800 1.172970
v 51.253677 -7.881808 -115.346062
v 97.227409 -7.881809 -124.541489
v 15.589543 -3.613510 -4.254865
v 97.227409 -7.881808 -115.346069
v -41.886917 2.800221 -128.191422
v -76.200012 2.800221 -128.191406
v 0.000000 2.800231 2.282064
v -3.629804 2.800215 -205.613083
v 41.886879 2.800221 -128.191422
v 3.629742 2.800215 -205.613083
v 76.199966 2.800221 -128.191437
v 40.061916 2.800246 205.613037
v -40.061855 2.800246 205.613037
v 0.000010 2.800236 67.591026
vt 0.000000 0.000000
vt 0.000000 0.000000
vt 0.000000 0.000000
vt 0.000000 0.000000
vt 0.000000 0.000000
vt 0.000000 0.000000
vt 0.000000 0.000000
vt 0.000000 0.000000
vt 0.000000 0.000000
vt 0.000000 0.000000
vt 0.000000 0.000000
vt 0.000000 0.000000
vt 0.000000 0.000000
vt 0.000000 0.000000
vt 0.000000 0.000000
vt 0.000000 0.000000
vt 0.000000 0.000000
vt 0.000000 0.000000
vt 0.000000 0.000000
vt 0.000000 0.000000
vt 0.000000 0.000000
vt 0.000000 0.000000
vt 0.000000 0.000000
vt 0.000000 0.000000
vt 0.000000 0.000000
vt 0.000000 0.000000
vt 0.000000 0.000000
vt 0.000000 0.000000
vt 0.000000 0.000000
vt 0.000000 0.000000
vt 0.000000 0.000000
vt 0.000000 0.000000
vt 0.000000 0.000000
vt 0.000000 0.000000
vt 0.000000 0.000000
vt 0.000000 0.000000
vt 0.000000 0.000000
vt 0.000000 0.000000
vt 0.000000 0.000000
vt 0.000000 0.000000
vt 0.000000 0.000000
vt 0.000000 0.000000
vt 0.000000 0.000000
vt 0.000000 0.000000
vt 0.000000 0.000000
vt 0.000000 0.000000
vt 0.000000 0.000000
vt 0.000000 0.000000
vt 0.000000 0.000000
vt 0.000000 0.000000
vt 0.000000 0.000000
vt 0.000000 0.000000
vn 0.0000 1.0000 -0.0000
vn 0.0000 -1.0000 0.0000
vn -0.9604 0.0000 -0.2787
vn 1.0000 0.0000 -0.0000
vn -1.0000 0.0000 0.0000
vn -0.9502 0.0535 -0.3071
vn 0.0000 0.0000 1.0000
vn 0.9900 -0.0000 -0.1407
vn 0.9900 0.0000 -0.1408
vn 0.9604 0.0000 -0.2787
vn -0.9522 0.0000 -0.3056
vn -0.9521 0.0001 -0.3057
vn 0.9521 -0.0004 0.3056
vn 0.9521 0.0000 0.3057
vn 0.0000 0.0000 -1.0000
vn -0.7296 0.0000 0.6839
vn 0.7296 0.0000 0.6839
vn -0.7296 0.0000 -0.6839
vn 0.9521 0.0000 -0.3057
vn 0.9495 -0.2008 0.2412
vn 0.9542 -0.0986 0.2826
vn 0.9477 -0.2167 0.2345
vn 0.9536 -0.0746 0.2918
vn -0.9521 0.0000 -0.3057
vn 0.7296 0.0000 -0.6839
vn 0.9604 0.0000 -0.2788
vn -0.9604 0.0000 0.2788
vn -0.9604 0.0000 -0.2788
usemtl Text.087
s 1
f 47/1/1 49/2/1 48/3/1
f 43/4/1 45/5/1 46/6/1
f 52/7/1 51/8/1 50/9/1
f 46/6/2 43/4/2 44/10/2
f 45/5/2 46/6/2 48/3/2
f 45/5/2 48/3/2 47/1/2
usemtl White.087
f 2/11/3 4/12/3 1/13/3
f 1/13/3 3/14/3 2/11/3
f 5/15/2 2/11/2 6/16/2
f 6/16/2 2/11/2 7/17/2
f 5/15/2 8/18/2 3/14/2
f 11/19/2 10/20/2 13/21/2
f 11/19/2 13/21/2 14/22/2
f 6/16/2 16/23/2 9/24/2
f 17/25/2 15/26/2 18/27/2
f 15/26/2 17/25/2 16/23/2
f 17/25/2 18/27/2 19/28/2
f 19/28/2 18/27/2 20/29/2
f 19/28/2 20/29/2 21/30/2
f 23/31/2 22/32/2 24/33/2
f 23/31/2 24/33/2 25/34/2
f 20/29/1 21/30/1 26/35/1
f 20/29/1 26/35/1 24/33/1
f 25/34/1 20/29/1 24/33/1
f 13/21/1 23/31/1 22/32/1
f 22/32/1 10/20/1 13/21/1
f 9/24/1 8/18/1 16/23/1
f 6/16/1 16/23/1 15/26/1
f 7/17/1 6/16/1 15/26/1
f 7/17/1 15/26/1 14/22/1
f 11/19/1 7/17/1 14/22/1
f 10/20/1 12/36/1 11/19/1
f 8/18/1 9/24/1 5/15/1
f 2/11/1 3/14/1 5/15/1
f 4/12/4 7/17/4 2/11/4
f 7/17/5 27/37/5 4/12/5
f 30/38/2 31/39/2 32/40/2
f 31/39/2 33/41/2 27/37/2
f 27/37/2 33/41/2 34/42/2
f 27/37/2 35/43/2 29/44/2
f 35/43/2 34/42/2 36/45/2
f 39/46/1 42/47/1 40/48/1
f 38/49/6 41/50/6 39/46/6
f 39/46/1 40/48/1 34/42/1
f 38/49/1 39/46/1 34/42/1
f 37/51/1 38/49/1 34/42/1
f 36/45/1 37/51/1 34/42/1
f 27/37/1 35/43/1 34/42/1
f 31/39/1 33/41/1 30/38/1
f 28/52/1 29/44/1 27/37/1
f 28/52/1 27/37/1 4/12/1
f 4/12/1 1/13/1 28/52/1
f 8/18/7 3/14/7 1/13/7
f 1/13/7 28/52/7 8/18/7
f 29/44/8 16/23/9 8/18/10
f 8/18/10 28/52/10 29/44/9
f 35/43/4 17/25/4 16/23/9
f 16/23/9 29/44/8 35/43/4
f 17/25/11 36/45/11 35/43/11
f 36/45/12 17/25/12 19/28/12
f 36/45/13 19/28/13 41/50/13
f 41/50/14 39/46/14 19/28/14
f 39/46/15 21/30/15 42/47/15
f 21/30/7 19/28/7 39/46/7
f 21/30/5 40/48/5 42/47/5
f 40/48/5 21/30/5 26/35/5
f 26/35/16 34/42/16 40/48/16
f 34/42/16 26/35/16 24/33/16
f 22/32/15 24/33/15 34/42/15
f 34/42/15 33/41/15 22/32/15
f 30/38/17 22/32/17 10/20/17
f 22/32/18 33/41/18 30/38/18
f 32/40/4 10/20/4 12/36/4
f 10/20/4 32/40/4 30/38/4
f 32/40/15 11/19/15 31/39/15
f 11/19/7 12/36/7 32/40/7
f 27/37/19 11/19/19 7/17/19
f 11/19/19 27/37/19 31/39/19
f 37/51/20 41/50/21 36/45/22
f 41/50/21 37/51/20 38/49/23
f 13/21/7 43/4/7 14/22/7
f 43/4/15 44/10/15 13/21/15
f 43/4/19 14/22/19 15/26/19
f 15/26/19 45/5/19 43/4/19
f 13/21/18 46/6/18 44/10/18
f 46/6/17 23/31/17 13/21/17
f 18/27/14 45/5/14 47/1/14
f 45/5/24 15/26/24 18/27/24
f 46/6/15 25/34/15 48/3/15
f 25/34/15 46/6/15 23/31/15
f 49/2/7 18/27/7 47/1/7
f 18/27/15 20/29/15 49/2/15
f 25/34/25 49/2/25 48/3/25
f 49/2/16 20/29/16 25/34/16
f 50/9/7 5/15/7 51/8/7
f 5/15/15 9/24/15 50/9/15
f 50/9/26 6/16/26 9/24/26
f 6/16/27 52/7/27 50/9/27
f 5/15/28 52/7/28 51/8/28
f 52/7/28 5/15/28 6/16/28
