# Blender v3.1.2 OBJ File: 'C-ARMSAS.blend'
# www.blender.org
mtllib SM_CM_-_Crossing.mtl
o SM_CM_-_Crossing_path1763-2.021
v 81.587471 42.087543 78.821609
v 86.813095 42.087543 73.114845
v 81.587471 -30.190159 78.821625
v 86.813095 -30.190161 73.114861
v -80.584007 42.087521 -80.170319
v -85.809669 42.087521 -74.463562
v -80.584007 -30.190186 -80.170303
v -85.809669 -30.190184 -74.463547
v -83.993881 42.087543 75.187347
v -78.631279 42.087543 80.765602
v -83.993881 -30.190161 75.187363
v -78.631279 -30.190159 80.765617
v 84.997322 42.087521 -76.536049
v 79.634720 42.087517 -82.114334
v 84.997322 -30.190186 -76.536034
v 79.634720 -30.190186 -82.114319
v 73.616173 42.087543 71.522308
v 65.644882 42.087543 64.223015
v 57.673584 42.087540 56.923721
v 49.702293 42.087540 49.624428
v 41.731003 42.087540 42.325130
v 33.759708 42.087536 35.025837
v 25.788416 42.087536 27.726542
v 17.817123 42.087536 20.427250
v 9.845831 42.087536 13.127957
v -14.068048 42.087532 -8.769923
v -22.039339 42.087528 -16.069218
v -30.010633 42.087528 -23.368511
v -37.981926 42.087528 -30.667807
v -45.953217 42.087524 -37.967098
v -53.924515 42.087524 -45.266396
v -61.895802 42.087524 -52.565689
v -69.867088 42.087521 -59.864979
v -77.838387 42.087521 -67.164268
v -72.612709 42.087521 -72.871040
v -64.641426 42.087521 -65.571747
v -56.670135 42.087524 -58.272449
v -48.698845 42.087524 -50.973156
v -40.727554 42.087524 -43.673859
v -32.756264 42.087524 -36.374565
v -24.784969 42.087528 -29.075270
v -16.813681 42.087528 -21.775976
v -8.842390 42.087528 -14.476679
v 15.071483 42.087532 7.421202
v 23.042774 42.087536 14.720496
v 31.014069 42.087536 22.019787
v 38.985355 42.087536 29.319082
v 46.956646 42.087540 36.618378
v 54.927940 42.087540 43.917671
v 62.899227 42.087540 51.216965
v 70.870522 42.087540 58.516262
v 78.841812 42.087543 65.815552
v 73.616173 -30.190161 71.522324
v 65.644882 -30.190163 64.223030
v 57.673584 -30.190163 56.923733
v 49.702293 -30.190165 49.624439
v 41.731003 -30.190165 42.325142
v 33.759708 -30.190166 35.025848
v 25.788416 -30.190168 27.726555
v 17.817123 -30.190168 20.427263
v 9.845831 -30.190170 13.127969
v -14.068048 -30.190174 -8.769912
v -22.039339 -30.190174 -16.069204
v -30.010633 -30.190176 -23.368498
v -37.981926 -30.190178 -30.667793
v -45.953217 -30.190178 -37.967087
v -53.924515 -30.190180 -45.266384
v -61.895802 -30.190180 -52.565678
v -69.867088 -30.190182 -59.864967
v -77.838387 -30.190184 -67.164253
v -72.612709 -30.190184 -72.871025
v -64.641426 -30.190184 -65.571732
v -56.670135 -30.190182 -58.272438
v -48.698845 -30.190180 -50.973145
v -40.727554 -30.190180 -43.673847
v -32.756264 -30.190178 -36.374554
v -24.784969 -30.190176 -29.075256
v -16.813681 -30.190176 -21.775963
v -8.842390 -30.190174 -14.476667
v 15.071483 -30.190170 7.421213
v 23.042774 -30.190170 14.720508
v 31.014069 -30.190168 22.019800
v 38.985355 -30.190166 29.319096
v 46.956646 -30.190166 36.618389
v 54.927940 -30.190165 43.917683
v 62.899227 -30.190165 51.216976
v 70.870522 -30.190163 58.516273
v 78.841812 -30.190161 65.815567
vt 0.000000 0.000000
vt 0.000000 0.000000
vt 0.000000 0.000000
vt 0.000000 0.000000
vt 0.000000 0.000000
vt 0.000000 0.000000
vt 0.000000 0.000000
vt 0.000000 0.000000
vt 0.000000 0.000000
vt 0.000000 0.000000
vt 0.000000 0.000000
vt 0.000000 0.000000
vt 0.000000 0.000000
vt 0.000000 0.000000
vt 0.000000 0.000000
vt 0.000000 0.000000
vt 0.000000 0.000000
vt 0.000000 0.000000
vt 0.000000 0.000000
vt 0.000000 0.000000
vt 0.000000 0.000000
vt 0.000000 0.000000
vt 0.000000 0.000000
vt 0.000000 0.000000
vt 0.000000 0.000000
vt 0.000000 0.000000
vt 0.000000 0.000000
vt 0.000000 0.000000
vt 0.000000 0.000000
vt 0.000000 0.000000
vt 0.000000 0.000000
vt 0.000000 0.000000
vt 0.000000 0.000000
vt 0.000000 0.000000
vt 0.000000 0.000000
vt 0.000000 0.000000
vt 0.000000 0.000000
vt 0.000000 0.000000
vt 0.000000 0.000000
vt 0.000000 0.000000
vt 0.000000 0.000000
vt 0.000000 0.000000
vt 0.000000 0.000000
vt 0.000000 0.000000
vt 0.000000 0.000000
vt 0.000000 0.000000
vt 0.000000 0.000000
vt 0.000000 0.000000
vt 0.000000 0.000000
vt 0.000000 0.000000
vt 0.000000 0.000000
vt 0.000000 0.000000
vt 0.000000 0.000000
vt 0.000000 0.000000
vt 0.000000 0.000000
vt 0.000000 0.000000
vt 0.000000 0.000000
vt 0.000000 0.000000
vt 0.000000 0.000000
vt 0.000000 0.000000
vt 0.000000 0.000000
vt 0.000000 0.000000
vt 0.000000 0.000000
vt 0.000000 0.000000
vt 0.000000 0.000000
vt 0.000000 0.000000
vt 0.000000 0.000000
vt 0.000000 0.000000
vt 0.000000 0.000000
vt 0.000000 0.000000
vt 0.000000 0.000000
vt 0.000000 0.000000
vt 0.000000 0.000000
vt 0.000000 0.000000
vt 0.000000 0.000000
vt 0.000000 0.000000
vt 0.000000 0.000000
vt 0.000000 0.000000
vt 0.000000 0.000000
vt 0.000000 0.000000
vt 0.000000 0.000000
vt 0.000000 0.000000
vt 0.000000 0.000000
vt 0.000000 0.000000
vt 0.000000 0.000000
vt 0.000000 0.000000
vt 0.000000 0.000000
vt 0.000000 0.000000
vn 0.0000 1.0000 -0.0000
vn 0.6753 -0.0000 -0.7375
vn -0.6753 0.0000 0.7375
vn -0.7375 -0.0000 -0.6753
vn 0.7375 0.0000 0.6753
vn 0.0000 -1.0000 0.0000
vn 0.6930 0.0000 0.7209
vn -0.6930 -0.0000 -0.7209
vn 0.7209 -0.0000 -0.6930
vn -0.7209 0.0000 0.6930
usemtl White.100
s 1
f 71/1/1 7/2/1 8/3/1 70/4/1
f 70/4/2 8/3/2 6/5/2 34/6/2
f 35/7/3 5/8/3 7/2/3 71/1/3
f 1/9/4 2/10/4 4/11/4 3/12/4
f 5/8/5 6/5/5 8/3/5 7/2/5
f 34/6/6 6/5/6 5/8/6 35/7/6
f 12/13/1 15/14/1 16/15/1 11/16/1
f 11/16/7 16/15/7 14/17/7 9/18/7
f 10/19/8 13/20/8 15/14/8 12/13/8
f 9/18/9 10/19/9 12/13/9 11/16/9
f 13/20/10 14/17/10 16/15/10 15/14/10
f 9/18/6 14/17/6 13/20/6 10/19/6
f 1/9/6 17/21/6 52/22/6 2/10/6
f 18/23/6 19/24/6 50/25/6 51/26/6
f 20/27/6 21/28/6 48/29/6 49/30/6
f 22/31/6 23/32/6 46/33/6 47/34/6
f 24/35/6 25/36/6 44/37/6 45/38/6
f 26/39/6 27/40/6 42/41/6 43/42/6
f 28/43/6 29/44/6 40/45/6 41/46/6
f 30/47/6 31/48/6 38/49/6 39/50/6
f 32/51/6 33/52/6 36/53/6 37/54/6
f 2/10/3 52/22/3 88/55/3 4/11/3
f 51/26/3 50/25/3 86/56/3 87/57/3
f 49/30/3 48/29/3 84/58/3 85/59/3
f 47/34/3 46/33/3 82/60/3 83/61/3
f 45/38/3 44/37/3 80/62/3 81/63/3
f 43/42/3 42/41/3 78/64/3 79/65/3
f 41/46/3 40/45/3 76/66/3 77/67/3
f 39/50/3 38/49/3 74/68/3 75/69/3
f 37/54/3 36/53/3 72/70/3 73/71/3
f 3/12/2 53/72/2 17/21/2 1/9/2
f 54/73/2 55/74/2 19/24/2 18/23/2
f 56/75/2 57/76/2 21/28/2 20/27/2
f 58/77/2 59/78/2 23/32/2 22/31/2
f 60/79/2 61/80/2 25/36/2 24/35/2
f 62/81/2 63/82/2 27/40/2 26/39/2
f 64/83/2 65/84/2 29/44/2 28/43/2
f 66/85/2 67/86/2 31/48/2 30/47/2
f 68/87/2 69/88/2 33/52/2 32/51/2
f 4/11/1 88/55/1 53/72/1 3/12/1
f 87/57/1 86/56/1 55/74/1 54/73/1
f 85/59/1 84/58/1 57/76/1 56/75/1
f 83/61/1 82/60/1 59/78/1 58/77/1
f 81/63/1 80/62/1 61/80/1 60/79/1
f 79/65/1 78/64/1 63/82/1 62/81/1
f 77/67/1 76/66/1 65/84/1 64/83/1
f 75/69/1 74/68/1 67/86/1 66/85/1
f 73/71/1 72/70/1 69/88/1 68/87/1
f 17/21/5 53/72/5 88/55/5 52/22/5
f 18/23/4 51/26/4 87/57/4 54/73/4
f 19/24/5 55/74/5 86/56/5 50/25/5
f 20/27/4 49/30/4 85/59/4 56/75/4
f 21/28/5 57/76/5 84/58/5 48/29/5
f 22/31/4 47/34/4 83/61/4 58/77/4
f 23/32/5 59/78/5 82/60/5 46/33/5
f 24/35/4 45/38/4 81/63/4 60/79/4
f 25/36/5 61/80/5 80/62/5 44/37/5
f 26/39/4 43/42/4 79/65/4 62/81/4
f 27/40/5 63/82/5 78/64/5 42/41/5
f 28/43/4 41/46/4 77/67/4 64/83/4
f 29/44/5 65/84/5 76/66/5 40/45/5
f 30/47/4 39/50/4 75/69/4 66/85/4
f 31/48/5 67/86/5 74/68/5 38/49/5
f 32/51/4 37/54/4 73/71/4 68/87/4
f 33/52/5 69/88/5 72/70/5 36/53/5
f 34/6/4 35/7/4 71/1/4 70/4/4
