# Blender v3.1.2 OBJ File: 'C-ARMSAS.blend'
# www.blender.org
mtllib SM_CM_-_I.mtl
o SM_CM_-_I_path1763-2.026
v 309.125427 21.048599 0.972942
v 32.144592 21.048599 0.972942
v 32.144592 21.048599 -0.975463
v -25.644005 21.048599 0.972942
v -312.917603 21.048599 0.972942
v -312.917603 21.048599 -0.975463
v -25.644005 21.048599 -0.975463
v -0.545753 21.048599 -4.736820
v 32.144592 -15.936202 -0.975457
v 309.125427 -15.936202 -0.975457
v -25.644005 -15.936202 0.972948
v -25.644005 -15.936202 -0.975457
v 0.621115 16.912390 4.741842
v -0.545753 16.912390 4.741842
v -0.545753 16.912390 -4.736820
v 0.621115 21.048599 4.741841
v -0.545753 21.048599 4.741841
v 0.621115 16.912390 -4.736820
v 0.621115 21.048599 -4.736820
v -312.917603 -15.936202 0.972948
v -312.917603 -15.936202 -0.975457
v 309.125427 -15.936202 0.972948
v 32.144592 -15.936202 0.972948
v 309.125427 21.048599 -0.975463
v 12.892214 15.390391 9.203855
v 12.890800 15.390303 -8.737326
v -11.570967 15.390391 9.203855
v -11.572381 15.390303 -8.737326
v -10.996815 18.134825 -8.315228
v -10.995473 18.134909 8.781757
v 12.315306 18.134825 -8.315228
v 12.316648 18.134909 8.781757
vt 0.818182 0.000000
vt 1.000000 0.000000
vt 0.909091 0.000000
vt 0.727273 0.000000
vt 1.000000 0.000000
vt 0.818182 0.000000
vt 0.909091 0.000000
vt 0.727273 0.000000
vt 0.000000 1.000000
vt 0.250000 1.000000
vt 0.250000 0.000000
vt 0.000000 0.000000
vt 0.500000 1.000000
vt 0.500000 0.000000
vt 0.750000 1.000000
vt 0.750000 0.000000
vt 1.000000 1.000000
vt 1.000000 0.000000
vt 0.000000 0.000000
vt 0.000000 0.000000
vt 0.000000 0.000000
vt 0.000000 0.000000
vt 0.000000 0.000000
vt 0.000000 0.000000
vt 0.000000 0.000000
vt 0.000000 0.000000
vt 0.454545 0.000000
vt 0.636364 0.000000
vt 0.545455 0.000000
vt 0.363636 0.000000
vt 0.090909 0.000000
vt 0.272727 0.000000
vt 0.181818 0.000000
vt 0.000000 0.000000
vt 0.636364 0.000000
vt 0.454545 0.000000
vt 0.545455 0.000000
vt 0.363636 0.000000
vt 0.272727 0.000000
vt 0.090909 0.000000
vt 0.181818 0.000000
vt 0.000000 0.000000
vt 0.000000 1.000000
vt 0.250000 1.000000
vt 0.250000 0.000000
vt 0.000000 0.000000
vt 0.500000 1.000000
vt 0.500000 0.000000
vt 0.750000 1.000000
vt 0.750000 0.000000
vt 1.000000 1.000000
vt 1.000000 0.000000
vt 0.000000 1.000000
vt 0.250000 1.000000
vt 0.250000 0.000000
vt 0.500000 1.000000
vt 0.500000 0.000000
vt 0.750000 1.000000
vt 0.750000 0.000000
vt 1.000000 1.000000
vt 1.000000 0.000000
vn 0.0000 1.0000 0.0000
vn 0.0000 -1.0000 0.0000
vn 0.0000 0.0000 1.0000
vn -1.0000 0.0000 0.0000
vn 0.0000 -0.0000 -1.0000
vn 1.0000 0.0000 0.0000
vn 0.0000 0.1520 0.9884
vn 0.0000 0.1520 -0.9884
vn 0.9787 0.2052 -0.0001
vn -0.9787 0.2052 0.0001
usemtl Text.108
s 1
f 17/1/1 19/2/1 8/3/1
f 17/1/1 16/4/1 19/2/1
f 18/5/2 14/6/2 15/7/2
f 13/8/2 14/6/2 18/5/2
f 16/9/3 17/10/3 14/11/3 13/12/3
f 17/10/4 8/13/4 15/14/4 14/11/4
f 8/13/5 19/15/5 18/16/5 15/14/5
f 19/15/6 16/17/6 13/18/6 18/16/6
usemtl Outline.108
f 32/19/7 30/20/7 27/21/7 25/22/7
f 29/23/8 31/24/8 26/25/8 28/26/8
f 31/24/9 32/19/9 25/22/9 26/25/9
f 27/21/2 28/26/2 26/25/2 25/22/2
f 30/20/10 29/23/10 28/26/10 27/21/10
f 30/20/1 32/19/1 31/24/1 29/23/1
usemtl White.108
f 5/27/1 7/28/1 6/29/1
f 5/27/1 4/30/1 7/28/1
f 2/31/1 24/32/1 3/33/1
f 2/31/1 1/34/1 24/32/1
f 12/35/2 20/36/2 21/37/2
f 11/38/2 20/36/2 12/35/2
f 10/39/2 23/40/2 9/41/2
f 22/42/2 23/40/2 10/39/2
f 4/43/3 5/44/3 20/45/3 11/46/3
f 5/44/4 6/47/4 21/48/4 20/45/4
f 6/47/5 7/49/5 12/50/5 21/48/5
f 7/49/6 4/51/6 11/52/6 12/50/6
f 1/53/3 2/54/3 23/55/3 22/42/3
f 2/54/4 3/56/4 9/57/4 23/55/4
f 3/56/5 24/58/5 10/59/5 9/57/5
f 24/58/6 1/60/6 22/61/6 10/59/6
