# Blender v3.1.2 OBJ File: 'C-ARMSAS.blend'
# www.blender.org
mtllib Enemy_ORBATS_-_029.mtl
o SM_ORBATS_-.029_path3277.014
v 0.069960 0.016408 0.063842
v 0.068238 0.008017 0.063818
v 0.065464 0.000054 0.063795
v 0.061715 -0.007404 0.063774
v 0.057069 -0.014277 0.063754
v 0.051605 -0.020488 0.063737
v 0.045400 -0.025959 0.063721
v 0.038531 -0.030611 0.063708
v 0.031079 -0.034365 0.063697
v 0.023119 -0.037143 0.063689
v 0.014730 -0.038868 0.063684
v 0.005990 -0.039460 0.063682
v -0.002752 -0.038867 0.063684
v -0.011144 -0.037143 0.063689
v -0.019109 -0.034364 0.063697
v -0.026568 -0.030610 0.063708
v -0.033443 -0.025958 0.063721
v -0.039656 -0.020488 0.063737
v -0.045128 -0.014277 0.063754
v -0.049781 -0.007403 0.063774
v -0.053536 0.000055 0.063795
v -0.056316 0.008018 0.063818
v -0.058041 0.016409 0.063842
v -0.058633 0.025148 0.063867
v -0.058041 0.033886 0.063892
v -0.056316 0.042273 0.063916
v -0.053537 0.050231 0.063939
v -0.049781 0.057682 0.063960
v -0.045128 0.064549 0.063980
v -0.039656 0.070753 0.063998
v -0.033443 0.076216 0.064014
v -0.026568 0.080861 0.064027
v -0.019109 0.084609 0.064038
v -0.011144 0.087383 0.064046
v -0.002752 0.089104 0.064051
v 0.005990 0.089695 0.064052
v 0.014730 0.089105 0.064051
v 0.023119 0.087383 0.064046
v 0.031079 0.084610 0.064038
v 0.038532 0.080862 0.064027
v 0.045400 0.076217 0.064014
v 0.051605 0.070754 0.063998
v 0.057069 0.064550 0.063980
v 0.061715 0.057683 0.063960
v 0.065464 0.050232 0.063939
v 0.068238 0.042274 0.063916
v 0.069960 0.033887 0.063892
v 0.070551 0.025148 0.063867
v 0.069960 0.016640 -0.017019
v 0.068238 0.008249 -0.017043
v 0.065464 0.000286 -0.017066
v 0.061715 -0.007172 -0.017088
v 0.057069 -0.014046 -0.017107
v 0.051605 -0.020257 -0.017125
v 0.045400 -0.025727 -0.017141
v 0.038531 -0.030379 -0.017154
v 0.031079 -0.034133 -0.017165
v 0.023119 -0.036912 -0.017173
v 0.014730 -0.038636 -0.017178
v 0.005990 -0.039229 -0.017179
v -0.002752 -0.038636 -0.017178
v -0.011144 -0.036911 -0.017173
v -0.019109 -0.034133 -0.017165
v -0.026568 -0.030378 -0.017154
v -0.033443 -0.025726 -0.017141
v -0.039656 -0.020256 -0.017125
v -0.045128 -0.014045 -0.017107
v -0.049781 -0.007171 -0.017088
v -0.053536 0.000287 -0.017066
v -0.056316 0.008250 -0.017043
v -0.058041 0.016640 -0.017019
v -0.058633 0.025380 -0.016994
v -0.058041 0.034117 -0.016969
v -0.056316 0.042505 -0.016945
v -0.053537 0.050463 -0.016922
v -0.049781 0.057914 -0.016901
v -0.045128 0.064781 -0.016881
v -0.039656 0.070985 -0.016864
v -0.033443 0.076448 -0.016848
v -0.026568 0.081093 -0.016835
v -0.019109 0.084841 -0.016824
v -0.011144 0.087614 -0.016816
v -0.002752 0.089336 -0.016811
v 0.005990 0.089927 -0.016809
v 0.014730 0.089337 -0.016811
v 0.023119 0.087615 -0.016816
v 0.031079 0.084842 -0.016824
v 0.038532 0.081093 -0.016835
v 0.045400 0.076449 -0.016848
v 0.051605 0.070986 -0.016864
v 0.057069 0.064782 -0.016881
v 0.061715 0.057915 -0.016901
v 0.065464 0.050463 -0.016922
v 0.068238 0.042505 -0.016945
v 0.069960 0.034118 -0.016969
v 0.070551 0.025380 -0.016994
v 0.069960 0.016640 -0.017019
v 0.069960 0.016408 0.063842
v 0.068238 0.008249 -0.017043
v 0.068238 0.008017 0.063818
v 0.065464 0.000286 -0.017066
v 0.065464 0.000054 0.063795
v 0.061715 -0.007172 -0.017088
v 0.061715 -0.007404 0.063774
v 0.057069 -0.014046 -0.017107
v 0.057069 -0.014277 0.063754
v 0.051605 -0.020257 -0.017125
v 0.051605 -0.020488 0.063737
v 0.045400 -0.025727 -0.017141
v 0.045400 -0.025959 0.063721
v 0.038531 -0.030379 -0.017154
v 0.038531 -0.030611 0.063708
v 0.031079 -0.034133 -0.017165
v 0.031079 -0.034365 0.063697
v 0.023119 -0.036912 -0.017173
v 0.023119 -0.037143 0.063689
v 0.014730 -0.038636 -0.017178
v 0.014730 -0.038868 0.063684
v 0.005990 -0.039229 -0.017179
v 0.005990 -0.039460 0.063682
v -0.002752 -0.038636 -0.017178
v -0.002752 -0.038867 0.063684
v -0.011144 -0.036911 -0.017173
v -0.011144 -0.037143 0.063689
v -0.019109 -0.034133 -0.017165
v -0.019109 -0.034364 0.063697
v -0.026568 -0.030378 -0.017154
v -0.026568 -0.030610 0.063708
v -0.033443 -0.025726 -0.017141
v -0.033443 -0.025958 0.063721
v -0.039656 -0.020256 -0.017125
v -0.039656 -0.020488 0.063737
v -0.045128 -0.014045 -0.017107
v -0.045128 -0.014277 0.063754
v -0.049781 -0.007171 -0.017088
v -0.049781 -0.007403 0.063774
v -0.053536 0.000287 -0.017066
v -0.053536 0.000055 0.063795
v -0.056316 0.008250 -0.017043
v -0.056316 0.008018 0.063818
v -0.058041 0.016640 -0.017019
v -0.058041 0.016409 0.063842
v -0.058633 0.025380 -0.016994
v -0.058633 0.025148 0.063867
v -0.058041 0.034117 -0.016969
v -0.058041 0.033886 0.063892
v -0.056316 0.042505 -0.016945
v -0.056316 0.042273 0.063916
v -0.053537 0.050463 -0.016922
v -0.053537 0.050231 0.063939
v -0.049781 0.057914 -0.016901
v -0.049781 0.057682 0.063960
v -0.045128 0.064781 -0.016881
v -0.045128 0.064549 0.063980
v -0.039656 0.070985 -0.016864
v -0.039656 0.070753 0.063998
v -0.033443 0.076448 -0.016848
v -0.033443 0.076216 0.064014
v -0.026568 0.081093 -0.016835
v -0.026568 0.080861 0.064027
v -0.019109 0.084841 -0.016824
v -0.019109 0.084609 0.064038
v -0.011144 0.087614 -0.016816
v -0.011144 0.087383 0.064046
v -0.002752 0.089336 -0.016811
v -0.002752 0.089104 0.064051
v 0.005990 0.089927 -0.016809
v 0.005990 0.089695 0.064052
v 0.014730 0.089337 -0.016811
v 0.014730 0.089105 0.064051
v 0.023119 0.087615 -0.016816
v 0.023119 0.087383 0.064046
v 0.031079 0.084842 -0.016824
v 0.031079 0.084610 0.064038
v 0.038532 0.081093 -0.016835
v 0.038532 0.080862 0.064027
v 0.045400 0.076449 -0.016848
v 0.045400 0.076217 0.064014
v 0.051605 0.070986 -0.016864
v 0.051605 0.070754 0.063998
v 0.057069 0.064782 -0.016881
v 0.057069 0.064550 0.063980
v 0.061715 0.057915 -0.016901
v 0.061715 0.057683 0.063960
v 0.065464 0.050463 -0.016922
v 0.065464 0.050232 0.063939
v 0.068238 0.042505 -0.016945
v 0.068238 0.042274 0.063916
v 0.069960 0.034118 -0.016969
v 0.069960 0.033887 0.063892
v 0.070551 0.025380 -0.016994
v 0.070551 0.025148 0.063867
vt 0.550192 0.000000
vt 0.550476 0.000000
vt 0.550334 0.000000
vt 0.550618 0.000000
vt 0.550050 0.000000
vt 0.550760 0.000000
vt 0.549908 0.000000
vt 0.550902 0.000000
vt 0.549766 0.000000
vt 0.551044 0.000000
vt 0.549624 0.000000
vt 0.551186 0.000000
vt 0.549482 0.000000
vt 0.551328 0.000000
vt 0.549340 0.000000
vt 0.551470 0.000000
vt 0.549198 0.000000
vt 0.551612 0.000000
vt 0.549056 0.000000
vt 0.551754 0.000000
vt 0.548914 0.000000
vt 0.551895 0.000000
vt 0.548772 0.000000
vt 0.552037 0.000000
vt 0.548630 0.000000
vt 0.548488 0.000000
vt 0.545364 0.000000
vt 0.548346 0.000000
vt 0.545506 0.000000
vt 0.548204 0.000000
vt 0.545648 0.000000
vt 0.548062 0.000000
vt 0.545790 0.000000
vt 0.547920 0.000000
vt 0.545932 0.000000
vt 0.547778 0.000000
vt 0.546074 0.000000
vt 0.547636 0.000000
vt 0.546216 0.000000
vt 0.547494 0.000000
vt 0.546358 0.000000
vt 0.547352 0.000000
vt 0.546500 0.000000
vt 0.547210 0.000000
vt 0.546642 0.000000
vt 0.547068 0.000000
vt 0.546784 0.000000
vt 0.546926 0.000000
vt 0.550192 0.000000
vt 0.550334 0.000000
vt 0.550476 0.000000
vt 0.550618 0.000000
vt 0.550050 0.000000
vt 0.550760 0.000000
vt 0.549908 0.000000
vt 0.550902 0.000000
vt 0.549766 0.000000
vt 0.551044 0.000000
vt 0.549624 0.000000
vt 0.551186 0.000000
vt 0.549482 0.000000
vt 0.551328 0.000000
vt 0.549340 0.000000
vt 0.551470 0.000000
vt 0.549198 0.000000
vt 0.551612 0.000000
vt 0.549056 0.000000
vt 0.551754 0.000000
vt 0.548914 0.000000
vt 0.551895 0.000000
vt 0.548772 0.000000
vt 0.552037 0.000000
vt 0.548630 0.000000
vt 0.548488 0.000000
vt 0.545364 0.000000
vt 0.548346 0.000000
vt 0.545506 0.000000
vt 0.548204 0.000000
vt 0.545648 0.000000
vt 0.548062 0.000000
vt 0.545790 0.000000
vt 0.547920 0.000000
vt 0.545932 0.000000
vt 0.547778 0.000000
vt 0.546074 0.000000
vt 0.547636 0.000000
vt 0.546216 0.000000
vt 0.547494 0.000000
vt 0.546358 0.000000
vt 0.547352 0.000000
vt 0.546500 0.000000
vt 0.547210 0.000000
vt 0.546642 0.000000
vt 0.547068 0.000000
vt 0.546784 0.000000
vt 0.546926 0.000000
vt 0.000000 1.000000
vt 0.020833 1.000000
vt 0.020833 0.000000
vt 0.000000 0.000000
vt 0.041667 1.000000
vt 0.041667 0.000000
vt 0.062500 1.000000
vt 0.062500 0.000000
vt 0.083333 1.000000
vt 0.083333 0.000000
vt 0.104167 1.000000
vt 0.104167 0.000000
vt 0.125000 1.000000
vt 0.125000 0.000000
vt 0.145833 1.000000
vt 0.145833 0.000000
vt 0.166667 1.000000
vt 0.166667 0.000000
vt 0.187500 1.000000
vt 0.187500 0.000000
vt 0.208333 1.000000
vt 0.208333 0.000000
vt 0.229167 1.000000
vt 0.229167 0.000000
vt 0.250000 1.000000
vt 0.250000 0.000000
vt 0.270833 1.000000
vt 0.270833 0.000000
vt 0.291667 1.000000
vt 0.291667 0.000000
vt 0.312500 1.000000
vt 0.312500 0.000000
vt 0.333333 1.000000
vt 0.333333 0.000000
vt 0.354167 1.000000
vt 0.354167 0.000000
vt 0.375000 1.000000
vt 0.375000 0.000000
vt 0.395833 1.000000
vt 0.395833 0.000000
vt 0.416667 1.000000
vt 0.416667 0.000000
vt 0.437500 1.000000
vt 0.437500 0.000000
vt 0.458333 1.000000
vt 0.458333 0.000000
vt 0.479167 1.000000
vt 0.479167 0.000000
vt 0.500000 1.000000
vt 0.500000 0.000000
vt 0.520833 1.000000
vt 0.520833 0.000000
vt 0.541667 1.000000
vt 0.541667 0.000000
vt 0.562500 1.000000
vt 0.562500 0.000000
vt 0.583333 1.000000
vt 0.583333 0.000000
vt 0.604167 1.000000
vt 0.604167 0.000000
vt 0.625000 1.000000
vt 0.625000 0.000000
vt 0.645833 1.000000
vt 0.645833 0.000000
vt 0.666667 1.000000
vt 0.666667 0.000000
vt 0.687500 1.000000
vt 0.687500 0.000000
vt 0.708333 1.000000
vt 0.708333 0.000000
vt 0.729167 1.000000
vt 0.729167 0.000000
vt 0.750000 1.000000
vt 0.750000 0.000000
vt 0.770833 1.000000
vt 0.770833 0.000000
vt 0.791667 1.000000
vt 0.791667 0.000000
vt 0.812500 1.000000
vt 0.812500 0.000000
vt 0.833333 1.000000
vt 0.833333 0.000000
vt 0.854167 1.000000
vt 0.854167 0.000000
vt 0.875000 1.000000
vt 0.875000 0.000000
vt 0.895833 1.000000
vt 0.895833 0.000000
vt 0.916667 1.000000
vt 0.916667 0.000000
vt 0.937500 1.000000
vt 0.937500 0.000000
vt 0.958333 1.000000
vt 0.958333 0.000000
vt 0.979167 1.000000
vt 0.979167 0.000000
vt 1.000000 1.000000
vt 1.000000 0.000000
vn 0.0000 -0.0029 1.0000
vn 0.0000 0.0029 -1.0000
vn 0.9909 -0.1346 -0.0004
vn 0.9641 -0.2656 -0.0008
vn 0.9209 -0.3899 -0.0011
vn 0.8628 -0.5056 -0.0014
vn 0.7913 -0.6115 -0.0018
vn 0.7075 -0.7067 -0.0020
vn 0.6123 -0.7906 -0.0023
vn 0.5064 -0.8623 -0.0025
vn 0.3906 -0.9206 -0.0026
vn 0.2660 -0.9640 -0.0028
vn 0.1348 -0.9909 -0.0028
vn -0.0000 -1.0000 -0.0029
vn -0.1348 -0.9909 -0.0028
vn -0.2659 -0.9640 -0.0028
vn -0.3903 -0.9207 -0.0026
vn -0.5060 -0.8625 -0.0025
vn -0.6118 -0.7910 -0.0023
vn -0.7070 -0.7072 -0.0020
vn -0.7908 -0.6120 -0.0018
vn -0.8624 -0.5062 -0.0015
vn -0.9206 -0.3905 -0.0011
vn -0.9640 -0.2660 -0.0008
vn -0.9909 -0.1348 -0.0004
vn -1.0000 0.0000 0.0000
vn -0.9909 0.1349 0.0004
vn -0.9639 0.2662 0.0008
vn -0.9205 0.3907 0.0011
vn -0.8622 0.5065 0.0015
vn -0.7905 0.6125 0.0018
vn -0.7066 0.7076 0.0020
vn -0.6113 0.7914 0.0023
vn -0.5054 0.8629 0.0025
vn -0.3897 0.9209 0.0026
vn -0.2655 0.9641 0.0028
vn -0.1345 0.9909 0.0028
vn -0.0000 1.0000 0.0029
vn 0.1345 0.9909 0.0028
vn 0.2656 0.9641 0.0028
vn 0.3900 0.9208 0.0026
vn 0.5058 0.8627 0.0025
vn 0.6117 0.7911 0.0023
vn 0.7070 0.7072 0.0020
vn 0.7909 0.6119 0.0018
vn 0.8626 0.5059 0.0014
vn 0.9208 0.3901 0.0011
vn 0.9640 0.2657 0.0008
vn 0.9909 0.1346 0.0004
vn 1.0000 0.0000 0.0000
usemtl Black.027
s 1
f 35/1/1 37/2/1 36/3/1
f 35/1/1 38/4/1 37/2/1
f 34/5/1 38/4/1 35/1/1
f 34/5/1 39/6/1 38/4/1
f 33/7/1 39/6/1 34/5/1
f 33/7/1 40/8/1 39/6/1
f 32/9/1 40/8/1 33/7/1
f 32/9/1 41/10/1 40/8/1
f 31/11/1 41/10/1 32/9/1
f 31/11/1 42/12/1 41/10/1
f 30/13/1 42/12/1 31/11/1
f 30/13/1 43/14/1 42/12/1
f 29/15/1 43/14/1 30/13/1
f 29/15/1 44/16/1 43/14/1
f 28/17/1 44/16/1 29/15/1
f 28/17/1 45/18/1 44/16/1
f 27/19/1 45/18/1 28/17/1
f 27/19/1 46/20/1 45/18/1
f 26/21/1 46/20/1 27/19/1
f 26/21/1 47/22/1 46/20/1
f 25/23/1 47/22/1 26/21/1
f 25/23/1 48/24/1 47/22/1
f 24/25/1 48/24/1 25/23/1
f 23/26/1 48/24/1 24/25/1
f 23/26/1 1/27/1 48/24/1
f 22/28/1 1/27/1 23/26/1
f 22/28/1 2/29/1 1/27/1
f 21/30/1 2/29/1 22/28/1
f 21/30/1 3/31/1 2/29/1
f 20/32/1 3/31/1 21/30/1
f 20/32/1 4/33/1 3/31/1
f 19/34/1 4/33/1 20/32/1
f 19/34/1 5/35/1 4/33/1
f 18/36/1 5/35/1 19/34/1
f 18/36/1 6/37/1 5/35/1
f 17/38/1 6/37/1 18/36/1
f 17/38/1 7/39/1 6/37/1
f 16/40/1 7/39/1 17/38/1
f 16/40/1 8/41/1 7/39/1
f 15/42/1 8/41/1 16/40/1
f 15/42/1 9/43/1 8/41/1
f 14/44/1 9/43/1 15/42/1
f 14/44/1 10/45/1 9/43/1
f 13/46/1 10/45/1 14/44/1
f 13/46/1 11/47/1 10/45/1
f 12/48/1 11/47/1 13/46/1
f 83/49/2 84/50/2 85/51/2
f 83/49/2 85/51/2 86/52/2
f 82/53/2 83/49/2 86/52/2
f 82/53/2 86/52/2 87/54/2
f 81/55/2 82/53/2 87/54/2
f 81/55/2 87/54/2 88/56/2
f 80/57/2 81/55/2 88/56/2
f 80/57/2 88/56/2 89/58/2
f 79/59/2 80/57/2 89/58/2
f 79/59/2 89/58/2 90/60/2
f 78/61/2 79/59/2 90/60/2
f 78/61/2 90/60/2 91/62/2
f 77/63/2 78/61/2 91/62/2
f 77/63/2 91/62/2 92/64/2
f 76/65/2 77/63/2 92/64/2
f 76/65/2 92/64/2 93/66/2
f 75/67/2 76/65/2 93/66/2
f 75/67/2 93/66/2 94/68/2
f 74/69/2 75/67/2 94/68/2
f 74/69/2 94/68/2 95/70/2
f 73/71/2 74/69/2 95/70/2
f 73/71/2 95/70/2 96/72/2
f 72/73/2 73/71/2 96/72/2
f 71/74/2 72/73/2 96/72/2
f 71/74/2 96/72/2 49/75/2
f 70/76/2 71/74/2 49/75/2
f 70/76/2 49/75/2 50/77/2
f 69/78/2 70/76/2 50/77/2
f 69/78/2 50/77/2 51/79/2
f 68/80/2 69/78/2 51/79/2
f 68/80/2 51/79/2 52/81/2
f 67/82/2 68/80/2 52/81/2
f 67/82/2 52/81/2 53/83/2
f 66/84/2 67/82/2 53/83/2
f 66/84/2 53/83/2 54/85/2
f 65/86/2 66/84/2 54/85/2
f 65/86/2 54/85/2 55/87/2
f 64/88/2 65/86/2 55/87/2
f 64/88/2 55/87/2 56/89/2
f 63/90/2 64/88/2 56/89/2
f 63/90/2 56/89/2 57/91/2
f 62/92/2 63/90/2 57/91/2
f 62/92/2 57/91/2 58/93/2
f 61/94/2 62/92/2 58/93/2
f 61/94/2 58/93/2 59/95/2
f 60/96/2 61/94/2 59/95/2
f 98/97/3 100/98/4 99/99/4 97/100/3
f 100/98/4 102/101/5 101/102/5 99/99/4
f 102/101/5 104/103/6 103/104/6 101/102/5
f 104/103/6 106/105/7 105/106/7 103/104/6
f 106/105/7 108/107/8 107/108/8 105/106/7
f 108/107/8 110/109/9 109/110/9 107/108/8
f 110/109/9 112/111/10 111/112/10 109/110/9
f 112/111/10 114/113/11 113/114/11 111/112/10
f 114/113/11 116/115/12 115/116/12 113/114/11
f 116/115/12 118/117/13 117/118/13 115/116/12
f 118/117/13 120/119/14 119/120/14 117/118/13
f 120/119/14 122/121/15 121/122/15 119/120/14
f 122/121/15 124/123/16 123/124/16 121/122/15
f 124/123/16 126/125/17 125/126/17 123/124/16
f 126/125/17 128/127/18 127/128/18 125/126/17
f 128/127/18 130/129/19 129/130/19 127/128/18
f 130/129/19 132/131/20 131/132/20 129/130/19
f 132/131/20 134/133/21 133/134/21 131/132/20
f 134/133/21 136/135/22 135/136/22 133/134/21
f 136/135/22 138/137/23 137/138/23 135/136/22
f 138/137/23 140/139/24 139/140/24 137/138/23
f 140/139/24 142/141/25 141/142/25 139/140/24
f 142/141/25 144/143/26 143/144/26 141/142/25
f 144/143/26 146/145/27 145/146/27 143/144/26
f 146/145/27 148/147/28 147/148/28 145/146/27
f 148/147/28 150/149/29 149/150/29 147/148/28
f 150/149/29 152/151/30 151/152/30 149/150/29
f 152/151/30 154/153/31 153/154/31 151/152/30
f 154/153/31 156/155/32 155/156/32 153/154/31
f 156/155/32 158/157/33 157/158/33 155/156/32
f 158/157/33 160/159/34 159/160/34 157/158/33
f 160/159/34 162/161/35 161/162/35 159/160/34
f 162/161/35 164/163/36 163/164/36 161/162/35
f 164/163/36 166/165/37 165/166/37 163/164/36
f 166/165/37 168/167/38 167/168/38 165/166/37
f 168/167/38 170/169/39 169/170/39 167/168/38
f 170/169/39 172/171/40 171/172/40 169/170/39
f 172/171/40 174/173/41 173/174/41 171/172/40
f 174/173/41 176/175/42 175/176/42 173/174/41
f 176/175/42 178/177/43 177/178/43 175/176/42
f 178/177/43 180/179/44 179/180/44 177/178/43
f 180/179/44 182/181/45 181/182/45 179/180/44
f 182/181/45 184/183/46 183/184/46 181/182/45
f 184/183/46 186/185/47 185/186/47 183/184/46
f 186/185/47 188/187/48 187/188/48 185/186/47
f 188/187/48 190/189/49 189/190/49 187/188/48
f 190/189/49 192/191/50 191/192/50 189/190/49
f 192/191/50 98/193/3 97/194/3 191/192/50
