# Blender v3.1.2 OBJ File: 'C-ARMSAS.blend'
# www.blender.org
mtllib Enemy_ORBATS_-_018.mtl
o SM_ORBATS_-.018_path3277.004
v -0.005575 -0.046825 0.063661
v -0.006275 0.096953 0.064073
v 0.017507 0.097101 0.064073
v 0.018207 -0.046727 0.063661
v -0.005575 -0.046593 -0.017200
v -0.006275 0.097185 -0.016789
v 0.017507 0.097332 -0.016788
v 0.018207 -0.046495 -0.017200
v -0.005575 -0.046593 -0.017200
v -0.005575 -0.046825 0.063661
v -0.006275 0.097185 -0.016789
v -0.006275 0.096953 0.064073
v 0.017507 0.097332 -0.016788
v 0.017507 0.097101 0.064073
v 0.018207 -0.046495 -0.017200
v 0.018207 -0.046727 0.063661
vt 0.084623 0.000000
vt 0.084907 0.000000
vt 0.084765 0.000000
vt 0.084481 0.000000
vt 0.084623 0.000000
vt 0.084765 0.000000
vt 0.084907 0.000000
vt 0.084481 0.000000
vt 0.000000 1.000000
vt 0.250000 1.000000
vt 0.250000 0.000000
vt 0.000000 0.000000
vt 0.500000 1.000000
vt 0.500000 0.000000
vt 0.750000 1.000000
vt 0.750000 0.000000
vt 1.000000 1.000000
vt 1.000000 0.000000
vn 0.0000 -0.0029 1.0000
vn -0.0000 0.0029 -1.0000
vn -0.7039 -0.7103 -0.0020
vn -0.7110 0.7032 0.0020
vn 0.7032 0.7110 0.0020
vn 0.7103 -0.7039 -0.0020
usemtl Black.017
s 1
f 2/1/1 4/2/1 3/3/1
f 1/4/1 4/2/1 2/1/1
f 6/5/2 7/6/2 8/7/2
f 5/8/2 6/5/2 8/7/2
f 10/9/3 12/10/4 11/11/4 9/12/3
f 12/10/4 14/13/5 13/14/5 11/11/4
f 14/13/5 16/15/6 15/16/6 13/14/5
f 16/15/6 10/17/3 9/18/3 15/16/6
