# Blender v3.1.2 OBJ File: 'C-ARMSAS.blend'
# www.blender.org
mtllib CM_-_Crossing.mtl
o SM_CM_-_Crossing_path1763-2.079
v 0.102846 -0.019527 0.107282
v 0.109001 -0.012806 0.107284
v 0.102846 -0.019507 0.022155
v 0.109001 -0.012785 0.022157
v -0.088155 0.167729 0.107327
v -0.094309 0.161007 0.107326
v -0.088155 0.167749 0.022201
v -0.094309 0.161028 0.022199
v -0.092171 -0.015247 0.107283
v -0.085855 -0.021817 0.107281
v -0.092171 -0.015226 0.022156
v -0.085855 -0.021796 0.022155
v 0.106862 0.163448 0.107326
v 0.100546 0.170018 0.107328
v 0.106862 0.163469 0.022200
v 0.100546 0.170039 0.022201
v 0.093458 -0.010930 0.107284
v 0.084069 -0.002333 0.107286
v 0.074681 0.006263 0.107288
v 0.065293 0.014860 0.107290
v 0.055904 0.023457 0.107292
v 0.046516 0.032054 0.107294
v 0.037128 0.040651 0.107297
v 0.027739 0.049248 0.107299
v 0.018351 0.057845 0.107301
v -0.009814 0.083635 0.107307
v -0.019202 0.092232 0.107309
v -0.028591 0.100829 0.107311
v -0.037979 0.109426 0.107313
v -0.047368 0.118023 0.107315
v -0.056756 0.126620 0.107317
v -0.066144 0.135217 0.107320
v -0.075533 0.143814 0.107322
v -0.084921 0.152410 0.107324
v -0.078766 0.159132 0.107325
v -0.069378 0.150535 0.107323
v -0.059990 0.141938 0.107321
v -0.050601 0.133341 0.107319
v -0.041213 0.124744 0.107317
v -0.031825 0.116147 0.107315
v -0.022436 0.107550 0.107313
v -0.013048 0.098954 0.107311
v -0.003660 0.090357 0.107309
v 0.024506 0.064566 0.107302
v 0.033894 0.055969 0.107300
v 0.043282 0.047372 0.107298
v 0.052671 0.038775 0.107296
v 0.062059 0.030178 0.107294
v 0.071447 0.021582 0.107292
v 0.080836 0.012985 0.107290
v 0.090224 0.004388 0.107288
v 0.099612 -0.004209 0.107286
v 0.093458 -0.010910 0.022158
v 0.084069 -0.002313 0.022160
v 0.074681 0.006284 0.022162
v 0.065293 0.014881 0.022164
v 0.055904 0.023478 0.022166
v 0.046516 0.032075 0.022168
v 0.037128 0.040672 0.022170
v 0.027739 0.049269 0.022172
v 0.018351 0.057865 0.022174
v -0.009814 0.083656 0.022181
v -0.019202 0.092253 0.022183
v -0.028591 0.100850 0.022185
v -0.037979 0.109447 0.022187
v -0.047368 0.118044 0.022189
v -0.056756 0.126641 0.022191
v -0.066144 0.135237 0.022193
v -0.075533 0.143834 0.022195
v -0.084921 0.152431 0.022197
v -0.078766 0.159152 0.022199
v -0.069378 0.150556 0.022197
v -0.059990 0.141959 0.022195
v -0.050601 0.133362 0.022193
v -0.041213 0.124765 0.022190
v -0.031825 0.116168 0.022188
v -0.022436 0.107571 0.022186
v -0.013048 0.098974 0.022184
v -0.003660 0.090377 0.022182
v 0.024506 0.064587 0.022176
v 0.033894 0.055990 0.022174
v 0.043282 0.047393 0.022172
v 0.052671 0.038796 0.022170
v 0.062059 0.030199 0.022168
v 0.071447 0.021602 0.022165
v 0.080836 0.013005 0.022163
v 0.090224 0.004408 0.022161
v 0.099612 -0.004188 0.022159
vt 0.000000 0.000000
vt 0.000000 0.000000
vt 0.000000 0.000000
vt 0.000000 0.000000
vt 0.000000 0.000000
vt 0.000000 0.000000
vt 0.000000 0.000000
vt 0.000000 0.000000
vt 0.000000 0.000000
vt 0.000000 0.000000
vt 0.000000 0.000000
vt 0.000000 0.000000
vt 0.000000 0.000000
vt 0.000000 0.000000
vt 0.000000 0.000000
vt 0.000000 0.000000
vt 0.000000 0.000000
vt 0.000000 0.000000
vt 0.000000 0.000000
vt 0.000000 0.000000
vt 0.000000 0.000000
vt 0.000000 0.000000
vt 0.000000 0.000000
vt 0.000000 0.000000
vt 0.000000 0.000000
vt 0.000000 0.000000
vt 0.000000 0.000000
vt 0.000000 0.000000
vt 0.000000 0.000000
vt 0.000000 0.000000
vt 0.000000 0.000000
vt 0.000000 0.000000
vt 0.000000 0.000000
vt 0.000000 0.000000
vt 0.000000 0.000000
vt 0.000000 0.000000
vt 0.000000 0.000000
vt 0.000000 0.000000
vt 0.000000 0.000000
vt 0.000000 0.000000
vt 0.000000 0.000000
vt 0.000000 0.000000
vt 0.000000 0.000000
vt 0.000000 0.000000
vt 0.000000 0.000000
vt 0.000000 0.000000
vt 0.000000 0.000000
vt 0.000000 0.000000
vt 0.000000 0.000000
vt 0.000000 0.000000
vt 0.000000 0.000000
vt 0.000000 0.000000
vt 0.000000 0.000000
vt 0.000000 0.000000
vt 0.000000 0.000000
vt 0.000000 0.000000
vt 0.000000 0.000000
vt 0.000000 0.000000
vt 0.000000 0.000000
vt 0.000000 0.000000
vt 0.000000 0.000000
vt 0.000000 0.000000
vt 0.000000 0.000000
vt 0.000000 0.000000
vt 0.000000 0.000000
vt 0.000000 0.000000
vt 0.000000 0.000000
vt 0.000000 0.000000
vt 0.000000 0.000000
vt 0.000000 0.000000
vt 0.000000 0.000000
vt 0.000000 0.000000
vt 0.000000 0.000000
vt 0.000000 0.000000
vt 0.000000 0.000000
vt 0.000000 0.000000
vt 0.000000 0.000000
vt 0.000000 0.000000
vt 0.000000 0.000000
vt 0.000000 0.000000
vt 0.000000 0.000000
vt 0.000000 0.000000
vt 0.000000 0.000000
vt 0.000000 0.000000
vt 0.000000 0.000000
vt 0.000000 0.000000
vt 0.000000 0.000000
vt 0.000000 0.000000
vn 0.0000 -0.0002 1.0000
vn 0.6753 0.7375 0.0002
vn -0.6753 -0.7375 -0.0002
vn -0.7375 0.6753 0.0002
vn 0.7375 -0.6753 -0.0002
vn -0.0000 0.0002 -1.0000
vn 0.6930 -0.7209 -0.0002
vn -0.6930 0.7209 0.0002
vn 0.7209 0.6930 0.0002
vn -0.7209 -0.6930 -0.0002
usemtl White.174
s 1
f 71/1/1 7/2/1 8/3/1 70/4/1
f 70/4/2 8/3/2 6/5/2 34/6/2
f 35/7/3 5/8/3 7/2/3 71/1/3
f 1/9/4 2/10/4 4/11/4 3/12/4
f 5/8/5 6/5/5 8/3/5 7/2/5
f 34/6/6 6/5/6 5/8/6 35/7/6
f 12/13/1 15/14/1 16/15/1 11/16/1
f 11/16/7 16/15/7 14/17/7 9/18/7
f 10/19/8 13/20/8 15/14/8 12/13/8
f 9/18/9 10/19/9 12/13/9 11/16/9
f 13/20/10 14/17/10 16/15/10 15/14/10
f 9/18/6 14/17/6 13/20/6 10/19/6
f 1/9/6 17/21/6 52/22/6 2/10/6
f 18/23/6 19/24/6 50/25/6 51/26/6
f 20/27/6 21/28/6 48/29/6 49/30/6
f 22/31/6 23/32/6 46/33/6 47/34/6
f 24/35/6 25/36/6 44/37/6 45/38/6
f 26/39/6 27/40/6 42/41/6 43/42/6
f 28/43/6 29/44/6 40/45/6 41/46/6
f 30/47/6 31/48/6 38/49/6 39/50/6
f 32/51/6 33/52/6 36/53/6 37/54/6
f 2/10/3 52/22/3 88/55/3 4/11/3
f 51/26/3 50/25/3 86/56/3 87/57/3
f 49/30/3 48/29/3 84/58/3 85/59/3
f 47/34/3 46/33/3 82/60/3 83/61/3
f 45/38/3 44/37/3 80/62/3 81/63/3
f 43/42/3 42/41/3 78/64/3 79/65/3
f 41/46/3 40/45/3 76/66/3 77/67/3
f 39/50/3 38/49/3 74/68/3 75/69/3
f 37/54/3 36/53/3 72/70/3 73/71/3
f 3/12/2 53/72/2 17/21/2 1/9/2
f 54/73/2 55/74/2 19/24/2 18/23/2
f 56/75/2 57/76/2 21/28/2 20/27/2
f 58/77/2 59/78/2 23/32/2 22/31/2
f 60/79/2 61/80/2 25/36/2 24/35/2
f 62/81/2 63/82/2 27/40/2 26/39/2
f 64/83/2 65/84/2 29/44/2 28/43/2
f 66/85/2 67/86/2 31/48/2 30/47/2
f 68/87/2 69/88/2 33/52/2 32/51/2
f 4/11/1 88/55/1 53/72/1 3/12/1
f 87/57/1 86/56/1 55/74/1 54/73/1
f 85/59/1 84/58/1 57/76/1 56/75/1
f 83/61/1 82/60/1 59/78/1 58/77/1
f 81/63/1 80/62/1 61/80/1 60/79/1
f 79/65/1 78/64/1 63/82/1 62/81/1
f 77/67/1 76/66/1 65/84/1 64/83/1
f 75/69/1 74/68/1 67/86/1 66/85/1
f 73/71/1 72/70/1 69/88/1 68/87/1
f 17/21/5 53/72/5 88/55/5 52/22/5
f 18/23/4 51/26/4 87/57/4 54/73/4
f 19/24/5 55/74/5 86/56/5 50/25/5
f 20/27/4 49/30/4 85/59/4 56/75/4
f 21/28/5 57/76/5 84/58/5 48/29/5
f 22/31/4 47/34/4 83/61/4 58/77/4
f 23/32/5 59/78/5 82/60/5 46/33/5
f 24/35/4 45/38/4 81/63/4 60/79/4
f 25/36/5 61/80/5 80/62/5 44/37/5
f 26/39/4 43/42/4 79/65/4 62/81/4
f 27/40/5 63/82/5 78/64/5 42/41/5
f 28/43/4 41/46/4 77/67/4 64/83/4
f 29/44/5 65/84/5 76/66/5 40/45/5
f 30/47/4 39/50/4 75/69/4 66/85/4
f 31/48/5 67/86/5 74/68/5 38/49/5
f 32/51/4 37/54/4 73/71/4 68/87/4
f 33/52/5 69/88/5 72/70/5 36/53/5
f 34/6/4 35/7/4 71/1/4 70/4/4
