# Blender v3.1.2 OBJ File: ''
# www.blender.org
mtllib CM_CrossingNotDotted.mtl
o SM_CM_-_Crossing_Not_dotted
v -0.103235 0.102705 0.028819
v -0.103235 0.102705 -0.020672
v 0.111215 -0.093667 -0.020672
v 0.111215 -0.093667 0.028819
v 0.104521 -0.100977 0.028819
v 0.104521 -0.100977 -0.020672
v -0.109930 0.095394 0.028819
v -0.109930 0.095394 -0.020672
v -0.100734 -0.103468 -0.020672
v 0.108889 0.098049 -0.020672
v 0.102019 0.105195 -0.020672
v -0.107604 -0.096321 -0.020672
v 0.102019 0.105195 0.028819
v -0.107604 -0.096321 0.028819
v -0.100734 -0.103468 0.028819
v 0.108889 0.098049 0.028819
vt 0.000000 0.000000
vt 0.000000 0.000000
vt 0.000000 0.000000
vt 0.000000 0.000000
vt 0.000000 0.000000
vt 0.000000 0.000000
vt 0.000000 0.000000
vt 0.000000 0.000000
vt 0.000000 0.000000
vt 0.000000 0.000000
vt 0.000000 0.000000
vt 0.000000 0.000000
vt 0.000000 0.000000
vt 0.000000 0.000000
vt 0.000000 0.000000
vt 0.000000 0.000000
vn -0.6753 -0.7375 -0.0000
vn -0.7375 0.6753 0.0000
vn 0.7375 -0.6753 -0.0000
vn 0.0000 -0.0000 1.0000
vn 0.6930 -0.7209 -0.0000
vn -0.6930 0.7209 0.0000
vn 0.7209 0.6930 0.0000
vn -0.7209 -0.6930 0.0000
vn 0.0000 0.0000 -1.0000
vn 0.6753 0.7375 0.0000
usemtl White
s 1
f 1/1/1 2/2/1 3/3/1 4/4/1
f 5/5/2 4/4/2 3/3/2 6/6/2
f 1/1/3 7/7/3 8/8/3 2/2/3
f 9/9/4 10/10/4 11/11/4 12/12/4
f 12/12/5 11/11/5 13/13/5 14/14/5
f 15/15/6 16/16/6 10/10/6 9/9/6
f 14/14/7 15/15/7 9/9/7 12/12/7
f 16/16/8 13/13/8 11/11/8 10/10/8
f 14/14/9 13/13/9 16/16/9 15/15/9
f 7/7/9 1/1/9 4/4/9 5/5/9
f 8/8/10 7/7/10 5/5/10 6/6/10
f 2/2/4 8/8/4 6/6/4 3/3/4
