# Blender 3.1.2
# www.blender.org
mtllib CM_CrossingNotDotted.mtl
o SM_CM - Crossing Not dotted
v 0.334253 -0.322922 0.172427
v 0.355662 -0.299542 0.172427
v 0.334253 -0.322922 -0.123685
v 0.355662 -0.299542 -0.123685
v -0.330142 0.328447 0.172427
v -0.351551 0.305067 0.172427
v -0.330142 0.328447 -0.123685
v -0.351551 0.305067 -0.123685
v -0.344112 -0.308032 0.172427
v -0.322142 -0.330886 0.172427
v -0.344112 -0.308032 -0.123685
v -0.322142 -0.330886 -0.123685
v 0.348223 0.313558 0.172427
v 0.326253 0.336411 0.172427
v 0.348223 0.313558 -0.123685
v 0.326253 0.336411 -0.123685
vn -0.6753 -0.7375 -0.0000
vn -0.7375 0.6753 -0.0000
vn 0.7375 -0.6753 -0.0000
vn -0.0000 -0.0000 1.0000
vn 0.6930 -0.7209 -0.0000
vn -0.6930 0.7209 -0.0000
vn 0.7209 0.6930 -0.0000
vn -0.7209 -0.6930 -0.0000
vn -0.0000 -0.0000 -1.0000
vn 0.6753 0.7375 -0.0000
vt 0.000000 0.000000
vt 0.000000 0.000000
vt 0.000000 0.000000
vt 0.000000 0.000000
vt 0.000000 0.000000
vt 0.000000 0.000000
vt 0.000000 0.000000
vt 0.000000 0.000000
vt 0.000000 0.000000
vt 0.000000 0.000000
vt 0.000000 0.000000
vt 0.000000 0.000000
vt 0.000000 0.000000
vt 0.000000 0.000000
vt 0.000000 0.000000
vt 0.000000 0.000000
s 1
usemtl White
f 5/5/1 7/7/1 4/4/1 2/2/1
f 1/1/2 2/2/2 4/4/2 3/3/2
f 5/5/3 6/6/3 8/8/3 7/7/3
f 12/12/4 15/15/4 16/16/4 11/11/4
f 11/11/5 16/16/5 14/14/5 9/9/5
f 10/10/6 13/13/6 15/15/6 12/12/6
f 9/9/7 10/10/7 12/12/7 11/11/7
f 13/13/8 14/14/8 16/16/8 15/15/8
f 9/9/9 14/14/9 13/13/9 10/10/9
f 6/6/9 5/5/9 2/2/9 1/1/9
f 8/8/10 6/6/10 1/1/10 3/3/10
f 7/7/4 8/8/4 3/3/4 4/4/4
