# Blender v3.1.2 OBJ File: 'C-ARMSAS.blend'
# www.blender.org
mtllib CM_-_II.mtl
o SM_CM_-_II_path1763-2.085
v 0.044027 0.074466 0.069410
v 0.370981 0.074466 0.069410
v -0.363292 0.074466 0.069410
v -0.024176 0.074466 0.069410
v 0.005182 0.067720 0.069408
v 0.003805 0.078909 0.069411
v 0.005182 0.078909 0.069411
v 0.009445 0.067720 0.069408
v 0.009445 0.078909 0.069411
v 0.370981 0.072177 0.025751
v 0.044027 0.074477 0.025752
v -0.363292 0.072177 0.025751
v -0.363292 0.074477 0.025752
v -0.024176 0.074477 0.025752
v 0.005182 0.067722 0.064525
v 0.003805 0.067722 0.064525
v 0.003805 0.067720 0.069408
v 0.003805 0.078910 0.064528
v 0.005182 0.078910 0.064528
v 0.009445 0.067722 0.064525
v 0.008065 0.067722 0.064525
v 0.008065 0.067720 0.069408
v 0.008065 0.078910 0.064528
v 0.008065 0.078909 0.069411
v 0.009445 0.078910 0.064528
v -0.024176 0.072177 0.025751
v -0.024176 0.072166 0.069409
v -0.363292 0.072166 0.069409
v 0.370981 0.072166 0.069409
v 0.044027 0.072177 0.025751
v 0.044027 0.072166 0.069409
v 0.370981 0.074477 0.025752
v 0.021301 0.063202 0.062728
v 0.021300 0.084380 0.062733
v -0.007575 0.063202 0.062728
v -0.007577 0.084380 0.062733
v -0.006898 0.083881 0.065972
v -0.006896 0.063699 0.065968
v 0.020620 0.083881 0.065972
v 0.020622 0.063699 0.065968
vt 0.600000 0.000000
vt 0.733333 0.000000
vt 0.666667 0.000000
vt 0.533333 0.000000
vt 0.866667 0.000000
vt 1.000000 0.000000
vt 0.933333 0.000000
vt 0.800000 0.000000
vt 0.733333 0.000000
vt 0.600000 0.000000
vt 0.666667 0.000000
vt 0.533333 0.000000
vt 1.000000 0.000000
vt 0.866667 0.000000
vt 0.933333 0.000000
vt 0.800000 0.000000
vt 0.000000 1.000000
vt 0.250000 1.000000
vt 0.250000 0.000000
vt 0.000000 0.000000
vt 0.500000 1.000000
vt 0.500000 0.000000
vt 0.750000 1.000000
vt 0.750000 0.000000
vt 1.000000 1.000000
vt 1.000000 0.000000
vt 0.000000 1.000000
vt 0.250000 1.000000
vt 0.250000 0.000000
vt 0.000000 0.000000
vt 0.500000 1.000000
vt 0.500000 0.000000
vt 0.750000 1.000000
vt 0.750000 0.000000
vt 1.000000 1.000000
vt 1.000000 0.000000
vt 0.000000 0.000000
vt 0.000000 0.000000
vt 0.000000 0.000000
vt 0.000000 0.000000
vt 0.000000 0.000000
vt 0.000000 0.000000
vt 0.000000 0.000000
vt 0.000000 0.000000
vt 0.333333 0.000000
vt 0.466667 0.000000
vt 0.400000 0.000000
vt 0.266667 0.000000
vt 0.066667 0.000000
vt 0.200000 0.000000
vt 0.133333 0.000000
vt 0.000000 0.000000
vt 0.466667 0.000000
vt 0.333333 0.000000
vt 0.400000 0.000000
vt 0.266667 0.000000
vt 0.200000 0.000000
vt 0.066667 0.000000
vt 0.133333 0.000000
vt 0.000000 0.000000
vt 0.000000 1.000000
vt 0.250000 1.000000
vt 0.250000 0.000000
vt 0.000000 0.000000
vt 0.500000 1.000000
vt 0.500000 0.000000
vt 0.750000 1.000000
vt 0.750000 0.000000
vt 1.000000 1.000000
vt 1.000000 0.000000
vt 0.000000 1.000000
vt 0.250000 1.000000
vt 0.250000 0.000000
vt 0.500000 1.000000
vt 0.500000 0.000000
vt 0.750000 1.000000
vt 0.750000 0.000000
vt 1.000000 1.000000
vt 1.000000 0.000000
vn 0.0000 -0.0002 1.0000
vn 0.0000 0.0002 -1.0000
vn 0.0000 -1.0000 -0.0002
vn -1.0000 -0.0000 0.0000
vn 0.0000 1.0000 0.0002
vn 1.0000 -0.0000 0.0000
vn 0.0000 -0.9884 0.1518
vn 0.0000 0.9883 0.1523
vn 0.9787 0.0000 0.2052
vn -0.9787 -0.0001 0.2052
usemtl Text.183
s 1
f 17/1/1 7/2/1 6/3/1
f 17/1/1 5/4/1 7/2/1
f 22/5/1 9/6/1 24/7/1
f 22/5/1 8/8/1 9/6/1
f 19/9/2 16/10/2 18/11/2
f 15/12/2 16/10/2 19/9/2
f 25/13/2 21/14/2 23/15/2
f 20/16/2 21/14/2 25/13/2
f 5/17/3 17/18/3 16/19/3 15/20/3
f 17/18/4 6/21/4 18/22/4 16/19/4
f 6/21/5 7/23/5 19/24/5 18/22/5
f 7/23/6 5/25/6 15/26/6 19/24/6
f 8/27/3 22/28/3 21/29/3 20/30/3
f 22/28/4 24/31/4 23/32/4 21/29/4
f 24/31/5 9/33/5 25/34/5 23/32/5
f 9/33/6 8/35/6 20/36/6 25/34/6
usemtl Outline.183
f 40/37/7 38/38/7 35/39/7 33/40/7
f 37/41/8 39/42/8 34/43/8 36/44/8
f 39/42/9 40/37/9 33/40/9 34/43/9
f 35/39/2 36/44/2 34/43/2 33/40/2
f 38/38/10 37/41/10 36/44/10 35/39/10
f 38/38/1 40/37/1 39/42/1 37/41/1
usemtl White.183
f 28/45/1 4/46/1 3/47/1
f 28/45/1 27/48/1 4/46/1
f 31/49/1 2/50/1 1/51/1
f 31/49/1 29/52/1 2/50/1
f 14/53/2 12/54/2 13/55/2
f 26/56/2 12/54/2 14/53/2
f 32/57/2 30/58/2 11/59/2
f 10/60/2 30/58/2 32/57/2
f 27/61/3 28/62/3 12/63/3 26/64/3
f 28/62/4 3/65/4 13/66/4 12/63/4
f 3/65/5 4/67/5 14/68/5 13/66/5
f 4/67/6 27/69/6 26/70/6 14/68/6
f 29/71/3 31/72/3 30/73/3 10/60/3
f 31/72/4 1/74/4 11/75/4 30/73/4
f 1/74/5 2/76/5 32/77/5 11/75/5
f 2/76/6 29/78/6 10/79/6 32/77/6
