# Blender v3.1.2 OBJ File: 'C-ARMSAS.blend'
# www.blender.org
mtllib CM_-_Ground_Main_Attack.mtl
o SM_CM_-_Ground_Main_Attack_mesh.025
v 0.038610 0.132513 0.051381
v 0.075198 0.132513 0.051381
v 0.006755 0.197066 0.051397
v -0.025100 0.132513 0.051381
v -0.061688 0.132513 0.051381
v -0.025100 -0.050426 0.051337
v 0.038610 -0.050426 0.051337
v 0.038610 -0.050428 0.058293
v -0.025100 -0.050428 0.058293
v -0.025100 0.132511 0.058338
v -0.061688 0.132511 0.058338
v 0.006755 0.197065 0.058354
v 0.075198 0.132511 0.058338
v 0.038610 0.132511 0.058338
v -0.020100 -0.045428 0.058295
v 0.033610 -0.045428 0.058295
v 0.033610 0.137511 0.058339
v 0.049306 0.137511 0.058339
v 0.055636 0.137511 0.058339
v 0.062609 0.137511 0.058339
v -0.049100 0.137511 0.058339
v 0.006755 0.190191 0.058352
v 0.006755 0.183614 0.058350
v -0.035797 0.137511 0.058339
v -0.042126 0.137511 0.058339
v 0.006755 0.177645 0.058349
v -0.020100 0.137511 0.058339
v 0.049306 0.137512 0.056979
v 0.006755 0.177645 0.056989
v -0.035797 0.137512 0.056979
v 0.033610 0.137512 0.056979
v -0.020100 0.137512 0.056979
v 0.033610 -0.045428 0.056935
v -0.020100 -0.045428 0.056935
v 0.062609 0.137512 0.056979
v 0.055636 0.137512 0.056979
v 0.006755 0.183615 0.056990
v 0.006755 0.190191 0.056992
v -0.042126 0.137512 0.056979
v -0.049100 0.137512 0.056979
vt 0.176939 0.432224
vt 0.176939 0.432224
vt 0.176939 0.432224
vt 0.176939 0.432224
vt 0.153567 0.432224
vt 0.153567 0.432224
vt 0.153567 0.432224
vt 0.146770 0.432224
vt 0.161855 0.458015
vt 0.161855 0.461695
vt 0.161855 0.461695
vt 0.144618 0.432224
vt 0.146770 0.432224
vt 0.148723 0.432224
vt 0.153567 0.432224
vt 0.161855 0.454676
vt 0.170142 0.432224
vt 0.174986 0.432224
vt 0.161855 0.454676
vt 0.170142 0.329885
vt 0.170142 0.432224
vt 0.161855 0.454676
vt 0.170142 0.329885
vt 0.153567 0.432224
vt 0.152024 0.429427
vt 0.140734 0.429427
vt 0.161855 0.465540
vt 0.171685 0.429427
vt 0.182976 0.429427
vt 0.152024 0.327088
vt 0.171685 0.327088
vt 0.171685 0.327088
vt 0.152024 0.429427
vt 0.152024 0.429427
vt 0.152024 0.327088
vt 0.152024 0.327088
vt 0.152024 0.327088
vt 0.152024 0.429427
vt 0.152024 0.429427
vt 0.140734 0.429427
vt 0.140734 0.429427
vt 0.140734 0.429427
vt 0.161855 0.465540
vt 0.161855 0.465540
vt 0.161855 0.465540
vt 0.182976 0.429427
vt 0.182976 0.429427
vt 0.161855 0.465540
vt 0.171685 0.429427
vt 0.171685 0.429427
vt 0.171685 0.327088
vt 0.171685 0.327088
vt 0.171685 0.429427
vt 0.152024 0.429427
vt 0.153567 0.329885
vt 0.153567 0.432224
vt 0.152024 0.429427
vt 0.146770 0.432224
vt 0.144618 0.432224
vt 0.144618 0.432224
vt 0.140734 0.429427
vt 0.152024 0.429427
vt 0.161855 0.454676
vt 0.174986 0.432224
vt 0.161855 0.458015
vt 0.161855 0.461695
vt 0.179091 0.432224
vt 0.161855 0.465540
vt 0.144618 0.432224
vt 0.161855 0.461695
vt 0.161855 0.465540
vt 0.140734 0.429427
vt 0.144618 0.432224
vt 0.182976 0.429427
vt 0.176939 0.432224
vt 0.174986 0.432224
vt 0.171685 0.429427
vt 0.182976 0.429427
vt 0.171685 0.327088
vt 0.171685 0.429427
vt 0.170142 0.432224
vt 0.171685 0.327088
vt 0.170142 0.329885
vt 0.153567 0.329885
vt 0.171685 0.327088
vt 0.153567 0.329885
vt 0.153567 0.329885
vt 0.152024 0.429427
vt 0.152024 0.327088
vt 0.161855 0.454676
vt 0.161855 0.454676
vt 0.161855 0.454676
vt 0.148723 0.432224
vt 0.148723 0.432224
vt 0.170142 0.432224
vt 0.174986 0.432224
vt 0.174986 0.432224
vt 0.170142 0.432224
vt 0.170142 0.329885
vt 0.170142 0.432224
vt 0.153567 0.329885
vt 0.153567 0.329885
vt 0.153567 0.432224
vt 0.161855 0.458015
vt 0.161855 0.458015
vt 0.179091 0.432224
vt 0.161855 0.461695
vt 0.179091 0.432224
vt 0.161855 0.458015
vt 0.161855 0.458015
vt 0.146770 0.432224
vt 0.161855 0.461695
vt 0.146770 0.432224
vt 0.144618 0.432224
vt 0.144618 0.432224
vt 0.171685 0.429427
vt 0.171685 0.429427
vt 0.171685 0.429427
vt 0.171685 0.429427
vt 0.171685 0.429427
vt 0.171685 0.429427
vt 0.171685 0.429427
vt 0.171685 0.429427
vt 0.171685 0.429427
vt 0.171685 0.429427
vt 0.171685 0.429427
vt 0.171685 0.429427
vt 0.171685 0.429427
vt 0.171685 0.429427
vt 0.171685 0.429427
vt 0.171685 0.429427
vt 0.171685 0.429427
vt 0.171685 0.429427
vt 0.171685 0.429427
vt 0.174986 0.432224
vt 0.174986 0.432224
vt 0.174986 0.432224
vt 0.174986 0.432224
vt 0.174986 0.432224
vt 0.174986 0.432224
vt 0.174986 0.432224
vt 0.174986 0.432224
vt 0.174986 0.432224
vt 0.179091 0.432224
vt 0.179091 0.432224
vt 0.179091 0.432224
vt 0.179091 0.432224
vt 0.179091 0.432224
vt 0.179091 0.432224
vt 0.179091 0.432224
vt 0.179091 0.432224
vt 0.179091 0.432224
vn 0.0000 -0.0002 1.0000
vn -0.0000 0.0002 -1.0000
vn -0.0000 1.0000 0.0002
vn 1.0000 0.0000 0.0000
vn 0.6861 -0.7275 -0.0002
vn -0.6861 -0.7275 -0.0002
vn -1.0000 -0.0000 -0.0000
vn 0.6861 0.7275 0.0002
vn -0.6861 0.7275 0.0002
vn 0.0000 -1.0000 -0.0002
usemtl Text.181
s 1
f 39/1/1 37/2/1 38/3/1
f 38/3/1 40/4/1 39/1/1
f 30/5/1 32/6/1 29/7/1
f 37/8/2 38/9/2 35/10/2
f 37/11/2 35/12/2 36/13/2
f 32/14/2 33/15/2 34/16/2
f 33/17/2 32/18/2 29/19/2
f 33/20/2 29/21/2 31/22/2
f 31/23/2 29/19/2 28/24/2
usemtl White.181
f 3/25/1 6/26/1 7/27/1
f 3/28/1 7/27/1 1/29/1
f 8/30/3 6/31/3 9/32/3
f 6/33/4 10/34/4 9/35/4
f 10/36/4 6/37/4 4/38/4
f 5/39/3 10/40/3 4/41/3
f 3/42/5 11/43/5 5/44/5
f 2/45/6 12/46/6 3/47/6
f 12/46/6 2/45/6 13/48/6
f 1/29/3 13/49/3 2/50/3
f 1/51/7 8/52/7 14/53/7
f 15/54/2 9/55/2 10/56/2
f 8/57/2 16/58/2 17/59/2
f 8/60/2 17/61/2 14/62/2
f 14/63/2 18/64/2 13/65/2
f 21/66/2 12/67/2 22/68/2
f 22/69/2 12/70/2 20/71/2
f 20/71/2 12/72/2 13/73/2
f 24/74/2 23/75/2 26/76/2
f 26/77/2 23/78/2 18/64/2
f 21/79/2 10/80/2 11/81/2
f 10/82/2 25/83/2 24/84/2
f 10/36/2 24/85/2 27/86/2
f 10/87/2 27/88/2 15/89/2
f 28/90/8 26/91/8 18/64/8
f 30/92/9 26/93/9 29/94/9
f 28/95/10 17/96/10 31/97/10
f 17/96/10 28/95/10 18/98/10
f 17/99/4 33/20/4 31/100/4
f 32/101/7 15/102/7 27/103/7
f 23/75/6 36/104/6 19/105/6
f 38/106/8 20/107/8 35/10/8
f 20/107/8 38/106/8 22/108/8
f 37/8/5 25/109/5 39/110/5
f 25/109/5 37/8/5 23/111/5
f 22/69/9 40/112/9 21/66/9
f 21/113/10 39/114/10 25/115/10
f 3/28/2 6/116/2 4/117/2
f 4/117/2 5/118/2 3/28/2
f 1/119/2 3/28/2 2/50/2
f 6/116/10 7/120/10 8/121/10
f 10/80/10 11/122/10 5/118/10
f 11/122/9 12/123/9 3/28/9
f 13/49/10 14/53/10 1/119/10
f 8/121/4 7/120/4 1/119/4
f 10/80/1 25/124/1 21/125/1
f 18/126/1 19/127/1 23/128/1
f 23/128/1 25/124/1 24/129/1
f 12/123/1 11/122/1 21/125/1
f 13/49/1 20/130/1 19/127/1
f 13/49/1 19/127/1 18/126/1
f 14/53/1 18/126/1 17/131/1
f 8/121/1 16/132/1 15/133/1
f 9/134/1 8/121/1 15/133/1
f 26/76/6 29/135/6 28/136/6
f 26/76/5 24/137/5 30/138/5
f 24/137/3 27/139/3 32/18/3
f 32/18/3 30/138/3 24/137/3
f 33/140/7 16/141/7 17/96/7
f 15/142/4 34/143/4 32/18/4
f 15/142/3 16/141/3 33/140/3
f 33/140/3 34/143/3 15/142/3
f 19/144/3 20/145/3 35/146/3
f 35/146/3 36/147/3 19/144/3
f 36/147/8 37/148/8 23/149/8
f 40/150/5 38/106/5 22/108/5
f 39/151/3 40/150/3 21/152/3
