# Blender v3.1.2 OBJ File: 'C-ARMSAS.blend'
# www.blender.org
mtllib CM_-_OP.mtl
o SM_CM_-_OP_path1763-2.093
v -0.008086 0.267743 0.119313
v 0.023599 0.268298 0.119313
v 0.139121 0.040183 0.119257
v 0.144289 0.029662 0.119255
v -0.100106 0.046928 0.119259
v 0.008182 0.253727 0.119309
v -0.008086 0.267775 -0.011948
v 0.023599 0.268330 -0.011948
v 0.139121 0.040215 -0.012003
v -0.121731 0.029694 -0.012006
v 0.119861 0.046960 -0.012001
v 0.008182 0.253759 -0.011951
v 0.144289 0.029694 -0.012006
v -0.121731 0.029662 0.119255
v 0.007236 0.253759 -0.011951
v 0.007236 0.253727 0.119309
v -0.100106 0.046960 -0.012001
v 0.119861 0.046928 0.119259
v 0.007704 0.300563 0.119321
v 0.007704 0.300595 -0.011940
v 0.007709 0.253727 0.119309
v 0.007709 0.253759 -0.011951
vt 0.062500 0.000000
vt 0.125000 0.000000
vt 0.093750 0.000000
vt 0.187500 0.000000
vt -0.039385 0.000000
vt 0.071476 0.000000
vt 0.218750 0.000000
vt 0.250000 0.000000
vt 0.156250 0.000000
vt 0.015625 0.000000
vt 0.071476 0.000000
vt 0.250000 0.000000
vt 0.203125 0.000000
vt 0.125000 0.000000
vt 0.062500 0.000000
vt 0.093750 0.000000
vt 0.187500 0.000000
vt -0.030330 0.000000
vt 0.218750 0.000000
vt 0.156250 0.000000
vt 0.100000 1.000000
vt 0.210437 1.000000
vt 0.210437 0.000000
vt 0.100000 0.000000
vt 0.400000 1.000000
vt 0.400000 0.000000
vt 0.600000 1.000000
vt 0.600000 0.000000
vt 0.800000 1.000000
vt 0.800000 0.000000
vt 0.997326 1.000000
vt 0.997327 0.000000
vt 0.000000 1.000000
vt 0.250000 1.000000
vt 0.250000 0.000000
vt 0.000000 0.000000
vt 0.500000 1.000000
vt 0.500000 0.000000
vt 0.750000 1.000000
vt 0.750000 0.000000
vt 0.875000 1.000000
vt 1.000000 1.000000
vt 1.000000 0.000000
vt 0.875000 0.000000
vt 0.015625 0.000000
vt 0.203125 0.000000
vt -0.014161 1.000000
vn 0.0000 -0.0002 1.0000
vn -0.0000 0.0002 -1.0000
vn 0.8971 0.4419 0.0001
vn 0.8946 0.4469 0.0001
vn 0.8948 0.4464 0.0001
vn 0.8975 0.4409 0.0001
vn -0.0000 -1.0000 -0.0002
vn -0.9025 0.4308 0.0001
vn -0.9018 0.4322 0.0001
vn 0.8876 -0.4607 -0.0001
vn 0.0000 1.0000 0.0002
vn -0.8799 -0.4752 -0.0001
vn -0.9011 0.4335 0.0001
usemtl White.191
s 1
f 3/1/1 14/2/1 4/3/1
f 3/1/1 5/4/1 14/2/1
f 5/4/1 1/5/1 14/2/1
f 2/6/1 18/7/1 3/1/1
f 18/7/1 5/4/1 3/1/1
f 2/6/1 6/8/1 18/7/1
f 16/9/1 1/5/1 5/4/1
f 20/10/2 8/11/2 12/12/2 22/13/2
f 10/14/2 9/15/2 13/16/2
f 17/17/2 9/15/2 10/14/2
f 7/18/2 17/17/2 10/14/2
f 11/19/2 8/11/2 9/15/2
f 17/17/2 11/19/2 9/15/2
f 12/12/2 8/11/2 11/19/2
f 7/18/2 15/20/2 17/17/2
f 19/21/3 2/22/4 8/23/4 20/24/3
f 2/22/4 3/25/5 9/26/5 8/23/4
f 3/25/5 4/27/6 13/28/6 9/26/5
f 4/27/7 14/29/7 10/30/7 13/28/7
f 14/29/8 1/31/9 7/32/9 10/30/8
f 16/33/10 5/34/10 17/35/10 15/36/10
f 5/34/11 18/37/11 11/38/11 17/35/11
f 18/37/12 6/39/12 12/40/12 11/38/12
f 21/41/7 16/42/7 15/43/7 22/44/7
f 19/45/1 1/5/1 16/9/1 21/46/1
f 2/6/1 19/45/1 21/46/1 6/8/1
f 6/39/7 21/41/7 22/44/7 12/40/7
f 1/47/9 19/21/13 20/24/13 7/18/9
f 7/18/2 20/10/2 22/13/2 15/20/2
