# Blender v3.1.2 OBJ File: 'C-ARMSAS.blend'
# www.blender.org
mtllib CM_-_T.mtl
o SM_CM_-_T_mesh.058
v -0.421378 0.314510 -0.048164
v 0.456837 0.424287 -0.048164
v -0.421378 0.424287 -0.048164
v -0.037160 0.314510 -0.048164
v 0.045173 0.314510 -0.048164
v -0.037159 -0.399039 -0.048164
v 0.456837 0.314510 -0.048164
v 0.045173 -0.399039 -0.048164
v -0.421378 0.424287 0.040675
v -0.421378 0.314510 0.040675
v 0.456837 0.424287 0.040675
v 0.456837 0.314510 0.040675
v 0.045173 0.314510 0.040675
v 0.045173 -0.399039 0.040675
v -0.037159 -0.399039 0.040675
v -0.037160 0.314510 0.040675
vt 0.577371 0.777762
vt 0.582209 0.853785
vt 0.582209 0.777762
vt 0.606404 0.865481
vt 0.606404 0.853785
vt 0.582209 0.853785
vt 0.606404 0.865481
vt 0.577371 0.853785
vt 0.554789 0.853785
vt 0.554789 0.865481
vt 0.554789 0.853785
vt 0.554789 0.853785
vt 0.554789 0.865481
vt 0.554789 0.865481
vt 0.606404 0.865481
vt 0.606404 0.865481
vt 0.554789 0.865481
vt 0.606404 0.865481
vt 0.606404 0.853785
vt 0.582209 0.853785
vt 0.606404 0.853785
vt 0.606404 0.853785
vt 0.582209 0.853785
vt 0.582209 0.853785
vt 0.582209 0.777762
vt 0.577371 0.777762
vt 0.582209 0.777762
vt 0.582209 0.777762
vt 0.577371 0.853785
vt 0.582209 0.853785
vt 0.606404 0.865481
vt 0.582209 0.853785
vt 0.582209 0.853785
vt 0.582209 0.853785
vt 0.582209 0.853785
vt 0.582209 0.853785
vt 0.582209 0.853785
vt 0.582209 0.853785
vt 0.582209 0.853785
vt 0.582209 0.853785
vn -0.0000 0.0000 1.0000
vn 1.0000 -0.0000 0.0000
vn 0.0000 -1.0000 0.0000
vn -1.0000 0.0000 0.0000
vn -0.0000 1.0000 0.0000
vn 0.0000 -0.0000 -1.0000
usemtl White.203
s 1
f 1/1/1 2/2/1 3/3/1
f 2/4/1 1/5/1 4/6/1
f 5/7/1 4/6/1 6/8/1
f 6/9/1 8/10/1 5/7/1
f 9/11/2 1/12/2 3/13/2
f 2/14/3 9/15/3 3/16/3
f 9/15/3 2/14/3 11/17/3
f 12/18/4 2/4/4 7/19/4
f 12/20/5 5/21/5 13/22/5
f 14/23/4 5/24/4 8/25/4
f 14/26/5 6/27/5 15/28/5
f 10/29/6 11/30/6 16/31/6
f 2/2/6 7/32/6 5/24/6
f 2/2/6 5/24/6 4/6/6
f 1/33/4 10/34/4 9/35/4
f 2/2/2 11/30/2 12/20/2
f 5/24/3 7/32/3 12/20/3
f 5/24/2 13/36/2 14/23/2
f 6/37/3 8/38/3 14/23/3
f 16/39/4 4/6/4 6/37/4
f 6/37/4 15/40/4 16/39/4
f 16/39/3 10/34/3 1/33/3
f 1/33/3 4/6/3 16/39/3
f 13/36/1 12/20/1 11/30/1
f 16/39/1 14/23/1 13/36/1
f 16/39/1 13/36/1 11/30/1
f 11/30/1 9/35/1 10/34/1
f 16/39/1 15/40/1 14/23/1
