# Blender v3.1.2 OBJ File: 'C-ARMSAS.blend'
# www.blender.org
mtllib CM_-_TAI.mtl
o SM_CM_-_TAI_path1763-2.269
v -0.243693 -0.141399 0.034439
v -0.243693 0.170245 0.034439
v 0.259363 0.170245 0.034439
v 0.248483 -0.130522 0.034439
v -0.232813 -0.130522 0.034439
v -0.176665 0.128922 0.034439
v -0.176665 0.098020 0.034439
v -0.180966 0.128922 0.034439
v -0.191919 0.128922 0.034439
v -0.137053 0.098020 0.034439
v -0.166325 0.098020 0.034439
v -0.154349 0.132913 0.034439
v -0.149029 0.132913 0.034439
v -0.127309 0.098020 0.034439
v -0.131610 0.132913 0.034439
v -0.127309 0.132913 0.034439
v -0.151739 0.128821 0.034439
v 0.259363 -0.141399 -0.048255
v -0.243693 0.164804 -0.048256
v 0.248483 -0.130522 -0.048255
v -0.232813 -0.130522 -0.048255
v -0.176665 0.128922 0.025190
v -0.176665 0.098020 0.025190
v -0.180966 0.098020 0.025190
v -0.180966 0.128922 0.025190
v -0.191919 0.128922 0.025190
v -0.154349 0.132913 0.025190
v -0.149029 0.132913 0.025190
v -0.131610 0.098020 0.025190
v -0.145960 0.111422 0.025190
v 0.259363 -0.141399 0.034439
v -0.243693 -0.141399 -0.048255
v -0.243693 0.164804 0.034439
v -0.243693 0.170245 -0.048256
v 0.259363 0.170245 -0.048256
v 0.248483 0.159368 -0.048256
v 0.248483 0.159368 0.034439
v -0.232813 0.159368 -0.048256
v -0.232813 0.159368 0.034439
v -0.165712 0.128922 0.025190
v -0.165712 0.128922 0.034439
v -0.180966 0.098020 0.034439
v -0.191919 0.132913 0.025190
v -0.191919 0.132913 0.034439
v -0.165712 0.132913 0.025190
v -0.165712 0.132913 0.034439
v -0.137053 0.098020 0.025190
v -0.141506 0.098020 0.025190
v -0.141506 0.098020 0.034439
v -0.144576 0.107330 0.025190
v -0.144576 0.107330 0.034439
v -0.158751 0.107330 0.025190
v -0.158751 0.107330 0.034439
v -0.161872 0.098020 0.025190
v -0.161872 0.098020 0.034439
v -0.166325 0.098020 0.025190
v -0.127309 0.098020 0.025190
v -0.131610 0.098020 0.034439
v -0.131610 0.132913 0.025190
v -0.127309 0.132913 0.025190
v -0.145960 0.111422 0.034439
v -0.151739 0.128821 0.025190
v -0.157424 0.111422 0.025190
v -0.157424 0.111422 0.034439
vt 0.437500 0.000000
vt 0.500000 0.000000
vt 0.468750 0.000000
vt 0.281250 0.000000
vt 0.687500 0.000000
vt 0.968750 0.000000
vt 0.718750 0.000000
vt 0.750000 0.000000
vt 0.937500 0.000000
vt 0.531250 0.000000
vt 0.812500 0.000000
vt 0.875000 0.000000
vt 0.843750 0.000000
vt 0.781250 0.000000
vt 0.406250 0.000000
vt 0.375000 0.000000
vt 0.312500 0.000000
vt 0.343750 0.000000
vt 1.000000 0.000000
vt 0.906250 0.000000
vt 0.625000 0.000000
vt 0.593750 0.000000
vt 0.656250 0.000000
vt 0.562500 0.000000
vt 0.500000 0.000000
vt 0.437500 0.000000
vt 0.468750 0.000000
vt 0.281250 0.000000
vt 0.968750 0.000000
vt 0.687500 0.000000
vt 0.718750 0.000000
vt 0.750000 0.000000
vt 0.531250 0.000000
vt 0.937500 0.000000
vt 0.875000 0.000000
vt 0.812500 0.000000
vt 0.843750 0.000000
vt 0.781250 0.000000
vt 0.406250 0.000000
vt 0.312500 0.000000
vt 0.375000 0.000000
vt 0.343750 0.000000
vt 1.000000 0.000000
vt 0.906250 0.000000
vt 0.625000 0.000000
vt 0.593750 0.000000
vt 0.656250 0.000000
vt 0.562500 0.000000
vt 0.000000 1.000000
vt 0.125000 1.000000
vt 0.125000 0.000000
vt 0.000000 0.000000
vt 0.250000 1.000000
vt 0.250000 0.000000
vt 0.375000 1.000000
vt 0.500000 1.000000
vt 0.500000 0.000000
vt 0.625000 1.000000
vt 0.625000 0.000000
vt 0.750000 1.000000
vt 0.750000 0.000000
vt 0.875000 1.000000
vt 0.875000 0.000000
vt 1.000000 1.000000
vt 1.000000 0.000000
vt 0.000000 1.000000
vt 0.125000 1.000000
vt 0.125000 0.000000
vt 0.000000 0.000000
vt 0.250000 1.000000
vt 0.250000 0.000000
vt 0.375000 1.000000
vt 0.375000 0.000000
vt 0.500000 1.000000
vt 0.500000 0.000000
vt 0.625000 1.000000
vt 0.625000 0.000000
vt 0.750000 1.000000
vt 0.750000 0.000000
vt 0.875000 1.000000
vt 0.875000 0.000000
vt 1.000000 1.000000
vt 1.000000 0.000000
vt 0.000000 1.000000
vt 0.250000 1.000000
vt 0.250000 0.000000
vt 0.000000 0.000000
vt 0.500000 1.000000
vt 0.500000 0.000000
vt 0.750000 1.000000
vt 0.750000 0.000000
vt 1.000000 1.000000
vt 1.000000 0.000000
vt 0.000000 1.000000
vt 0.250000 1.000000
vt 0.250000 0.000000
vt 0.000000 0.000000
vt 0.500000 1.000000
vt 0.750000 1.000000
vt 0.750000 0.000000
vt 0.500000 0.000000
vt 1.000000 1.000000
vt 1.000000 0.000000
vt 0.062500 0.000000
vt 0.125000 0.000000
vt 0.093750 0.000000
vt 0.187500 0.000000
vt 0.000000 0.000000
vt 0.031250 0.000000
vt 0.218750 0.000000
vt 0.250000 0.000000
vt 0.156250 0.000000
vt 0.125000 0.000000
vt 0.062500 0.000000
vt 0.093750 0.000000
vt 0.187500 0.000000
vt 0.000000 0.000000
vt 0.218750 0.000000
vt 0.031250 0.000000
vt 0.250000 0.000000
vt 0.156250 0.000000
vt 0.000000 1.000000
vt 0.200000 1.000000
vt 0.200000 0.000000
vt 0.400000 1.000000
vt 0.400000 0.000000
vt 0.600000 1.000000
vt 0.600000 0.000000
vt 0.800000 1.000000
vt 0.800000 0.000000
vt 1.000000 1.000000
vt 1.000000 0.000000
vt 0.000000 1.000000
vt 0.250000 1.000000
vt 0.250000 0.000000
vt 0.000000 0.000000
vt 0.500000 1.000000
vt 0.500000 0.000000
vt 0.750000 1.000000
vt 0.750000 0.000000
vt 1.000000 1.000000
vt 1.000000 0.000000
vn 0.0000 0.0000 1.0000
vn 0.0000 0.0000 -1.0000
vn 0.5774 -0.5774 -0.5774
vn 0.0000 -1.0000 0.0000
vn 1.0000 -0.0000 0.0000
vn -1.0000 -0.0000 0.0000
vn 0.0000 1.0000 0.0000
vn -0.9497 -0.3132 0.0000
vn 0.9481 -0.3178 0.0000
vn -0.9458 0.3246 0.0000
vn 0.9458 0.3246 0.0000
vn -0.9490 -0.3153 0.0000
vn 0.9505 -0.3106 0.0000
usemtl Text.204
s 1
f 9/1/1 46/2/1 44/3/1
f 9/1/1 41/4/1 46/2/1
f 11/5/1 17/6/1 12/7/1
f 17/6/1 13/8/1 12/7/1
f 17/9/1 10/10/1 13/8/1
f 58/11/1 16/12/1 15/13/1
f 58/11/1 14/14/1 16/12/1
f 8/15/1 41/4/1 9/1/1
f 42/16/1 6/17/1 8/15/1
f 6/17/1 41/4/1 8/15/1
f 42/16/1 7/18/1 6/17/1
f 11/5/1 64/19/1 17/6/1
f 61/20/1 10/10/1 17/9/1
f 11/5/1 53/21/1 64/19/1
f 53/21/1 61/20/1 64/19/1
f 53/21/1 51/22/1 61/20/1
f 51/22/1 10/10/1 61/20/1
f 11/5/1 55/23/1 53/21/1
f 49/24/1 10/10/1 51/22/1
f 45/25/2 26/26/2 43/27/2
f 40/28/2 26/26/2 45/25/2
f 62/29/2 56/30/2 27/31/2
f 28/32/2 62/29/2 27/31/2
f 47/33/2 62/34/2 28/32/2
f 60/35/2 29/36/2 59/37/2
f 57/38/2 29/36/2 60/35/2
f 40/28/3 25/39/1 26/26/1
f 22/40/2 24/41/2 25/39/2
f 40/28/3 22/40/2 25/39/1
f 23/42/2 24/41/2 22/40/2
f 63/43/2 56/30/2 62/29/2
f 47/33/2 30/44/2 62/34/2
f 52/45/2 56/30/2 63/43/2
f 30/44/2 52/45/2 63/43/2
f 50/46/2 52/45/2 30/44/2
f 47/33/2 50/46/2 30/44/2
f 54/47/2 56/30/2 52/45/2
f 47/33/2 48/48/2 50/46/2
f 41/49/4 6/50/4 22/51/4 40/52/4
f 6/50/5 7/53/5 23/54/5 22/51/5
f 7/53/4 42/55/4 24/41/4 23/54/4
f 42/55/6 8/56/6 25/57/6 24/41/6
f 8/56/4 9/58/4 26/59/4 25/57/4
f 9/58/6 44/60/6 43/61/6 26/59/6
f 44/60/7 46/62/7 45/63/7 43/61/7
f 46/62/5 41/64/5 40/65/5 45/63/5
f 10/66/4 49/67/4 48/68/4 47/69/4
f 49/67/8 51/70/8 50/71/8 48/68/8
f 51/70/4 53/72/4 52/73/4 50/71/4
f 53/72/9 55/74/9 54/75/9 52/73/9
f 55/74/4 11/76/4 56/77/4 54/75/4
f 11/76/10 12/78/10 27/79/10 56/77/10
f 12/78/7 13/80/7 28/81/7 27/79/7
f 13/80/11 10/82/11 47/83/11 28/81/11
f 14/84/4 58/85/4 29/86/4 57/87/4
f 58/85/6 15/88/6 59/89/6 29/86/6
f 15/88/7 16/90/7 60/91/7 59/89/7
f 16/90/5 14/92/5 57/93/5 60/91/5
f 61/94/12 17/95/12 62/96/12 30/97/12
f 17/98/13 64/99/13 63/100/13 62/101/13
f 64/99/7 61/102/7 30/103/7 63/100/7
usemtl White.204
f 33/104/1 3/105/1 2/106/1
f 33/104/1 37/107/1 3/105/1
f 37/107/1 31/108/1 3/105/1
f 1/109/1 39/110/1 33/104/1
f 39/110/1 37/107/1 33/104/1
f 1/109/1 5/111/1 39/110/1
f 4/112/1 31/108/1 37/107/1
f 1/109/1 4/112/1 5/111/1
f 1/109/1 31/108/1 4/112/1
f 35/113/2 19/114/2 34/115/2
f 36/116/2 19/114/2 35/113/2
f 18/117/2 36/116/2 35/113/2
f 38/118/2 32/119/2 19/114/2
f 36/116/2 38/118/2 19/114/2
f 21/120/2 32/119/2 38/118/2
f 18/117/2 20/121/2 36/116/2
f 20/121/2 32/119/2 21/120/2
f 18/117/2 32/119/2 20/121/2
f 31/122/4 1/123/4 32/124/4 18/117/4
f 1/123/6 33/125/6 19/126/6 32/124/6
f 33/125/6 2/127/6 34/128/6 19/126/6
f 2/127/7 3/129/7 35/130/7 34/128/7
f 3/129/5 31/131/5 18/132/5 35/130/5
f 4/133/6 37/134/6 36/135/6 20/136/6
f 37/134/4 39/137/4 38/138/4 36/135/4
f 39/137/5 5/139/5 21/140/5 38/138/5
f 5/139/7 4/141/7 20/142/7 21/140/7
