# Blender v3.1.2 OBJ File: 'C-ARMSAS.blend'
# www.blender.org
mtllib CM_-_Boxes.mtl
o SM_CM_-_Boxes_path1763-2.267
v 0.460003 0.011170 0.018767
v 0.046931 0.011170 0.018767
v -0.039252 0.011170 0.018767
v -0.467674 0.011170 0.018767
v -0.010588 0.008511 0.018767
v -0.018647 0.016738 0.018767
v -0.010588 0.016738 0.018767
v 0.004027 0.008511 0.018767
v 0.010586 0.016738 0.018767
v 0.046931 0.011170 -0.036390
v 0.460003 0.014076 -0.036390
v -0.467674 0.011170 -0.036390
v -0.018647 0.016738 0.012598
v -0.010588 0.016738 0.012598
v -0.004029 0.008511 0.012598
v 0.004027 0.016738 0.012598
v 0.010586 0.008511 0.012598
v -0.010588 0.008511 0.012598
v -0.018647 0.008511 0.012598
v -0.018647 0.008511 0.018767
v 0.004027 0.008511 0.012598
v -0.004029 0.008511 0.018767
v -0.004029 0.016738 0.012598
v -0.004029 0.016738 0.018767
v 0.004027 0.016738 0.018767
v 0.018642 0.008511 0.012598
v 0.018642 0.008511 0.018767
v 0.010586 0.008511 0.018767
v 0.010586 0.016738 0.012598
v 0.018642 0.016738 0.012598
v 0.018642 0.016738 0.018767
v -0.039252 0.011170 -0.036390
v -0.467674 0.014076 -0.036390
v -0.467674 0.014076 0.018767
v -0.039252 0.014076 -0.036390
v -0.039252 0.014076 0.018767
v 0.460003 0.011170 -0.036390
v 0.046931 0.014076 -0.036390
v 0.046931 0.014076 0.018767
v 0.460003 0.014076 0.018767
v 0.026828 -0.000893 0.010328
v 0.026826 0.025863 0.010328
v -0.026490 -0.000893 0.010328
v -0.026492 0.025863 0.010328
v -0.025634 0.025233 0.014421
v -0.025632 -0.000264 0.014421
v 0.025967 0.025233 0.014421
v 0.025969 -0.000264 0.014421
vt 0.473684 0.000000
vt 0.578947 0.000000
vt 0.526316 0.000000
vt 0.421053 0.000000
vt 0.684211 0.000000
vt 0.789474 0.000000
vt 0.736842 0.000000
vt 0.631579 0.000000
vt 0.894737 0.000000
vt 1.000000 0.000000
vt 0.947368 0.000000
vt 0.842105 0.000000
vt 0.578947 0.000000
vt 0.473684 0.000000
vt 0.526316 0.000000
vt 0.421053 0.000000
vt 0.789474 0.000000
vt 0.684211 0.000000
vt 0.736842 0.000000
vt 0.631579 0.000000
vt 1.000000 0.000000
vt 0.894737 0.000000
vt 0.947368 0.000000
vt 0.842105 0.000000
vt 0.000000 1.000000
vt 0.250000 1.000000
vt 0.250000 0.000000
vt 0.000000 0.000000
vt 0.500000 1.000000
vt 0.500000 0.000000
vt 0.750000 1.000000
vt 0.750000 0.000000
vt 1.000000 1.000000
vt 1.000000 0.000000
vt 0.000000 1.000000
vt 0.250000 1.000000
vt 0.250000 0.000000
vt 0.000000 0.000000
vt 0.500000 1.000000
vt 0.500000 0.000000
vt 0.750000 1.000000
vt 0.750000 0.000000
vt 1.000000 1.000000
vt 1.000000 0.000000
vt 0.000000 1.000000
vt 0.250000 1.000000
vt 0.250000 0.000000
vt 0.000000 0.000000
vt 0.500000 1.000000
vt 0.500000 0.000000
vt 0.750000 1.000000
vt 0.750000 0.000000
vt 1.000000 1.000000
vt 1.000000 0.000000
vt 0.000000 0.000000
vt 0.000000 0.000000
vt 0.000000 0.000000
vt 0.000000 0.000000
vt 0.000000 0.000000
vt 0.000000 0.000000
vt 0.000000 0.000000
vt 0.000000 0.000000
vt 0.263158 0.000000
vt 0.368421 0.000000
vt 0.315789 0.000000
vt 0.210526 0.000000
vt 0.052632 0.000000
vt 0.157895 0.000000
vt 0.105263 0.000000
vt 0.000000 0.000000
vt 0.368421 0.000000
vt 0.263158 0.000000
vt 0.315789 0.000000
vt 0.210526 0.000000
vt 0.157895 0.000000
vt 0.052632 0.000000
vt 0.105263 0.000000
vt 0.000000 0.000000
vt 0.000000 1.000000
vt 0.250000 1.000000
vt 0.250000 0.000000
vt 0.000000 0.000000
vt 0.500000 1.000000
vt 0.500000 0.000000
vt 0.750000 1.000000
vt 0.750000 0.000000
vt 1.000000 1.000000
vt 1.000000 0.000000
vt 0.000000 1.000000
vt 0.250000 1.000000
vt 0.250000 0.000000
vt 0.500000 1.000000
vt 0.500000 0.000000
vt 0.750000 1.000000
vt 0.750000 0.000000
vt 1.000000 1.000000
vt 1.000000 0.000000
vn 0.0000 0.0000 1.0000
vn 0.0000 0.0000 -1.0000
vn 0.0000 -1.0000 0.0000
vn -1.0000 0.0000 0.0000
vn 0.0000 1.0000 -0.0000
vn 1.0000 0.0000 0.0000
vn 0.0000 -0.9884 0.1520
vn 0.0000 0.9884 0.1520
vn 0.9787 0.0001 0.2052
vn -0.9787 -0.0001 0.2052
usemtl Text.163
s 1
f 20/1/1 7/2/1 6/3/1
f 20/1/1 5/4/1 7/2/1
f 22/5/1 25/6/1 24/7/1
f 22/5/1 8/8/1 25/6/1
f 28/9/1 31/10/1 9/11/1
f 28/9/1 27/12/1 31/10/1
f 14/13/2 19/14/2 13/15/2
f 18/16/2 19/14/2 14/13/2
f 16/17/2 15/18/2 23/19/2
f 21/20/2 15/18/2 16/17/2
f 30/21/2 17/22/2 29/23/2
f 26/24/2 17/22/2 30/21/2
f 5/25/3 20/26/3 19/27/3 18/28/3
f 20/26/4 6/29/4 13/30/4 19/27/4
f 6/29/5 7/31/5 14/32/5 13/30/5
f 7/31/6 5/33/6 18/34/6 14/32/6
f 8/35/3 22/36/3 15/37/3 21/38/3
f 22/36/4 24/39/4 23/40/4 15/37/4
f 24/39/5 25/41/5 16/42/5 23/40/5
f 25/41/6 8/43/6 21/44/6 16/42/6
f 27/45/3 28/46/3 17/47/3 26/48/3
f 28/46/4 9/49/4 29/50/4 17/47/4
f 9/49/5 31/51/5 30/52/5 29/50/5
f 31/51/6 27/53/6 26/54/6 30/52/6
usemtl Outline.163
f 48/55/7 46/56/7 43/57/7 41/58/7
f 45/59/8 47/60/8 42/61/8 44/62/8
f 47/60/9 48/55/9 41/58/9 42/61/9
f 43/57/2 44/62/2 42/61/2 41/58/2
f 46/56/10 45/59/10 44/62/10 43/57/10
f 46/56/1 48/55/1 47/60/1 45/59/1
usemtl White.163
f 4/63/1 36/64/1 34/65/1
f 4/63/1 3/66/1 36/64/1
f 2/67/1 40/68/1 39/69/1
f 2/67/1 1/70/1 40/68/1
f 35/71/2 12/72/2 33/73/2
f 32/74/2 12/72/2 35/71/2
f 11/75/2 10/76/2 38/77/2
f 37/78/2 10/76/2 11/75/2
f 3/79/3 4/80/3 12/81/3 32/82/3
f 4/80/4 34/83/4 33/84/4 12/81/4
f 34/83/5 36/85/5 35/86/5 33/84/5
f 36/85/6 3/87/6 32/88/6 35/86/6
f 1/89/3 2/90/3 10/91/3 37/78/3
f 2/90/4 39/92/4 38/93/4 10/91/4
f 39/92/5 40/94/5 11/95/5 38/93/5
f 40/94/6 1/96/6 37/97/6 11/95/6
