# Blender v3.1.2 OBJ File: 'C-ARMSAS.blend'
# www.blender.org
mtllib CM_-_Triton.mtl
o SM_CM_-_Triton_mesh.059
v -0.117754 -0.002341 -0.056966
v -0.096669 -0.002341 -0.056966
v -0.124882 0.054273 -0.056966
v -0.012330 0.081998 -0.056966
v -0.000302 0.135892 -0.056966
v -0.033415 0.081998 -0.056966
v -0.012330 -0.065595 -0.056966
v -0.134180 -0.001207 -0.056966
v -0.155264 -0.001207 -0.056966
v -0.134180 -0.082664 -0.056966
v -0.129379 -0.082664 -0.056966
v -0.117754 -0.065595 -0.056966
v -0.012330 -0.082664 -0.056966
v -0.012330 -0.198630 -0.056966
v 0.011032 -0.198630 -0.056966
v 0.011032 -0.082664 -0.056966
v 0.011032 0.081576 -0.056966
v 0.032116 0.081576 -0.056966
v 0.116455 0.168346 -0.056966
v 0.125658 0.223877 -0.056966
v 0.095370 0.168346 -0.056966
v 0.116455 -0.065595 -0.056966
v 0.134180 0.170353 -0.056966
v 0.155264 0.170353 -0.056966
v 0.011032 -0.065595 -0.056966
v 0.134180 -0.082664 -0.056966
v 0.155264 0.170353 0.036637
v 0.125658 0.223877 0.036637
v 0.134180 0.170353 0.036637
v 0.134180 -0.082664 0.036637
v 0.011032 -0.082664 0.036637
v 0.011032 -0.198630 0.036637
v -0.012330 -0.198630 0.036637
v -0.012330 -0.082664 0.036637
v -0.129379 -0.082664 0.036637
v -0.134180 -0.082664 0.036637
v -0.134180 -0.001207 0.036637
v -0.155264 -0.001207 0.036637
v -0.124882 0.054273 0.036637
v -0.096669 -0.002341 0.036637
v -0.117754 -0.002341 0.036637
v -0.117754 -0.065595 0.036637
v -0.012330 -0.065595 0.036637
v -0.012331 0.081998 0.036637
v -0.033415 0.081998 0.036637
v -0.000302 0.135892 0.036637
v 0.032116 0.081576 0.036637
v 0.011032 0.081576 0.036637
v 0.011032 -0.065595 0.036637
v 0.116455 -0.065595 0.036637
v 0.116455 0.168346 0.036637
v 0.095370 0.168346 0.036637
vt 0.677563 0.815991
vt 0.678971 0.896278
vt 0.680275 0.811257
vt 0.661434 0.815991
vt 0.680275 0.811257
vt 0.661434 0.811257
vt 0.661434 0.856810
vt 0.661434 0.815991
vt 0.677563 0.880876
vt 0.674337 0.880876
vt 0.678971 0.896278
vt 0.659700 0.871875
vt 0.664660 0.856810
vt 0.661434 0.856810
vt 0.661434 0.856810
vt 0.661434 0.811257
vt 0.659700 0.871875
vt 0.657859 0.815991
vt 0.661434 0.779094
vt 0.657859 0.779094
vt 0.657859 0.815991
vt 0.657859 0.779094
vt 0.657859 0.811257
vt 0.641730 0.815991
vt 0.640639 0.849237
vt 0.641730 0.833535
vt 0.641730 0.815991
vt 0.640639 0.849237
vt 0.641730 0.815991
vt 0.639951 0.811257
vt 0.639217 0.833850
vt 0.635991 0.833850
vt 0.640639 0.849237
vt 0.659700 0.871875
vt 0.657859 0.815991
vt 0.657859 0.856927
vt 0.654633 0.856927
vt 0.659700 0.871875
vt 0.680275 0.881433
vt 0.683501 0.881433
vt 0.683501 0.881433
vt 0.680275 0.811257
vt 0.680275 0.811257
vt 0.680275 0.881433
vt 0.680275 0.811257
vt 0.680275 0.811257
vt 0.661434 0.811257
vt 0.661434 0.779094
vt 0.657859 0.779094
vt 0.661434 0.779094
vt 0.639951 0.811257
vt 0.657859 0.811257
vt 0.657859 0.811257
vt 0.639951 0.811257
vt 0.639217 0.811257
vt 0.639217 0.811257
vt 0.639217 0.833850
vt 0.639217 0.833850
vt 0.639217 0.811257
vt 0.639217 0.811257
vt 0.639217 0.811257
vt 0.639217 0.833850
vt 0.639217 0.833850
vt 0.635991 0.833850
vt 0.635991 0.833850
vt 0.639217 0.833850
vt 0.640639 0.849237
vt 0.640639 0.849237
vt 0.635991 0.833850
vt 0.640639 0.849237
vt 0.640639 0.849237
vt 0.644956 0.833535
vt 0.644956 0.833535
vt 0.641730 0.833535
vt 0.641730 0.833535
vt 0.657859 0.815991
vt 0.657859 0.856927
vt 0.657859 0.856927
vt 0.654633 0.856927
vt 0.654633 0.856927
vt 0.657859 0.856927
vt 0.659700 0.871875
vt 0.659700 0.871875
vt 0.654633 0.856927
vt 0.664660 0.856810
vt 0.664660 0.856810
vt 0.664660 0.856810
vt 0.661434 0.856810
vt 0.661434 0.856810
vt 0.661434 0.856810
vt 0.661434 0.856810
vt 0.661434 0.815991
vt 0.661434 0.815991
vt 0.661434 0.815991
vt 0.661434 0.856810
vt 0.661434 0.815991
vt 0.677563 0.815991
vt 0.677563 0.815991
vt 0.661434 0.815991
vt 0.677563 0.880876
vt 0.677563 0.880876
vt 0.677563 0.815991
vt 0.674337 0.880876
vt 0.677563 0.880876
vt 0.677563 0.880876
vt 0.680275 0.881433
vt 0.683501 0.881433
vt 0.678971 0.896278
vt 0.680275 0.811257
vt 0.678971 0.896278
vt 0.677563 0.880876
vt 0.677563 0.880876
vt 0.677563 0.815991
vt 0.680275 0.811257
vt 0.677563 0.815991
vt 0.661434 0.815991
vt 0.661434 0.815991
vt 0.661434 0.811257
vt 0.680275 0.811257
vt 0.657859 0.811257
vt 0.657859 0.815991
vt 0.641730 0.815991
vt 0.639951 0.811257
vt 0.657859 0.811257
vt 0.641730 0.815991
vt 0.640639 0.849237
vt 0.635991 0.833850
vt 0.639217 0.833850
vt 0.654633 0.856927
vt 0.657859 0.856927
vt 0.659700 0.871875
vt 0.661434 0.811257
vt 0.661434 0.815991
vt 0.661434 0.856810
vt 0.661434 0.811257
vt 0.661434 0.856810
vt 0.659700 0.871875
vt 0.661434 0.779094
vt 0.661434 0.811257
vt 0.659700 0.871875
vt 0.639217 0.833850
vt 0.639217 0.811257
vt 0.639951 0.811257
vt 0.680275 0.881433
vt 0.680275 0.881433
vt 0.680275 0.881433
vt 0.680275 0.881433
vt 0.680275 0.881433
vt 0.680275 0.881433
vt 0.680275 0.881433
vt 0.680275 0.881433
vt 0.680275 0.881433
vt 0.680275 0.881433
vt 0.680275 0.881433
vt 0.680275 0.881433
vt 0.680275 0.881433
vt 0.680275 0.881433
vt 0.680275 0.881433
vt 0.680275 0.881433
vt 0.680275 0.881433
vt 0.680275 0.881433
vt 0.680275 0.881433
vt 0.680275 0.881433
vt 0.680275 0.881433
vt 0.680275 0.881433
vt 0.680275 0.881433
vt 0.680275 0.881433
vt 0.680275 0.881433
vt 0.680275 0.881433
vt 0.680275 0.881433
vt 0.680275 0.881433
vt 0.680275 0.881433
vt 0.680275 0.881433
vt 0.680275 0.881433
vt 0.680275 0.881433
vt 0.680275 0.881433
vt 0.680275 0.881433
vt 0.680275 0.881433
vt 0.680275 0.881433
vt 0.680275 0.881433
vt 0.680275 0.881433
vt 0.680275 0.881433
vt 0.680275 0.881433
vt 0.680275 0.881433
vt 0.680275 0.881433
vt 0.680275 0.881433
vt 0.680275 0.881433
vt 0.680275 0.881433
vt 0.680275 0.881433
vn 0.0000 0.0000 1.0000
vn 0.9983 0.0000 0.0576
vn -0.0000 1.0000 -0.0000
vn -1.0000 -0.0000 -0.0000
vn 1.0000 0.0000 0.0000
vn 0.8771 -0.4803 0.0000
vn -0.8950 -0.4460 0.0000
vn 0.8520 -0.5235 0.0000
vn -0.8587 -0.5125 0.0000
vn 0.0000 -1.0000 0.0000
vn 0.0000 -0.0000 -1.0000
vn 0.9934 -0.0000 -0.1145
vn 0.9958 0.0000 -0.0920
vn 0.8751 0.4840 0.0000
vn -0.8771 0.4803 -0.0000
vn 0.8950 0.4460 0.0000
vn -0.8520 0.5235 -0.0000
vn 0.8587 0.5125 -0.0000
vn -0.8779 0.4788 -0.0000
usemtl White.205
s 1
f 4/1/1 5/2/1 6/3/1
f 5/4/1 4/1/1 7/5/1
f 8/6/1 3/7/1 9/8/1
f 12/9/1 11/10/1 13/11/1
f 3/12/1 12/13/1 1/14/1
f 12/15/1 13/16/1 7/17/1
f 7/18/1 15/19/1 5/20/1
f 5/21/1 15/22/1 16/23/1
f 17/24/1 5/21/1 16/23/1
f 5/25/1 17/26/1 18/27/1
f 20/28/1 19/29/1 22/30/1
f 16/31/2 25/32/2 17/33/2
f 25/34/1 26/35/1 22/36/1
f 22/36/1 26/37/1 20/38/1
f 27/39/3 23/40/3 29/41/3
f 23/42/4 30/43/4 29/44/4
f 31/45/3 26/46/3 16/47/3
f 14/48/3 32/49/3 15/22/3
f 32/49/3 14/48/3 33/50/3
f 34/51/3 11/52/3 35/53/3
f 10/54/3 35/55/3 11/56/3
f 10/57/5 37/58/5 36/59/5
f 37/60/5 10/61/5 8/62/5
f 9/63/3 37/64/3 8/65/3
f 37/64/3 9/63/3 38/66/3
f 9/67/6 39/68/6 38/69/6
f 40/70/7 3/71/7 2/72/7
f 1/73/3 40/74/3 2/75/3
f 44/76/5 7/18/5 4/77/5
f 6/78/3 44/79/3 4/80/3
f 44/79/3 6/78/3 45/81/3
f 6/82/8 46/83/8 45/84/8
f 5/85/9 47/86/9 46/83/9
f 17/87/3 47/88/3 18/89/3
f 49/90/4 17/91/4 25/92/4
f 17/93/4 49/94/4 48/95/4
f 22/96/10 49/97/10 25/98/10
f 49/97/10 22/96/10 50/99/10
f 22/100/5 51/101/5 50/102/5
f 51/103/3 21/104/3 52/105/3
f 32/106/11 43/107/11 44/108/11
f 32/109/11 46/110/11 31/111/11
f 31/45/11 46/112/11 48/113/11
f 48/114/11 46/115/11 47/116/11
f 31/117/12 48/118/12 49/119/12
f 45/120/11 46/121/11 44/122/11
f 39/123/11 37/124/11 38/125/11
f 35/126/11 42/127/11 34/128/11
f 34/129/11 42/130/11 43/131/11
f 49/132/11 30/133/11 31/134/11
f 30/135/11 50/136/11 51/137/11
f 30/138/11 51/139/11 28/140/11
f 39/141/11 41/142/11 42/143/11
f 20/144/11 23/145/11 26/146/11
f 25/147/11 26/146/11 16/148/11
f 23/145/11 20/144/11 24/149/11
f 19/150/11 21/151/11 20/144/11
f 7/152/11 15/153/11 14/154/11
f 7/152/13 14/154/13 13/155/13
f 3/156/11 12/157/11 11/158/11
f 3/156/11 11/158/11 10/159/11
f 3/156/11 10/159/11 8/160/11
f 1/161/11 3/156/11 2/162/11
f 20/144/14 28/163/14 27/39/14
f 27/39/14 24/149/14 20/144/14
f 23/145/10 24/149/10 27/39/10
f 30/164/5 26/146/5 23/145/5
f 26/146/10 30/164/10 31/165/10
f 16/148/5 31/165/5 32/106/5
f 32/106/5 15/153/5 16/148/5
f 34/166/4 13/155/4 14/154/4
f 14/154/4 33/167/4 34/166/4
f 11/158/10 13/155/10 34/166/10
f 35/168/10 36/169/10 10/159/10
f 39/170/15 3/156/15 9/171/15
f 3/156/16 39/170/16 40/172/16
f 40/172/10 41/173/10 1/161/10
f 1/161/5 41/173/5 42/174/5
f 42/174/5 12/157/5 1/161/5
f 42/174/3 43/175/3 7/152/3
f 7/152/3 12/157/3 42/174/3
f 7/152/4 43/175/4 44/176/4
f 46/177/17 5/178/17 6/179/17
f 47/180/18 18/181/18 5/178/18
f 47/180/10 48/182/10 17/183/10
f 51/184/4 19/150/4 22/185/4
f 21/151/10 19/150/10 51/184/10
f 28/163/19 20/144/19 21/151/19
f 21/151/19 52/186/19 28/163/19
f 41/173/1 40/172/1 39/170/1
f 52/186/1 51/184/1 28/163/1
f 29/44/1 27/39/1 28/163/1
f 30/164/1 29/44/1 28/163/1
f 30/164/1 50/187/1 49/188/1
f 35/168/1 42/174/1 39/170/1
f 37/189/1 35/168/1 39/170/1
f 32/106/1 46/177/1 44/176/1
f 32/106/1 43/175/1 34/166/1
f 34/166/1 33/167/1 32/106/1
f 37/189/1 36/169/1 35/168/1
