# Blender v3.1.2 OBJ File: 'C-ARMSAS.blend'
# www.blender.org
mtllib CM_-_OP.mtl
o SM_CM_-_OP_path1763-2.282
v -0.031243 0.421962 0.049386
v 0.035462 0.423132 0.049386
v 0.278661 -0.057103 0.049386
v 0.289542 -0.079251 0.049386
v -0.224966 -0.042902 0.049386
v 0.003005 0.392456 0.049386
v -0.031243 0.421962 -0.051362
v 0.035462 0.423132 -0.051362
v 0.278661 -0.057103 -0.051362
v -0.270491 -0.079251 -0.051362
v 0.238115 -0.042902 -0.051362
v 0.003005 0.392456 -0.051362
v 0.289542 -0.079251 -0.051362
v -0.270491 -0.079251 0.049386
v 0.001013 0.392456 -0.051362
v 0.001013 0.392456 0.049386
v -0.224966 -0.042902 -0.051362
v 0.238115 -0.042902 0.049386
v 0.001999 0.491057 0.049386
v 0.001999 0.491057 -0.051362
v 0.002009 0.392456 0.049386
v 0.002009 0.392456 -0.051362
vt 0.062500 0.000000
vt 0.125000 0.000000
vt 0.093750 0.000000
vt 0.187500 0.000000
vt -0.039385 0.000000
vt 0.071476 0.000000
vt 0.218750 0.000000
vt 0.250000 0.000000
vt 0.156250 0.000000
vt 0.015625 0.000000
vt 0.071476 0.000000
vt 0.250000 0.000000
vt 0.203125 0.000000
vt 0.125000 0.000000
vt 0.062500 0.000000
vt 0.093750 0.000000
vt 0.187500 0.000000
vt -0.030330 0.000000
vt 0.218750 0.000000
vt 0.156250 0.000000
vt 0.100000 1.000000
vt 0.210437 1.000000
vt 0.210437 0.000000
vt 0.100000 0.000000
vt 0.400000 1.000000
vt 0.400000 0.000000
vt 0.600000 1.000000
vt 0.600000 0.000000
vt 0.800000 1.000000
vt 0.800000 0.000000
vt 0.997326 1.000000
vt 0.997327 0.000000
vt 0.000000 1.000000
vt 0.250000 1.000000
vt 0.250000 0.000000
vt 0.000000 0.000000
vt 0.500000 1.000000
vt 0.500000 0.000000
vt 0.750000 1.000000
vt 0.750000 0.000000
vt 0.875000 1.000000
vt 1.000000 1.000000
vt 1.000000 0.000000
vt 0.875000 0.000000
vt 0.015625 0.000000
vt 0.203125 0.000000
vt -0.014161 1.000000
vn 0.0000 0.0000 1.0000
vn -0.0000 -0.0000 -1.0000
vn 0.8971 0.4419 -0.0000
vn 0.8946 0.4469 -0.0000
vn 0.8948 0.4464 -0.0000
vn 0.8975 0.4409 -0.0000
vn -0.0000 -1.0000 0.0000
vn -0.9025 0.4308 0.0000
vn -0.9018 0.4322 0.0000
vn 0.8876 -0.4607 -0.0000
vn 0.0000 1.0000 -0.0000
vn -0.8799 -0.4752 0.0000
vn -0.9011 0.4335 0.0000
usemtl White.191
s 1
f 3/1/1 14/2/1 4/3/1
f 3/1/1 5/4/1 14/2/1
f 5/4/1 1/5/1 14/2/1
f 2/6/1 18/7/1 3/1/1
f 18/7/1 5/4/1 3/1/1
f 2/6/1 6/8/1 18/7/1
f 16/9/1 1/5/1 5/4/1
f 20/10/2 8/11/2 12/12/2 22/13/2
f 10/14/2 9/15/2 13/16/2
f 17/17/2 9/15/2 10/14/2
f 7/18/2 17/17/2 10/14/2
f 11/19/2 8/11/2 9/15/2
f 17/17/2 11/19/2 9/15/2
f 12/12/2 8/11/2 11/19/2
f 7/18/2 15/20/2 17/17/2
f 19/21/3 2/22/4 8/23/4 20/24/3
f 2/22/4 3/25/5 9/26/5 8/23/4
f 3/25/5 4/27/6 13/28/6 9/26/5
f 4/27/7 14/29/7 10/30/7 13/28/7
f 14/29/8 1/31/9 7/32/9 10/30/8
f 16/33/10 5/34/10 17/35/10 15/36/10
f 5/34/11 18/37/11 11/38/11 17/35/11
f 18/37/12 6/39/12 12/40/12 11/38/12
f 21/41/7 16/42/7 15/43/7 22/44/7
f 19/45/1 1/5/1 16/9/1 21/46/1
f 2/6/1 19/45/1 21/46/1 6/8/1
f 6/39/7 21/41/7 22/44/7 12/40/7
f 1/47/9 19/21/13 20/24/13 7/18/9
f 7/18/2 20/10/2 22/13/2 15/20/2
