# Blender v3.1.2 OBJ File: 'C-ARMSAS.blend'
# www.blender.org
mtllib CM_-_Anchor_OP.mtl
o SM_CM_-_Anchor_OP_path1763-2.273
v -0.031243 0.421962 0.049386
v 0.035462 0.423132 0.049386
v 0.278661 -0.057103 0.049386
v 0.289542 -0.079251 0.049386
v -0.224966 -0.042902 0.049386
v 0.003005 0.392456 0.049386
v -0.031243 0.421962 -0.051362
v 0.035462 0.423132 -0.051362
v 0.278661 -0.057103 -0.051362
v -0.270491 -0.079251 -0.051362
v 0.238115 -0.042902 -0.051362
v 0.003005 0.392456 -0.051362
v 0.289542 -0.079251 -0.051362
v -0.270491 -0.079251 0.049386
v 0.001013 0.392456 -0.051362
v 0.001013 0.392456 0.049386
v -0.224966 -0.042902 -0.051362
v 0.238115 -0.042902 0.049386
v 0.001999 0.491057 0.049386
v 0.001999 0.491057 -0.051362
v 0.002009 0.392456 0.049386
v 0.002009 0.392456 -0.051362
v 0.071641 0.059577 0.046715
v 0.054481 0.044468 0.046715
v 0.047587 0.040994 0.046715
v 0.024400 0.036277 0.046715
v 0.008571 0.038422 0.046715
v 0.001210 0.040994 0.046715
v -0.033201 0.080186 0.046715
v -0.034798 0.104083 0.046715
v -0.033201 0.111835 0.046715
v -0.030629 0.119194 0.046715
v -0.017788 0.138184 0.046715
v -0.012043 0.143243 0.046715
v 0.001210 0.151017 0.046715
v 0.016325 0.155184 0.046715
v 0.024400 0.155732 0.046715
v 0.054481 0.147545 0.046715
v 0.083585 0.104083 0.046715
v 0.024396 0.096008 0.046715
v 0.079418 0.072827 -0.048690
v 0.066581 0.053832 -0.048690
v 0.060837 0.048772 -0.048690
v 0.047587 0.040994 -0.048690
v 0.008571 0.038422 -0.048690
v -0.033201 0.111835 -0.048690
v -0.030629 0.119194 -0.048690
v -0.027154 0.126086 -0.048690
v -0.022850 0.132441 -0.048690
v -0.017788 0.138184 -0.048690
v -0.012043 0.143243 -0.048690
v 0.001210 0.151017 -0.048690
v 0.047587 0.151018 -0.048690
v 0.060837 0.143243 -0.048690
v 0.066581 0.138184 -0.048690
v 0.071641 0.132441 -0.048690
v 0.075944 0.126087 -0.048690
v 0.079418 0.119194 -0.048690
v 0.081989 0.111835 -0.048690
v 0.084133 0.096011 -0.048690
v 0.024396 0.096008 -0.048690
v 0.083585 0.087939 -0.048690
v 0.083585 0.087939 0.046715
v 0.081989 0.080186 -0.048690
v 0.081989 0.080186 0.046715
v 0.079418 0.072827 0.046715
v 0.075944 0.065933 -0.048690
v 0.075944 0.065933 0.046715
v 0.071641 0.059577 -0.048690
v 0.066581 0.053832 0.046715
v 0.060837 0.048772 0.046715
v 0.054481 0.044468 -0.048690
v 0.040227 0.038422 -0.048690
v 0.040227 0.038422 0.046715
v 0.032473 0.036826 -0.048690
v 0.032473 0.036826 0.046715
v 0.024400 0.036277 -0.048690
v 0.016326 0.036826 -0.048690
v 0.016326 0.036826 0.046715
v 0.001210 0.040994 -0.048690
v -0.005685 0.044468 -0.048690
v -0.005685 0.044468 0.046715
v -0.012042 0.048772 -0.048690
v -0.012042 0.048772 0.046715
v -0.017788 0.053832 -0.048690
v -0.017788 0.053832 0.046715
v -0.022850 0.059577 -0.048690
v -0.022850 0.059577 0.046715
v -0.027154 0.065932 -0.048690
v -0.027154 0.065932 0.046715
v -0.030629 0.072826 -0.048690
v -0.030629 0.072826 0.046715
v -0.033201 0.080186 -0.048690
v -0.034798 0.087938 -0.048690
v -0.034798 0.087938 0.046715
v -0.035346 0.096011 -0.048690
v -0.035346 0.096011 0.046715
v -0.034798 0.104083 -0.048690
v -0.027154 0.126086 0.046715
v -0.022850 0.132441 0.046715
v -0.005685 0.147545 -0.048690
v -0.005685 0.147545 0.046715
v 0.008571 0.153588 -0.048690
v 0.008571 0.153588 0.046715
v 0.016325 0.155184 -0.048690
v 0.024400 0.155732 -0.048690
v 0.032473 0.155184 -0.048690
v 0.032473 0.155184 0.046715
v 0.040227 0.153588 -0.048690
v 0.040227 0.153588 0.046715
v 0.047587 0.151018 0.046715
v 0.054481 0.147545 -0.048690
v 0.060837 0.143243 0.046715
v 0.066581 0.138184 0.046715
v 0.071641 0.132441 0.046715
v 0.075944 0.126087 0.046715
v 0.079418 0.119194 0.046715
v 0.081989 0.111835 0.046715
v 0.083585 0.104083 -0.048690
v 0.084133 0.096011 0.046715
vt 0.062500 0.000000
vt 0.125000 0.000000
vt 0.093750 0.000000
vt 0.187500 0.000000
vt -0.039385 0.000000
vt 0.071476 0.000000
vt 0.218750 0.000000
vt 0.250000 0.000000
vt 0.156250 0.000000
vt 0.015625 0.000000
vt 0.071476 0.000000
vt 0.250000 0.000000
vt 0.203125 0.000000
vt 0.125000 0.000000
vt 0.062500 0.000000
vt 0.093750 0.000000
vt 0.187500 0.000000
vt -0.030330 0.000000
vt 0.218750 0.000000
vt 0.156250 0.000000
vt 0.100000 1.000000
vt 0.210437 1.000000
vt 0.210437 0.000000
vt 0.100000 0.000000
vt 0.400000 1.000000
vt 0.400000 0.000000
vt 0.600000 1.000000
vt 0.600000 0.000000
vt 0.800000 1.000000
vt 0.800000 0.000000
vt 0.997326 1.000000
vt 0.997327 0.000000
vt 0.000000 1.000000
vt 0.250000 1.000000
vt 0.250000 0.000000
vt 0.000000 0.000000
vt 0.500000 1.000000
vt 0.500000 0.000000
vt 0.750000 1.000000
vt 0.750000 0.000000
vt 0.875000 1.000000
vt 1.000000 1.000000
vt 1.000000 0.000000
vt 0.875000 0.000000
vt 0.015625 0.000000
vt 0.203125 0.000000
vt -0.014161 1.000000
vt 0.120141 0.000000
vt 0.127208 0.000000
vt 0.123675 0.000000
vt 0.130742 0.000000
vt 0.116608 0.000000
vt 0.134276 0.000000
vt 0.113074 0.000000
vt 0.137809 0.000000
vt 0.109541 0.000000
vt 0.141343 0.000000
vt 0.106007 0.000000
vt 0.144876 0.000000
vt 0.102473 0.000000
vt 0.148410 0.000000
vt 0.098940 0.000000
vt 0.293286 0.000000
vt 0.289753 0.000000
vt 0.151943 0.000000
vt 0.095406 0.000000
vt 0.296820 0.000000
vt 0.275618 0.000000
vt 0.155477 0.000000
vt 0.091873 0.000000
vt 0.310954 0.000000
vt 0.268551 0.000000
vt 0.159011 0.000000
vt 0.088339 0.000000
vt 0.318021 0.000000
vt 0.261484 0.000000
vt 0.162544 0.000000
vt 0.084806 0.000000
vt 0.325088 0.000000
vt 0.254417 0.000000
vt 0.166078 0.000000
vt 0.081272 0.000000
vt 0.332155 0.000000
vt 0.077739 0.000000
vt 0.335689 0.000000
vt 0.247350 0.000000
vt 0.000000 0.000000
vt 0.243816 0.000000
vt 0.003534 0.000000
vt 0.074205 0.000000
vt 0.173145 0.000000
vt 0.236749 0.000000
vt 0.007067 0.000000
vt 0.070671 0.000000
vt 0.180212 0.000000
vt 0.229682 0.000000
vt 0.010601 0.000000
vt 0.067138 0.000000
vt 0.187279 0.000000
vt 0.222615 0.000000
vt 0.014134 0.000000
vt 0.063604 0.000000
vt 0.194346 0.000000
vt 0.208481 0.000000
vt 0.017668 0.000000
vt 0.060071 0.000000
vt 0.021201 0.000000
vt 0.056537 0.000000
vt 0.024735 0.000000
vt 0.053004 0.000000
vt 0.028269 0.000000
vt 0.049470 0.000000
vt 0.031802 0.000000
vt 0.045936 0.000000
vt 0.035336 0.000000
vt 0.042403 0.000000
vt 0.038869 0.000000
vt 0.127208 0.000000
vt 0.120141 0.000000
vt 0.123675 0.000000
vt 0.130742 0.000000
vt 0.116608 0.000000
vt 0.134276 0.000000
vt 0.113074 0.000000
vt 0.137809 0.000000
vt 0.109541 0.000000
vt 0.141343 0.000000
vt 0.106007 0.000000
vt 0.144876 0.000000
vt 0.102473 0.000000
vt 0.148410 0.000000
vt 0.098940 0.000000
vt 0.293286 0.000000
vt 0.151943 0.000000
vt 0.289753 0.000000
vt 0.296820 0.000000
vt 0.095406 0.000000
vt 0.155477 0.000000
vt 0.275618 0.000000
vt 0.310954 0.000000
vt 0.091873 0.000000
vt 0.159011 0.000000
vt 0.268551 0.000000
vt 0.318021 0.000000
vt 0.088339 0.000000
vt 0.162544 0.000000
vt 0.261484 0.000000
vt 0.325088 0.000000
vt 0.084806 0.000000
vt 0.166078 0.000000
vt 0.254417 0.000000
vt 0.332155 0.000000
vt 0.081272 0.000000
vt 0.335689 0.000000
vt 0.077739 0.000000
vt 0.000000 0.000000
vt 0.247350 0.000000
vt 0.003534 0.000000
vt 0.243816 0.000000
vt 0.173145 0.000000
vt 0.074205 0.000000
vt 0.007067 0.000000
vt 0.236749 0.000000
vt 0.180212 0.000000
vt 0.070671 0.000000
vt 0.010601 0.000000
vt 0.229682 0.000000
vt 0.187279 0.000000
vt 0.067138 0.000000
vt 0.014134 0.000000
vt 0.222615 0.000000
vt 0.194346 0.000000
vt 0.063604 0.000000
vt 0.208481 0.000000
vt 0.017668 0.000000
vt 0.060071 0.000000
vt 0.021201 0.000000
vt 0.056537 0.000000
vt 0.024735 0.000000
vt 0.053004 0.000000
vt 0.028269 0.000000
vt 0.049470 0.000000
vt 0.031802 0.000000
vt 0.045936 0.000000
vt 0.035336 0.000000
vt 0.042403 0.000000
vt 0.038869 0.000000
vt 0.000000 1.000000
vt 0.020833 1.000000
vt 0.020833 0.000000
vt 0.041667 1.000000
vt 0.041667 0.000000
vt 0.062500 1.000000
vt 0.062500 0.000000
vt 0.083333 1.000000
vt 0.083333 0.000000
vt 0.104167 1.000000
vt 0.104167 0.000000
vt 0.125000 1.000000
vt 0.125000 0.000000
vt 0.145833 1.000000
vt 0.145833 0.000000
vt 0.166667 1.000000
vt 0.166667 0.000000
vt 0.187500 1.000000
vt 0.187500 0.000000
vt 0.208333 1.000000
vt 0.208333 0.000000
vt 0.229167 1.000000
vt 0.229167 0.000000
vt 0.250000 1.000000
vt 0.250000 0.000000
vt 0.270833 1.000000
vt 0.270833 0.000000
vt 0.291667 1.000000
vt 0.291667 0.000000
vt 0.312500 1.000000
vt 0.312500 0.000000
vt 0.333333 1.000000
vt 0.333333 0.000000
vt 0.354167 1.000000
vt 0.354167 0.000000
vt 0.375000 1.000000
vt 0.375000 0.000000
vt 0.395833 1.000000
vt 0.395833 0.000000
vt 0.416667 1.000000
vt 0.416667 0.000000
vt 0.437500 1.000000
vt 0.437500 0.000000
vt 0.458333 1.000000
vt 0.458333 0.000000
vt 0.479167 1.000000
vt 0.479167 0.000000
vt 0.500000 1.000000
vt 0.500000 0.000000
vt 0.520833 1.000000
vt 0.520833 0.000000
vt 0.541667 1.000000
vt 0.541667 0.000000
vt 0.562500 1.000000
vt 0.562500 0.000000
vt 0.583333 1.000000
vt 0.583333 0.000000
vt 0.604167 1.000000
vt 0.604167 0.000000
vt 0.625000 1.000000
vt 0.625000 0.000000
vt 0.645833 1.000000
vt 0.645833 0.000000
vt 0.666667 1.000000
vt 0.666667 0.000000
vt 0.687500 1.000000
vt 0.687500 0.000000
vt 0.708333 1.000000
vt 0.708333 0.000000
vt 0.729167 1.000000
vt 0.729167 0.000000
vt 0.750000 1.000000
vt 0.750000 0.000000
vt 0.770833 1.000000
vt 0.770833 0.000000
vt 0.791667 1.000000
vt 0.791667 0.000000
vt 0.812500 1.000000
vt 0.812500 0.000000
vt 0.833333 1.000000
vt 0.833333 0.000000
vt 0.854167 1.000000
vt 0.854167 0.000000
vt 0.875000 1.000000
vt 0.875000 0.000000
vt 0.895833 1.000000
vt 0.895833 0.000000
vt 0.916667 1.000000
vt 0.916667 0.000000
vt 0.937500 1.000000
vt 0.937500 0.000000
vt 0.958333 1.000000
vt 0.958333 0.000000
vt 0.979167 1.000000
vt 0.979167 0.000000
vt 1.000000 1.000000
vt 1.000000 0.000000
vn 0.0000 0.0000 1.0000
vn -0.0000 -0.0000 -1.0000
vn 0.8971 0.4419 -0.0000
vn 0.8946 0.4469 -0.0000
vn 0.8948 0.4464 -0.0000
vn 0.8975 0.4409 -0.0000
vn -0.0000 -1.0000 0.0000
vn -0.9025 0.4308 0.0000
vn -0.9018 0.4322 0.0000
vn 0.8876 -0.4607 -0.0000
vn 0.0000 1.0000 -0.0000
vn -0.8799 -0.4752 0.0000
vn -0.9011 0.4335 0.0000
vn 0.9908 -0.1350 -0.0000
vn 0.9639 -0.2663 -0.0000
vn 0.9205 -0.3907 0.0000
vn 0.8623 -0.5063 0.0000
vn 0.7908 -0.6120 0.0000
vn 0.7071 -0.7071 0.0000
vn 0.6121 -0.7908 0.0000
vn 0.5064 -0.8623 0.0000
vn 0.3908 -0.9205 0.0000
vn 0.2664 -0.9639 0.0000
vn 0.1350 -0.9908 0.0000
vn -0.1350 -0.9908 0.0000
vn -0.2663 -0.9639 0.0000
vn -0.3907 -0.9205 0.0000
vn -0.5063 -0.8623 0.0000
vn -0.6120 -0.7909 0.0000
vn -0.7070 -0.7072 0.0000
vn -0.7907 -0.6122 0.0000
vn -0.8623 -0.5065 0.0000
vn -0.9205 -0.3908 0.0000
vn -0.9639 -0.2664 0.0000
vn -0.9908 -0.1351 0.0000
vn -1.0000 -0.0000 0.0000
vn -0.9908 0.1351 0.0000
vn -0.9639 0.2664 0.0000
vn -0.9204 0.3909 0.0000
vn -0.8622 0.5065 0.0000
vn -0.7907 0.6123 0.0000
vn -0.7069 0.7073 -0.0000
vn -0.6119 0.7910 -0.0000
vn -0.5062 0.8624 -0.0000
vn -0.3906 0.9206 -0.0000
vn -0.2662 0.9639 -0.0000
vn -0.1350 0.9909 -0.0000
vn 0.1350 0.9909 -0.0000
vn 0.2662 0.9639 -0.0000
vn 0.3906 0.9206 -0.0000
vn 0.5063 0.8624 -0.0000
vn 0.6120 0.7909 -0.0000
vn 0.7070 0.7072 -0.0000
vn 0.7907 0.6121 -0.0000
vn 0.8623 0.5064 -0.0000
vn 0.9205 0.3908 -0.0000
vn 0.9639 0.2663 -0.0000
vn 0.9908 0.1350 -0.0000
vn 1.0000 -0.0000 -0.0000
usemtl White.156
s 1
f 3/1/1 14/2/1 4/3/1
f 3/1/1 5/4/1 14/2/1
f 5/4/1 1/5/1 14/2/1
f 2/6/1 18/7/1 3/1/1
f 18/7/1 5/4/1 3/1/1
f 2/6/1 6/8/1 18/7/1
f 16/9/1 1/5/1 5/4/1
f 20/10/2 8/11/2 12/12/2 22/13/2
f 10/14/2 9/15/2 13/16/2
f 17/17/2 9/15/2 10/14/2
f 7/18/2 17/17/2 10/14/2
f 11/19/2 8/11/2 9/15/2
f 17/17/2 11/19/2 9/15/2
f 12/12/2 8/11/2 11/19/2
f 7/18/2 15/20/2 17/17/2
f 19/21/3 2/22/4 8/23/4 20/24/3
f 2/22/4 3/25/5 9/26/5 8/23/4
f 3/25/5 4/27/6 13/28/6 9/26/5
f 4/27/7 14/29/7 10/30/7 13/28/7
f 14/29/8 1/31/9 7/32/9 10/30/8
f 16/33/10 5/34/10 17/35/10 15/36/10
f 5/34/11 18/37/11 11/38/11 17/35/11
f 18/37/12 6/39/12 12/40/12 11/38/12
f 21/41/7 16/42/7 15/43/7 22/44/7
f 19/45/1 1/5/1 16/9/1 21/46/1
f 2/6/1 19/45/1 21/46/1 6/8/1
f 6/39/7 21/41/7 22/44/7 12/40/7
f 1/47/9 19/21/13 20/24/13 7/18/9
f 7/18/2 20/10/2 22/13/2 15/20/2
f 36/48/1 108/49/1 37/50/1
f 36/48/1 110/51/1 108/49/1
f 104/52/1 110/51/1 36/48/1
f 104/52/1 111/53/1 110/51/1
f 35/54/1 111/53/1 104/52/1
f 35/54/1 38/55/1 111/53/1
f 102/56/1 38/55/1 35/54/1
f 102/56/1 113/57/1 38/55/1
f 34/58/1 113/57/1 102/56/1
f 34/58/1 114/59/1 113/57/1
f 33/60/1 114/59/1 34/58/1
f 33/60/1 115/61/1 114/59/1
f 100/62/1 115/61/1 33/60/1
f 100/62/1 40/63/1 115/61/1
f 40/64/1 116/65/1 115/61/1
f 99/66/1 40/67/1 100/62/1
f 40/68/1 117/69/1 116/65/1
f 32/70/1 40/71/1 99/66/1
f 40/72/1 118/73/1 117/69/1
f 31/74/1 40/75/1 32/70/1
f 40/76/1 39/77/1 118/73/1
f 30/78/1 40/79/1 31/74/1
f 40/80/1 120/81/1 39/77/1
f 97/82/1 40/83/1 30/78/1
f 95/84/1 40/85/1 97/82/1
f 40/86/1 63/87/1 120/81/1
f 40/88/1 65/89/1 63/87/1
f 29/90/1 40/91/1 95/84/1
f 40/92/1 66/93/1 65/89/1
f 92/94/1 40/95/1 29/90/1
f 40/96/1 68/97/1 66/93/1
f 90/98/1 40/99/1 92/94/1
f 40/100/1 23/101/1 68/97/1
f 88/102/1 40/103/1 90/98/1
f 88/102/1 23/101/1 40/104/1
f 88/102/1 70/105/1 23/101/1
f 86/106/1 70/105/1 88/102/1
f 86/106/1 71/107/1 70/105/1
f 84/108/1 71/107/1 86/106/1
f 84/108/1 24/109/1 71/107/1
f 82/110/1 24/109/1 84/108/1
f 82/110/1 25/111/1 24/109/1
f 28/112/1 25/111/1 82/110/1
f 28/112/1 74/113/1 25/111/1
f 27/114/1 74/113/1 28/112/1
f 27/114/1 76/115/1 74/113/1
f 79/116/1 76/115/1 27/114/1
f 26/117/1 76/115/1 79/116/1
f 107/118/2 105/119/2 106/120/2
f 109/121/2 105/119/2 107/118/2
f 109/121/2 103/122/2 105/119/2
f 53/123/2 103/122/2 109/121/2
f 53/123/2 52/124/2 103/122/2
f 112/125/2 52/124/2 53/123/2
f 112/125/2 101/126/2 52/124/2
f 54/127/2 101/126/2 112/125/2
f 54/127/2 51/128/2 101/126/2
f 55/129/2 51/128/2 54/127/2
f 55/129/2 50/130/2 51/128/2
f 56/131/2 50/130/2 55/129/2
f 56/131/2 49/132/2 50/130/2
f 61/133/2 49/132/2 56/131/2
f 57/134/2 61/135/2 56/131/2
f 61/136/2 48/137/2 49/132/2
f 58/138/2 61/139/2 57/134/2
f 61/140/2 47/141/2 48/137/2
f 59/142/2 61/143/2 58/138/2
f 61/144/2 46/145/2 47/141/2
f 119/146/2 61/147/2 59/142/2
f 61/148/2 98/149/2 46/145/2
f 60/150/2 61/151/2 119/146/2
f 61/152/2 96/153/2 98/149/2
f 61/154/2 94/155/2 96/153/2
f 62/156/2 61/157/2 60/150/2
f 64/158/2 61/159/2 62/156/2
f 61/160/2 93/161/2 94/155/2
f 41/162/2 61/163/2 64/158/2
f 61/164/2 91/165/2 93/161/2
f 67/166/2 61/167/2 41/162/2
f 61/168/2 89/169/2 91/165/2
f 69/170/2 61/171/2 67/166/2
f 61/172/2 87/173/2 89/169/2
f 69/170/2 87/173/2 61/174/2
f 42/175/2 87/173/2 69/170/2
f 42/175/2 85/176/2 87/173/2
f 43/177/2 85/176/2 42/175/2
f 43/177/2 83/178/2 85/176/2
f 72/179/2 83/178/2 43/177/2
f 72/179/2 81/180/2 83/178/2
f 44/181/2 81/180/2 72/179/2
f 44/181/2 80/182/2 81/180/2
f 73/183/2 80/182/2 44/181/2
f 73/183/2 45/184/2 80/182/2
f 75/185/2 45/184/2 73/183/2
f 75/185/2 78/186/2 45/184/2
f 75/185/2 77/187/2 78/186/2
f 63/188/14 65/189/15 64/190/15 62/156/14
f 65/189/15 66/191/16 41/192/16 64/190/15
f 66/191/16 68/193/17 67/194/17 41/192/16
f 68/193/17 23/195/18 69/196/18 67/194/17
f 23/195/18 70/197/19 42/198/19 69/196/18
f 70/197/19 71/199/20 43/200/20 42/198/19
f 71/199/20 24/201/21 72/202/21 43/200/20
f 24/201/21 25/203/22 44/204/22 72/202/21
f 25/203/22 74/205/23 73/206/23 44/204/22
f 74/205/23 76/207/24 75/208/24 73/206/23
f 76/207/24 26/209/7 77/210/7 75/208/24
f 26/209/7 79/211/25 78/212/25 77/210/7
f 79/211/25 27/213/26 45/214/26 78/212/25
f 27/213/26 28/215/27 80/216/27 45/214/26
f 28/215/27 82/217/28 81/218/28 80/216/27
f 82/217/28 84/219/29 83/220/29 81/218/28
f 84/219/29 86/221/30 85/222/30 83/220/29
f 86/221/30 88/223/31 87/224/31 85/222/30
f 88/223/31 90/225/32 89/226/32 87/224/31
f 90/225/32 92/227/33 91/228/33 89/226/32
f 92/227/33 29/229/34 93/230/34 91/228/33
f 29/229/34 95/231/35 94/232/35 93/230/34
f 95/231/35 97/233/36 96/234/36 94/232/35
f 97/233/36 30/235/37 98/236/37 96/234/36
f 30/235/37 31/237/38 46/238/38 98/236/37
f 31/237/38 32/239/39 47/240/39 46/238/38
f 32/239/39 99/241/40 48/242/40 47/240/39
f 99/241/40 100/243/41 49/244/41 48/242/40
f 100/243/41 33/245/42 50/246/42 49/244/41
f 33/245/42 34/247/43 51/248/43 50/246/42
f 34/247/43 102/249/44 101/250/44 51/248/43
f 102/249/44 35/251/45 52/252/45 101/250/44
f 35/251/45 104/253/46 103/254/46 52/252/45
f 104/253/46 36/255/47 105/256/47 103/254/46
f 36/255/47 37/257/11 106/258/11 105/256/47
f 37/257/11 108/259/48 107/260/48 106/258/11
f 108/259/48 110/261/49 109/262/49 107/260/48
f 110/261/49 111/263/50 53/264/50 109/262/49
f 111/263/50 38/265/51 112/266/51 53/264/50
f 38/265/51 113/267/52 54/268/52 112/266/51
f 113/267/52 114/269/53 55/270/53 54/268/52
f 114/269/53 115/271/54 56/272/54 55/270/53
f 115/271/54 116/273/55 57/274/55 56/272/54
f 116/273/55 117/275/56 58/276/56 57/274/55
f 117/275/56 118/277/57 59/278/57 58/276/56
f 118/277/57 39/279/58 119/280/58 59/278/57
f 39/279/58 120/281/59 60/282/59 119/280/58
f 120/281/59 63/283/14 62/284/14 60/282/59
