# Blender v3.1.2 OBJ File: 'C-ARMSAS.blend'
# www.blender.org
mtllib CM_-_Bridge.mtl
o SM_CM_-_Bridge_mesh.064
v -0.176841 -0.032259 -0.051070
v -0.167027 -0.018898 -0.051070
v 0.176840 -0.032259 -0.051070
v 0.167027 -0.018898 -0.051070
v -0.273099 -0.197307 -0.051070
v -0.283253 -0.188414 -0.051070
v -0.164426 -0.042718 -0.051070
v 0.164426 -0.042717 -0.051070
v 0.273099 -0.197307 -0.051070
v 0.283253 -0.188414 -0.051070
v 0.167027 -0.018898 0.038214
v 0.176840 -0.032259 0.038214
v 0.283253 -0.188414 0.038215
v 0.273099 -0.197307 0.038215
v 0.164426 -0.042717 0.038214
v -0.164426 -0.042718 0.038214
v -0.273099 -0.197307 0.038214
v -0.283253 -0.188414 0.038214
v -0.176841 -0.032259 0.038214
v -0.167027 -0.018898 0.038214
v -0.176841 0.071925 -0.051071
v -0.167027 0.058564 -0.051071
v 0.176840 0.071925 -0.051070
v 0.167027 0.058564 -0.051070
v -0.273099 0.236973 -0.051071
v -0.283253 0.228080 -0.051071
v -0.164426 0.082383 -0.051071
v 0.164426 0.082383 -0.051070
v 0.273099 0.236973 -0.051071
v 0.283253 0.228080 -0.051071
v 0.167027 0.058564 0.038214
v 0.176840 0.071925 0.038214
v 0.283253 0.228080 0.038214
v 0.273099 0.236973 0.038214
v 0.164426 0.082383 0.038214
v -0.164426 0.082383 0.038214
v -0.273099 0.236973 0.038214
v -0.283253 0.228080 0.038214
v -0.176841 0.071925 0.038214
v -0.167027 0.058564 0.038214
vt 0.405519 0.653073
vt 0.413698 0.631333
vt 0.412526 0.628438
vt 0.404330 0.650158
vt 0.405519 0.653073
vt 0.411767 0.655128
vt 0.411767 0.650158
vt 0.405519 0.653073
vt 0.454791 0.628438
vt 0.454791 0.628438
vt 0.467507 0.594610
vt 0.453307 0.626173
vt 0.453307 0.626173
vt 0.466294 0.592684
vt 0.453307 0.626173
vt 0.414009 0.626173
vt 0.414009 0.626173
vt 0.453307 0.626173
vt 0.401023 0.592684
vt 0.401023 0.592684
vt 0.414009 0.626173
vt 0.401023 0.592684
vt 0.399809 0.594610
vt 0.399809 0.594610
vt 0.412526 0.628438
vt 0.412526 0.628438
vt 0.399809 0.594610
vt 0.399809 0.594610
vt 0.399809 0.594610
vt 0.412526 0.628438
vt 0.466294 0.592684
vt 0.453618 0.631333
vt 0.453307 0.626173
vt 0.453618 0.631333
vt 0.413698 0.631333
vt 0.404330 0.650158
vt 0.404330 0.650158
vt 0.404330 0.650158
vt 0.404330 0.650158
vt 0.404330 0.650158
vt 0.404330 0.650158
vt 0.404330 0.650158
vt 0.404330 0.650158
vt 0.404330 0.650158
vt 0.404330 0.650158
vt 0.404330 0.650158
vt 0.404330 0.650158
vt 0.404330 0.650158
vt 0.404330 0.650158
vt 0.404330 0.650158
vt 0.404330 0.650158
vt 0.404330 0.650158
vt 0.404330 0.650158
vt 0.404330 0.650158
vt 0.405519 0.653073
vt 0.413698 0.631333
vt 0.412526 0.628438
vt 0.404330 0.650158
vt 0.405519 0.653073
vt 0.411767 0.655128
vt 0.411767 0.650158
vt 0.405519 0.653073
vt 0.454791 0.628438
vt 0.454791 0.628438
vt 0.467507 0.594610
vt 0.453307 0.626173
vt 0.453307 0.626173
vt 0.466294 0.592684
vt 0.453307 0.626173
vt 0.414009 0.626173
vt 0.414009 0.626173
vt 0.453307 0.626173
vt 0.401023 0.592684
vt 0.401023 0.592684
vt 0.414009 0.626173
vt 0.401023 0.592684
vt 0.399809 0.594610
vt 0.399809 0.594610
vt 0.412526 0.628438
vt 0.412526 0.628438
vt 0.399809 0.594610
vt 0.399809 0.594610
vt 0.399809 0.594610
vt 0.412526 0.628438
vt 0.466294 0.592684
vt 0.453618 0.631333
vt 0.453307 0.626173
vt 0.453618 0.631333
vt 0.413698 0.631333
vt 0.404330 0.650158
vt 0.404330 0.650158
vt 0.404330 0.650158
vt 0.404330 0.650158
vt 0.404330 0.650158
vt 0.404330 0.650158
vt 0.404330 0.650158
vt 0.404330 0.650158
vt 0.404330 0.650158
vt 0.404330 0.650158
vt 0.404330 0.650158
vt 0.404330 0.650158
vt 0.404330 0.650158
vt 0.404330 0.650158
vt 0.404330 0.650158
vt 0.404330 0.650158
vt 0.404330 0.650158
vt 0.404330 0.650158
vt 0.404330 0.650158
vn -0.0000 0.0000 1.0000
vn -0.8264 -0.5631 0.0000
vn 0.8181 0.5751 -0.0000
vn -0.0000 1.0000 -0.0000
vn -0.8181 0.5751 -0.0000
vn 0.6589 0.7523 -0.0000
vn 0.8264 -0.5631 0.0000
vn 0.8163 -0.5776 0.0000
vn 0.0000 -0.0000 -1.0000
vn 0.8161 0.5779 -0.0021
vn 0.8163 0.5776 -0.0000
vn 0.8264 0.5631 -0.0000
vn 0.6589 -0.7523 0.0000
vn -0.8181 -0.5751 0.0000
vn 0.8181 -0.5751 0.0000
vn -0.6589 -0.7523 0.0000
vn 0.8160 0.5780 -0.0000
vn 0.8060 0.5920 -0.0000
vn 0.8163 0.5777 -0.0000
vn 0.8060 -0.5920 0.0000
vn -0.6589 0.7523 0.0000
vn -0.8163 -0.5776 0.0000
vn -0.8167 0.5771 0.0063
vn -0.8163 0.5776 -0.0000
vn -0.8264 0.5631 0.0000
vn -0.8160 0.5780 -0.0000
vn -0.8060 0.5920 -0.0000
vn -0.8163 0.5777 -0.0000
vn -0.8060 -0.5920 0.0000
usemtl White.170
s 1
f 2/1/1 7/2/1 4/3/1
f 4/3/1 7/4/1 8/5/1
f 4/6/1 8/7/1 9/8/1
f 13/9/2 3/10/2 10/11/2
f 9/12/3 15/13/3 14/14/3
f 7/15/4 15/16/4 8/17/4
f 15/16/4 7/15/4 16/18/4
f 7/19/5 17/20/5 16/21/5
f 6/22/6 17/23/6 5/24/6
f 6/25/7 19/26/8 18/27/7
f 19/28/8 6/29/7 1/30/8
f 16/18/9 19/31/9 20/32/9
f 16/21/9 20/33/9 11/34/9
f 16/21/9 11/34/9 15/35/9
f 3/36/9 10/37/9 9/38/9
f 4/39/9 3/36/9 9/38/9
f 1/40/9 2/41/9 7/4/9
f 1/40/9 7/4/9 5/42/9
f 5/42/9 6/43/9 1/40/9
f 3/36/10 12/44/11 13/45/12
f 13/45/13 14/46/13 9/38/13
f 9/38/13 10/37/13 13/45/13
f 15/47/14 8/48/14 9/38/14
f 17/49/15 5/42/15 7/4/15
f 17/49/16 18/50/16 6/43/16
f 20/51/4 11/52/4 4/39/4
f 4/39/4 2/41/4 20/51/4
f 14/46/1 13/45/1 12/44/1
f 14/46/1 12/44/1 11/52/1
f 15/47/1 14/46/1 11/52/1
f 17/49/1 16/53/1 19/54/1
f 19/54/1 18/50/1 17/49/1
f 3/36/17 4/39/18 11/52/18 12/44/19
f 19/31/8 1/40/8 2/41/20 20/32/20
f 22/55/9 27/56/9 24/57/9
f 24/57/9 27/58/9 28/59/9
f 24/60/9 28/61/9 29/62/9
f 33/63/7 23/64/7 30/65/7
f 29/66/5 35/67/5 34/68/5
f 27/69/4 35/70/4 28/71/4
f 35/70/4 27/69/4 36/72/4
f 27/73/3 37/74/3 36/75/3
f 26/76/21 37/77/21 25/78/21
f 26/79/2 39/80/22 38/81/2
f 39/82/22 26/83/2 21/84/22
f 36/72/1 39/85/1 40/86/1
f 36/75/1 40/87/1 31/88/1
f 36/75/1 31/88/1 35/89/1
f 23/90/1 30/91/1 29/92/1
f 24/93/1 23/90/1 29/92/1
f 21/94/1 22/95/1 27/58/1
f 21/94/1 27/58/1 25/96/1
f 25/96/1 26/97/1 21/94/1
f 23/90/23 32/98/24 33/99/25
f 33/99/16 34/100/16 29/92/16
f 29/92/16 30/91/16 33/99/16
f 35/101/15 28/102/15 29/92/15
f 37/103/14 25/96/14 27/58/14
f 37/103/13 38/104/13 26/97/13
f 40/105/4 31/106/4 24/93/4
f 24/93/4 22/95/4 40/105/4
f 34/100/9 33/99/9 32/98/9
f 34/100/9 32/98/9 31/106/9
f 35/101/9 34/100/9 31/106/9
f 37/103/9 36/107/9 39/108/9
f 39/108/9 38/104/9 37/103/9
f 23/90/26 24/93/27 31/106/27 32/98/28
f 39/85/22 21/94/22 22/95/29 40/86/29
